<svg width="569" height="116" viewBox="0 0 569 116" fill="none" xmlns="http://www.w3.org/2000/svg">
<path d="M37.994 93.105C33.0827 93.105 28.5398 92.2456 24.3651 90.5266C20.2519 88.8076 16.6298 86.4134 13.4988 83.3438C10.3679 80.2742 7.94292 76.7135 6.22396 72.6617C4.505 68.5485 3.64552 64.1283 3.64552 59.4011C3.64552 54.6126 4.505 50.1924 6.22396 46.1406C7.94292 42.0888 10.3372 38.5587 13.4068 35.5506C16.4763 32.481 20.0677 30.1174 24.181 28.4598C28.3556 26.7409 32.8985 25.8814 37.8099 25.8814C42.6598 25.8814 47.1414 26.7409 51.2546 28.4598C55.4292 30.1174 59.0513 32.481 62.1209 35.5506C65.2518 38.5587 67.6768 42.1194 69.3958 46.2327C71.1147 50.2845 71.9742 54.7047 71.9742 59.4932C71.9742 64.2204 71.1147 68.6406 69.3958 72.7538C67.6768 76.8056 65.2825 80.3663 62.213 83.4359C59.1434 86.4441 55.5213 88.8076 51.3467 90.5266C47.2334 92.2456 42.7826 93.105 37.994 93.105ZM37.8099 79.9366C41.6775 79.9366 45.0541 79.0771 47.9395 77.3581C50.8862 75.6392 53.1577 73.2449 54.7539 70.1753C56.3501 67.0444 57.1482 63.453 57.1482 59.4011C57.1482 56.3316 56.6877 53.569 55.7669 51.1133C54.846 48.5962 53.5261 46.4475 51.8071 44.6672C50.0882 42.8254 48.0315 41.4441 45.6373 40.5233C43.3044 39.541 40.6953 39.0499 37.8099 39.0499C33.9422 39.0499 30.535 39.9094 27.5882 41.6283C24.7028 43.2859 22.462 45.6495 20.8658 48.719C19.2696 51.7272 18.4716 55.2879 18.4716 59.4011C18.4716 62.4707 18.932 65.264 19.8529 67.7811C20.7737 70.2981 22.063 72.4775 23.7205 74.3193C25.4395 76.0996 27.4961 77.4809 29.8904 78.4632C32.2846 79.4454 34.9245 79.9366 37.8099 79.9366ZM86.6772 92V26.9865H96.8068L101.135 39.9707V92H86.6772ZM131.524 92L93.2154 42.9175L96.8068 26.9865L135.115 76.0689L131.524 92ZM131.524 92L127.656 79.0157V26.9865H142.114V92H131.524ZM160.189 92V26.9865H174.646V92H160.189ZM171.239 92V79.4761H206.877V92H171.239ZM171.239 64.8343V52.7709H203.654V64.8343H171.239ZM171.239 39.4182V26.9865H206.416V39.4182H171.239Z" fill="#0A5BE8"/>
<path d="M252.049 93.013C247.199 93.013 242.687 92.1842 238.512 90.5266C234.399 88.8076 230.777 86.4134 227.646 83.3438C224.577 80.2742 222.182 76.7135 220.463 72.6617C218.744 68.5485 217.885 64.1283 217.885 59.4011C217.885 54.674 218.744 50.2845 220.463 46.2327C222.182 42.1194 224.577 38.5587 227.646 35.5506C230.716 32.5424 234.307 30.2095 238.42 28.5519C242.595 26.833 247.107 25.9735 251.957 25.9735C257.114 25.9735 261.688 26.8023 265.678 28.4598C269.73 30.1174 273.26 32.3889 276.268 35.2743L266.599 45.0355C264.88 43.1938 262.793 41.7511 260.337 40.7074C257.943 39.6638 255.15 39.142 251.957 39.142C249.133 39.142 246.524 39.6331 244.13 40.6154C241.797 41.5362 239.771 42.8868 238.052 44.6672C236.394 46.4475 235.075 48.5962 234.092 51.1133C233.171 53.6303 232.711 56.393 232.711 59.4011C232.711 62.4707 233.171 65.264 234.092 67.7811C235.075 70.2981 236.394 72.4468 238.052 74.2272C239.771 76.0075 241.797 77.3888 244.13 78.3711C246.524 79.3534 249.133 79.8445 251.957 79.8445C255.272 79.8445 258.158 79.3227 260.613 78.279C263.069 77.2354 265.187 75.7927 266.967 73.9509L276.729 83.7122C273.598 86.5976 270.006 88.869 265.954 90.5266C261.964 92.1842 257.329 93.013 252.049 93.013ZM290.215 92V26.9865H304.673V92H290.215ZM301.358 92V79.292H333.496V92H301.358ZM347.359 92V26.9865H361.817V92H347.359ZM379.863 92V26.9865H394.321V92H379.863ZM390.914 92V79.4761H426.552V92H390.914ZM390.914 64.8343V52.7709H423.329V64.8343H390.914ZM390.914 39.4182V26.9865H426.091V39.4182H390.914ZM442.044 92V26.9865H452.173L456.501 39.9707V92H442.044ZM486.89 92L448.582 42.9175L452.173 26.9865L490.482 76.0689L486.89 92ZM486.89 92L483.023 79.0157V26.9865H497.48V92H486.89ZM531.486 92V27.9073H545.944V92H531.486ZM511.135 39.6024V26.9865H566.295V39.6024H511.135Z" fill="#0048C5"/>
</svg>
