<svg width="528" height="189" viewBox="0 0 528 189" fill="none" xmlns="http://www.w3.org/2000/svg">
<g clip-path="url(#clip0_276_576)">
<g clip-path="url(#clip1_276_576)">
<g filter="url(#filter0_b_276_576)">
<rect y="153" width="256" height="36" fill="#192126"/>
</g>
<g filter="url(#filter1_b_276_576)">
<rect y="49" width="256" height="140" fill="#131B21"/>
</g>
<g filter="url(#filter2_b_276_576)">
<rect y="153" width="256" height="36" fill="#2B4BFF"/>
</g>
<path d="M14.518 171.114C14.518 170.162 14.7373 169.308 15.176 168.552C15.624 167.796 16.226 167.208 16.982 166.788C17.7473 166.359 18.5827 166.144 19.488 166.144C20.524 166.144 21.4433 166.401 22.246 166.914C23.058 167.418 23.646 168.137 24.01 169.07H22.092C21.84 168.557 21.49 168.174 21.042 167.922C20.594 167.67 20.076 167.544 19.488 167.544C18.844 167.544 18.27 167.689 17.766 167.978C17.262 168.267 16.8653 168.683 16.576 169.224C16.296 169.765 16.156 170.395 16.156 171.114C16.156 171.833 16.296 172.463 16.576 173.004C16.8653 173.545 17.262 173.965 17.766 174.264C18.27 174.553 18.844 174.698 19.488 174.698C20.076 174.698 20.594 174.572 21.042 174.32C21.49 174.068 21.84 173.685 22.092 173.172H24.01C23.646 174.105 23.058 174.824 22.246 175.328C21.4433 175.832 20.524 176.084 19.488 176.084C18.5733 176.084 17.738 175.874 16.982 175.454C16.226 175.025 15.624 174.432 15.176 173.676C14.7373 172.92 14.518 172.066 14.518 171.114ZM29.8681 168.16C30.4561 168.16 30.9788 168.286 31.4361 168.538C31.9028 168.79 32.2668 169.163 32.5281 169.658C32.7988 170.153 32.9341 170.75 32.9341 171.45V176H31.3521V171.688C31.3521 170.997 31.1795 170.47 30.8341 170.106C30.4888 169.733 30.0175 169.546 29.4201 169.546C28.8228 169.546 28.3468 169.733 27.9921 170.106C27.6468 170.47 27.4741 170.997 27.4741 171.688V176H25.8781V165.64H27.4741V169.182C27.7448 168.855 28.0855 168.603 28.4961 168.426C28.9161 168.249 29.3735 168.16 29.8681 168.16ZM34.4379 172.108C34.4379 171.333 34.5966 170.647 34.9139 170.05C35.2406 169.453 35.6793 168.991 36.2299 168.664C36.7899 168.328 37.4059 168.16 38.0779 168.16C38.6846 168.16 39.2119 168.281 39.6599 168.524C40.1173 168.757 40.4813 169.051 40.7519 169.406V168.286H42.3619V176H40.7519V174.852C40.4813 175.216 40.1126 175.519 39.6459 175.762C39.1793 176.005 38.6473 176.126 38.0499 176.126C37.3873 176.126 36.7806 175.958 36.2299 175.622C35.6793 175.277 35.2406 174.801 34.9139 174.194C34.5966 173.578 34.4379 172.883 34.4379 172.108ZM40.7519 172.136C40.7519 171.604 40.6399 171.142 40.4159 170.75C40.2013 170.358 39.9166 170.059 39.5619 169.854C39.2073 169.649 38.8246 169.546 38.4139 169.546C38.0033 169.546 37.6206 169.649 37.2659 169.854C36.9113 170.05 36.6219 170.344 36.3979 170.736C36.1833 171.119 36.0759 171.576 36.0759 172.108C36.0759 172.64 36.1833 173.107 36.3979 173.508C36.6219 173.909 36.9113 174.217 37.2659 174.432C37.6299 174.637 38.0126 174.74 38.4139 174.74C38.8246 174.74 39.2073 174.637 39.5619 174.432C39.9166 174.227 40.2013 173.928 40.4159 173.536C40.6399 173.135 40.7519 172.668 40.7519 172.136ZM46.3202 169.588V173.858C46.3202 174.147 46.3855 174.357 46.5162 174.488C46.6562 174.609 46.8895 174.67 47.2162 174.67H48.1962V176H46.9362C46.2175 176 45.6669 175.832 45.2842 175.496C44.9015 175.16 44.7102 174.614 44.7102 173.858V169.588H43.8002V168.286H44.7102V166.368H46.3202V168.286H48.1962V169.588H46.3202ZM51.5292 169.588V173.858C51.5292 174.147 51.5945 174.357 51.7252 174.488C51.8652 174.609 52.0985 174.67 52.4252 174.67H53.4052V176H52.1452C51.4265 176 50.8759 175.832 50.4932 175.496C50.1105 175.16 49.9192 174.614 49.9192 173.858V169.588H49.0092V168.286H49.9192V166.368H51.5292V168.286H53.4052V169.588H51.5292ZM55.6882 167.264C55.3988 167.264 55.1562 167.166 54.9602 166.97C54.7642 166.774 54.6662 166.531 54.6662 166.242C54.6662 165.953 54.7642 165.71 54.9602 165.514C55.1562 165.318 55.3988 165.22 55.6882 165.22C55.9682 165.22 56.2062 165.318 56.4022 165.514C56.5982 165.71 56.6962 165.953 56.6962 166.242C56.6962 166.531 56.5982 166.774 56.4022 166.97C56.2062 167.166 55.9682 167.264 55.6882 167.264ZM56.4722 168.286V176H54.8762V168.286H56.4722ZM62.4596 168.16C63.0662 168.16 63.6076 168.286 64.0836 168.538C64.5689 168.79 64.9469 169.163 65.2176 169.658C65.4882 170.153 65.6236 170.75 65.6236 171.45V176H64.0416V171.688C64.0416 170.997 63.8689 170.47 63.5236 170.106C63.1782 169.733 62.7069 169.546 62.1096 169.546C61.5122 169.546 61.0362 169.733 60.6816 170.106C60.3362 170.47 60.1636 170.997 60.1636 171.688V176H58.5676V168.286H60.1636V169.168C60.4249 168.851 60.7562 168.603 61.1576 168.426C61.5682 168.249 62.0022 168.16 62.4596 168.16ZM70.7674 168.16C71.3647 168.16 71.892 168.281 72.3494 168.524C72.816 168.757 73.18 169.051 73.4414 169.406V168.286H75.0514V176.126C75.0514 176.835 74.902 177.465 74.6034 178.016C74.3047 178.576 73.8707 179.015 73.3014 179.332C72.7414 179.649 72.0694 179.808 71.2854 179.808C70.24 179.808 69.372 179.561 68.6814 179.066C67.9907 178.581 67.5987 177.918 67.5054 177.078H69.0874C69.2087 177.479 69.4654 177.801 69.8574 178.044C70.2587 178.296 70.7347 178.422 71.2854 178.422C71.9294 178.422 72.4474 178.226 72.8394 177.834C73.2407 177.442 73.4414 176.873 73.4414 176.126V174.838C73.1707 175.202 72.802 175.51 72.3354 175.762C71.878 176.005 71.3554 176.126 70.7674 176.126C70.0954 176.126 69.4794 175.958 68.9194 175.622C68.3687 175.277 67.93 174.801 67.6034 174.194C67.286 173.578 67.1274 172.883 67.1274 172.108C67.1274 171.333 67.286 170.647 67.6034 170.05C67.93 169.453 68.3687 168.991 68.9194 168.664C69.4794 168.328 70.0954 168.16 70.7674 168.16ZM73.4414 172.136C73.4414 171.604 73.3294 171.142 73.1054 170.75C72.8907 170.358 72.606 170.059 72.2514 169.854C71.8967 169.649 71.514 169.546 71.1034 169.546C70.6927 169.546 70.31 169.649 69.9554 169.854C69.6007 170.05 69.3114 170.344 69.0874 170.736C68.8727 171.119 68.7654 171.576 68.7654 172.108C68.7654 172.64 68.8727 173.107 69.0874 173.508C69.3114 173.909 69.6007 174.217 69.9554 174.432C70.3194 174.637 70.702 174.74 71.1034 174.74C71.514 174.74 71.8967 174.637 72.2514 174.432C72.606 174.227 72.8907 173.928 73.1054 173.536C73.3294 173.135 73.4414 172.668 73.4414 172.136Z" fill="white"/>
<path d="M234.74 165C237.089 165 238.666 167.235 238.666 169.32C238.666 173.543 232.118 177 232 177C231.881 177 225.333 173.543 225.333 169.32C225.333 167.235 226.911 165 229.259 165C230.607 165 231.489 165.683 232 166.283C232.511 165.683 233.392 165 234.74 165Z" fill="#D5DBFF" stroke="#D5DBFF" stroke-width="1.6" stroke-linecap="round" stroke-linejoin="round"/>
<g clip-path="url(#clip2_276_576)">
<path d="M121.27 121.097H107.334C103.683 121.097 100.001 118.32 100.001 112.117V99.7684C100.051 94.1395 102.153 88.7232 105.914 84.5412C109.672 80.3569 114.829 77.6955 120.411 77.0585C120.934 77.0205 121.47 77.0023 122.004 77.0023H122.09C120.348 78.4296 119.025 80.3035 118.261 82.4243C114.442 83.4457 111.065 85.6971 108.648 88.8316C106.232 91.9661 104.911 95.81 104.89 99.7706V112.119C104.89 113.076 105.066 116.199 107.332 116.199H121.269C125.659 116.176 129.89 114.548 133.168 111.621C136.445 108.694 138.545 104.67 139.072 100.302C139.101 99.9065 139.115 99.4954 139.116 99.0801H144.005C144.005 99.6016 143.986 100.128 143.95 100.646C143.314 106.242 140.655 111.412 136.475 115.179C132.298 118.946 126.89 121.051 121.27 121.097V121.097Z" fill="#DFE3EC"/>
<path d="M146.99 95.6635H129.949C128.167 95.6636 126.425 95.1342 124.943 94.1423C123.462 93.1503 122.307 91.7405 121.625 90.0909C120.943 88.4414 120.765 86.6263 121.113 84.8752C121.46 83.124 122.318 81.5155 123.578 80.253C124.413 79.4122 125.406 78.7455 126.499 78.2917C127.593 77.8379 128.765 77.6059 129.949 77.6092H146.99C148.772 77.609 150.514 78.1383 151.995 79.1301C153.477 80.1219 154.632 81.5317 155.314 83.1811C155.996 84.8306 156.174 86.6457 155.827 88.3968C155.479 90.148 154.621 91.7565 153.362 93.0191C152.527 93.8602 151.534 94.527 150.44 94.981C149.347 95.4349 148.174 95.6669 146.99 95.6635V95.6635ZM129.281 82.4883C127.366 82.4883 125.81 84.3491 125.81 86.6358C125.81 88.9225 127.367 90.7833 129.281 90.7833H147.66C149.574 90.7833 151.131 88.923 151.131 86.6358C151.131 84.3485 149.574 82.4883 147.66 82.4883H129.281V82.4883Z" fill="#E0E9FB"/>
<path opacity="0.7" d="M133.629 125.001H137.707C140.41 124.997 143.002 123.92 144.913 122.005C146.825 120.089 147.9 117.492 147.903 114.784V110.697C147.903 110.155 147.688 109.636 147.306 109.253C146.923 108.869 146.405 108.654 145.864 108.654C145.323 108.654 144.805 108.869 144.422 109.253C144.04 109.636 143.825 110.155 143.825 110.697V114.784C143.825 115.589 143.667 116.386 143.359 117.13C143.052 117.874 142.601 118.549 142.033 119.119C141.465 119.688 140.791 120.139 140.048 120.447C139.306 120.756 138.511 120.914 137.707 120.914H133.629C133.088 120.914 132.57 121.129 132.187 121.512C131.805 121.896 131.59 122.415 131.59 122.957C131.59 123.499 131.805 124.019 132.187 124.402C132.57 124.785 133.088 125.001 133.629 125.001V125.001Z" fill="#E0E9FB"/>
</g>
<rect x="217" y="55" width="30" height="76" rx="15" fill="#11171C" fill-opacity="0.75"/>
<rect x="217.5" y="55.5" width="29" height="75" rx="14.5" stroke="white" stroke-opacity="0.05"/>
<path d="M238.474 65.9753L231.589 65.638L240 65.632V64.954H230.517L230.517 66.3726V67.5006C230.517 67.5213 230.24 65.8373 230.177 65.366H229.431V67.736C229.431 67.7586 229.112 65.7553 229.078 65.5053H224C224.346 65.8046 226.256 67.4333 227.614 68.1033C228.295 68.4386 229.129 68.4413 229.873 68.462C230.25 68.4733 230.645 68.502 230.928 68.7813C231.339 69.188 231.43 69.8193 231.076 70.2966C230.727 70.7686 229.742 70.8706 229.742 70.8706L228.921 71.8773V73.046H230.787L230.845 71.8913L232.457 70.7473C232.285 70.8853 231.901 71.2539 231.324 72.1419C231.193 72.3426 231.092 72.562 231.013 72.7773C231.419 72.432 232.257 72.196 233.223 72.196C234.189 72.196 235.025 72.4319 235.433 72.7759C235.353 72.554 235.249 72.3416 235.122 72.1426C234.545 71.254 234.161 70.8853 233.989 70.748L235.601 71.8913L235.659 73.046H237.4V71.8773L236.58 70.8713C236.58 70.8713 235.365 70.794 235.047 70.2966C234.132 68.8653 235.432 66.6433 238.474 65.9753Z" fill="#D5DBFF"/>
<g clip-path="url(#clip3_276_576)">
<path d="M239.516 91.0191C239.541 91.0653 239.564 91.1128 239.584 91.1615C239.789 91.6491 239.887 92.1739 239.874 92.7019C239.861 93.2298 239.737 93.7492 239.509 94.2262L237.81 97.3058C237.291 96.4863 236.589 95.7967 235.758 95.2908C235.779 95.2571 235.798 95.2223 235.815 95.1866C237.315 92.0077 235.758 87.8092 232 87.8712C228.176 87.8041 226.664 92.0799 228.231 95.3008C227.404 95.8064 226.705 96.4942 226.189 97.3109C226.177 97.2853 226.011 96.9855 225.783 96.5746C225.228 95.576 224.308 93.9195 224.355 93.9336C224.039 93.0666 224.046 92.1159 224.374 91.2534C224.394 91.1984 224.418 91.1446 224.444 91.0924C224.459 91.0634 224.474 91.0353 224.488 91.0076L226.911 86.6105C226.914 86.6052 226.918 86.5997 226.92 86.5941C226.923 86.5886 226.926 86.5833 226.93 86.5782C227.429 85.7077 228.612 85 229.576 85H234.418C234.967 85.0056 235.504 85.1582 235.973 85.4416C236.441 85.7251 236.824 86.1289 237.081 86.6105C237.087 86.6179 237.929 88.1446 238.62 89.3961C239.098 90.2636 239.503 90.9992 239.508 91.005L239.516 91.0191Z" fill="#D5DBFF"/>
<path d="M229.772 95.8692C231.045 96.5846 232.973 96.5823 234.217 95.8646C234.724 96.096 235.173 96.4366 235.532 96.8618C235.89 97.2869 236.149 97.7858 236.29 98.3226C235.782 98.7068 235.175 98.94 234.539 98.9952C234.5 98.9991 234.46 99.0006 234.421 98.9998C234.388 98.9998 233.729 98.9998 232.904 98.9998H232.861C231.447 98.9998 229.577 99.0018 229.516 98.9972C228.861 98.9547 228.233 98.7196 227.712 98.3218C227.85 97.7867 228.107 97.2889 228.464 96.8647C228.82 96.4405 229.267 96.1004 229.772 95.8692V95.8692Z" fill="#D5DBFF"/>
<path d="M234.392 92.0023C234.475 95.2852 229.523 95.2826 229.607 92.0023C229.561 88.7007 234.435 88.7007 234.392 92.0023Z" fill="#D5DBFF"/>
</g>
<path d="M238 111.5L229.75 119.75L226 116" stroke="#D5DBFF" stroke-width="1.5" stroke-linecap="round" stroke-linejoin="round"/>
</g>
<rect x="0.5" y="49.5" width="255" height="139" rx="7.5" stroke="white" stroke-opacity="0.05"/>
<g clip-path="url(#clip4_276_576)">
<g filter="url(#filter3_b_276_576)">
<rect x="272" y="153" width="256" height="36" fill="#192126"/>
</g>
<g filter="url(#filter4_b_276_576)">
<rect x="272" y="49" width="256" height="140" fill="#131B21"/>
</g>
<g filter="url(#filter5_b_276_576)">
<rect x="272" y="153" width="256" height="36" fill="#2B4BFF"/>
</g>
<path d="M286.518 171.114C286.518 170.162 286.737 169.308 287.176 168.552C287.624 167.796 288.226 167.208 288.982 166.788C289.747 166.359 290.583 166.144 291.488 166.144C292.524 166.144 293.443 166.401 294.246 166.914C295.058 167.418 295.646 168.137 296.01 169.07H294.092C293.84 168.557 293.49 168.174 293.042 167.922C292.594 167.67 292.076 167.544 291.488 167.544C290.844 167.544 290.27 167.689 289.766 167.978C289.262 168.267 288.865 168.683 288.576 169.224C288.296 169.765 288.156 170.395 288.156 171.114C288.156 171.833 288.296 172.463 288.576 173.004C288.865 173.545 289.262 173.965 289.766 174.264C290.27 174.553 290.844 174.698 291.488 174.698C292.076 174.698 292.594 174.572 293.042 174.32C293.49 174.068 293.84 173.685 294.092 173.172H296.01C295.646 174.105 295.058 174.824 294.246 175.328C293.443 175.832 292.524 176.084 291.488 176.084C290.573 176.084 289.738 175.874 288.982 175.454C288.226 175.025 287.624 174.432 287.176 173.676C286.737 172.92 286.518 172.066 286.518 171.114ZM299.474 169.406C299.707 169.014 300.015 168.711 300.398 168.496C300.79 168.272 301.252 168.16 301.784 168.16V169.812H301.378C300.753 169.812 300.277 169.971 299.95 170.288C299.633 170.605 299.474 171.156 299.474 171.94V176H297.878V168.286H299.474V169.406ZM302.719 172.108C302.719 171.333 302.878 170.647 303.195 170.05C303.522 169.453 303.961 168.991 304.511 168.664C305.071 168.328 305.687 168.16 306.359 168.16C306.966 168.16 307.493 168.281 307.941 168.524C308.399 168.757 308.763 169.051 309.033 169.406V168.286H310.643V176H309.033V174.852C308.763 175.216 308.394 175.519 307.927 175.762C307.461 176.005 306.929 176.126 306.331 176.126C305.669 176.126 305.062 175.958 304.511 175.622C303.961 175.277 303.522 174.801 303.195 174.194C302.878 173.578 302.719 172.883 302.719 172.108ZM309.033 172.136C309.033 171.604 308.921 171.142 308.697 170.75C308.483 170.358 308.198 170.059 307.843 169.854C307.489 169.649 307.106 169.546 306.695 169.546C306.285 169.546 305.902 169.649 305.547 169.854C305.193 170.05 304.903 170.344 304.679 170.736C304.465 171.119 304.357 171.576 304.357 172.108C304.357 172.64 304.465 173.107 304.679 173.508C304.903 173.909 305.193 174.217 305.547 174.432C305.911 174.637 306.294 174.74 306.695 174.74C307.106 174.74 307.489 174.637 307.843 174.432C308.198 174.227 308.483 173.928 308.697 173.536C308.921 173.135 309.033 172.668 309.033 172.136ZM315.539 176.126C314.933 176.126 314.387 176.019 313.901 175.804C313.425 175.58 313.047 175.281 312.767 174.908C312.487 174.525 312.338 174.101 312.319 173.634H313.971C313.999 173.961 314.153 174.236 314.433 174.46C314.723 174.675 315.082 174.782 315.511 174.782C315.959 174.782 316.305 174.698 316.547 174.53C316.799 174.353 316.925 174.129 316.925 173.858C316.925 173.569 316.785 173.354 316.505 173.214C316.235 173.074 315.801 172.92 315.203 172.752C314.625 172.593 314.153 172.439 313.789 172.29C313.425 172.141 313.108 171.912 312.837 171.604C312.576 171.296 312.445 170.89 312.445 170.386C312.445 169.975 312.567 169.602 312.809 169.266C313.052 168.921 313.397 168.65 313.845 168.454C314.303 168.258 314.825 168.16 315.413 168.16C316.291 168.16 316.995 168.384 317.527 168.832C318.069 169.271 318.358 169.873 318.395 170.638H316.799C316.771 170.293 316.631 170.017 316.379 169.812C316.127 169.607 315.787 169.504 315.357 169.504C314.937 169.504 314.615 169.583 314.391 169.742C314.167 169.901 314.055 170.111 314.055 170.372C314.055 170.577 314.13 170.75 314.279 170.89C314.429 171.03 314.611 171.142 314.825 171.226C315.04 171.301 315.357 171.399 315.777 171.52C316.337 171.669 316.795 171.823 317.149 171.982C317.513 172.131 317.826 172.355 318.087 172.654C318.349 172.953 318.484 173.349 318.493 173.844C318.493 174.283 318.372 174.675 318.129 175.02C317.887 175.365 317.541 175.636 317.093 175.832C316.655 176.028 316.137 176.126 315.539 176.126ZM324.208 168.16C324.796 168.16 325.319 168.286 325.776 168.538C326.243 168.79 326.607 169.163 326.868 169.658C327.139 170.153 327.274 170.75 327.274 171.45V176H325.692V171.688C325.692 170.997 325.519 170.47 325.174 170.106C324.829 169.733 324.357 169.546 323.76 169.546C323.163 169.546 322.687 169.733 322.332 170.106C321.987 170.47 321.814 170.997 321.814 171.688V176H320.218V165.64H321.814V169.182C322.085 168.855 322.425 168.603 322.836 168.426C323.256 168.249 323.713 168.16 324.208 168.16ZM336.114 169.168C336.114 169.663 335.997 170.129 335.764 170.568C335.53 171.007 335.157 171.366 334.644 171.646C334.13 171.917 333.472 172.052 332.67 172.052H330.906V176H329.31V166.27H332.67C333.416 166.27 334.046 166.401 334.56 166.662C335.082 166.914 335.47 167.259 335.722 167.698C335.983 168.137 336.114 168.627 336.114 169.168ZM332.67 170.75C333.276 170.75 333.729 170.615 334.028 170.344C334.326 170.064 334.476 169.672 334.476 169.168C334.476 168.104 333.874 167.572 332.67 167.572H330.906V170.75H332.67ZM337.104 172.108C337.104 171.333 337.263 170.647 337.58 170.05C337.907 169.453 338.345 168.991 338.896 168.664C339.456 168.328 340.072 168.16 340.744 168.16C341.351 168.16 341.878 168.281 342.326 168.524C342.783 168.757 343.147 169.051 343.418 169.406V168.286H345.028V176H343.418V174.852C343.147 175.216 342.779 175.519 342.312 175.762C341.845 176.005 341.313 176.126 340.716 176.126C340.053 176.126 339.447 175.958 338.896 175.622C338.345 175.277 337.907 174.801 337.58 174.194C337.263 173.578 337.104 172.883 337.104 172.108ZM343.418 172.136C343.418 171.604 343.306 171.142 343.082 170.75C342.867 170.358 342.583 170.059 342.228 169.854C341.873 169.649 341.491 169.546 341.08 169.546C340.669 169.546 340.287 169.649 339.932 169.854C339.577 170.05 339.288 170.344 339.064 170.736C338.849 171.119 338.742 171.576 338.742 172.108C338.742 172.64 338.849 173.107 339.064 173.508C339.288 173.909 339.577 174.217 339.932 174.432C340.296 174.637 340.679 174.74 341.08 174.74C341.491 174.74 341.873 174.637 342.228 174.432C342.583 174.227 342.867 173.928 343.082 173.536C343.306 173.135 343.418 172.668 343.418 172.136ZM348.986 169.588V173.858C348.986 174.147 349.052 174.357 349.182 174.488C349.322 174.609 349.556 174.67 349.882 174.67H350.862V176H349.602C348.884 176 348.333 175.832 347.95 175.496C347.568 175.16 347.376 174.614 347.376 173.858V169.588H346.466V168.286H347.376V166.368H348.986V168.286H350.862V169.588H348.986ZM351.801 172.136C351.801 171.343 351.96 170.647 352.277 170.05C352.604 169.443 353.052 168.977 353.621 168.65C354.191 168.323 354.844 168.16 355.581 168.16C356.515 168.16 357.285 168.384 357.891 168.832C358.507 169.271 358.923 169.901 359.137 170.722H357.415C357.275 170.339 357.051 170.041 356.743 169.826C356.435 169.611 356.048 169.504 355.581 169.504C354.928 169.504 354.405 169.737 354.013 170.204C353.631 170.661 353.439 171.305 353.439 172.136C353.439 172.967 353.631 173.615 354.013 174.082C354.405 174.549 354.928 174.782 355.581 174.782C356.505 174.782 357.117 174.376 357.415 173.564H359.137C358.913 174.348 358.493 174.973 357.877 175.44C357.261 175.897 356.496 176.126 355.581 176.126C354.844 176.126 354.191 175.963 353.621 175.636C353.052 175.3 352.604 174.833 352.277 174.236C351.96 173.629 351.801 172.929 351.801 172.136ZM364.718 168.16C365.306 168.16 365.828 168.286 366.286 168.538C366.752 168.79 367.116 169.163 367.378 169.658C367.648 170.153 367.784 170.75 367.784 171.45V176H366.202V171.688C366.202 170.997 366.029 170.47 365.684 170.106C365.338 169.733 364.867 169.546 364.27 169.546C363.672 169.546 363.196 169.733 362.842 170.106C362.496 170.47 362.324 170.997 362.324 171.688V176H360.728V165.64H362.324V169.182C362.594 168.855 362.935 168.603 363.346 168.426C363.766 168.249 364.223 168.16 364.718 168.16Z" fill="white"/>
<path d="M506.74 165C509.089 165 510.666 167.235 510.666 169.32C510.666 173.543 504.118 177 504 177C503.881 177 497.333 173.543 497.333 169.32C497.333 167.235 498.911 165 501.259 165C502.607 165 503.489 165.683 504 166.283C504.511 165.683 505.392 165 506.74 165Z" fill="#D9D9D9" stroke="#D5DBFF" stroke-width="1.6" stroke-linecap="round" stroke-linejoin="round"/>
<rect x="489" y="55" width="30" height="76" rx="15" fill="#11171C" fill-opacity="0.75"/>
<rect x="489.5" y="55.5" width="29" height="75" rx="14.5" stroke="white" stroke-opacity="0.05"/>
<path d="M510.474 65.9753L503.589 65.638L512 65.632V64.954H502.517L502.517 66.3726V67.5006C502.517 67.5213 502.24 65.8373 502.177 65.366H501.431V67.736C501.431 67.7586 501.112 65.7553 501.078 65.5053H496C496.346 65.8046 498.256 67.4333 499.614 68.1033C500.295 68.4386 501.129 68.4413 501.873 68.462C502.25 68.4733 502.645 68.502 502.928 68.7813C503.339 69.188 503.43 69.8193 503.076 70.2966C502.727 70.7686 501.742 70.8706 501.742 70.8706L500.921 71.8773V73.046H502.787L502.845 71.8913L504.457 70.7473C504.285 70.8853 503.901 71.2539 503.324 72.1419C503.193 72.3426 503.092 72.562 503.013 72.7773C503.419 72.432 504.257 72.196 505.223 72.196C506.189 72.196 507.025 72.4319 507.433 72.7759C507.353 72.554 507.249 72.3416 507.122 72.1426C506.545 71.254 506.161 70.8853 505.989 70.748L507.601 71.8913L507.659 73.046H509.4V71.8773L508.58 70.8713C508.58 70.8713 507.365 70.794 507.047 70.2966C506.132 68.8653 507.432 66.6433 510.474 65.9753Z" fill="#D5DBFF"/>
<g clip-path="url(#clip5_276_576)">
<path d="M511.516 91.0191C511.541 91.0653 511.564 91.1128 511.584 91.1615C511.789 91.6491 511.887 92.1739 511.874 92.7019C511.861 93.2298 511.737 93.7492 511.509 94.2262L509.81 97.3058C509.291 96.4863 508.589 95.7967 507.758 95.2908C507.779 95.2571 507.798 95.2223 507.815 95.1866C509.315 92.0077 507.758 87.8092 504 87.8712C500.176 87.8041 498.664 92.0799 500.231 95.3008C499.404 95.8064 498.705 96.4942 498.189 97.3109C498.177 97.2853 498.011 96.9855 497.783 96.5746C497.228 95.576 496.308 93.9195 496.355 93.9336C496.039 93.0666 496.046 92.1159 496.374 91.2534C496.394 91.1984 496.418 91.1446 496.444 91.0924C496.459 91.0634 496.474 91.0353 496.488 91.0076L498.911 86.6105C498.914 86.6052 498.918 86.5997 498.92 86.5941C498.923 86.5886 498.926 86.5833 498.93 86.5782C499.429 85.7077 500.612 85 501.576 85H506.418C506.967 85.0056 507.504 85.1582 507.973 85.4416C508.441 85.7251 508.824 86.1289 509.081 86.6105C509.087 86.6179 509.929 88.1446 510.62 89.3961C511.098 90.2636 511.503 90.9992 511.508 91.005L511.516 91.0191Z" fill="#D5DBFF"/>
<path d="M501.772 95.8692C503.045 96.5846 504.973 96.5823 506.217 95.8646C506.724 96.096 507.173 96.4366 507.532 96.8618C507.89 97.2869 508.149 97.7858 508.29 98.3226C507.782 98.7068 507.175 98.94 506.539 98.9952C506.5 98.9991 506.46 99.0006 506.421 98.9998C506.388 98.9998 505.729 98.9998 504.904 98.9998H504.861C503.447 98.9998 501.577 99.0018 501.516 98.9972C500.861 98.9547 500.233 98.7196 499.712 98.3218C499.85 97.7867 500.107 97.2889 500.464 96.8647C500.82 96.4405 501.267 96.1004 501.772 95.8692V95.8692Z" fill="#D5DBFF"/>
<path d="M506.392 92.0023C506.475 95.2852 501.523 95.2826 501.607 92.0023C501.561 88.7007 506.435 88.7007 506.392 92.0023Z" fill="#D5DBFF"/>
</g>
<path d="M510 111.5L501.75 119.75L498 116" stroke="#D5DBFF" stroke-width="1.5" stroke-linecap="round" stroke-linejoin="round"/>
<path d="M412.729 121.286H406.391C405.83 121.286 405.292 121.063 404.896 120.666C404.499 120.27 404.277 119.732 404.277 119.172C404.277 118.611 404.499 118.073 404.896 117.677C405.292 117.28 405.83 117.058 406.391 117.058H412.729L400.062 95.9059L387.356 117.079L393.706 117.059C394.267 117.059 394.805 117.282 395.201 117.678C395.598 118.075 395.82 118.612 395.82 119.173C395.82 119.734 395.598 120.271 395.201 120.668C394.805 121.065 394.267 121.287 393.706 121.287H387.364C386.62 121.287 385.89 121.09 385.246 120.718C384.602 120.345 384.068 119.809 383.698 119.165C383.327 118.519 383.133 117.788 383.136 117.044C383.138 116.301 383.336 115.571 383.711 114.928L396.406 93.7327C396.781 93.098 397.316 92.5725 397.957 92.2081C398.598 91.8437 399.323 91.6531 400.06 91.6553C400.798 91.6574 401.522 91.8522 402.161 92.2203C402.8 92.5883 403.331 93.117 403.703 93.7538L416.371 114.908C416.75 115.55 416.953 116.281 416.959 117.026C416.964 117.772 416.773 118.506 416.403 119.154C416.034 119.802 415.5 120.34 414.855 120.715C414.21 121.09 413.478 121.287 412.732 121.287L412.729 121.286Z" fill="#DFE3EC"/>
<path d="M382.911 111.958C380.25 111.583 377.815 110.261 376.051 108.234C374.288 106.207 373.315 103.612 373.312 100.925V92.0139C373.316 89.0608 374.491 86.2297 376.579 84.1416C378.667 82.0534 381.498 80.8786 384.451 80.875H415.641C418.595 80.8784 421.426 82.053 423.514 84.1412C425.603 86.2294 426.778 89.0607 426.781 92.0139V100.925C426.778 103.612 425.806 106.207 424.042 108.234C422.279 110.261 419.843 111.583 417.182 111.957L411.186 101.887V85.3306H388.907V101.888L382.911 111.958ZM415.641 85.3306V107.609C417.413 107.607 419.112 106.903 420.365 105.65C421.618 104.396 422.323 102.698 422.325 100.925V92.0139C422.323 90.2419 421.618 88.5431 420.365 87.2902C419.112 86.0372 417.413 85.3325 415.641 85.3306ZM384.451 85.3306C382.679 85.3325 380.981 86.0373 379.728 87.2902C378.475 88.5432 377.77 90.242 377.768 92.0139V100.925C377.77 102.698 378.475 104.396 379.728 105.649C380.981 106.902 382.679 107.607 384.451 107.609V85.3306Z" fill="#DFE3EC"/>
<path opacity="0.7" d="M402.161 112.832V106.489C402.161 105.929 401.938 105.391 401.542 104.994C401.145 104.598 400.608 104.375 400.047 104.375C399.486 104.375 398.948 104.598 398.552 104.994C398.155 105.391 397.933 105.929 397.933 106.489V112.832C397.933 113.393 398.155 113.93 398.552 114.327C398.948 114.723 399.486 114.946 400.047 114.946C400.608 114.946 401.145 114.723 401.542 114.327C401.938 113.93 402.161 113.393 402.161 112.832ZM400.047 117.061C399.629 117.061 399.22 117.185 398.872 117.418C398.525 117.65 398.254 117.98 398.094 118.367C397.934 118.753 397.892 119.179 397.974 119.588C398.056 119.998 398.257 120.375 398.553 120.671C398.849 120.966 399.226 121.167 399.636 121.249C400.047 121.33 400.472 121.288 400.858 121.127C401.244 120.967 401.574 120.695 401.806 120.348C402.038 119.999 402.162 119.591 402.161 119.172C402.16 118.612 401.937 118.075 401.541 117.68C401.144 117.284 400.607 117.061 400.047 117.061Z" fill="#DFE3EC"/>
</g>
<rect x="272.5" y="49.5" width="255" height="139" rx="7.5" stroke="white" stroke-opacity="0.05"/>
</g>
<rect x="1" width="86" height="33" rx="6" fill="#192126"/>
<rect x="1.5" y="0.5" width="85" height="32" rx="5.5" stroke="white" stroke-opacity="0.05"/>
<path d="M19.916 19.012H15.842L15.142 21H13.476L16.962 11.256H18.81L22.296 21H20.616L19.916 19.012ZM19.468 17.71L17.886 13.188L16.29 17.71H19.468ZM25.4077 10.64V21H23.8117V10.64H25.4077ZM29.0991 10.64V21H27.5031V10.64H29.0991ZM44.1693 13.16C44.7759 13.16 45.3173 13.286 45.7933 13.538C46.2786 13.79 46.6566 14.1633 46.9273 14.658C47.2073 15.1527 47.3473 15.75 47.3473 16.45V21H45.7653V16.688C45.7653 15.9973 45.5926 15.47 45.2473 15.106C44.9019 14.7327 44.4306 14.546 43.8333 14.546C43.2359 14.546 42.7599 14.7327 42.4053 15.106C42.0599 15.47 41.8873 15.9973 41.8873 16.688V21H40.3053V16.688C40.3053 15.9973 40.1326 15.47 39.7873 15.106C39.4419 14.7327 38.9706 14.546 38.3733 14.546C37.7759 14.546 37.2999 14.7327 36.9453 15.106C36.5999 15.47 36.4273 15.9973 36.4273 16.688V21H34.8313V13.286H36.4273V14.168C36.6886 13.8507 37.0199 13.6033 37.4213 13.426C37.8226 13.2487 38.2519 13.16 38.7093 13.16C39.3253 13.16 39.8759 13.2907 40.3613 13.552C40.8466 13.8133 41.2199 14.1913 41.4813 14.686C41.7146 14.2193 42.0786 13.8507 42.5733 13.58C43.0679 13.3 43.5999 13.16 44.1693 13.16ZM52.7241 21.126C51.9961 21.126 51.3381 20.9627 50.7501 20.636C50.1621 20.3 49.7001 19.8333 49.3641 19.236C49.0281 18.6293 48.8601 17.9293 48.8601 17.136C48.8601 16.352 49.0328 15.6567 49.3781 15.05C49.7235 14.4433 50.1948 13.9767 50.7921 13.65C51.3895 13.3233 52.0568 13.16 52.7941 13.16C53.5315 13.16 54.1988 13.3233 54.7961 13.65C55.3935 13.9767 55.8648 14.4433 56.2101 15.05C56.5555 15.6567 56.7281 16.352 56.7281 17.136C56.7281 17.92 56.5508 18.6153 56.1961 19.222C55.8415 19.8287 55.3561 20.3 54.7401 20.636C54.1335 20.9627 53.4615 21.126 52.7241 21.126ZM52.7241 19.74C53.1348 19.74 53.5175 19.642 53.8721 19.446C54.2361 19.25 54.5301 18.956 54.7541 18.564C54.9781 18.172 55.0901 17.696 55.0901 17.136C55.0901 16.576 54.9828 16.1047 54.7681 15.722C54.5535 15.33 54.2688 15.036 53.9141 14.84C53.5595 14.644 53.1768 14.546 52.7661 14.546C52.3555 14.546 51.9728 14.644 51.6181 14.84C51.2728 15.036 50.9975 15.33 50.7921 15.722C50.5868 16.1047 50.4841 16.576 50.4841 17.136C50.4841 17.9667 50.6941 18.6107 51.1141 19.068C51.5435 19.516 52.0801 19.74 52.7241 19.74ZM57.7739 17.108C57.7739 16.3333 57.9325 15.6473 58.2499 15.05C58.5765 14.4527 59.0152 13.9907 59.5659 13.664C60.1259 13.328 60.7465 13.16 61.4279 13.16C61.9319 13.16 62.4265 13.272 62.9119 13.496C63.4065 13.7107 63.7985 14 64.0879 14.364V10.64H65.6979V21H64.0879V19.838C63.8265 20.2113 63.4625 20.5193 62.9959 20.762C62.5385 21.0047 62.0112 21.126 61.4139 21.126C60.7419 21.126 60.1259 20.958 59.5659 20.622C59.0152 20.2767 58.5765 19.8007 58.2499 19.194C57.9325 18.578 57.7739 17.8827 57.7739 17.108ZM64.0879 17.136C64.0879 16.604 63.9759 16.142 63.7519 15.75C63.5372 15.358 63.2525 15.0593 62.8979 14.854C62.5432 14.6487 62.1605 14.546 61.7499 14.546C61.3392 14.546 60.9565 14.6487 60.6019 14.854C60.2472 15.05 59.9579 15.344 59.7339 15.736C59.5192 16.1187 59.4119 16.576 59.4119 17.108C59.4119 17.64 59.5192 18.1067 59.7339 18.508C59.9579 18.9093 60.2472 19.2173 60.6019 19.432C60.9659 19.6373 61.3485 19.74 61.7499 19.74C62.1605 19.74 62.5432 19.6373 62.8979 19.432C63.2525 19.2267 63.5372 18.928 63.7519 18.536C63.9759 18.1347 64.0879 17.668 64.0879 17.136ZM70.5941 21.126C69.9875 21.126 69.4415 21.0187 68.9561 20.804C68.4801 20.58 68.1021 20.2813 67.8221 19.908C67.5421 19.5253 67.3928 19.1007 67.3741 18.634H69.0261C69.0541 18.9607 69.2081 19.236 69.4881 19.46C69.7775 19.6747 70.1368 19.782 70.5661 19.782C71.0141 19.782 71.3595 19.698 71.6021 19.53C71.8541 19.3527 71.9801 19.1287 71.9801 18.858C71.9801 18.5687 71.8401 18.354 71.5601 18.214C71.2895 18.074 70.8555 17.92 70.2581 17.752C69.6795 17.5933 69.2081 17.4393 68.8441 17.29C68.4801 17.1407 68.1628 16.912 67.8921 16.604C67.6308 16.296 67.5001 15.89 67.5001 15.386C67.5001 14.9753 67.6215 14.602 67.8641 14.266C68.1068 13.9207 68.4521 13.65 68.9001 13.454C69.3575 13.258 69.8801 13.16 70.4681 13.16C71.3455 13.16 72.0501 13.384 72.5821 13.832C73.1235 14.2707 73.4128 14.8727 73.4501 15.638H71.8541C71.8261 15.2927 71.6861 15.0173 71.4341 14.812C71.1821 14.6067 70.8415 14.504 70.4121 14.504C69.9921 14.504 69.6701 14.5833 69.4461 14.742C69.2221 14.9007 69.1101 15.1107 69.1101 15.372C69.1101 15.5773 69.1848 15.75 69.3341 15.89C69.4835 16.03 69.6655 16.142 69.8801 16.226C70.0948 16.3007 70.4121 16.3987 70.8321 16.52C71.3921 16.6693 71.8495 16.8233 72.2041 16.982C72.5681 17.1313 72.8808 17.3553 73.1421 17.654C73.4035 17.9527 73.5388 18.3493 73.5481 18.844C73.5481 19.2827 73.4268 19.6747 73.1841 20.02C72.9415 20.3653 72.5961 20.636 72.1481 20.832C71.7095 21.028 71.1915 21.126 70.5941 21.126Z" fill="#DFEAFF"/>
<rect x="95" width="81" height="33" rx="6" fill="#192126"/>
<rect x="95.5" y="0.5" width="80" height="32" rx="5.5" stroke="white" stroke-opacity="0.05"/>
<path d="M115.5 16.5L121.875 16.5M115.5 10.125L115.5 22.875M112.525 10.125H118.475C119.665 10.125 120.26 10.125 120.715 10.3566C121.115 10.5603 121.44 10.8854 121.643 11.2853C121.875 11.7398 121.875 12.3349 121.875 13.525V19.475C121.875 20.6651 121.875 21.2602 121.643 21.7147C121.44 22.1146 121.115 22.4397 120.715 22.6434C120.26 22.875 119.665 22.875 118.475 22.875H112.525C111.335 22.875 110.74 22.875 110.285 22.6434C109.885 22.4397 109.56 22.1146 109.357 21.7147C109.125 21.2602 109.125 20.6651 109.125 19.475V13.525C109.125 12.3349 109.125 11.7398 109.357 11.2853C109.56 10.8854 109.885 10.5603 110.285 10.3566C110.74 10.125 111.335 10.125 112.525 10.125Z" stroke="#DFEAFF" stroke-width="1.5" stroke-linecap="round" stroke-linejoin="round"/>
<path d="M142.82 11.27V21H141.224V16.744H136.646V21H135.05V11.27H136.646V15.442H141.224V11.27H142.82ZM146.503 11.27V17.472C146.503 18.2093 146.694 18.7647 147.077 19.138C147.469 19.5113 148.01 19.698 148.701 19.698C149.401 19.698 149.942 19.5113 150.325 19.138C150.717 18.7647 150.913 18.2093 150.913 17.472V11.27H152.509V17.444C152.509 18.2373 152.336 18.9093 151.991 19.46C151.646 20.0107 151.184 20.4213 150.605 20.692C150.026 20.9627 149.387 21.098 148.687 21.098C147.987 21.098 147.348 20.9627 146.769 20.692C146.2 20.4213 145.747 20.0107 145.411 19.46C145.075 18.9093 144.907 18.2373 144.907 17.444V11.27H146.503ZM157.765 11.27C158.801 11.27 159.706 11.4707 160.481 11.872C161.265 12.264 161.867 12.8333 162.287 13.58C162.716 14.3173 162.931 15.1807 162.931 16.17C162.931 17.1593 162.716 18.018 162.287 18.746C161.867 19.474 161.265 20.034 160.481 20.426C159.706 20.8087 158.801 21 157.765 21H154.587V11.27H157.765ZM157.765 19.698C158.904 19.698 159.776 19.39 160.383 18.774C160.99 18.158 161.293 17.29 161.293 16.17C161.293 15.0407 160.99 14.1587 160.383 13.524C159.776 12.8893 158.904 12.572 157.765 12.572H156.183V19.698H157.765Z" fill="#DFEAFF"/>
<rect x="184" width="110" height="33" rx="6" fill="#192126"/>
<rect x="184.5" y="0.5" width="109" height="32" rx="5.5" stroke="white" stroke-opacity="0.05"/>
<path d="M200.251 15.7917H203.084M201.668 14.3751V17.2084M206.626 16.5001H206.633M208.751 15.0834H208.758M203.402 11.5417H205.6C207.459 11.5417 208.388 11.5417 209.118 11.8941C209.761 12.2043 210.294 12.7014 210.65 13.3201C211.053 14.0228 211.119 14.9501 211.252 16.8047L211.426 19.2445C211.512 20.4408 210.564 21.4584 209.365 21.4584C208.751 21.4584 208.17 21.186 207.777 20.7148L207.511 20.3959C207.268 20.1042 207.147 19.9584 207.008 19.8405C206.718 19.5935 206.367 19.429 205.991 19.3643C205.812 19.3334 205.622 19.3334 205.243 19.3334H203.759C203.379 19.3334 203.189 19.3334 203.01 19.3643C202.635 19.429 202.284 19.5935 201.993 19.8405C201.855 19.9584 201.734 20.1042 201.49 20.3959L201.225 20.7148C200.832 21.186 200.25 21.4584 199.637 21.4584C198.438 21.4584 197.49 20.4408 197.576 19.2445L197.75 16.8047C197.882 14.9501 197.949 14.0228 198.352 13.3201C198.707 12.7014 199.241 12.2043 199.884 11.8941C200.613 11.5417 201.543 11.5417 203.402 11.5417Z" stroke="#DFEAFF" stroke-width="1.5" stroke-linecap="round" stroke-linejoin="round"/>
<path d="M223.518 16.114C223.518 15.162 223.737 14.308 224.176 13.552C224.624 12.796 225.226 12.208 225.982 11.788C226.747 11.3587 227.583 11.144 228.488 11.144C229.524 11.144 230.443 11.4007 231.246 11.914C232.058 12.418 232.646 13.1367 233.01 14.07H231.092C230.84 13.5567 230.49 13.174 230.042 12.922C229.594 12.67 229.076 12.544 228.488 12.544C227.844 12.544 227.27 12.6887 226.766 12.978C226.262 13.2673 225.865 13.6827 225.576 14.224C225.296 14.7653 225.156 15.3953 225.156 16.114C225.156 16.8327 225.296 17.4627 225.576 18.004C225.865 18.5453 226.262 18.9653 226.766 19.264C227.27 19.5533 227.844 19.698 228.488 19.698C229.076 19.698 229.594 19.572 230.042 19.32C230.49 19.068 230.84 18.6853 231.092 18.172H233.01C232.646 19.1053 232.058 19.824 231.246 20.328C230.443 20.832 229.524 21.084 228.488 21.084C227.573 21.084 226.738 20.874 225.982 20.454C225.226 20.0247 224.624 19.432 224.176 18.676C223.737 17.92 223.518 17.066 223.518 16.114ZM238.224 21.126C237.496 21.126 236.838 20.9627 236.25 20.636C235.662 20.3 235.2 19.8333 234.864 19.236C234.528 18.6293 234.36 17.9293 234.36 17.136C234.36 16.352 234.533 15.6567 234.878 15.05C235.223 14.4433 235.695 13.9767 236.292 13.65C236.889 13.3233 237.557 13.16 238.294 13.16C239.031 13.16 239.699 13.3233 240.296 13.65C240.893 13.9767 241.365 14.4433 241.71 15.05C242.055 15.6567 242.228 16.352 242.228 17.136C242.228 17.92 242.051 18.6153 241.696 19.222C241.341 19.8287 240.856 20.3 240.24 20.636C239.633 20.9627 238.961 21.126 238.224 21.126ZM238.224 19.74C238.635 19.74 239.017 19.642 239.372 19.446C239.736 19.25 240.03 18.956 240.254 18.564C240.478 18.172 240.59 17.696 240.59 17.136C240.59 16.576 240.483 16.1047 240.268 15.722C240.053 15.33 239.769 15.036 239.414 14.84C239.059 14.644 238.677 14.546 238.266 14.546C237.855 14.546 237.473 14.644 237.118 14.84C236.773 15.036 236.497 15.33 236.292 15.722C236.087 16.1047 235.984 16.576 235.984 17.136C235.984 17.9667 236.194 18.6107 236.614 19.068C237.043 19.516 237.58 19.74 238.224 19.74ZM253.144 13.16C253.751 13.16 254.292 13.286 254.768 13.538C255.253 13.79 255.631 14.1633 255.902 14.658C256.182 15.1527 256.322 15.75 256.322 16.45V21H254.74V16.688C254.74 15.9973 254.567 15.47 254.222 15.106C253.877 14.7327 253.405 14.546 252.808 14.546C252.211 14.546 251.735 14.7327 251.38 15.106C251.035 15.47 250.862 15.9973 250.862 16.688V21H249.28V16.688C249.28 15.9973 249.107 15.47 248.762 15.106C248.417 14.7327 247.945 14.546 247.348 14.546C246.751 14.546 246.275 14.7327 245.92 15.106C245.575 15.47 245.402 15.9973 245.402 16.688V21H243.806V13.286H245.402V14.168C245.663 13.8507 245.995 13.6033 246.396 13.426C246.797 13.2487 247.227 13.16 247.684 13.16C248.3 13.16 248.851 13.2907 249.336 13.552C249.821 13.8133 250.195 14.1913 250.456 14.686C250.689 14.2193 251.053 13.8507 251.548 13.58C252.043 13.3 252.575 13.16 253.144 13.16ZM259.949 14.434C260.219 14.0607 260.588 13.7573 261.055 13.524C261.531 13.2813 262.058 13.16 262.637 13.16C263.318 13.16 263.934 13.3233 264.485 13.65C265.035 13.9767 265.469 14.4433 265.787 15.05C266.104 15.6473 266.263 16.3333 266.263 17.108C266.263 17.8827 266.104 18.578 265.787 19.194C265.469 19.8007 265.031 20.2767 264.471 20.622C263.92 20.958 263.309 21.126 262.637 21.126C262.039 21.126 261.507 21.0093 261.041 20.776C260.583 20.5427 260.219 20.244 259.949 19.88V21H258.353V10.64H259.949V14.434ZM264.639 17.108C264.639 16.576 264.527 16.1187 264.303 15.736C264.088 15.344 263.799 15.05 263.435 14.854C263.08 14.6487 262.697 14.546 262.287 14.546C261.885 14.546 261.503 14.6487 261.139 14.854C260.784 15.0593 260.495 15.358 260.271 15.75C260.056 16.142 259.949 16.604 259.949 17.136C259.949 17.668 260.056 18.1347 260.271 18.536C260.495 18.928 260.784 19.2267 261.139 19.432C261.503 19.6373 261.885 19.74 262.287 19.74C262.697 19.74 263.08 19.6373 263.435 19.432C263.799 19.2173 264.088 18.9093 264.303 18.508C264.527 18.1067 264.639 17.64 264.639 17.108ZM267.309 17.108C267.309 16.3333 267.468 15.6473 267.785 15.05C268.112 14.4527 268.55 13.9907 269.101 13.664C269.661 13.328 270.277 13.16 270.949 13.16C271.556 13.16 272.083 13.2813 272.531 13.524C272.988 13.7573 273.352 14.0513 273.623 14.406V13.286H275.233V21H273.623V19.852C273.352 20.216 272.984 20.5193 272.517 20.762C272.05 21.0047 271.518 21.126 270.921 21.126C270.258 21.126 269.652 20.958 269.101 20.622C268.55 20.2767 268.112 19.8007 267.785 19.194C267.468 18.578 267.309 17.8827 267.309 17.108ZM273.623 17.136C273.623 16.604 273.511 16.142 273.287 15.75C273.072 15.358 272.788 15.0593 272.433 14.854C272.078 14.6487 271.696 14.546 271.285 14.546C270.874 14.546 270.492 14.6487 270.137 14.854C269.782 15.05 269.493 15.344 269.269 15.736C269.054 16.1187 268.947 16.576 268.947 17.108C268.947 17.64 269.054 18.1067 269.269 18.508C269.493 18.9093 269.782 19.2173 270.137 19.432C270.501 19.6373 270.884 19.74 271.285 19.74C271.696 19.74 272.078 19.6373 272.433 19.432C272.788 19.2267 273.072 18.928 273.287 18.536C273.511 18.1347 273.623 17.668 273.623 17.136ZM279.191 14.588V18.858C279.191 19.1473 279.257 19.3573 279.387 19.488C279.527 19.6093 279.761 19.67 280.087 19.67H281.067V21H279.807C279.089 21 278.538 20.832 278.155 20.496C277.773 20.16 277.581 19.614 277.581 18.858V14.588H276.671V13.286H277.581V11.368H279.191V13.286H281.067V14.588H279.191Z" fill="#DFEAFF"/>
<rect x="302" width="146" height="33" rx="6" fill="#192126"/>
<rect x="302.5" y="0.5" width="145" height="32" rx="5.5" stroke="white" stroke-opacity="0.05"/>
<path d="M325.072 13.4056C324.792 13.1251 324.651 12.9849 324.599 12.8231C324.553 12.6809 324.553 12.5276 324.599 12.3854C324.651 12.2236 324.792 12.0834 325.072 11.8029L327.083 9.79235C326.549 9.55106 325.957 9.41675 325.333 9.41675C322.986 9.41675 321.083 11.3195 321.083 13.6667C321.083 14.0146 321.125 14.3526 321.204 14.6762C321.288 15.0227 321.331 15.1959 321.323 15.3054C321.315 15.4199 321.298 15.4809 321.245 15.5829C321.195 15.6803 321.098 15.777 320.905 15.9704L316.479 20.3959C315.892 20.9827 315.892 21.9341 316.479 22.5209C317.066 23.1077 318.017 23.1077 318.604 22.5209L323.03 18.0954C323.223 17.902 323.32 17.8053 323.417 17.7548C323.519 17.702 323.58 17.6849 323.695 17.677C323.804 17.6695 323.977 17.7117 324.324 17.7961C324.647 17.875 324.986 17.9167 325.333 17.9167C327.681 17.9167 329.583 16.014 329.583 13.6667C329.583 13.0431 329.449 12.4509 329.208 11.9173L327.197 13.9279C326.917 14.2084 326.776 14.3486 326.615 14.4012C326.472 14.4474 326.319 14.4474 326.177 14.4012C326.015 14.3486 325.875 14.2084 325.594 13.9279L325.072 13.4056Z" stroke="#DFEAFF" stroke-width="1.5" stroke-linecap="round" stroke-linejoin="round"/>
<path d="M349.582 22.764L347.874 20.916C347.454 21.0373 346.992 21.098 346.488 21.098C345.583 21.098 344.747 20.888 343.982 20.468C343.226 20.0387 342.624 19.446 342.176 18.69C341.737 17.9247 341.518 17.066 341.518 16.114C341.518 15.162 341.737 14.308 342.176 13.552C342.624 12.796 343.226 12.208 343.982 11.788C344.747 11.3587 345.583 11.144 346.488 11.144C347.403 11.144 348.238 11.3587 348.994 11.788C349.759 12.208 350.361 12.796 350.8 13.552C351.239 14.308 351.458 15.162 351.458 16.114C351.458 17.01 351.262 17.822 350.87 18.55C350.487 19.2687 349.955 19.8473 349.274 20.286L351.612 22.764H349.582ZM343.156 16.114C343.156 16.8327 343.296 17.4673 343.576 18.018C343.865 18.5593 344.262 18.9793 344.766 19.278C345.27 19.5673 345.844 19.712 346.488 19.712C347.132 19.712 347.706 19.5673 348.21 19.278C348.714 18.9793 349.106 18.5593 349.386 18.018C349.675 17.4673 349.82 16.8327 349.82 16.114C349.82 15.3953 349.675 14.7653 349.386 14.224C349.106 13.6827 348.714 13.2673 348.21 12.978C347.706 12.6887 347.132 12.544 346.488 12.544C345.844 12.544 345.27 12.6887 344.766 12.978C344.262 13.2673 343.865 13.6827 343.576 14.224C343.296 14.7653 343.156 15.3953 343.156 16.114ZM360.056 13.286V21H358.46V20.09C358.208 20.4073 357.876 20.6593 357.466 20.846C357.064 21.0233 356.635 21.112 356.178 21.112C355.571 21.112 355.025 20.986 354.54 20.734C354.064 20.482 353.686 20.1087 353.406 19.614C353.135 19.1193 353 18.522 353 17.822V13.286H354.582V17.584C354.582 18.2747 354.754 18.8067 355.1 19.18C355.445 19.544 355.916 19.726 356.514 19.726C357.111 19.726 357.582 19.544 357.928 19.18C358.282 18.8067 358.46 18.2747 358.46 17.584V13.286H360.056ZM361.629 17.108C361.629 16.3333 361.788 15.6473 362.105 15.05C362.432 14.4527 362.871 13.9907 363.421 13.664C363.981 13.328 364.597 13.16 365.269 13.16C365.876 13.16 366.403 13.2813 366.851 13.524C367.309 13.7573 367.673 14.0513 367.943 14.406V13.286H369.553V21H367.943V19.852C367.673 20.216 367.304 20.5193 366.837 20.762C366.371 21.0047 365.839 21.126 365.241 21.126C364.579 21.126 363.972 20.958 363.421 20.622C362.871 20.2767 362.432 19.8007 362.105 19.194C361.788 18.578 361.629 17.8827 361.629 17.108ZM367.943 17.136C367.943 16.604 367.831 16.142 367.607 15.75C367.393 15.358 367.108 15.0593 366.753 14.854C366.399 14.6487 366.016 14.546 365.605 14.546C365.195 14.546 364.812 14.6487 364.457 14.854C364.103 15.05 363.813 15.344 363.589 15.736C363.375 16.1187 363.267 16.576 363.267 17.108C363.267 17.64 363.375 18.1067 363.589 18.508C363.813 18.9093 364.103 19.2173 364.457 19.432C364.821 19.6373 365.204 19.74 365.605 19.74C366.016 19.74 366.399 19.6373 366.753 19.432C367.108 19.2267 367.393 18.928 367.607 18.536C367.831 18.1347 367.943 17.668 367.943 17.136ZM373.246 10.64V21H371.65V10.64H373.246ZM376.153 12.264C375.864 12.264 375.621 12.166 375.425 11.97C375.229 11.774 375.131 11.5313 375.131 11.242C375.131 10.9527 375.229 10.71 375.425 10.514C375.621 10.318 375.864 10.22 376.153 10.22C376.433 10.22 376.671 10.318 376.867 10.514C377.063 10.71 377.161 10.9527 377.161 11.242C377.161 11.5313 377.063 11.774 376.867 11.97C376.671 12.166 376.433 12.264 376.153 12.264ZM376.937 13.286V21H375.341V13.286H376.937ZM380.894 14.588V18.858C380.894 19.1473 380.96 19.3573 381.09 19.488C381.23 19.6093 381.464 19.67 381.79 19.67H382.77V21H381.51C380.792 21 380.241 20.832 379.858 20.496C379.476 20.16 379.284 19.614 379.284 18.858V14.588H378.374V13.286H379.284V11.368H380.894V13.286H382.77V14.588H380.894ZM391.185 13.286L386.453 24.626H384.801L386.369 20.874L383.331 13.286H385.109L387.279 19.166L389.533 13.286H391.185ZM399.373 21.126C398.645 21.126 397.987 20.9627 397.399 20.636C396.811 20.3 396.349 19.8333 396.013 19.236C395.677 18.6293 395.509 17.9293 395.509 17.136C395.509 16.352 395.681 15.6567 396.027 15.05C396.372 14.4433 396.843 13.9767 397.441 13.65C398.038 13.3233 398.705 13.16 399.443 13.16C400.18 13.16 400.847 13.3233 401.445 13.65C402.042 13.9767 402.513 14.4433 402.859 15.05C403.204 15.6567 403.377 16.352 403.377 17.136C403.377 17.92 403.199 18.6153 402.845 19.222C402.49 19.8287 402.005 20.3 401.389 20.636C400.782 20.9627 400.11 21.126 399.373 21.126ZM399.373 19.74C399.783 19.74 400.166 19.642 400.521 19.446C400.885 19.25 401.179 18.956 401.403 18.564C401.627 18.172 401.739 17.696 401.739 17.136C401.739 16.576 401.631 16.1047 401.417 15.722C401.202 15.33 400.917 15.036 400.563 14.84C400.208 14.644 399.825 14.546 399.415 14.546C399.004 14.546 398.621 14.644 398.267 14.84C397.921 15.036 397.646 15.33 397.441 15.722C397.235 16.1047 397.133 16.576 397.133 17.136C397.133 17.9667 397.343 18.6107 397.763 19.068C398.192 19.516 398.729 19.74 399.373 19.74ZM408.188 14.588H406.76V21H405.15V14.588H404.24V13.286H405.15V12.74C405.15 11.8533 405.384 11.2093 405.85 10.808C406.326 10.3973 407.068 10.192 408.076 10.192V11.522C407.591 11.522 407.25 11.6153 407.054 11.802C406.858 11.9793 406.76 12.292 406.76 12.74V13.286H408.188V14.588ZM414.835 19.712H418.125V21H413.239V11.27H414.835V19.712ZM420.272 12.264C419.983 12.264 419.74 12.166 419.544 11.97C419.348 11.774 419.25 11.5313 419.25 11.242C419.25 10.9527 419.348 10.71 419.544 10.514C419.74 10.318 419.983 10.22 420.272 10.22C420.552 10.22 420.79 10.318 420.986 10.514C421.182 10.71 421.28 10.9527 421.28 11.242C421.28 11.5313 421.182 11.774 420.986 11.97C420.79 12.166 420.552 12.264 420.272 12.264ZM421.056 13.286V21H419.46V13.286H421.056ZM426.386 14.588H424.958V21H423.348V14.588H422.438V13.286H423.348V12.74C423.348 11.8533 423.581 11.2093 424.048 10.808C424.524 10.3973 425.266 10.192 426.274 10.192V11.522C425.788 11.522 425.448 11.6153 425.252 11.802C425.056 11.9793 424.958 12.292 424.958 12.74V13.286H426.386V14.588ZM434.87 16.954C434.87 17.2433 434.851 17.5047 434.814 17.738H428.92C428.967 18.354 429.195 18.8487 429.606 19.222C430.017 19.5953 430.521 19.782 431.118 19.782C431.977 19.782 432.583 19.4227 432.938 18.704H434.66C434.427 19.4133 434.002 19.9967 433.386 20.454C432.779 20.902 432.023 21.126 431.118 21.126C430.381 21.126 429.718 20.9627 429.13 20.636C428.551 20.3 428.094 19.8333 427.758 19.236C427.431 18.6293 427.268 17.9293 427.268 17.136C427.268 16.3427 427.427 15.6473 427.744 15.05C428.071 14.4433 428.523 13.9767 429.102 13.65C429.69 13.3233 430.362 13.16 431.118 13.16C431.846 13.16 432.495 13.3187 433.064 13.636C433.633 13.9533 434.077 14.4013 434.394 14.98C434.711 15.5493 434.87 16.2073 434.87 16.954ZM433.204 16.45C433.195 15.862 432.985 15.3907 432.574 15.036C432.163 14.6813 431.655 14.504 431.048 14.504C430.497 14.504 430.026 14.6813 429.634 15.036C429.242 15.3813 429.009 15.8527 428.934 16.45H433.204Z" fill="#DFEAFF"/>
<defs>
<filter id="filter0_b_276_576" x="-15" y="138" width="286" height="66" filterUnits="userSpaceOnUse" color-interpolation-filters="sRGB">
<feFlood flood-opacity="0" result="BackgroundImageFix"/>
<feGaussianBlur in="BackgroundImageFix" stdDeviation="7.5"/>
<feComposite in2="SourceAlpha" operator="in" result="effect1_backgroundBlur_276_576"/>
<feBlend mode="normal" in="SourceGraphic" in2="effect1_backgroundBlur_276_576" result="shape"/>
</filter>
<filter id="filter1_b_276_576" x="-50" y="-1" width="356" height="240" filterUnits="userSpaceOnUse" color-interpolation-filters="sRGB">
<feFlood flood-opacity="0" result="BackgroundImageFix"/>
<feGaussianBlur in="BackgroundImageFix" stdDeviation="25"/>
<feComposite in2="SourceAlpha" operator="in" result="effect1_backgroundBlur_276_576"/>
<feBlend mode="normal" in="SourceGraphic" in2="effect1_backgroundBlur_276_576" result="shape"/>
</filter>
<filter id="filter2_b_276_576" x="-15" y="138" width="286" height="66" filterUnits="userSpaceOnUse" color-interpolation-filters="sRGB">
<feFlood flood-opacity="0" result="BackgroundImageFix"/>
<feGaussianBlur in="BackgroundImageFix" stdDeviation="7.5"/>
<feComposite in2="SourceAlpha" operator="in" result="effect1_backgroundBlur_276_576"/>
<feBlend mode="normal" in="SourceGraphic" in2="effect1_backgroundBlur_276_576" result="shape"/>
</filter>
<filter id="filter3_b_276_576" x="257" y="138" width="286" height="66" filterUnits="userSpaceOnUse" color-interpolation-filters="sRGB">
<feFlood flood-opacity="0" result="BackgroundImageFix"/>
<feGaussianBlur in="BackgroundImageFix" stdDeviation="7.5"/>
<feComposite in2="SourceAlpha" operator="in" result="effect1_backgroundBlur_276_576"/>
<feBlend mode="normal" in="SourceGraphic" in2="effect1_backgroundBlur_276_576" result="shape"/>
</filter>
<filter id="filter4_b_276_576" x="222" y="-1" width="356" height="240" filterUnits="userSpaceOnUse" color-interpolation-filters="sRGB">
<feFlood flood-opacity="0" result="BackgroundImageFix"/>
<feGaussianBlur in="BackgroundImageFix" stdDeviation="25"/>
<feComposite in2="SourceAlpha" operator="in" result="effect1_backgroundBlur_276_576"/>
<feBlend mode="normal" in="SourceGraphic" in2="effect1_backgroundBlur_276_576" result="shape"/>
</filter>
<filter id="filter5_b_276_576" x="257" y="138" width="286" height="66" filterUnits="userSpaceOnUse" color-interpolation-filters="sRGB">
<feFlood flood-opacity="0" result="BackgroundImageFix"/>
<feGaussianBlur in="BackgroundImageFix" stdDeviation="7.5"/>
<feComposite in2="SourceAlpha" operator="in" result="effect1_backgroundBlur_276_576"/>
<feBlend mode="normal" in="SourceGraphic" in2="effect1_backgroundBlur_276_576" result="shape"/>
</filter>
<clipPath id="clip0_276_576">
<rect width="528" height="140" fill="white" transform="translate(0 49)"/>
</clipPath>
<clipPath id="clip1_276_576">
<rect y="49" width="256" height="140" rx="8" fill="white"/>
</clipPath>
<clipPath id="clip2_276_576">
<rect width="56" height="48" fill="white" transform="translate(100 77)"/>
</clipPath>
<clipPath id="clip3_276_576">
<rect width="15.75" height="14" fill="white" transform="translate(224.125 85)"/>
</clipPath>
<clipPath id="clip4_276_576">
<rect x="272" y="49" width="256" height="140" rx="8" fill="white"/>
</clipPath>
<clipPath id="clip5_276_576">
<rect width="15.75" height="14" fill="white" transform="translate(496.125 85)"/>
</clipPath>
</defs>
</svg>
