<svg width="257" height="240" viewBox="0 0 257 240" fill="none" xmlns="http://www.w3.org/2000/svg">
	<path d="M158.701 238.846H97.5444C91.7438 238.846 85.9685 238.08 80.3789 236.568C74.8798 235.081 69.588 232.881 64.6506 230.029C59.7132 227.178 55.1633 223.693 51.1272 219.673C47.0246 215.587 43.4747 210.968 40.576 205.943L9.95471 152.866C7.0588 147.847 4.838 142.466 3.35404 136.875C1.89411 131.374 1.15387 125.696 1.15387 120C1.15387 114.303 1.89411 108.626 3.35404 103.125C4.838 97.5334 7.0588 92.1532 9.95471 87.1336L40.576 34.0567C43.4747 29.0323 47.0246 24.4128 51.1272 20.3265C55.1633 16.3064 59.7132 12.8221 64.6507 9.97049C69.5881 7.11881 74.8798 4.91888 80.3789 3.43182C85.9685 1.92024 91.7438 1.15381 97.5444 1.15381H158.701C164.502 1.15381 170.277 1.92024 175.867 3.43182C181.366 4.91888 186.658 7.11881 191.595 9.97049C196.532 12.8222 201.082 16.3064 205.118 20.3265C209.221 24.4128 212.771 29.0323 215.67 34.0567L246.291 87.1336C249.187 92.1532 251.408 97.5334 252.892 103.125C254.352 108.626 255.092 114.303 255.092 120C255.092 125.696 254.352 131.374 252.892 136.875C251.408 142.466 249.187 147.847 246.291 152.866L215.67 205.943C212.771 210.968 209.221 215.587 205.118 219.673C201.082 223.693 196.532 227.178 191.595 230.029C186.658 232.881 181.366 235.081 175.867 236.568C170.277 238.08 164.502 238.846 158.701 238.846Z" fill="#F3F8FF"/>
	<path d="M97.5444 2.30769C91.8455 2.30769 86.1716 3.06065 80.6801 4.54566C75.2775 6.00668 70.0786 8.16801 65.2277 10.9697C60.3769 13.7714 55.9068 17.1945 51.9415 21.1441C47.9109 25.1586 44.4234 29.697 41.5755 34.6333L10.9542 87.7102C8.10903 92.6419 5.92719 97.9277 4.46932 103.421C3.03497 108.825 2.30771 114.403 2.30771 120C2.30771 125.597 3.03497 131.175 4.46932 136.579C5.92719 142.072 8.10903 147.358 10.9542 152.29L41.5755 205.367C44.4233 210.303 47.9109 214.841 51.9414 218.856C55.9067 222.805 60.3769 226.229 65.2277 229.03C70.0786 231.832 75.2775 233.993 80.6801 235.454C86.1715 236.939 91.8455 237.692 97.5444 237.692H158.701C164.4 237.692 170.074 236.939 175.566 235.454C180.968 233.993 186.167 231.832 191.018 229.03C195.869 226.229 200.339 222.805 204.304 218.856C208.335 214.841 211.822 210.303 214.67 205.367L245.291 152.29C248.137 147.358 250.318 142.072 251.776 136.579C253.211 131.175 253.938 125.597 253.938 120C253.938 114.403 253.211 108.825 251.776 103.421C250.318 97.9277 248.137 92.6419 245.291 87.7102L214.67 34.6333C211.822 29.697 208.335 25.1586 204.304 21.1441C200.339 17.1945 195.869 13.7714 191.018 10.9697C186.167 8.16801 180.968 6.00668 175.566 4.54566C170.074 3.06065 164.4 2.30769 158.701 2.30769H97.5444ZM97.5444 0H158.701C182.618 0 204.717 12.7636 216.669 33.4801L247.29 86.557C259.231 107.254 259.231 132.746 247.29 153.443L216.669 206.52C204.717 227.236 182.618 240 158.701 240H97.5444C73.6274 240 51.5284 227.236 39.5766 206.52L8.95528 153.443C-2.98509 132.746 -2.98509 107.254 8.95528 86.557L39.5766 33.4801C51.5284 12.7636 73.6274 0 97.5444 0Z" fill="white"/>
	<g clip-path="url(#clip0_200_294)">
	<path d="M106.667 77.3334C106.667 65.5467 97.12 56 85.3333 56C73.5467 56 64 65.5467 64 77.3334V93.3334C64 105.12 73.5467 114.667 85.3333 114.667C97.12 114.667 106.667 105.12 106.667 93.3334V77.3334ZM96 93.3334C96 99.2 91.2 104 85.3333 104C79.4667 104 74.6667 99.2 74.6667 93.3334V77.3334C74.6667 71.4667 79.4667 66.6667 85.3333 66.6667C91.2 66.6667 96 71.4667 96 77.3334V93.3334ZM128 130.667C128 133.6 125.6 136 122.667 136C116.8 136 112 140.8 112 146.667V162.667C112 165.707 113.28 168.587 115.573 170.613C117.76 172.587 117.973 175.947 116 178.133C114.933 179.307 113.493 179.893 112 179.893C110.72 179.893 109.44 179.467 108.427 178.56C103.893 174.507 101.333 168.747 101.333 162.667V146.667C101.333 134.88 110.88 125.333 122.667 125.333C125.6 125.333 128 127.733 128 130.667ZM116.533 78.1334C114.453 76.0534 114.453 72.6934 116.533 70.6134L129.547 57.5467C131.093 56 133.387 55.5734 135.36 56.3734C137.333 57.1734 138.667 59.1467 138.667 61.28V104C138.667 106.933 136.267 109.333 133.333 109.333C130.4 109.333 128 106.933 128 104V74.1867L124.053 78.1334C121.973 80.2134 118.613 80.2134 116.533 78.1334ZM90.6667 130.667V178.667C90.6667 181.6 88.2667 184 85.3333 184C82.4 184 80 181.6 80 178.667V143.52L76.0533 147.467C73.9733 149.547 70.6133 149.547 68.5333 147.467C66.4533 145.387 66.4533 142.027 68.5333 139.947L81.5467 126.933C83.0933 125.387 85.3867 124.96 87.36 125.76C89.3333 126.56 90.6667 128.533 90.6667 130.667ZM181.333 133.653V125.333C181.333 113.547 171.787 104 160 104C148.213 104 138.667 113.547 138.667 125.333V133.653C132.32 137.333 128 144.16 128 152V162.667C128 174.453 137.547 184 149.333 184H170.667C182.453 184 192 174.453 192 162.667V152C192 144.16 187.68 137.333 181.333 133.653ZM149.333 125.333C149.333 119.467 154.133 114.667 160 114.667C165.867 114.667 170.667 119.467 170.667 125.333V130.667H149.333V125.333ZM168 157.333C168 161.76 164.427 165.333 160 165.333C155.573 165.333 152 161.76 152 157.333C152 152.907 155.573 149.333 160 149.333C164.427 149.333 168 152.907 168 157.333Z" fill="url(#paint0_linear_200_294)"/>
	</g>
	<defs>
	<linearGradient id="paint0_linear_200_294" x1="82" y1="61" x2="169" y2="184" gradientUnits="userSpaceOnUse">
	<stop stop-color="#1F6AED"/>
	<stop offset="1" stop-color="#1051C2"/>
	</linearGradient>
	<clipPath id="clip0_200_294">
	<rect width="128" height="128" fill="white" transform="translate(64 56)"/>
	</clipPath>
	</defs>
	</svg>
