<svg width="76" height="75" viewBox="0 0 76 75" fill="none" xmlns="http://www.w3.org/2000/svg">
	<path d="M29.4371 62.8705H11.7051C7.06044 62.8705 2.375 59.3906 2.375 51.6181V36.1447C2.43801 29.0913 5.11375 22.3043 9.8981 17.0639C14.6801 11.8207 21.2411 8.48577 28.3434 7.68764C29.0091 7.64001 29.6915 7.61719 30.3707 7.61719H30.4795C28.2634 9.40567 26.5798 11.7538 25.6083 14.4113C20.7492 15.6912 16.4518 18.5123 13.3776 22.4401C10.3033 26.3679 8.62291 31.1845 8.59573 36.1474V51.6208C8.59573 52.8206 8.81926 56.7337 11.703 56.7337H29.435C35.0211 56.7045 40.4043 54.6646 44.5748 50.997C48.7453 47.3294 51.4164 42.2865 52.0868 36.8136C52.1237 36.3177 52.1422 35.8026 52.1429 35.2822H58.3644C58.3644 35.9357 58.3391 36.5953 58.2937 37.2439C57.4847 44.257 54.1012 50.735 48.7827 55.4546C43.4682 60.175 36.587 62.8128 29.4371 62.8705Z" fill="#DFE3EC"/>
	<path d="M62.1614 31.0007H40.4785C38.2113 31.0008 35.9951 30.3374 34.1101 29.0945C32.225 27.8515 30.7558 26.0849 29.8882 24.0179C29.0206 21.9509 28.7936 19.6765 29.2359 17.4822C29.6782 15.2879 30.77 13.2723 32.3731 11.6903C33.435 10.6366 34.6982 9.80129 36.0895 9.23262C37.4808 8.66395 38.9726 8.37325 40.4785 8.37736H62.1614C64.4285 8.37716 66.6447 9.0404 68.5299 10.2832C70.415 11.526 71.8843 13.2925 72.7521 15.3594C73.6198 17.4263 73.847 19.7007 73.4049 21.895C72.9627 24.0893 71.8712 26.105 70.2682 27.6871C69.2061 28.741 67.9428 29.5766 66.5512 30.1454C65.1597 30.7142 63.6676 31.0049 62.1614 31.0007ZM39.6289 14.4913C37.193 14.4913 35.2121 16.823 35.2121 19.6883C35.2121 22.5537 37.1937 24.8854 39.6289 24.8854H63.0131C65.449 24.8854 67.4306 22.5544 67.4306 19.6883C67.4306 16.8223 65.449 14.4913 63.0131 14.4913H39.6289Z" fill="#E0E9FB"/>
	<path opacity="0.7" d="M45.1621 67.7619H50.3511C53.7905 67.7579 57.0878 66.4078 59.5198 64.0078C61.9518 61.6078 63.3199 58.3539 63.324 54.9598V49.8391C63.324 49.16 63.0506 48.5088 62.5641 48.0286C62.0775 47.5484 61.4176 47.2787 60.7295 47.2787C60.0414 47.2787 59.3815 47.5484 58.8949 48.0286C58.4083 48.5088 58.135 49.16 58.135 49.8391V54.9598C58.1351 55.9685 57.9338 56.9674 57.5427 57.8994C57.1515 58.8314 56.5782 59.6783 55.8554 60.3916C55.1325 61.1049 54.2744 61.6707 53.33 62.0567C52.3856 62.4427 51.3733 62.6413 50.3511 62.6412H45.1621C44.474 62.6412 43.8141 62.911 43.3275 63.3911C42.841 63.8713 42.5676 64.5225 42.5676 65.2016C42.5676 65.8806 42.841 66.5319 43.3275 67.012C43.8141 67.4922 44.474 67.7619 45.1621 67.7619Z" fill="#E0E9FB"/>
	</svg>
