<svg width="75" height="76" viewBox="0 0 75 76" fill="none" xmlns="http://www.w3.org/2000/svg">
	<g clip-path="url(#clip0_376_331)">
	<path d="M56.0743 8.3125C53.305 8.35571 50.5959 9.13877 48.2208 10.5826C45.8457 12.0264 43.8887 14.0798 42.5475 16.5354C41.2067 14.0806 39.2506 12.0277 36.8765 10.5839C34.5024 9.14016 31.7945 8.35666 29.026 8.3125C24.612 8.50688 20.4533 10.4636 17.4585 13.7551C14.4637 17.0467 12.8761 21.4056 13.0427 25.8795C13.0427 37.2096 24.8111 49.5835 34.6818 57.9734C36.8855 59.85 39.6719 60.8789 42.5505 60.8789C45.4291 60.8789 48.2154 59.85 50.4192 57.9734C60.2893 49.5835 72.0583 37.2096 72.0583 25.8795C72.2248 21.4055 70.6372 17.0465 67.6422 13.7549C64.6473 10.4634 60.4884 8.50672 56.0743 8.3125ZM47.2591 54.161C45.9411 55.2858 44.2733 55.9026 42.5502 55.9026C40.827 55.9026 39.1593 55.2858 37.8412 54.161C25.207 43.4194 17.9605 33.1132 17.9605 25.8795C17.7925 22.7267 18.8615 19.6344 20.9344 17.2771C23.0073 14.9198 25.916 13.4887 29.026 13.2959C32.136 13.4889 35.0445 14.92 37.1173 17.2773C39.1901 19.6346 40.259 22.7268 40.0909 25.8795C40.0909 26.5405 40.3501 27.1744 40.8113 27.6418C41.2726 28.1092 41.8982 28.3718 42.5505 28.3718C43.2028 28.3718 43.8284 28.1092 44.2896 27.6418C44.7509 27.1744 45.01 26.5405 45.01 25.8795C44.8419 22.7269 45.9108 19.6348 47.9835 17.2775C50.0561 14.9203 52.9645 13.489 56.0743 13.2959C59.1849 13.488 62.0943 14.9187 64.1679 17.2761C66.2414 19.6335 67.3108 22.7262 67.1428 25.8795C67.1428 33.1132 59.8964 43.4188 47.2621 54.1514L47.2591 54.161Z" fill="#DFE3EC"/>
	<path fill-rule="evenodd" clip-rule="evenodd" d="M4.99851 47.052C6.12386 46.1488 7.41388 45.4229 8.83496 44.9271C10.256 44.4312 11.7136 44.1984 13.1491 44.2081L13.0183 54.2329C12.7039 54.2308 12.3798 54.2811 12.0523 54.3954C11.7248 54.5097 11.4388 54.6722 11.1923 54.87L4.99851 47.052ZM23.2178 49.1954C24.0884 50.3168 24.7872 51.598 25.2657 53.0064C25.7443 54.4149 25.9721 55.8604 25.9673 57.2872L15.9925 57.3182C15.9936 56.9887 15.9416 56.6469 15.824 56.3008C15.7064 55.9548 15.5398 55.653 15.3387 55.3939L23.2178 49.1954ZM0.796021 61.5444C0.317437 60.1359 0.0896852 58.6904 0.0944177 57.2636L10.0692 57.2325C10.0681 57.5621 10.1202 57.9039 10.2378 58.25C10.3554 58.596 10.522 58.8978 10.7231 59.1569L2.84401 65.3554C1.97337 64.234 1.27461 62.9528 0.796021 61.5444ZM17.2268 69.6237C15.8057 70.1196 14.3482 70.3524 12.9126 70.3427L13.0435 60.3179C13.3579 60.32 13.682 60.2697 14.0095 60.1554C14.337 60.0411 14.623 59.8786 14.8695 59.6808L21.0633 67.4988C19.9379 68.402 18.6479 69.1279 17.2268 69.6237Z" fill="#A3A6AD"/>
	</g>
	<defs>
	<clipPath id="clip0_376_331">
	<rect width="75" height="76" fill="white"/>
	</clipPath>
	</defs>
	</svg>
