<svg width="76" height="75" viewBox="0 0 76 75" fill="none" xmlns="http://www.w3.org/2000/svg">
	<path d="M15.868 58.7214C15.5499 58.7218 15.234 58.6684 14.9341 58.5634C12.4409 57.6611 10.2237 56.143 8.49439 54.1541C6.76509 52.1652 5.58143 49.772 5.05648 47.203C4.53153 44.634 4.68282 41.9751 5.4959 39.4803C6.30899 36.9854 7.7567 34.738 9.70076 32.9527C10.0612 32.6519 10.3388 32.2662 10.5079 31.8313C10.677 31.3964 10.7321 30.9265 10.6681 30.465C10.1549 27.8274 10.1235 25.1205 10.5754 22.4721C11.3285 18.0215 13.451 13.9074 16.6549 10.6882C19.8588 7.46902 23.9889 5.30069 28.4845 4.47756C33.3663 3.581 38.4114 4.29819 42.8383 6.51802C47.2652 8.73785 50.8268 12.3364 52.9712 16.7562C53.1694 17.1613 53.4612 17.5147 53.823 17.7882C54.1849 18.0618 54.6068 18.2476 55.0547 18.331C73.3512 21.7038 78.1004 46.4879 62.2461 56.1602C61.9362 56.3658 61.5877 56.5081 61.2213 56.5789C60.8549 56.6497 60.4778 56.6476 60.1122 56.5727C59.7466 56.4977 59.3999 56.3514 59.0924 56.1424C58.7849 55.9334 58.5228 55.6659 58.3214 55.3555C58.1201 55.0452 57.9837 54.6983 57.9201 54.3352C57.8565 53.9721 57.867 53.6001 57.9511 53.2411C58.0352 52.882 58.1911 52.5432 58.4097 52.2445C58.6283 51.9457 58.9051 51.6931 59.224 51.5014C70.8421 44.5429 67.3094 26.104 53.959 23.7541C52.6522 23.508 51.4229 22.9605 50.3714 22.1561C49.32 21.3518 48.4762 20.3134 47.909 19.1259C46.3862 15.9309 43.8708 13.2982 40.7282 11.6104C37.5856 9.92266 33.9796 9.26763 30.434 9.74053C26.8884 10.2134 23.588 11.7896 21.0122 14.2401C18.4364 16.6906 16.7194 19.8878 16.1107 23.367C15.7681 25.3655 15.791 27.4083 16.1781 29.3988C16.4265 30.7947 16.3085 32.2301 15.8355 33.5683C15.3624 34.9065 14.5499 36.1029 13.4756 37.0434C12.2383 38.1795 11.3168 39.6095 10.7991 41.1971C10.2814 42.7847 10.1848 44.4767 10.5184 46.1116C10.8521 47.7465 11.6048 49.2698 12.7049 50.5358C13.8049 51.8019 15.2155 52.7685 16.8019 53.3434C17.4276 53.5593 17.9556 53.9871 18.2921 54.5507C18.6285 55.1143 18.7517 55.7774 18.6397 56.4222C18.5278 57.0669 18.1879 57.6517 17.6805 58.0726C17.1731 58.4935 16.5309 58.7234 15.868 58.7214Z" fill="#E0E9FB"/>
	<g opacity="0.8">
	<path d="M55.1785 48.4823C55.8183 46.995 55.1153 45.2776 53.6082 44.6462C52.1011 44.0148 50.3607 44.7086 49.7209 46.1958L41.0743 66.295C40.4345 67.7822 41.1375 69.4997 42.6446 70.1311C44.1517 70.7625 45.8921 70.0687 46.5319 68.5814L55.1785 48.4823Z" fill="#E0E9FB"/>
	<path opacity="0.4" d="M43.7519 70.1319C45.3883 70.1319 46.7148 68.8229 46.7148 67.2081C46.7148 65.5932 45.3883 64.2842 43.7519 64.2842C42.1156 64.2842 40.7891 65.5932 40.7891 67.2081C40.7891 68.8229 42.1156 70.1319 43.7519 70.1319Z" fill="#E0E9FB"/>
	</g>
	<path opacity="0.9" d="M44.0604 48.4793C44.6998 46.9928 43.997 45.2763 42.4908 44.6454C40.9845 44.0144 39.2451 44.7079 38.6057 46.1944L30.2124 65.7076C29.5731 67.194 30.2758 68.9105 31.7821 69.5415C33.2883 70.1724 35.0277 69.4789 35.6671 67.9925L44.0604 48.4793Z" fill="#E0E9FB"/>
	<path d="M38.8396 57.0937C41.22 57.0937 43.1496 55.1894 43.1496 52.8404C43.1496 50.4913 41.22 48.587 38.8396 48.587C36.4592 48.587 34.5295 50.4913 34.5295 52.8404C34.5295 55.1894 36.4592 57.0937 38.8396 57.0937Z" fill="#F1F3F6"/>
	<path d="M38.8396 56.2259C40.7343 56.2259 42.2703 54.7102 42.2703 52.8404C42.2703 50.9706 40.7343 49.4548 38.8396 49.4548C36.9449 49.4548 35.4089 50.9706 35.4089 52.8404C35.4089 54.7102 36.9449 56.2259 38.8396 56.2259Z" stroke="#CCD4E5" stroke-width="2.5"/>
	<path d="M31.2268 48.4823C31.8667 46.995 31.1636 45.2776 29.6565 44.6462C28.1495 44.0148 26.4091 44.7086 25.7693 46.1958L20.3505 58.7918C19.7107 60.279 20.4137 61.9965 21.9208 62.6279C23.4279 63.2593 25.1683 62.5655 25.8081 61.0782L31.2268 48.4823Z" fill="#E0E9FB"/>
	<path opacity="0.5" d="M20.458 69.5071C22.0943 69.5071 23.4208 68.198 23.4208 66.5832C23.4208 64.9684 22.0943 63.6593 20.458 63.6593C18.8216 63.6593 17.4951 64.9684 17.4951 66.5832C17.4951 68.198 18.8216 69.5071 20.458 69.5071Z" fill="#E0E9FB"/>
	</svg>
