<svg width="48" height="48" viewBox="0 0 48 48" fill="none" xmlns="http://www.w3.org/2000/svg">
<path d="M18.5919 40.2371H7.39267C4.45924 40.2371 1.5 38.01 1.5 33.0356V23.1326C1.5398 18.6185 3.22974 14.2747 6.25144 10.9209C9.27161 7.56525 13.4154 5.4309 17.9011 4.92008C18.3215 4.88963 18.7525 4.875 19.1815 4.875H19.2502C17.8505 6.01965 16.7872 7.52242 16.1737 9.22328C13.1048 10.0424 10.3906 11.8479 8.44897 14.3617C6.50734 16.8754 5.44605 19.9581 5.42887 23.1343V33.0373C5.42887 33.8052 5.57006 36.3096 7.39136 36.3096H18.5905C22.1186 36.2908 25.5185 34.9854 28.1525 32.6381C30.7865 30.2908 32.4735 27.0633 32.8969 23.5607C32.9202 23.2434 32.9319 22.9137 32.9324 22.5806H36.8617C36.8617 22.9988 36.8457 23.421 36.817 23.8361C36.3061 28.3245 34.1692 32.4704 30.8101 35.491C27.4536 38.5121 23.1076 40.2 18.5919 40.2371Z" fill="#DFE3EC"/>
<path d="M39.2599 19.8405H25.5654C24.1335 19.8406 22.7338 19.416 21.5432 18.6206C20.3527 17.8251 19.4247 16.6944 18.8768 15.3715C18.3288 14.0487 18.1855 12.593 18.4648 11.1887C18.7442 9.78431 19.4337 8.49435 20.4462 7.48189C21.1169 6.80752 21.9147 6.27289 22.7934 5.90895C23.6721 5.54501 24.6143 5.35897 25.5654 5.3616H39.2599C40.6916 5.36145 42.0915 5.78591 43.2821 6.58132C44.4727 7.3767 45.4005 8.50729 45.9487 9.8301C46.4966 11.1529 46.6402 12.6085 46.3609 14.0129C46.0819 15.4173 45.3922 16.7073 44.3801 17.7198C43.7092 18.3943 42.9112 18.9291 42.0322 19.2931C41.1536 19.6572 40.2112 19.8432 39.2599 19.8405ZM25.0288 9.2745C23.4904 9.2745 22.2392 10.7668 22.2392 12.6006C22.2392 14.4345 23.4908 15.9267 25.0288 15.9267H39.7976C41.3362 15.9267 42.5876 14.4349 42.5876 12.6006C42.5876 10.7663 41.3362 9.2745 39.7976 9.2745H25.0288Z" fill="#E0E9FB"/>
<path opacity="0.7" d="M28.5234 43.3675H31.8007C33.9729 43.3649 36.0554 42.5009 37.5914 40.9649C39.1274 39.4289 39.9914 37.3464 39.9941 35.1742V31.8969C39.9941 31.4623 39.8216 31.0455 39.5141 30.7382C39.2069 30.4309 38.7899 30.2583 38.3553 30.2583C37.9207 30.2583 37.5041 30.4309 37.1967 30.7382C36.8894 31.0455 36.7168 31.4623 36.7168 31.8969V35.1742C36.7169 35.8198 36.5897 36.4591 36.3427 37.0556C36.0957 37.6521 35.7335 38.194 35.277 38.6504C34.8205 39.1071 34.2785 39.469 33.6821 39.7161C33.0856 39.9633 32.4463 40.0904 31.8007 40.0904H28.5234C28.0888 40.0904 27.672 40.2629 27.3647 40.5704C27.0574 40.8775 26.8848 41.2945 26.8848 41.7288C26.8848 42.1634 27.0574 42.5804 27.3647 42.8875C27.672 43.195 28.0888 43.3675 28.5234 43.3675Z" fill="#E0E9FB"/>
</svg>
