<svg width="48" height="48" viewBox="0 0 48 48" fill="none" xmlns="http://www.w3.org/2000/svg">
<g clip-path="url(#clip0_8_862)">
<path d="M38.4 0H9.6C4.29807 0 0 4.29807 0 9.6V38.4C0 43.7019 4.29807 48 9.6 48H38.4C43.7019 48 48 43.7019 48 38.4V9.6C48 4.29807 43.7019 0 38.4 0Z" fill="#ECF2FF"/>
<path d="M38.3999 0.149902H9.5999C4.38081 0.149902 0.149902 4.38081 0.149902 9.5999V38.3999C0.149902 43.619 4.38081 47.8499 9.5999 47.8499H38.3999C43.619 47.8499 47.8499 43.619 47.8499 38.3999V9.5999C47.8499 4.38081 43.619 0.149902 38.3999 0.149902Z" stroke="white" stroke-opacity="0.5"/>
<path d="M33.4024 9.21411C32.0006 9.2357 30.6293 9.62686 29.427 10.3481C28.2248 11.0693 27.2342 12.0951 26.5552 13.3217C25.8765 12.0955 24.8863 11.07 23.6846 10.3488C22.4829 9.62756 21.1121 9.23617 19.7107 9.21411C17.4764 9.31121 15.3713 10.2887 13.8553 11.9329C12.3393 13.5771 11.5357 15.7545 11.62 17.9894C11.62 23.6492 17.5771 29.8304 22.5736 34.0214C23.6892 34.9589 25.0996 35.4728 26.5567 35.4728C28.0139 35.4728 29.4243 34.9589 30.5398 34.0214C35.536 29.8304 41.4934 23.6492 41.4934 17.9894C41.5777 15.7545 40.7741 13.5771 39.2581 11.9328C37.742 10.2885 35.6368 9.31113 33.4024 9.21411ZM28.9402 32.117C28.2731 32.6789 27.4288 32.987 26.5566 32.987C25.6843 32.987 24.8401 32.6789 24.1729 32.117C17.7775 26.7512 14.1094 21.6029 14.1094 17.9894C14.0244 16.4145 14.5655 14.8698 15.6148 13.6922C16.6641 12.5147 18.1364 11.7998 19.7107 11.7035C21.285 11.7999 22.7572 12.5148 23.8065 13.6923C24.8557 14.8699 25.3968 16.4145 25.3117 17.9894C25.3117 18.3196 25.4429 18.6363 25.6764 18.8698C25.9099 19.1032 26.2265 19.2344 26.5567 19.2344C26.8869 19.2344 27.2036 19.1032 27.4371 18.8698C27.6706 18.6363 27.8017 18.3196 27.8017 17.9894C27.7167 16.4146 28.2577 14.87 29.3069 13.6924C30.3561 12.5149 31.8283 11.8 33.4024 11.7035C34.977 11.7994 36.4497 12.5141 37.4993 13.6917C38.549 14.8693 39.0903 16.4142 39.0052 17.9894C39.0052 21.6029 35.3371 26.7509 28.9417 32.1122L28.9402 32.117Z" fill="url(#paint0_linear_8_862)"/>
<path d="M12.9236 37.4764C15.0242 36.7531 16.1408 34.4638 15.4175 32.3632C14.6942 30.2625 12.4049 29.146 10.3043 29.8693C8.20363 30.5926 7.08709 32.8819 7.8104 34.9825C8.5337 37.0831 10.823 38.1997 12.9236 37.4764Z" stroke="#5991F5" stroke-width="10" stroke-dasharray="9 12"/>
</g>
<defs>
<linearGradient id="paint0_linear_8_862" x1="14.5727" y1="10.9734" x2="32.3414" y2="33.0427" gradientUnits="userSpaceOnUse">
<stop stop-color="#0A5BE8"/>
<stop offset="1" stop-color="#00348E"/>
</linearGradient>
<clipPath id="clip0_8_862">
<rect width="48" height="48" fill="white"/>
</clipPath>
</defs>
</svg>
