<svg width="128" height="128" viewBox="0 0 128 128" fill="none" xmlns="http://www.w3.org/2000/svg">
<path d="M124.392 59.2846C124.448 60.6156 123.974 61.9145 123.074 62.8963C122.173 63.8782 120.92 64.4629 119.59 64.5221C118.259 64.5814 116.959 64.1104 115.975 63.2125C114.991 62.3145 114.403 61.0629 114.34 59.7322C113.47 50.221 109.908 41.1547 104.071 33.5951C98.2333 26.0356 90.3628 20.2958 81.3811 17.048C72.3993 13.8002 62.678 13.179 53.3559 15.257C44.0337 17.335 35.4967 22.0262 28.7447 28.7812C21.9926 35.5363 17.3051 44.0754 15.2312 53.3984C13.1573 62.7215 13.7828 72.4424 17.0345 81.4228C20.2862 90.4032 26.0295 98.2711 33.5916 104.105C41.1538 109.939 50.2216 113.497 59.7332 114.363C61.0609 114.483 62.2865 115.126 63.1405 116.149C63.9945 117.173 64.4069 118.494 64.287 119.821C64.1671 121.149 63.5247 122.375 62.5011 123.229C61.4775 124.083 60.1566 124.495 58.829 124.375C47.415 123.333 36.5343 119.06 27.4612 112.057C18.388 105.054 11.4981 95.6111 7.59844 84.8335C3.69875 74.0559 2.95074 62.3902 5.44201 51.2029C7.93328 40.0155 13.5607 29.7696 21.6651 21.6651C29.7696 13.5607 40.0155 7.93328 51.2029 5.44201C62.3902 2.95074 74.0559 3.69875 84.8335 7.59844C95.6111 11.4981 105.054 18.388 112.057 27.4612C119.06 36.5343 123.333 47.415 124.375 58.829C124.387 58.9829 124.392 59.1387 124.392 59.2846Z" fill="#E0E9FB"/>
<path opacity="0.88" d="M64.5364 34.6038C63.8814 34.6038 63.2328 34.7328 62.6276 34.9835C62.0225 35.2341 61.4726 35.6015 61.0094 36.0647C60.5463 36.5279 60.1789 37.0777 59.9282 37.6829C59.6775 38.2881 59.5485 38.9367 59.5485 39.5917V61.167L42.7323 71.7023C41.6078 72.4046 40.8083 73.5247 40.5097 74.8165C40.2111 76.1082 40.4379 77.4656 41.1401 78.5901C41.8424 79.7147 42.9626 80.5142 44.2543 80.8128C45.546 81.1114 46.9034 80.8846 48.028 80.1823L67.1852 68.2102C67.909 67.7566 68.5042 67.1249 68.9137 66.3754C69.3233 65.6259 69.5335 64.7837 69.5243 63.9297V39.5917C69.5243 38.9367 69.3953 38.2881 69.1446 37.6829C68.894 37.0777 68.5266 36.5279 68.0634 36.0647C67.6002 35.6015 67.0504 35.2341 66.4452 34.9835C65.84 34.7328 65.1914 34.6038 64.5364 34.6038Z" fill="#E0E9FB"/>
<path d="M98.8242 78.2264L79.2343 97.8103C77.9552 99.0828 76.941 100.596 76.2505 102.263C75.5601 103.93 75.2069 105.717 75.2116 107.521V112.966C75.2119 113.876 75.5737 114.749 76.2174 115.393C76.8612 116.037 77.7343 116.399 78.6448 116.399H84.0883C85.8921 116.404 87.6789 116.051 89.3453 115.36C91.0117 114.67 92.5245 113.656 93.7963 112.376L113.387 92.7855C115.318 90.8537 116.403 88.2342 116.403 85.5029C116.403 82.7717 115.318 80.1522 113.387 78.2204C111.426 76.3465 108.817 75.3008 106.105 75.3008C103.392 75.3008 100.784 76.3465 98.8222 78.2204L98.8242 78.2264ZM108.532 87.9345L88.9383 107.522C88.3028 108.162 87.5465 108.67 86.7132 109.015C85.8799 109.361 84.9863 109.537 84.0843 109.534H82.073V107.522C82.0711 106.62 82.2482 105.727 82.5941 104.893C82.9401 104.06 83.448 103.304 84.0883 102.668L103.682 83.0774C104.336 82.4529 105.205 82.1043 106.109 82.1043C107.013 82.1043 107.883 82.4529 108.536 83.0774C108.855 83.3961 109.108 83.7744 109.281 84.1909C109.453 84.6073 109.542 85.0537 109.542 85.5045C109.542 85.9552 109.453 86.4016 109.281 86.818C109.108 87.2345 108.855 87.6128 108.536 87.9315L108.532 87.9345Z" fill="url(#paint0_linear_103_29)"/>
<defs>
<linearGradient id="paint0_linear_103_29" x1="77.4359" y1="76.8214" x2="116.319" y2="113.939" gradientUnits="userSpaceOnUse">
<stop stop-color="#E0E9FB"/>
<stop offset="1" stop-color="#E0E9FB" stop-opacity="0.769"/>
</linearGradient>
</defs>
</svg>
