<svg width="128" height="128" viewBox="0 0 128 128" fill="none" xmlns="http://www.w3.org/2000/svg">
<g clip-path="url(#clip0_103_2)">
<path d="M125 64.2696C125.001 64.8187 124.895 65.3627 124.686 65.8705C124.477 66.3783 124.17 66.8399 123.782 67.229C123.395 67.618 122.935 67.9269 122.428 68.1379C121.921 68.3489 121.377 68.4579 120.828 68.4586H108.853C106.695 68.4501 104.575 67.8861 102.698 66.8208C100.82 65.7556 99.249 64.2249 98.1347 62.3763L92.4275 52.8626L86.2236 68.0399C86.0287 68.5659 85.7298 69.0473 85.3448 69.4553C84.9598 69.8633 84.4966 70.1896 83.9828 70.4148C83.469 70.6399 82.915 70.7592 82.3541 70.7656C81.7932 70.772 81.2367 70.6654 80.7178 70.4521C80.199 70.2388 79.7284 69.9232 79.3342 69.5241C78.9399 69.125 78.6301 68.6506 78.4232 68.1291C78.2163 67.6077 78.1165 67.05 78.1298 66.4891C78.1431 65.9283 78.2693 65.3759 78.5007 64.8649L85.5932 47.5152H77.5037L68.892 68.5934C68.5202 69.5034 68.4794 70.5149 68.7768 71.4519C69.0742 72.3888 69.6909 73.1917 70.5194 73.7206L89.6778 85.8738C90.2725 86.2516 90.7624 86.7732 91.1023 87.3903C91.4421 88.0075 91.621 88.7003 91.6223 89.4049V110.351C91.6223 111.458 91.1827 112.519 90.4003 113.301C89.6178 114.084 88.5565 114.524 87.4499 114.524C86.3433 114.524 85.282 114.084 84.4995 113.301C83.717 112.519 83.2774 111.458 83.2774 110.351V91.713L66.0626 80.8207C63.5679 79.2354 61.7103 76.8233 60.8148 74.0064C59.9193 71.1896 60.043 68.1475 61.1643 65.4127L68.4828 47.5152H59.2293C58.4535 47.5131 57.6927 47.7288 57.0334 48.1377C56.3741 48.5466 55.8427 49.1323 55.4998 49.8281L49.4612 61.9529C49.2193 62.4499 48.8811 62.894 48.4664 63.2595C48.0516 63.6249 47.5684 63.9044 47.0448 64.0817C46.5213 64.259 45.9677 64.3307 45.4162 64.2925C44.8648 64.2544 44.3263 64.1071 43.8322 63.8594C43.338 63.6116 42.898 63.2682 42.5375 62.8491C42.177 62.43 41.9033 61.9436 41.7322 61.4179C41.5611 60.8923 41.496 60.3379 41.5407 59.7869C41.5854 59.236 41.739 58.6993 41.9926 58.2082L48.0341 46.0549C49.0662 43.9697 50.6621 42.2155 52.6408 40.9916C54.6195 39.7676 56.9017 39.1228 59.2283 39.1305H86.8579C89.0185 39.1381 91.1406 39.7022 93.0199 40.7684C94.8991 41.8346 96.472 43.3668 97.5869 45.2175L105.278 58.0486C105.649 58.6645 106.173 59.1744 106.798 59.5294C107.424 59.8844 108.13 60.0725 108.849 60.0758H120.828C121.377 60.0765 121.921 60.1857 122.429 60.3969C122.936 60.6082 123.397 60.9175 123.784 61.3071C124.172 61.6967 124.479 62.1589 124.687 62.6672C124.896 63.1756 125.002 63.7201 125 64.2696ZM61.8945 84.4363C61.3851 84.2316 60.8403 84.1297 60.2914 84.1362C59.7425 84.1428 59.2003 84.2578 58.6959 84.4746C58.1916 84.6914 57.7351 85.0057 57.3526 85.3994C56.9702 85.7932 56.6693 86.2587 56.4673 86.7691C56.1623 87.5479 55.6289 88.2162 54.9373 88.6864C54.2456 89.1567 53.4279 89.4068 52.5916 89.4039H41.5549C40.4439 89.4039 39.3784 89.8453 38.5928 90.6309C37.8072 91.4165 37.3659 92.482 37.3659 93.593C37.3659 94.704 37.8072 95.7695 38.5928 96.5551C39.3784 97.3407 40.4439 97.782 41.5549 97.782H52.5954C55.1028 97.7874 57.5536 97.0362 59.6275 95.6267C61.7013 94.2172 63.3018 92.2149 64.2197 89.8815C64.6316 88.8509 64.6182 87.6991 64.1826 86.6783C63.7469 85.6575 62.9245 84.851 61.8954 84.4353L61.8945 84.4363ZM91.6223 34.9452C93.6953 34.9535 95.7242 34.3463 97.4519 33.2007C99.1795 32.055 100.528 30.4224 101.327 28.5095C102.127 26.5967 102.34 24.4897 101.941 22.4555C101.541 20.4213 100.547 18.5514 99.0845 17.0825C97.6216 15.6137 95.7558 14.612 93.7232 14.2044C91.6906 13.7968 89.5828 14.0016 87.6668 14.7929C85.7507 15.5842 84.1125 16.9263 82.9598 18.6493C81.8071 20.3723 81.1917 22.3986 81.1915 24.4716C81.1886 25.8442 81.4561 27.204 81.9788 28.4732C82.5014 29.7424 83.269 30.8963 84.2376 31.8689C85.2062 32.8414 86.3569 33.6137 87.624 34.1415C88.8911 34.6694 90.2497 34.9425 91.6223 34.9452Z" fill="#E0E9FB"/>
<path opacity="0.7" d="M33.5888 62.1856H2" stroke="#E0E9FB" stroke-width="6" stroke-linecap="round" stroke-linejoin="round"/>
<path opacity="0.5" d="M27.6035 46.2337H2.4293" stroke="#E0E9FB" stroke-width="6" stroke-linecap="round" stroke-linejoin="round"/>
<path opacity="0.9" d="M44.5079 76.8745H2.4293" stroke="#E0E9FB" stroke-width="6" stroke-linecap="round" stroke-linejoin="round"/>
</g>
<defs>
<clipPath id="clip0_103_2">
<rect width="128" height="128" fill="white"/>
</clipPath>
</defs>
</svg>
