<svg width="210" height="64" viewBox="0 0 210 64" fill="none" xmlns="http://www.w3.org/2000/svg">
<path fill-rule="evenodd" clip-rule="evenodd" d="M40.86 32.6283L31.8843 17.0817C31.0516 15.6394 29.689 15.6394 28.8564 17.0817L18.9471 34.2464C16.2562 38.9075 19.6196 44.7332 25.0015 44.7332H33.8719L40.8601 32.629L47.8482 44.7331H52.7491C56.7858 44.7331 59.3082 40.3637 57.2898 36.8681L49.3646 23.1416C48.532 21.7 47.1701 21.7 46.3374 23.1416L40.86 32.6283Z" fill="#0A5BE8"/>
<path d="M135.79 27.03H138.95V30.6499H135.92V40.3499H131.26V30.6499H129.32V27.03H131.26V26.6699C131.26 25 131.74 23.6699 132.69 22.6799C133.65 21.6799 135.02 21.1799 136.8 21.1799C137.37 21.1799 137.93 21.24 138.49 21.3599C139.04 21.48 139.51 21.6599 139.89 21.8999L138.73 25.3198C138.54 25.2 138.32 25.0999 138.07 25.02C137.83 24.95 137.58 24.9099 137.34 24.9099C136.85 24.9099 136.47 25.0598 136.2 25.3599C135.93 25.6499 135.79 26.1099 135.79 26.72V27.03Z" fill="#0A5BE8"/>
<path d="M149.74 26.29V30.6501L149.626 30.6343C149.457 30.6104 149.313 30.5901 149.19 30.5901C149.03 30.5801 148.86 30.5701 148.68 30.5701C147.74 30.5701 146.97 30.8401 146.38 31.3801C145.79 31.9102 145.5 32.79 145.5 33.99V40.3501H140.84V26.52H145.28V28.1799C145.61 27.72 146.03 27.3501 146.53 27.0601C147.41 26.55 148.48 26.29 149.74 26.29Z" fill="#0A5BE8"/>
<path fill-rule="evenodd" clip-rule="evenodd" d="M158.19 40.5701C156.74 40.5701 155.44 40.26 154.32 39.6501C153.19 39.04 152.31 38.1899 151.66 37.1101C151.01 36.03 150.69 34.79 150.69 33.4001C150.69 32.01 151.01 30.77 151.66 29.7C152.31 28.6301 153.19 27.79 154.32 27.1899C155.45 26.5901 156.74 26.28 158.19 26.28C159.64 26.28 160.94 26.5801 162.07 27.1899C163.2 27.79 164.09 28.6301 164.73 29.7C165.37 30.77 165.69 32.01 165.69 33.4001C165.69 34.79 165.37 36.03 164.73 37.1101C164.09 38.1899 163.21 39.04 162.07 39.6501C160.94 40.27 159.65 40.5701 158.19 40.5701ZM158.19 36.72C158.73 36.72 159.21 36.5901 159.62 36.3401C160.04 36.0801 160.37 35.71 160.61 35.2C160.85 34.6899 160.98 34.1001 160.98 33.4001C160.98 32.7 160.86 32.1101 160.61 31.6301C160.36 31.1401 160.03 30.77 159.62 30.52C159.403 30.3909 159.172 30.2937 158.926 30.23C158.695 30.1704 158.451 30.1401 158.19 30.1401C157.953 30.1401 157.727 30.167 157.51 30.22C157.252 30.2834 157.008 30.384 156.78 30.52C156.36 30.77 156.03 31.1401 155.78 31.6301C155.53 32.1101 155.4 32.71 155.4 33.4001C155.4 34.0901 155.53 34.7 155.78 35.2C156.03 35.7 156.37 36.0801 156.78 36.3401C157.2 36.5901 157.67 36.72 158.19 36.72Z" fill="#0A5BE8"/>
<path d="M172.68 40.5701C171.55 40.5701 170.45 40.4299 169.38 40.1599C168.31 39.8901 167.45 39.55 166.8 39.1401L168.2 35.8201C168.82 36.21 169.55 36.52 170.38 36.75C171.21 36.98 172.03 37.0901 172.83 37.0901C173.61 37.0901 174.16 37.01 174.46 36.8301C174.76 36.6599 174.91 36.4299 174.91 36.1401C174.91 35.8701 174.77 35.6699 174.48 35.54C174.344 35.479 174.191 35.4248 174.018 35.3782C173.821 35.3252 173.6 35.282 173.35 35.25L172.92 35.1873L172.912 35.1858L172.893 35.1831C172.555 35.1339 172.196 35.0816 171.82 35.02C171.529 34.9724 171.235 34.9192 170.938 34.8589C170.674 34.8052 170.408 34.7458 170.14 34.6799C169.58 34.54 169.06 34.3101 168.6 34.02C168.14 33.73 167.76 33.3201 167.48 32.8101C167.2 32.3 167.06 31.6501 167.06 30.8701C167.06 29.99 167.31 29.2 167.81 28.51C168.31 27.8201 169.04 27.28 170 26.8801C170.96 26.48 172.14 26.28 173.53 26.28C173.979 26.28 174.433 26.3035 174.89 26.3489C175.378 26.3977 175.869 26.4719 176.36 26.5701C176.938 26.6855 177.463 26.8418 177.933 27.0339C178.236 27.158 178.515 27.2971 178.77 27.45L177.37 30.74C177.039 30.5415 176.706 30.374 176.372 30.239C176.05 30.1089 175.729 30.0088 175.41 29.9399C174.76 29.8 174.14 29.72 173.55 29.72C172.77 29.72 172.22 29.8101 171.9 30C171.58 30.1899 171.42 30.4199 171.42 30.6899C171.42 30.96 171.56 31.1699 171.84 31.3101C171.894 31.3369 171.95 31.3625 172.01 31.3872C172.265 31.491 172.578 31.5754 172.95 31.6401C173.32 31.7029 173.714 31.7598 174.134 31.8201L174.48 31.8701C174.8 31.9165 175.126 31.9731 175.454 32.042C175.689 32.0916 175.925 32.1472 176.16 32.21C176.401 32.2747 176.635 32.3542 176.86 32.448C177.157 32.5715 177.438 32.7195 177.7 32.8901C178.17 33.1899 178.54 33.5901 178.82 34.0901C179.1 34.5901 179.24 35.23 179.24 36.02C179.24 36.8701 178.99 37.6401 178.49 38.3201C177.99 39 177.26 39.54 176.28 39.95C175.32 40.3701 174.11 40.5701 172.68 40.5701Z" fill="#0A5BE8"/>
<path d="M190.91 39.79C190.749 39.9014 190.573 40.0007 190.38 40.0876C190.107 40.2114 189.801 40.3096 189.46 40.3799C189.26 40.4255 189.058 40.4636 188.852 40.4941C188.471 40.5503 188.079 40.5798 187.67 40.5798C185.98 40.5798 184.65 40.1399 183.71 39.26C182.76 38.3899 182.28 37.0598 182.28 35.29V30.6499H180.35V27.03H182.28V23.4299H186.94V27.03H189.98V30.6499H186.94V35.24C186.94 35.74 187.07 36.1199 187.33 36.3999C187.59 36.6799 187.93 36.8298 188.34 36.8298C188.89 36.8298 189.37 36.6799 189.76 36.3899L190.91 39.79Z" fill="#0A5BE8"/>
<path d="M105.89 21.4099V40.3398H110.55V21.4099H105.89Z" fill="#0A5BE8"/>
<path fill-rule="evenodd" clip-rule="evenodd" d="M86.5298 25.5601C85.9102 24.5601 85.0298 23.8 83.8999 23.28C82.7598 22.75 81.4102 22.48 79.8398 22.48H72V40.3501H76.8501V35.6799H79.8398C81.4102 35.6799 82.7598 35.4099 83.8999 34.8699C85.0298 34.3401 85.9102 33.5801 86.5298 32.5901C87.1499 31.6001 87.46 30.4399 87.46 29.0901C87.46 27.73 87.1499 26.55 86.5298 25.5601ZM81.8101 31.01C81.3198 31.47 80.5601 31.7 79.5498 31.7H76.8501V26.46H79.5498C80.5601 26.46 81.3198 26.7 81.8101 27.1499C82.3101 27.6099 82.5601 28.26 82.5601 29.0901C82.5601 29.9099 82.3101 30.55 81.8101 31.01Z" fill="#0A5BE8"/>
<path fill-rule="evenodd" clip-rule="evenodd" d="M92.3696 39.6501C93.4897 40.26 94.7896 40.5701 96.2397 40.5701C97.6899 40.5701 98.9897 40.27 100.12 39.6501C101.26 39.04 102.14 38.1899 102.78 37.1101C103.42 36.03 103.74 34.79 103.74 33.4001C103.74 32.01 103.42 30.77 102.78 29.7C102.14 28.6301 101.25 27.79 100.12 27.1899C98.9897 26.5801 97.6899 26.28 96.2397 26.28C94.7896 26.28 93.4995 26.5901 92.3696 27.1899C91.2397 27.79 90.3599 28.6301 89.71 29.7C89.0596 30.77 88.7397 32.01 88.7397 33.4001C88.7397 34.79 89.0596 36.03 89.71 37.1101C90.3599 38.1899 91.2397 39.04 92.3696 39.6501ZM97.6699 36.3401C97.2598 36.5901 96.7798 36.72 96.2397 36.72C95.71 36.72 95.2397 36.5901 94.8296 36.3401C94.4199 36.0801 94.0796 35.7 93.8296 35.2C93.6797 34.9001 93.5728 34.5608 93.5112 34.1882C93.4702 33.9397 93.4497 33.6763 93.4497 33.4001C93.4497 32.71 93.5796 32.1101 93.8296 31.6301C93.9697 31.3555 94.1348 31.1187 94.3267 30.9194C94.3916 30.8521 94.46 30.7888 94.5312 30.73C94.625 30.6526 94.7246 30.5825 94.8296 30.52C95.2495 30.27 95.7197 30.1401 96.2397 30.1401C96.4727 30.1401 96.6924 30.1643 96.9009 30.2119C97.1758 30.2747 97.4307 30.3779 97.6699 30.52C97.7417 30.564 97.811 30.6116 97.8784 30.6628C98.0581 30.8005 98.2202 30.9648 98.3643 31.1555C98.4146 31.2217 98.4624 31.291 98.5083 31.3638C98.5615 31.4482 98.6123 31.5369 98.6597 31.6301C98.7949 31.8894 98.8921 32.1807 98.9526 32.5042C99.0044 32.7795 99.0298 33.0781 99.0298 33.4001C99.0298 34.1001 98.8999 34.6899 98.6597 35.2C98.5703 35.3896 98.4688 35.5601 98.3545 35.7124C98.2446 35.8591 98.1235 35.9895 97.9907 36.1047C97.8901 36.1917 97.7832 36.2698 97.6699 36.3401Z" fill="#0A5BE8"/>
<path d="M128.05 26.52L122.31 40.9099C122.09 41.4912 121.852 42.0103 121.595 42.4675C121.326 42.9463 121.037 43.3572 120.73 43.7C120.14 44.3701 119.47 44.8501 118.75 45.1201C118.02 45.3901 117.21 45.53 116.33 45.53C115.63 45.53 114.92 45.4099 114.21 45.1799C113.5 44.95 112.93 44.6499 112.49 44.28L114.1 40.8801C114.38 41.1401 114.7 41.3401 115.07 41.48C115.277 41.564 115.48 41.6228 115.683 41.6582C115.843 41.6863 116.001 41.7 116.16 41.7C116.67 41.7 117.07 41.5801 117.36 41.3401C117.465 41.2563 117.565 41.1555 117.658 41.0378C117.777 40.8882 117.885 40.7117 117.98 40.51L112.29 26.52H117.07L120.33 34.97L123.61 26.52H128.05Z" fill="#0A5BE8"/>
<path d="M131.75 57H129.057V48.2727H131.869C132.716 48.2727 133.44 48.4474 134.043 48.7969C134.645 49.1435 135.107 49.642 135.428 50.2926C135.749 50.9403 135.909 51.7159 135.909 52.6193C135.909 53.5284 135.747 54.3111 135.423 54.9673C135.099 55.6207 134.628 56.1236 134.009 56.4759C133.389 56.8253 132.636 57 131.75 57ZM130.114 56.0625H131.682C132.403 56.0625 133.001 55.9233 133.476 55.6449C133.95 55.3665 134.304 54.9702 134.537 54.456C134.77 53.9418 134.886 53.3295 134.886 52.6193C134.886 51.9148 134.771 51.3082 134.541 50.7997C134.311 50.2884 133.967 49.8963 133.51 49.6236C133.053 49.348 132.483 49.2102 131.801 49.2102H130.114V56.0625ZM140.205 57.1364C139.614 57.1364 139.095 56.9957 138.649 56.7145C138.206 56.4332 137.859 56.0398 137.609 55.5341C137.362 55.0284 137.239 54.4375 137.239 53.7614C137.239 53.0795 137.362 52.4844 137.609 51.9759C137.859 51.4673 138.206 51.0724 138.649 50.7912C139.095 50.5099 139.614 50.3693 140.205 50.3693C140.795 50.3693 141.313 50.5099 141.756 50.7912C142.202 51.0724 142.548 51.4673 142.795 51.9759C143.045 52.4844 143.17 53.0795 143.17 53.7614C143.17 54.4375 143.045 55.0284 142.795 55.5341C142.548 56.0398 142.202 56.4332 141.756 56.7145C141.313 56.9957 140.795 57.1364 140.205 57.1364ZM140.205 56.233C140.653 56.233 141.023 56.1179 141.312 55.8878C141.602 55.6577 141.817 55.3551 141.956 54.9801C142.095 54.6051 142.165 54.1989 142.165 53.7614C142.165 53.3239 142.095 52.9162 141.956 52.5384C141.817 52.1605 141.602 51.8551 141.312 51.6222C141.023 51.3892 140.653 51.2727 140.205 51.2727C139.756 51.2727 139.386 51.3892 139.097 51.6222C138.807 51.8551 138.592 52.1605 138.453 52.5384C138.314 52.9162 138.244 53.3239 138.244 53.7614C138.244 54.1989 138.314 54.6051 138.453 54.9801C138.592 55.3551 138.807 55.6577 139.097 55.8878C139.386 56.1179 139.756 56.233 140.205 56.233ZM147.365 57.1364C146.751 57.1364 146.223 56.9915 145.779 56.7017C145.336 56.4119 144.995 56.0128 144.757 55.5043C144.518 54.9957 144.399 54.4148 144.399 53.7614C144.399 53.0966 144.521 52.5099 144.765 52.0014C145.012 51.4901 145.356 51.0909 145.797 50.804C146.24 50.5142 146.757 50.3693 147.348 50.3693C147.808 50.3693 148.223 50.4545 148.592 50.625C148.961 50.7955 149.264 51.0341 149.5 51.3409C149.735 51.6477 149.882 52.0057 149.939 52.4148H148.933C148.856 52.1165 148.686 51.8523 148.422 51.6222C148.16 51.3892 147.808 51.2727 147.365 51.2727C146.973 51.2727 146.629 51.375 146.333 51.5795C146.041 51.7812 145.812 52.0668 145.647 52.4361C145.485 52.8026 145.404 53.233 145.404 53.7273C145.404 54.233 145.484 54.6733 145.643 55.0483C145.805 55.4233 146.032 55.7145 146.325 55.9219C146.62 56.1293 146.967 56.233 147.365 56.233C147.626 56.233 147.863 56.1875 148.076 56.0966C148.289 56.0057 148.47 55.875 148.618 55.7045C148.765 55.5341 148.87 55.3295 148.933 55.0909H149.939C149.882 55.4773 149.741 55.8253 149.517 56.1349C149.295 56.4418 149.001 56.6861 148.635 56.8679C148.271 57.0469 147.848 57.1364 147.365 57.1364ZM156.045 51.9205L155.142 52.1761C155.085 52.0256 155.001 51.8793 154.89 51.7372C154.782 51.5923 154.635 51.473 154.447 51.3793C154.26 51.2855 154.02 51.2386 153.727 51.2386C153.326 51.2386 152.993 51.331 152.725 51.5156C152.461 51.6974 152.329 51.929 152.329 52.2102C152.329 52.4602 152.42 52.6577 152.602 52.8026C152.784 52.9474 153.068 53.0682 153.454 53.1648L154.426 53.4034C155.011 53.5455 155.447 53.7628 155.734 54.0554C156.021 54.3452 156.164 54.7187 156.164 55.1761C156.164 55.5511 156.056 55.8864 155.841 56.1818C155.627 56.4773 155.329 56.7102 154.946 56.8807C154.562 57.0511 154.116 57.1364 153.608 57.1364C152.94 57.1364 152.387 56.9915 151.95 56.7017C151.512 56.4119 151.235 55.9886 151.119 55.4318L152.074 55.1932C152.164 55.5455 152.336 55.8097 152.589 55.9858C152.845 56.1619 153.179 56.25 153.591 56.25C154.059 56.25 154.431 56.1506 154.707 55.9517C154.985 55.75 155.125 55.5085 155.125 55.2273C155.125 55 155.045 54.8097 154.886 54.6562C154.727 54.5 154.483 54.3835 154.153 54.3068L153.062 54.0511C152.463 53.9091 152.022 53.6889 151.741 53.3906C151.463 53.0895 151.324 52.7131 151.324 52.2614C151.324 51.892 151.427 51.5653 151.635 51.2812C151.845 50.9972 152.13 50.7741 152.491 50.6122C152.855 50.4503 153.267 50.3693 153.727 50.3693C154.375 50.3693 154.883 50.5114 155.252 50.7955C155.625 51.0795 155.889 51.4545 156.045 51.9205ZM157.354 52.6364V51.9716L159.349 50.1989C159.548 50.0227 159.714 49.8651 159.847 49.7259C159.981 49.5866 160.082 49.4517 160.15 49.321C160.218 49.1903 160.252 49.0511 160.252 48.9034C160.252 48.6477 160.154 48.4446 159.958 48.294C159.762 48.1435 159.519 48.0682 159.229 48.0682C158.923 48.0682 158.675 48.1506 158.488 48.3153C158.3 48.4773 158.207 48.6903 158.207 48.9545H157.32C157.32 48.4687 157.501 48.0781 157.862 47.7827C158.222 47.4844 158.684 47.3352 159.246 47.3352C159.621 47.3352 159.951 47.4034 160.235 47.5398C160.519 47.6733 160.741 47.858 160.9 48.0938C161.059 48.3267 161.138 48.5909 161.138 48.8864C161.138 49.1193 161.092 49.3352 160.998 49.5341C160.904 49.733 160.758 49.9389 160.559 50.152C160.36 50.3651 160.104 50.608 159.792 50.8807L158.684 51.8523V51.8864H161.292V52.6364H157.354Z" fill="#0048C5"/>
</svg>
