<svg width="210" height="64" viewBox="0 0 210 64" fill="none" xmlns="http://www.w3.org/2000/svg">
<path fill-rule="evenodd" clip-rule="evenodd" d="M40.86 32.6283L31.8843 17.0817C31.0516 15.6394 29.689 15.6394 28.8564 17.0817L18.9471 34.2464C16.2562 38.9075 19.6196 44.7332 25.0015 44.7332H33.8719L40.8601 32.629L47.8482 44.7331H52.7491C56.7858 44.7331 59.3082 40.3637 57.2898 36.8681L49.3646 23.1416C48.532 21.7 47.1701 21.7 46.3374 23.1416L40.86 32.6283Z" fill="url(#paint0_linear_1_1125)"/>
<path d="M135.79 27.03H138.95V30.6499H135.92V40.3499H131.26V30.6499H129.32V27.03H131.26V26.6699C131.26 25 131.74 23.6699 132.69 22.6799C133.65 21.6799 135.02 21.1799 136.8 21.1799C137.37 21.1799 137.93 21.24 138.49 21.3599C139.04 21.48 139.51 21.6599 139.89 21.8999L138.73 25.3198C138.54 25.2 138.32 25.0999 138.07 25.02C137.83 24.95 137.58 24.9099 137.34 24.9099C136.85 24.9099 136.47 25.0598 136.2 25.3599C135.93 25.6499 135.79 26.1099 135.79 26.72V27.03Z" fill="url(#paint1_linear_1_1125)"/>
<path d="M149.74 26.29V30.6501L149.626 30.6343C149.457 30.6104 149.313 30.5901 149.19 30.5901C149.03 30.5801 148.86 30.5701 148.68 30.5701C147.74 30.5701 146.97 30.8401 146.38 31.3801C145.79 31.9102 145.5 32.79 145.5 33.99V40.3501H140.84V26.52H145.28V28.1799C145.61 27.72 146.03 27.3501 146.53 27.0601C147.41 26.55 148.48 26.29 149.74 26.29Z" fill="url(#paint2_linear_1_1125)"/>
<path fill-rule="evenodd" clip-rule="evenodd" d="M158.19 40.5701C156.74 40.5701 155.44 40.26 154.32 39.6501C153.19 39.04 152.31 38.1899 151.66 37.1101C151.01 36.03 150.69 34.79 150.69 33.4001C150.69 32.01 151.01 30.77 151.66 29.7C152.31 28.6301 153.19 27.79 154.32 27.1899C155.45 26.5901 156.74 26.28 158.19 26.28C159.64 26.28 160.94 26.5801 162.07 27.1899C163.2 27.79 164.09 28.6301 164.73 29.7C165.37 30.77 165.69 32.01 165.69 33.4001C165.69 34.79 165.37 36.03 164.73 37.1101C164.09 38.1899 163.21 39.04 162.07 39.6501C160.94 40.27 159.65 40.5701 158.19 40.5701ZM158.19 36.72C158.73 36.72 159.21 36.5901 159.62 36.3401C160.04 36.0801 160.37 35.71 160.61 35.2C160.85 34.6899 160.98 34.1001 160.98 33.4001C160.98 32.7 160.86 32.1101 160.61 31.6301C160.36 31.1401 160.03 30.77 159.62 30.52C159.403 30.3909 159.172 30.2937 158.926 30.23C158.695 30.1704 158.451 30.1401 158.19 30.1401C157.953 30.1401 157.727 30.167 157.51 30.22C157.252 30.2834 157.008 30.384 156.78 30.52C156.36 30.77 156.03 31.1401 155.78 31.6301C155.53 32.1101 155.4 32.71 155.4 33.4001C155.4 34.0901 155.53 34.7 155.78 35.2C156.03 35.7 156.37 36.0801 156.78 36.3401C157.2 36.5901 157.67 36.72 158.19 36.72Z" fill="url(#paint3_linear_1_1125)"/>
<path d="M172.68 40.5701C171.55 40.5701 170.45 40.4299 169.38 40.1599C168.31 39.8901 167.45 39.55 166.8 39.1401L168.2 35.8201C168.82 36.21 169.55 36.52 170.38 36.75C171.21 36.98 172.03 37.0901 172.83 37.0901C173.61 37.0901 174.16 37.01 174.46 36.8301C174.76 36.6599 174.91 36.4299 174.91 36.1401C174.91 35.8701 174.77 35.6699 174.48 35.54C174.344 35.479 174.191 35.4248 174.018 35.3782C173.821 35.3252 173.6 35.282 173.35 35.25L172.92 35.1873L172.912 35.1858L172.893 35.1831C172.555 35.1339 172.196 35.0816 171.82 35.02C171.529 34.9724 171.235 34.9192 170.938 34.8589C170.674 34.8052 170.408 34.7458 170.14 34.6799C169.58 34.54 169.06 34.3101 168.6 34.02C168.14 33.73 167.76 33.3201 167.48 32.8101C167.2 32.3 167.06 31.6501 167.06 30.8701C167.06 29.99 167.31 29.2 167.81 28.51C168.31 27.8201 169.04 27.28 170 26.8801C170.96 26.48 172.14 26.28 173.53 26.28C173.979 26.28 174.433 26.3035 174.89 26.3489C175.378 26.3977 175.869 26.4719 176.36 26.5701C176.938 26.6855 177.463 26.8418 177.933 27.0339C178.236 27.158 178.515 27.2971 178.77 27.45L177.37 30.74C177.039 30.5415 176.706 30.374 176.372 30.239C176.05 30.1089 175.729 30.0088 175.41 29.9399C174.76 29.8 174.14 29.72 173.55 29.72C172.77 29.72 172.22 29.8101 171.9 30C171.58 30.1899 171.42 30.4199 171.42 30.6899C171.42 30.96 171.56 31.1699 171.84 31.3101C171.894 31.3369 171.95 31.3625 172.01 31.3872C172.265 31.491 172.578 31.5754 172.95 31.6401C173.32 31.7029 173.714 31.7598 174.134 31.8201L174.48 31.8701C174.8 31.9165 175.126 31.9731 175.454 32.042C175.689 32.0916 175.925 32.1472 176.16 32.21C176.401 32.2747 176.635 32.3542 176.86 32.448C177.157 32.5715 177.438 32.7195 177.7 32.8901C178.17 33.1899 178.54 33.5901 178.82 34.0901C179.1 34.5901 179.24 35.23 179.24 36.02C179.24 36.8701 178.99 37.6401 178.49 38.3201C177.99 39 177.26 39.54 176.28 39.95C175.32 40.3701 174.11 40.5701 172.68 40.5701Z" fill="url(#paint4_linear_1_1125)"/>
<path d="M190.91 39.79C190.749 39.9014 190.573 40.0007 190.38 40.0876C190.107 40.2114 189.801 40.3096 189.46 40.3799C189.26 40.4255 189.058 40.4636 188.852 40.4941C188.471 40.5503 188.079 40.5798 187.67 40.5798C185.98 40.5798 184.65 40.1399 183.71 39.26C182.76 38.3899 182.28 37.0598 182.28 35.29V30.6499H180.35V27.03H182.28V23.4299H186.94V27.03H189.98V30.6499H186.94V35.24C186.94 35.74 187.07 36.1199 187.33 36.3999C187.59 36.6799 187.93 36.8298 188.34 36.8298C188.89 36.8298 189.37 36.6799 189.76 36.3899L190.91 39.79Z" fill="url(#paint5_linear_1_1125)"/>
<path d="M105.89 21.4099V40.3398H110.55V21.4099H105.89Z" fill="url(#paint6_linear_1_1125)"/>
<path fill-rule="evenodd" clip-rule="evenodd" d="M86.5298 25.5601C85.9102 24.5601 85.0298 23.8 83.8999 23.28C82.7598 22.75 81.4102 22.48 79.8398 22.48H72V40.3501H76.8501V35.6799H79.8398C81.4102 35.6799 82.7598 35.4099 83.8999 34.8699C85.0298 34.3401 85.9102 33.5801 86.5298 32.5901C87.1499 31.6001 87.46 30.4399 87.46 29.0901C87.46 27.73 87.1499 26.55 86.5298 25.5601ZM81.8101 31.01C81.3198 31.47 80.5601 31.7 79.5498 31.7H76.8501V26.46H79.5498C80.5601 26.46 81.3198 26.7 81.8101 27.1499C82.3101 27.6099 82.5601 28.26 82.5601 29.0901C82.5601 29.9099 82.3101 30.55 81.8101 31.01Z" fill="url(#paint7_linear_1_1125)"/>
<path fill-rule="evenodd" clip-rule="evenodd" d="M92.3696 39.6501C93.4897 40.26 94.7896 40.5701 96.2397 40.5701C97.6899 40.5701 98.9897 40.27 100.12 39.6501C101.26 39.04 102.14 38.1899 102.78 37.1101C103.42 36.03 103.74 34.79 103.74 33.4001C103.74 32.01 103.42 30.77 102.78 29.7C102.14 28.6301 101.25 27.79 100.12 27.1899C98.9897 26.5801 97.6899 26.28 96.2397 26.28C94.7896 26.28 93.4995 26.5901 92.3696 27.1899C91.2397 27.79 90.3599 28.6301 89.71 29.7C89.0596 30.77 88.7397 32.01 88.7397 33.4001C88.7397 34.79 89.0596 36.03 89.71 37.1101C90.3599 38.1899 91.2397 39.04 92.3696 39.6501ZM97.6699 36.3401C97.2598 36.5901 96.7798 36.72 96.2397 36.72C95.71 36.72 95.2397 36.5901 94.8296 36.3401C94.4199 36.0801 94.0796 35.7 93.8296 35.2C93.6797 34.9001 93.5728 34.5608 93.5112 34.1882C93.4702 33.9397 93.4497 33.6763 93.4497 33.4001C93.4497 32.71 93.5796 32.1101 93.8296 31.6301C93.9697 31.3555 94.1348 31.1187 94.3267 30.9194C94.3916 30.8521 94.46 30.7888 94.5312 30.73C94.625 30.6526 94.7246 30.5825 94.8296 30.52C95.2495 30.27 95.7197 30.1401 96.2397 30.1401C96.4727 30.1401 96.6924 30.1643 96.9009 30.2119C97.1758 30.2747 97.4307 30.3779 97.6699 30.52C97.7417 30.564 97.811 30.6116 97.8784 30.6628C98.0581 30.8005 98.2202 30.9648 98.3643 31.1555C98.4146 31.2217 98.4624 31.291 98.5083 31.3638C98.5615 31.4482 98.6123 31.5369 98.6597 31.6301C98.7949 31.8894 98.8921 32.1807 98.9526 32.5042C99.0044 32.7795 99.0298 33.0781 99.0298 33.4001C99.0298 34.1001 98.8999 34.6899 98.6597 35.2C98.5703 35.3896 98.4688 35.5601 98.3545 35.7124C98.2446 35.8591 98.1235 35.9895 97.9907 36.1047C97.8901 36.1917 97.7832 36.2698 97.6699 36.3401Z" fill="url(#paint8_linear_1_1125)"/>
<path d="M128.05 26.52L122.31 40.9099C122.09 41.4912 121.852 42.0103 121.595 42.4675C121.326 42.9463 121.037 43.3572 120.73 43.7C120.14 44.3701 119.47 44.8501 118.75 45.1201C118.02 45.3901 117.21 45.53 116.33 45.53C115.63 45.53 114.92 45.4099 114.21 45.1799C113.5 44.95 112.93 44.6499 112.49 44.28L114.1 40.8801C114.38 41.1401 114.7 41.3401 115.07 41.48C115.277 41.564 115.48 41.6228 115.683 41.6582C115.843 41.6863 116.001 41.7 116.16 41.7C116.67 41.7 117.07 41.5801 117.36 41.3401C117.465 41.2563 117.565 41.1555 117.658 41.0378C117.777 40.8882 117.885 40.7117 117.98 40.51L112.29 26.52H117.07L120.33 34.97L123.61 26.52H128.05Z" fill="url(#paint9_linear_1_1125)"/>
<path d="M130.75 56H128.057V47.2727H130.869C131.716 47.2727 132.44 47.4474 133.043 47.7969C133.645 48.1435 134.107 48.642 134.428 49.2926C134.749 49.9403 134.909 50.7159 134.909 51.6193C134.909 52.5284 134.747 53.3111 134.423 53.9673C134.099 54.6207 133.628 55.1236 133.009 55.4759C132.389 55.8253 131.636 56 130.75 56ZM129.114 55.0625H130.682C131.403 55.0625 132.001 54.9233 132.476 54.6449C132.95 54.3665 133.304 53.9702 133.537 53.456C133.77 52.9418 133.886 52.3295 133.886 51.6193C133.886 50.9148 133.771 50.3082 133.541 49.7997C133.311 49.2884 132.967 48.8963 132.51 48.6236C132.053 48.348 131.483 48.2102 130.801 48.2102H129.114V55.0625ZM139.205 56.1364C138.614 56.1364 138.095 55.9957 137.649 55.7145C137.206 55.4332 136.859 55.0398 136.609 54.5341C136.362 54.0284 136.239 53.4375 136.239 52.7614C136.239 52.0795 136.362 51.4844 136.609 50.9759C136.859 50.4673 137.206 50.0724 137.649 49.7912C138.095 49.5099 138.614 49.3693 139.205 49.3693C139.795 49.3693 140.313 49.5099 140.756 49.7912C141.202 50.0724 141.548 50.4673 141.795 50.9759C142.045 51.4844 142.17 52.0795 142.17 52.7614C142.17 53.4375 142.045 54.0284 141.795 54.5341C141.548 55.0398 141.202 55.4332 140.756 55.7145C140.313 55.9957 139.795 56.1364 139.205 56.1364ZM139.205 55.233C139.653 55.233 140.023 55.1179 140.312 54.8878C140.602 54.6577 140.817 54.3551 140.956 53.9801C141.095 53.6051 141.165 53.1989 141.165 52.7614C141.165 52.3239 141.095 51.9162 140.956 51.5384C140.817 51.1605 140.602 50.8551 140.312 50.6222C140.023 50.3892 139.653 50.2727 139.205 50.2727C138.756 50.2727 138.386 50.3892 138.097 50.6222C137.807 50.8551 137.592 51.1605 137.453 51.5384C137.314 51.9162 137.244 52.3239 137.244 52.7614C137.244 53.1989 137.314 53.6051 137.453 53.9801C137.592 54.3551 137.807 54.6577 138.097 54.8878C138.386 55.1179 138.756 55.233 139.205 55.233ZM146.365 56.1364C145.751 56.1364 145.223 55.9915 144.779 55.7017C144.336 55.4119 143.995 55.0128 143.757 54.5043C143.518 53.9957 143.399 53.4148 143.399 52.7614C143.399 52.0966 143.521 51.5099 143.765 51.0014C144.012 50.4901 144.356 50.0909 144.797 49.804C145.24 49.5142 145.757 49.3693 146.348 49.3693C146.808 49.3693 147.223 49.4545 147.592 49.625C147.961 49.7955 148.264 50.0341 148.5 50.3409C148.735 50.6477 148.882 51.0057 148.939 51.4148H147.933C147.856 51.1165 147.686 50.8523 147.422 50.6222C147.16 50.3892 146.808 50.2727 146.365 50.2727C145.973 50.2727 145.629 50.375 145.333 50.5795C145.041 50.7812 144.812 51.0668 144.647 51.4361C144.485 51.8026 144.404 52.233 144.404 52.7273C144.404 53.233 144.484 53.6733 144.643 54.0483C144.805 54.4233 145.032 54.7145 145.325 54.9219C145.62 55.1293 145.967 55.233 146.365 55.233C146.626 55.233 146.863 55.1875 147.076 55.0966C147.289 55.0057 147.47 54.875 147.618 54.7045C147.765 54.5341 147.87 54.3295 147.933 54.0909H148.939C148.882 54.4773 148.741 54.8253 148.517 55.1349C148.295 55.4418 148.001 55.6861 147.635 55.8679C147.271 56.0469 146.848 56.1364 146.365 56.1364ZM155.045 50.9205L154.142 51.1761C154.085 51.0256 154.001 50.8793 153.89 50.7372C153.782 50.5923 153.635 50.473 153.447 50.3793C153.26 50.2855 153.02 50.2386 152.727 50.2386C152.326 50.2386 151.993 50.331 151.725 50.5156C151.461 50.6974 151.329 50.929 151.329 51.2102C151.329 51.4602 151.42 51.6577 151.602 51.8026C151.784 51.9474 152.068 52.0682 152.454 52.1648L153.426 52.4034C154.011 52.5455 154.447 52.7628 154.734 53.0554C155.021 53.3452 155.164 53.7187 155.164 54.1761C155.164 54.5511 155.056 54.8864 154.841 55.1818C154.627 55.4773 154.329 55.7102 153.946 55.8807C153.562 56.0511 153.116 56.1364 152.608 56.1364C151.94 56.1364 151.387 55.9915 150.95 55.7017C150.512 55.4119 150.235 54.9886 150.119 54.4318L151.074 54.1932C151.164 54.5455 151.336 54.8097 151.589 54.9858C151.845 55.1619 152.179 55.25 152.591 55.25C153.059 55.25 153.431 55.1506 153.707 54.9517C153.985 54.75 154.125 54.5085 154.125 54.2273C154.125 54 154.045 53.8097 153.886 53.6562C153.727 53.5 153.483 53.3835 153.153 53.3068L152.062 53.0511C151.463 52.9091 151.022 52.6889 150.741 52.3906C150.463 52.0895 150.324 51.7131 150.324 51.2614C150.324 50.892 150.427 50.5653 150.635 50.2812C150.845 49.9972 151.13 49.7741 151.491 49.6122C151.855 49.4503 152.267 49.3693 152.727 49.3693C153.375 49.3693 153.883 49.5114 154.252 49.7955C154.625 50.0795 154.889 50.4545 155.045 50.9205ZM156.354 51.6364V50.9716L158.349 49.1989C158.548 49.0227 158.714 48.8651 158.847 48.7259C158.981 48.5866 159.082 48.4517 159.15 48.321C159.218 48.1903 159.252 48.0511 159.252 47.9034C159.252 47.6477 159.154 47.4446 158.958 47.294C158.762 47.1435 158.519 47.0682 158.229 47.0682C157.923 47.0682 157.675 47.1506 157.488 47.3153C157.3 47.4773 157.207 47.6903 157.207 47.9545H156.32C156.32 47.4687 156.501 47.0781 156.862 46.7827C157.222 46.4844 157.684 46.3352 158.246 46.3352C158.621 46.3352 158.951 46.4034 159.235 46.5398C159.519 46.6733 159.741 46.858 159.9 47.0938C160.059 47.3267 160.138 47.5909 160.138 47.8864C160.138 48.1193 160.092 48.3352 159.998 48.5341C159.904 48.733 159.758 48.9389 159.559 49.152C159.36 49.3651 159.104 49.608 158.792 49.8807L157.684 50.8523V50.8864H160.292V51.6364H156.354Z" fill="#6CA2FF"/>
<defs>
<linearGradient id="paint0_linear_1_1125" x1="18" y1="16" x2="58" y2="45" gradientUnits="userSpaceOnUse">
<stop stop-color="#6CA2FF"/>
<stop offset="1" stop-color="#0048C3"/>
</linearGradient>
<linearGradient id="paint1_linear_1_1125" x1="72" y1="22.5" x2="191" y2="46" gradientUnits="userSpaceOnUse">
<stop stop-color="#6CA2FF"/>
<stop offset="1" stop-color="#0048C3"/>
</linearGradient>
<linearGradient id="paint2_linear_1_1125" x1="72" y1="22.5" x2="191" y2="46" gradientUnits="userSpaceOnUse">
<stop stop-color="#6CA2FF"/>
<stop offset="1" stop-color="#0048C3"/>
</linearGradient>
<linearGradient id="paint3_linear_1_1125" x1="72" y1="22.5" x2="191" y2="46" gradientUnits="userSpaceOnUse">
<stop stop-color="#6CA2FF"/>
<stop offset="1" stop-color="#0048C3"/>
</linearGradient>
<linearGradient id="paint4_linear_1_1125" x1="72" y1="22.5" x2="191" y2="46" gradientUnits="userSpaceOnUse">
<stop stop-color="#6CA2FF"/>
<stop offset="1" stop-color="#0048C3"/>
</linearGradient>
<linearGradient id="paint5_linear_1_1125" x1="72" y1="22.5" x2="191" y2="46" gradientUnits="userSpaceOnUse">
<stop stop-color="#6CA2FF"/>
<stop offset="1" stop-color="#0048C3"/>
</linearGradient>
<linearGradient id="paint6_linear_1_1125" x1="72" y1="22.5" x2="191" y2="46" gradientUnits="userSpaceOnUse">
<stop stop-color="#6CA2FF"/>
<stop offset="1" stop-color="#0048C3"/>
</linearGradient>
<linearGradient id="paint7_linear_1_1125" x1="72" y1="22.5" x2="191" y2="46" gradientUnits="userSpaceOnUse">
<stop stop-color="#6CA2FF"/>
<stop offset="1" stop-color="#0048C3"/>
</linearGradient>
<linearGradient id="paint8_linear_1_1125" x1="72" y1="22.5" x2="191" y2="46" gradientUnits="userSpaceOnUse">
<stop stop-color="#6CA2FF"/>
<stop offset="1" stop-color="#0048C3"/>
</linearGradient>
<linearGradient id="paint9_linear_1_1125" x1="72" y1="22.5" x2="191" y2="46" gradientUnits="userSpaceOnUse">
<stop stop-color="#6CA2FF"/>
<stop offset="1" stop-color="#0048C3"/>
</linearGradient>
</defs>
</svg>
