<svg width="76" height="76" viewBox="0 0 76 76" fill="none" xmlns="http://www.w3.org/2000/svg">
	<path d="M47.0376 66.9744H30.1188C28.1959 66.9744 26.3517 66.2106 24.9919 64.8509C23.6321 63.4912 22.8681 61.6471 22.8679 59.7241V57.3767C22.8797 56.7461 22.8281 56.1159 22.7139 55.4956H27.6007C27.6761 56.1195 27.7103 56.7477 27.703 57.3761V59.7241C27.7044 60.3641 27.9592 60.9775 28.4118 61.43C28.8643 61.8826 29.4777 62.1374 30.1177 62.1388H47.0376C47.6776 62.1374 48.2909 61.8826 48.7435 61.43C49.196 60.9775 49.4509 60.3641 49.4522 59.7241V57.3094C49.4536 56.6695 49.7084 56.0561 50.161 55.6035C50.6135 55.151 51.2269 54.8961 51.8669 54.8948H55.478C57.2331 54.8846 58.9257 54.2422 60.2456 53.0853C61.5656 51.9284 62.4243 50.3346 62.6645 48.596L63.4693 42.4932C63.5477 41.9128 63.8334 41.3804 64.2738 40.9943C64.7142 40.6083 65.2794 40.3947 65.865 40.393H68.7816C66.5421 34.0903 63.4744 28.1134 59.6594 22.6194C57.6476 19.8911 55.0244 17.6723 52.0001 16.1412C48.9759 14.61 45.6348 13.809 42.245 13.8024H42.2048C41.1736 13.8026 40.1436 13.8736 39.1221 14.0151C34.3463 14.7087 29.9341 16.9628 26.5733 20.426H20.3389C22.7236 16.9415 25.9074 14.078 29.6244 12.0748C33.3414 10.0715 37.4837 8.98656 41.7055 8.91054C45.9272 8.83452 50.1059 9.76962 53.8926 11.6378C57.6793 13.5059 60.9641 16.2529 63.4728 19.6493C64.9595 21.485 67.461 25.7055 69.698 30.1514C70.8329 32.4068 71.7913 34.5098 72.4691 36.2329C73.2355 38.1801 73.6242 39.5789 73.6242 40.389C73.6364 41.0275 73.52 41.6619 73.282 42.2546C73.0439 42.8472 72.6891 43.3858 72.2386 43.8385C71.7998 44.2794 71.2779 44.6289 70.7032 44.8668C70.1285 45.1047 69.5123 45.2263 68.8903 45.2246H68.7897H67.9922L67.4627 49.2243C67.0715 52.1266 65.6426 54.789 63.4402 56.7192C61.2379 58.6494 58.4111 59.7169 55.4826 59.7241H54.2885C54.2885 61.6472 53.5245 63.4915 52.1647 64.8513C50.8049 66.2111 48.9606 66.9744 47.0376 66.9744Z" fill="#DFE3EC"/>
	<path d="M5.10692 27.3142C5.74832 26.9903 6.46774 26.8529 7.18336 26.9177C7.89897 26.9824 8.58206 27.2467 9.15493 27.6804C9.23083 27.7374 9.3025 27.7999 9.36937 27.8673L12.7936 31.3225C12.9875 28.8898 14.0889 26.6188 15.8793 24.9604C17.6697 23.302 20.0181 22.3773 22.4586 22.3699H39.9988C42.5822 22.372 45.0593 23.3991 46.8863 25.2256C48.7133 27.0522 49.7409 29.529 49.7437 32.1125V43.8069C49.7408 46.3905 48.7132 48.8675 46.8863 50.6944C45.0594 52.5213 42.5824 53.5489 39.9988 53.5518H22.4586C20.0066 53.5445 17.6478 52.6114 15.8545 50.9392C14.0612 49.267 12.9657 46.9791 12.7873 44.5336L9.36535 47.9538C9.29943 48.0177 9.22974 48.0776 9.15665 48.1332C8.58195 48.5639 7.89867 48.8261 7.18336 48.8905C6.46805 48.9548 5.74896 48.8187 5.10662 48.4975C4.46427 48.1762 3.92406 47.6824 3.54648 47.0715C3.1689 46.4606 2.96887 45.7566 2.96879 45.0384V30.7763C2.96552 30.057 3.16418 29.3512 3.54216 28.7391C3.92013 28.1271 4.46227 27.6334 5.10692 27.3142ZM22.4586 49.6533H39.9988C41.5489 49.6514 43.0351 49.0348 44.1312 47.9387C45.2273 46.8426 45.8439 45.3565 45.8457 43.8063V32.113C45.8439 30.5629 45.2273 29.0768 44.1312 27.9806C43.0351 26.8845 41.5489 26.2679 39.9988 26.2661H22.4586C20.9084 26.2679 19.4223 26.8845 18.3262 27.9806C17.2301 29.0768 16.6135 30.5629 16.6116 32.113V43.8069C16.6136 45.3569 17.2303 46.8429 18.3264 47.9389C19.4225 49.0349 20.9085 49.6514 22.4586 49.6533ZM12.7137 39.096V36.7791L6.86675 30.8787L6.82075 44.9838L12.7137 39.0943V39.096Z" fill="#DFE3EC"/>
	</svg>
