<svg width="76" height="76" viewBox="0 0 76 76" fill="none" xmlns="http://www.w3.org/2000/svg">
	<g clip-path="url(#clip0_376_345)">
	<path d="M31.655 17.8125H29.0872C28.2998 17.8125 27.5448 18.1253 26.988 18.682L2.7118 42.9582C-0.903933 46.5739 -0.903933 52.4779 2.7118 56.0936L19.9064 73.2883C23.5221 76.9037 29.4261 76.9037 33.0418 73.2883L57.3179 49.012C57.8747 48.4553 58.1875 47.7002 58.1875 46.9128V20.7812C58.1875 19.1417 56.8583 17.8125 55.2187 17.8125H43.7208C43.2764 19.5339 43.2223 21.3404 43.5719 23.0979C43.6155 23.3171 43.6652 23.5345 43.7208 23.75H52.25V45.6831L28.8434 69.0899C27.5463 70.3867 25.4018 70.3867 24.1048 69.0899L6.91023 51.8952C5.61325 50.5982 5.61325 48.4537 6.91023 47.1567L30.3169 23.75H31.655C31.4059 21.7726 31.4074 19.7779 31.655 17.8125Z" fill="#E0E9FB"/>
	<path d="M63.1715 1.58188C58.7295 -0.258001 53.7872 -0.500807 49.1863 0.894839C44.5855 2.29048 40.6109 5.23823 37.9398 9.23579C35.2687 13.2334 34.0663 18.0335 34.5376 22.8182C35.0089 27.6028 37.1246 32.0762 40.5242 35.4758C41.6836 36.6352 43.5633 36.6352 44.7227 35.4758C45.882 34.3164 45.882 32.4367 44.7227 31.2774C42.2944 28.849 40.7831 25.6539 40.4465 22.2362C40.1099 18.8186 40.9688 15.3899 42.8766 12.5345C44.7846 9.67908 47.6236 7.57358 50.9098 6.57668C54.1962 5.57978 57.7265 5.75322 60.8992 7.06741C64.0722 8.38162 66.6906 10.7553 68.3098 13.784C69.9284 16.8126 70.4473 20.3089 69.7776 23.6772C69.1072 27.0453 67.2903 30.077 64.6357 32.2556C63.5717 33.1286 62.3996 33.8431 61.1563 34.3858V40.6962C63.7848 39.9125 66.2513 38.6106 68.4024 36.8454C72.1187 33.7953 74.6629 29.5509 75.6005 24.8355C76.5386 20.12 75.8124 15.2252 73.5461 10.985C71.2797 6.74489 67.6133 3.42177 63.1715 1.58188Z" fill="#E0E9FB" fill-opacity="0.7"/>
	</g>
	<defs>
	<clipPath id="clip0_376_345">
	<rect width="76" height="76" fill="white"/>
	</clipPath>
	</defs>
	</svg>
