<svg width="47" height="45" viewBox="0 0 47 45" fill="none" xmlns="http://www.w3.org/2000/svg">
	<path d="M45.724 17.4614C45.7952 17.5931 45.8698 17.7309 45.9276 17.8743C47.1382 20.4729 47.089 24.2233 45.7021 26.7644L40.6555 35.6981C39.1632 33.3657 37.0728 31.3645 34.5601 29.8527C34.6234 29.7521 34.6797 29.6512 34.7289 29.5503C39.1844 20.3289 34.5601 8.14889 23.3967 8.32886C12.0365 8.1345 7.54553 20.5377 12.1983 29.8816C9.69941 31.3934 7.62321 33.3871 6.13781 35.7126C6.1031 35.6368 5.60888 34.7683 4.93113 33.5765C3.28351 30.6795 0.550175 25.8744 0.690067 25.9151C-0.246142 23.5971 -0.23204 20.4296 0.746422 18.1405C0.805184 17.979 0.878047 17.8233 0.954704 17.6736C0.997297 17.5899 1.0413 17.508 1.08426 17.4279L8.27759 4.6719C8.28824 4.65732 8.29719 4.64081 8.30611 4.62446C8.31506 4.60846 8.32364 4.59265 8.33394 4.57841C9.819 2.05168 13.3315 0 16.1961 0H30.5831C33.849 0 36.8687 1.78526 38.4948 4.6719C38.5112 4.69317 41.0129 9.122 43.0641 12.7531C44.4855 15.2697 45.6903 17.4029 45.7021 17.4207L45.724 17.4614Z" fill="#0048C5"/>
	<path d="M16.7793 34.6114C20.5588 36.7996 26.2883 36.7924 29.9835 34.5969C33.1369 36.1949 35.4317 38.9161 36.1425 42.1123C34.5869 43.2856 32.6723 44.0846 30.9408 44.171C30.8283 44.1854 30.7017 44.1854 30.5889 44.1854C30.4906 44.1828 28.5331 44.1841 26.0829 44.1857H25.9547C21.7562 44.1884 16.1995 44.1919 16.0191 44.1782C14.2453 44.1351 12.2533 43.3287 10.6555 42.1123C11.3525 38.9233 13.6401 36.2093 16.7793 34.6114Z" fill="#0A5BE8"/>
	<path d="M30.5049 22.0999C30.7511 32.1419 16.0403 32.1347 16.2868 22.0999C16.1531 12.0002 30.6315 12.0002 30.5049 22.0999Z" fill="#0A5BE8"/>
	</svg>
