<svg width="387" height="45" viewBox="0 0 387 45" fill="none" xmlns="http://www.w3.org/2000/svg">
	<g clip-path="url(#clip0_376_170)">
	<path d="M46.662 17.9704C46.7332 18.0991 46.8078 18.2338 46.8656 18.374C48.0761 20.9149 48.027 24.582 46.6401 27.0666L41.5935 35.8018C40.1012 33.5212 38.0108 31.5645 35.4981 30.0863C35.5614 29.9879 35.6177 29.8893 35.6669 29.7906C40.1224 20.7742 35.4981 8.86478 24.3347 9.04075C12.9745 8.8507 8.48352 20.9783 13.1363 30.1145C10.6374 31.5927 8.56119 33.5421 7.0758 35.8159C7.04108 35.7419 6.54687 34.8926 5.86912 33.7274C4.22149 30.8947 1.48816 26.1964 1.62806 26.2362C0.691847 23.9697 0.705948 20.8726 1.68441 18.6344C1.74317 18.4764 1.81604 18.3242 1.89269 18.1778C1.93529 18.096 1.97929 18.0159 2.02225 17.9375L9.21558 5.46505C9.22623 5.45079 9.23518 5.43465 9.2441 5.41867C9.25304 5.40302 9.26163 5.38756 9.27193 5.37364C10.757 2.90306 14.2694 0.896973 17.1341 0.896973H31.5211C34.787 0.896973 37.8067 2.64256 39.4327 5.46505C39.4492 5.48585 41.9509 9.81627 44.0021 13.3667C45.4235 15.8273 46.6283 17.9132 46.6401 17.9305L46.662 17.9704Z" fill="#0048C5"/>
	<path d="M91.7582 1.79077V43.2204H84.8954L65.5886 18.423V43.2204H56.3115V1.79077H62.8292L82.4251 26.8977V1.79077H91.7582Z" fill="#0048C5"/>
	<path d="M133.891 35.2384V43.2204H104.019V1.79077H133.54V9.77267H113.296V18.1627H131.78V25.9686H113.296V35.2384H133.891Z" fill="#0048C5"/>
	<path fill-rule="evenodd" clip-rule="evenodd" d="M226.815 14.0241C225.738 11.4199 224.203 9.15343 222.204 7.2178C220.212 5.28217 217.89 3.77598 215.25 2.69904C212.611 1.6221 209.746 1.08716 206.656 1.08716C203.524 1.08716 200.631 1.6221 197.97 2.69904C195.31 3.77598 193.001 5.28217 191.044 7.2178C189.087 9.15343 187.567 11.4128 186.469 13.9961C185.371 16.5793 184.829 19.3947 184.829 22.4425C184.829 25.455 185.371 28.2636 186.469 30.8679C187.567 33.465 189.109 35.7457 191.108 37.7024C193.1 39.6591 195.429 41.1865 198.09 42.2775C200.751 43.3755 203.644 43.9247 206.776 43.9247C209.866 43.9247 212.717 43.3755 215.342 42.2775C217.96 41.1865 220.247 39.6661 222.204 37.7304C224.161 35.7948 225.689 33.5284 226.787 30.9239C227.878 28.3196 228.426 25.5184 228.426 22.5058C228.426 19.4511 227.892 16.6286 226.815 14.0241ZM217.425 29.256C216.384 31.2056 214.948 32.733 213.111 33.8311C211.273 34.9221 209.12 35.4712 206.656 35.4712C204.819 35.4712 203.144 35.1682 201.637 34.5631C200.131 33.9577 198.829 33.0778 197.738 31.9235C196.64 30.7692 195.802 29.3897 195.211 27.7848C194.627 26.18 194.331 24.3993 194.331 22.4425C194.331 19.8663 194.838 17.6069 195.859 15.6642C196.872 13.7286 198.315 12.2224 200.173 11.1454C202.032 10.0755 204.193 9.53355 206.656 9.53355C208.458 9.53355 210.119 9.83617 211.646 10.4416C213.167 11.0538 214.476 11.9337 215.574 13.0881C216.672 14.2424 217.51 15.6078 218.101 17.1915C218.685 18.7752 218.981 20.528 218.981 22.4425C218.981 25.0257 218.46 27.2993 217.425 29.256Z" fill="#0A5BE8"/>
	<path d="M179.191 37.9347C177.235 39.814 174.968 41.271 172.385 42.3057C169.802 43.3473 166.81 43.8611 163.411 43.8611C160.314 43.8611 157.449 43.3261 154.809 42.2492C152.17 41.1726 149.861 39.6591 147.883 37.7024C145.913 35.7457 144.378 33.4651 143.28 30.8679C142.182 28.2637 141.64 25.4551 141.64 22.4426C141.64 19.43 142.182 16.6286 143.28 14.0243C144.378 11.4201 145.913 9.16053 147.883 7.24601C149.861 5.33152 152.163 3.83237 154.781 2.75543C157.4 1.68556 160.279 1.14355 163.411 1.14355C166.69 1.14355 169.619 1.67145 172.181 2.72725C174.743 3.78305 176.981 5.23307 178.896 7.07007L172.681 13.3487C171.625 12.1731 170.323 11.2582 168.774 10.5894C167.233 9.9278 165.438 9.597 163.411 9.597C161.609 9.597 159.962 9.8996 158.476 10.505C156.991 11.1102 155.696 11.983 154.605 13.1163C153.507 14.2496 152.67 15.6151 152.085 17.2199C151.494 18.8248 151.199 20.5703 151.199 22.4426C151.199 24.3993 151.494 26.173 152.085 27.7569C152.67 29.3405 153.507 30.713 154.605 31.8603C155.696 33.0146 156.991 33.9015 158.476 34.5069C159.962 35.112 161.609 35.4147 163.411 35.4147C165.522 35.4147 167.359 35.0911 168.922 34.4436C170.485 33.8028 171.822 32.8738 172.913 31.6562L179.191 37.9347Z" fill="#0A5BE8"/>
	<path d="M273.375 43.2206V1.79102H264.05V26.905L244.447 1.79102H237.936V43.2206H247.206V18.4233L266.512 43.2206H273.375Z" fill="#0A5BE8"/>
	<path d="M294.914 9.77292V18.9864H313.516V27.0248H294.914V43.2206H285.645V1.79102H314.453V9.77292H294.914Z" fill="#0A5BE8"/>
	<path d="M324.667 1.79102H333.936V43.2206H324.667V1.79102Z" fill="#0A5BE8"/>
	<path d="M386.108 19.7467V21.098C386.108 26.0251 385.213 30.1921 383.431 33.5917C381.652 36.9983 379.188 39.5746 376.043 41.3131C372.888 43.0519 369.264 43.9247 365.154 43.9247C362.106 43.9247 359.254 43.3614 356.614 42.2492C353.974 41.137 351.68 39.6028 349.723 37.6459C347.769 35.6891 346.233 33.4156 345.113 30.8396C344.001 28.2566 343.447 25.455 343.447 22.4425C343.447 19.3947 344.009 16.5863 345.142 14.0241C346.275 11.4621 347.865 9.20981 349.901 7.27418C351.934 5.33853 354.291 3.82511 356.967 2.72722C359.649 1.63621 362.535 1.08716 365.625 1.08716C369.186 1.08716 372.43 1.74169 375.365 3.05098C378.301 4.36007 380.723 6.15496 382.644 8.42139L376.302 14.7562C375.015 13.0388 373.458 11.7366 371.642 10.8567C369.819 9.9769 367.791 9.53355 365.567 9.53355C363.139 9.53355 360.965 10.0755 359.05 11.1454C357.135 12.2224 355.636 13.7286 354.56 15.6642C353.483 17.6069 352.949 19.8663 352.949 22.4425C352.949 24.9904 353.475 27.2357 354.532 29.1924C355.586 31.1494 357.038 32.6836 358.875 33.8028C360.711 34.915 362.831 35.4712 365.217 35.4712C367.603 35.4712 369.643 35.0134 371.347 34.0914C373.05 33.1765 374.36 31.832 375.274 30.0723C375.656 29.3543 375.951 28.5731 376.168 27.7357L364.338 27.5525V19.7467H386.108Z" fill="#0A5BE8"/>
	<path d="M17.7173 34.7392C21.4968 36.8788 27.2263 36.8718 30.9215 34.7251C34.0749 36.2875 36.3697 38.9483 37.0805 42.0734C35.5249 43.2207 33.6103 44.0019 31.8788 44.0864C31.7663 44.1005 31.6397 44.1005 31.5269 44.1005C31.4286 44.0979 29.4711 44.0992 27.0209 44.1008H26.8927C22.6942 44.1034 17.1375 44.1068 16.9571 44.0935C15.1833 44.0513 13.1913 43.2628 11.5935 42.0734C12.2905 38.9554 14.5781 36.3017 17.7173 34.7392Z" fill="#0A5BE8"/>
	<path d="M31.4429 22.5058C31.6891 32.3247 16.9783 32.3176 17.2247 22.5058C17.091 12.6305 31.5695 12.6305 31.4429 22.5058Z" fill="#0A5BE8"/>
	</g>
	<defs>
	<clipPath id="clip0_376_170">
	<rect width="386.163" height="45" fill="white" transform="translate(0.441895)"/>
	</clipPath>
	</defs>
	</svg>
