<svg width="48" height="45" viewBox="0 0 48 45" fill="none" xmlns="http://www.w3.org/2000/svg">
	<g clip-path="url(#clip0_376_214)">
	<path d="M46.4837 17.8498C46.5742 17.9853 46.6415 18.1441 46.709 18.3023C47.9535 20.8856 47.885 24.6239 46.4837 27.162L42.1401 34.6845C40.8516 32.7129 39.2005 30.9684 37.2105 29.5184C38.0928 27.5243 38.5679 25.2131 38.4993 22.5169C38.7709 2.07934 8.82581 2.07934 9.09748 22.5169C9.03011 25.1683 9.48179 27.4788 10.342 29.4504C8.35095 30.8776 6.69995 32.6449 5.43328 34.639C3.87285 31.9877 0.706735 26.5047 0.706735 26.3012C-0.242993 23.99 -0.242993 20.8402 0.752013 18.5517C0.864654 18.3028 0.978402 18.0533 1.11423 17.8498L8.41942 5.1384C8.43486 5.12236 8.45144 5.09526 8.46691 5.07257L8.48676 5.04767C9.97982 2.5324 13.5534 0.493408 16.4711 0.493408H31.1036C34.4287 0.493408 37.5044 2.26081 39.1552 5.1384C39.1675 5.16218 41.1983 8.68369 43.1186 12.0132L46.4837 17.8498Z" fill="#5187F1"/>
	<path d="M30.7885 24.844C30.6459 25.396 30.446 25.9049 30.1988 26.3701C27.6432 31.2413 19.8854 31.2188 17.3752 26.302C17.2217 26.0061 17.0859 25.6919 16.971 25.3589C16.7921 24.8401 16.6662 24.277 16.6022 23.6696C16.5635 23.2951 16.5492 22.904 16.5613 22.4957C16.4255 12.4352 31.1485 12.4352 31.0358 22.4957C31.0611 23.3498 30.9719 24.1326 30.7885 24.844Z" fill="#1878F1"/>
	<path d="M31.7141 35.6602C26.9423 38.4698 20.6089 38.4698 15.8603 35.6602C13.2817 37.2686 11.4496 39.6706 10.8389 42.4347C12.4678 43.6584 14.4799 44.4511 16.2899 44.4964C16.5505 44.5165 27.7837 44.5014 30.5138 44.4977L31.1035 44.4964H31.4656C33.2292 44.4059 35.1739 43.6131 36.7575 42.4347C36.1249 39.6934 34.2927 37.2686 31.7141 35.6602Z" fill="#1878F1"/>
	</g>
	<defs>
	<clipPath id="clip0_376_214">
	<rect width="48" height="45" fill="white"/>
	</clipPath>
	</defs>
	</svg>
