<svg width="257" height="240" viewBox="0 0 257 240" fill="none" xmlns="http://www.w3.org/2000/svg">
	<path d="M158.701 238.846H97.5443C91.7437 238.846 85.9684 238.08 80.3788 236.568C74.8797 235.081 69.588 232.881 64.6506 230.029C59.7131 227.178 55.1632 223.693 51.1271 219.673C47.0245 215.587 43.4746 210.968 40.5759 205.943L9.95465 152.866C7.05874 147.847 4.83793 142.466 3.35398 136.875C1.89405 131.374 1.15381 125.696 1.15381 120C1.15381 114.303 1.89405 108.626 3.35398 103.125C4.83793 97.5334 7.05874 92.1532 9.95465 87.1336L40.576 34.0567C43.4746 29.0323 47.0246 24.4128 51.1271 20.3265C55.1632 16.3064 59.7132 12.8221 64.6506 9.97049C69.588 7.11881 74.8798 4.91888 80.3788 3.43182C85.9685 1.92024 91.7438 1.15381 97.5443 1.15381H158.701C164.502 1.15381 170.277 1.92024 175.867 3.43182C181.366 4.91888 186.657 7.11881 191.595 9.97049C196.532 12.8222 201.082 16.3064 205.118 20.3265C209.221 24.4128 212.771 29.0323 215.67 34.0567L246.291 87.1336C249.187 92.1532 251.408 97.5334 252.891 103.125C254.351 108.626 255.092 114.303 255.092 120C255.092 125.696 254.351 131.374 252.891 136.875C251.408 142.466 249.187 147.847 246.291 152.866L215.67 205.943C212.771 210.968 209.221 215.587 205.118 219.673C201.082 223.693 196.532 227.178 191.595 230.029C186.657 232.881 181.366 235.081 175.867 236.568C170.277 238.08 164.502 238.846 158.701 238.846Z" fill="#F3F8FF"/>
	<path d="M97.5444 2.30769C91.8455 2.30769 86.1716 3.06065 80.6801 4.54566C75.2775 6.00668 70.0786 8.16801 65.2277 10.9697C60.3769 13.7714 55.9068 17.1945 51.9415 21.1441C47.9109 25.1586 44.4234 29.697 41.5755 34.6333L10.9542 87.7102C8.10903 92.6419 5.92719 97.9277 4.46932 103.421C3.03497 108.825 2.30771 114.403 2.30771 120C2.30771 125.597 3.03497 131.175 4.46932 136.579C5.92719 142.072 8.10903 147.358 10.9542 152.29L41.5755 205.367C44.4233 210.303 47.9109 214.841 51.9414 218.856C55.9067 222.805 60.3769 226.229 65.2277 229.03C70.0786 231.832 75.2775 233.993 80.6801 235.454C86.1715 236.939 91.8455 237.692 97.5444 237.692H158.701C164.4 237.692 170.074 236.939 175.566 235.454C180.968 233.993 186.167 231.832 191.018 229.03C195.869 226.229 200.339 222.805 204.304 218.856C208.335 214.841 211.822 210.303 214.67 205.367L245.291 152.29C248.137 147.358 250.318 142.072 251.776 136.579C253.211 131.175 253.938 125.597 253.938 120C253.938 114.403 253.211 108.825 251.776 103.421C250.318 97.9277 248.137 92.6419 245.291 87.7102L214.67 34.6333C211.822 29.697 208.335 25.1586 204.304 21.1441C200.339 17.1945 195.869 13.7714 191.018 10.9697C186.167 8.16801 180.968 6.00668 175.566 4.54566C170.074 3.06065 164.4 2.30769 158.701 2.30769H97.5444ZM97.5444 0H158.701C182.618 0 204.717 12.7636 216.669 33.4801L247.29 86.557C259.231 107.254 259.231 132.746 247.29 153.443L216.669 206.52C204.717 227.236 182.618 240 158.701 240H97.5444C73.6274 240 51.5284 227.236 39.5766 206.52L8.95528 153.443C-2.98509 132.746 -2.98509 107.254 8.95528 86.557L39.5766 33.4801C51.5284 12.7636 73.6274 0 97.5444 0Z" fill="white"/>
	<path d="M177.278 130.08L174.878 128.693C175.411 125.813 175.678 122.88 175.678 120C175.678 117.12 175.411 114.24 174.878 111.307L177.278 109.92C184.905 105.547 187.571 95.7333 183.198 88.0533C181.065 84.3733 177.598 81.7067 173.491 80.5867C169.385 79.4667 165.065 80.0533 161.331 82.1867L158.931 83.5733C154.451 79.7333 149.278 76.7467 143.678 74.7733V72C143.678 63.2 136.478 56 127.678 56C118.878 56 111.678 63.2 111.678 72V74.7733C106.078 76.7467 100.905 79.7333 96.4246 83.5733L94.0246 82.1867C90.3446 80.0533 86.0246 79.52 81.8646 80.5867C77.758 81.7067 74.2913 84.3733 72.158 88.0533C67.7846 95.68 70.398 105.493 78.0246 109.92L80.4246 111.307C79.8913 114.187 79.6246 117.12 79.6246 120C79.6246 122.88 79.8913 125.76 80.4246 128.693L78.0246 130.08C70.398 134.453 67.7313 144.267 72.1046 151.947C74.238 155.627 77.7046 158.293 81.8113 159.413C85.918 160.533 90.238 159.947 93.9713 157.813L96.3713 156.427C100.851 160.267 106.025 163.253 111.625 165.227V168C111.625 176.8 118.825 184 127.625 184C136.425 184 143.625 176.8 143.625 168V165.227C149.225 163.253 154.398 160.267 158.878 156.427L161.278 157.813C164.958 159.947 169.278 160.533 173.438 159.413C177.545 158.293 181.011 155.627 183.145 151.947C187.518 144.32 184.905 134.507 177.278 130.08ZM112.798 126.667C114.878 128.747 114.878 132.107 112.798 134.187C111.731 135.253 110.398 135.733 109.011 135.733C107.625 135.733 106.291 135.2 105.225 134.187L98.7713 127.733C94.6113 123.573 94.6113 116.853 98.7713 112.747L105.225 106.293C107.305 104.213 110.665 104.213 112.745 106.293C114.825 108.373 114.825 111.733 112.745 113.813L106.291 120.267L112.745 126.613L112.798 126.667ZM137.171 99.7333L128.638 142.4C128.158 144.96 125.918 146.667 123.411 146.667C123.091 146.667 122.718 146.667 122.345 146.56C119.465 145.973 117.598 143.2 118.185 140.267L126.718 97.6C127.305 94.72 130.078 92.8533 133.011 93.44C135.891 94.0267 137.758 96.8 137.171 99.7333ZM156.585 127.733L150.131 134.187C149.065 135.253 147.731 135.733 146.345 135.733C144.958 135.733 143.625 135.2 142.558 134.187C140.478 132.107 140.478 128.747 142.558 126.667L149.011 120.213L142.558 113.813C140.478 111.733 140.478 108.373 142.558 106.293C144.638 104.213 147.998 104.213 150.078 106.293L156.531 112.747C160.691 116.907 160.691 123.627 156.531 127.733H156.585Z" fill="url(#paint0_linear_171_207)"/>
	<defs>
	<linearGradient id="paint0_linear_171_207" x1="170" y1="169" x2="95" y2="56" gradientUnits="userSpaceOnUse">
	<stop stop-color="#1051C2"/>
	<stop offset="1" stop-color="#1F6AED"/>
	</linearGradient>
	</defs>
	</svg>
