<svg width="128" height="128" viewBox="0 0 128 128" fill="none" xmlns="http://www.w3.org/2000/svg">
<path d="M26.7251 100.218C26.1892 100.219 25.6572 100.127 25.1522 99.9483C20.953 98.4083 17.2188 95.8174 14.3063 92.423C11.3938 89.0286 9.40031 84.9441 8.51618 80.5598C7.63205 76.1754 7.88686 71.6375 9.25626 67.3797C10.6257 63.1218 13.0639 59.2862 16.3381 56.2392C16.9451 55.7259 17.4127 55.0676 17.6975 54.3254C17.9823 53.5832 18.0751 52.7812 17.9673 51.9936C17.103 47.4921 17.0501 42.8724 17.8112 38.3523C19.0795 30.7567 22.6543 23.7353 28.0503 18.2412C33.4464 12.7471 40.4023 9.04651 47.9739 7.64171C56.1959 6.11157 64.693 7.33557 72.1488 11.1241C79.6046 14.9126 85.603 21.0542 89.2146 28.5973C89.5485 29.2885 90.0399 29.8918 90.6493 30.3586C91.2588 30.8254 91.9693 31.1426 92.7236 31.2848C123.539 37.0411 131.537 79.3393 104.835 95.8468C104.314 96.1976 103.727 96.4405 103.11 96.5614C102.492 96.6822 101.857 96.6786 101.242 96.5507C100.626 96.4227 100.042 96.1731 99.524 95.8164C99.0061 95.4596 98.5646 95.0031 98.2256 94.4734C97.8865 93.9437 97.6567 93.3517 97.5496 92.732C97.4425 92.1123 97.4603 91.4775 97.6019 90.8647C97.7435 90.252 98.006 89.6738 98.3742 89.1639C98.7423 88.654 99.2086 88.2229 99.7457 87.8957C119.313 76.0198 113.363 44.5509 90.8783 40.5403C88.6773 40.1204 86.6069 39.1859 84.836 37.8132C83.0652 36.4404 81.6441 34.6683 80.6888 32.6415C78.1241 27.1887 73.8876 22.6957 68.5949 19.8152C63.3021 16.9347 57.2288 15.8168 51.2573 16.6238C45.2858 17.4309 39.7271 20.121 35.3889 24.3032C31.0507 28.4853 28.159 33.9418 27.1338 39.8797C26.5569 43.2904 26.5953 46.7768 27.2474 50.1739C27.6657 52.5563 27.467 55.0061 26.6703 57.29C25.8735 59.5738 24.5052 61.6156 22.6957 63.2208C20.6119 65.1596 19.0599 67.6003 18.188 70.3097C17.3161 73.0192 17.1533 75.9069 17.7152 78.6972C18.2771 81.4874 19.545 84.0871 21.3977 86.2478C23.2504 88.4085 25.6261 90.0583 28.2979 91.0394C29.3518 91.4079 30.241 92.1379 30.8077 93.0998C31.3743 94.0618 31.5818 95.1934 31.3932 96.2938C31.2047 97.3942 30.6323 98.3922 29.7776 99.1106C28.923 99.8289 27.8415 100.221 26.7251 100.218Z" fill="#E0E9FB"/>
<g opacity="0.8">
<path d="M92.9323 82.7431C94.0099 80.2049 92.8258 77.2737 90.2875 76.1962C87.7493 75.1186 84.8181 76.3027 83.7406 78.8409L69.1778 113.143C68.1002 115.682 69.2843 118.613 71.8225 119.69C74.3608 120.768 77.292 119.584 78.3695 117.046L92.9323 82.7431Z" fill="#E0E9FB"/>
<path opacity="0.4" d="M73.6875 119.692C76.4434 119.692 78.6775 117.458 78.6775 114.702C78.6775 111.946 76.4434 109.712 73.6875 109.712C70.9315 109.712 68.6974 111.946 68.6974 114.702C68.6974 117.458 70.9315 119.692 73.6875 119.692Z" fill="#E0E9FB"/>
</g>
<path opacity="0.9" d="M74.2067 82.738C75.2835 80.2011 74.1 77.2717 71.5631 76.1948C69.0262 75.118 66.0968 76.3016 65.0199 78.8384L50.8838 112.141C49.807 114.678 50.9906 117.607 53.5275 118.684C56.0643 119.761 58.9938 118.577 60.0706 116.041L74.2067 82.738Z" fill="#E0E9FB"/>
<path d="M65.4139 97.44C69.423 97.44 72.6729 94.19 72.6729 90.181C72.6729 86.1719 69.423 82.922 65.4139 82.922C61.4049 82.922 58.1549 86.1719 58.1549 90.181C58.1549 94.19 61.4049 97.44 65.4139 97.44Z" fill="#F1F3F6"/>
<path d="M65.4139 95.959C68.605 95.959 71.1919 93.3721 71.1919 90.181C71.1919 86.9899 68.605 84.403 65.4139 84.403C62.2228 84.403 59.6359 86.9899 59.6359 90.181C59.6359 93.3721 62.2228 95.959 65.4139 95.959Z" stroke="#CCD4E5" stroke-width="2.5"/>
<path d="M52.5922 82.7431C53.6698 80.2049 52.4857 77.2737 49.9475 76.1962C47.4093 75.1186 44.4781 76.3027 43.4005 78.8409L34.2742 100.338C33.1966 102.876 34.3807 105.807 36.9189 106.885C39.4571 107.963 42.3883 106.778 43.4659 104.24L52.5922 82.7431Z" fill="#E0E9FB"/>
<path opacity="0.5" d="M34.4554 118.625C37.2113 118.625 39.4454 116.391 39.4454 113.635C39.4454 110.879 37.2113 108.645 34.4554 108.645C31.6994 108.645 29.4653 110.879 29.4653 113.635C29.4653 116.391 31.6994 118.625 34.4554 118.625Z" fill="#E0E9FB"/>
</svg>
