<svg width="257" height="240" viewBox="0 0 257 240" fill="none" xmlns="http://www.w3.org/2000/svg">
	<path d="M158.701 238.846H97.5443C91.7437 238.846 85.9684 238.08 80.3788 236.568C74.8797 235.081 69.588 232.881 64.6506 230.029C59.7131 227.178 55.1632 223.693 51.1271 219.673C47.0245 215.587 43.4746 210.968 40.5759 205.943L9.95465 152.866C7.05874 147.847 4.83793 142.466 3.35398 136.875C1.89405 131.374 1.15381 125.696 1.15381 120C1.15381 114.303 1.89405 108.626 3.35398 103.125C4.83793 97.5334 7.05874 92.1532 9.95465 87.1336L40.576 34.0567C43.4746 29.0323 47.0246 24.4128 51.1271 20.3265C55.1632 16.3064 59.7132 12.8221 64.6506 9.97049C69.588 7.11881 74.8798 4.91888 80.3788 3.43182C85.9685 1.92024 91.7438 1.15381 97.5443 1.15381H158.701C164.502 1.15381 170.277 1.92024 175.867 3.43182C181.366 4.91888 186.657 7.11881 191.595 9.97049C196.532 12.8222 201.082 16.3064 205.118 20.3265C209.221 24.4128 212.771 29.0323 215.67 34.0567L246.291 87.1336C249.187 92.1532 251.408 97.5334 252.891 103.125C254.351 108.626 255.092 114.303 255.092 120C255.092 125.696 254.351 131.374 252.891 136.875C251.408 142.466 249.187 147.847 246.291 152.866L215.67 205.943C212.771 210.968 209.221 215.587 205.118 219.673C201.082 223.693 196.532 227.178 191.595 230.029C186.657 232.881 181.366 235.081 175.867 236.568C170.277 238.08 164.502 238.846 158.701 238.846Z" fill="#F3F8FF"/>
	<path d="M97.5444 2.30769C91.8455 2.30769 86.1716 3.06065 80.6801 4.54566C75.2775 6.00668 70.0786 8.16801 65.2277 10.9697C60.3769 13.7714 55.9068 17.1945 51.9415 21.1441C47.9109 25.1586 44.4234 29.697 41.5755 34.6333L10.9542 87.7102C8.10903 92.6419 5.92719 97.9277 4.46932 103.421C3.03497 108.825 2.30771 114.403 2.30771 120C2.30771 125.597 3.03497 131.175 4.46932 136.579C5.92719 142.072 8.10903 147.358 10.9542 152.29L41.5755 205.367C44.4233 210.303 47.9109 214.841 51.9414 218.856C55.9067 222.805 60.3769 226.229 65.2277 229.03C70.0786 231.832 75.2775 233.993 80.6801 235.454C86.1715 236.939 91.8455 237.692 97.5444 237.692H158.701C164.4 237.692 170.074 236.939 175.566 235.454C180.968 233.993 186.167 231.832 191.018 229.03C195.869 226.229 200.339 222.805 204.304 218.856C208.335 214.841 211.822 210.303 214.67 205.367L245.291 152.29C248.137 147.358 250.318 142.072 251.776 136.579C253.211 131.175 253.938 125.597 253.938 120C253.938 114.403 253.211 108.825 251.776 103.421C250.318 97.9277 248.137 92.6419 245.291 87.7102L214.67 34.6333C211.822 29.697 208.335 25.1586 204.304 21.1441C200.339 17.1945 195.869 13.7714 191.018 10.9697C186.167 8.16801 180.968 6.00668 175.566 4.54566C170.074 3.06065 164.4 2.30769 158.701 2.30769H97.5444ZM97.5444 0H158.701C182.618 0 204.717 12.7636 216.669 33.4801L247.29 86.557C259.231 107.254 259.231 132.746 247.29 153.443L216.669 206.52C204.717 227.236 182.618 240 158.701 240H97.5444C73.6274 240 51.5284 227.236 39.5766 206.52L8.95528 153.443C-2.98509 132.746 -2.98509 107.254 8.95528 86.557L39.5766 33.4801C51.5284 12.7636 73.6274 0 97.5444 0Z" fill="white"/>
	<path d="M73 152.667V110.667H161.108C153.777 114.109 148.703 121.541 148.703 130.154V167.377C148.703 170.443 149.346 173.36 150.505 176H96.4059C83.4999 176 73 165.533 73 152.667Z" fill="url(#paint0_linear_171_200)"/>
	<path d="M73 96.6667V101.333H185.348V96.6667C185.348 83.8007 174.848 73.3333 161.942 73.3333H157.261V68.6667C157.261 66.0907 155.164 64 152.58 64C149.996 64 147.899 66.0907 147.899 68.6667V73.3333H110.449V68.6667C110.449 66.0907 108.352 64 105.768 64C103.184 64 101.087 66.0907 101.087 68.6667V73.3333H96.4059C83.4999 73.3333 73 83.8007 73 96.6667Z" fill="url(#paint1_linear_171_200)"/>
	<path d="M164.053 176C162.158 176 160.699 175.515 159.675 174.545C158.702 173.524 158.216 172.095 158.216 170.258C158.216 168.42 158.702 167.017 159.675 166.047C160.699 165.077 162.158 164.592 164.053 164.592H170.965V133.278H177.416L166.28 140.092C164.949 140.909 163.694 141.241 162.517 141.088C161.339 140.883 160.341 140.373 159.521 139.556C158.702 138.74 158.165 137.744 157.909 136.57C157.653 135.396 157.755 134.222 158.216 133.048C158.677 131.874 159.598 130.879 160.981 130.063L171.579 123.478C172.705 122.764 173.857 122.228 175.035 121.87C176.264 121.513 177.544 121.334 178.875 121.334C180.821 121.334 182.331 121.845 183.406 122.866C184.481 123.835 185.019 125.265 185.019 127.153V164.592H191.163C193.058 164.592 194.491 165.077 195.464 166.047C196.488 167.017 197 168.42 197 170.258C197 172.095 196.488 173.524 195.464 174.545C194.491 175.515 193.058 176 191.163 176H164.053Z" fill="url(#paint2_linear_171_200)"/>
	<defs>
	<linearGradient id="paint0_linear_171_200" x1="73" y1="99.875" x2="173.071" y2="171.043" gradientUnits="userSpaceOnUse">
	<stop stop-color="#1F6AED"/>
	<stop offset="1" stop-color="#1051C2"/>
	</linearGradient>
	<linearGradient id="paint1_linear_171_200" x1="73" y1="99.875" x2="173.071" y2="171.043" gradientUnits="userSpaceOnUse">
	<stop stop-color="#1F6AED"/>
	<stop offset="1" stop-color="#1051C2"/>
	</linearGradient>
	<linearGradient id="paint2_linear_171_200" x1="73" y1="99.875" x2="173.071" y2="171.043" gradientUnits="userSpaceOnUse">
	<stop stop-color="#1F6AED"/>
	<stop offset="1" stop-color="#1051C2"/>
	</linearGradient>
	</defs>
	</svg>
