<svg width="257" height="240" viewBox="0 0 257 240" fill="none" xmlns="http://www.w3.org/2000/svg">
<path d="M158.701 238.846H97.5444C91.7438 238.846 85.9685 238.08 80.3789 236.568C74.8798 235.081 69.5881 232.881 64.6507 230.029C59.7132 227.178 55.1633 223.693 51.1272 219.673C47.0246 215.587 43.4747 210.968 40.576 205.943L9.95474 152.866C7.05883 147.847 4.83803 142.466 3.35408 136.875C1.89415 131.374 1.1539 125.696 1.1539 120C1.1539 114.303 1.89415 108.626 3.35408 103.125C4.83803 97.5334 7.05883 92.1532 9.95474 87.1336L40.5761 34.0567C43.4747 29.0323 47.0247 24.4128 51.1272 20.3265C55.1633 16.3064 59.7133 12.8221 64.6507 9.97049C69.5881 7.11881 74.8798 4.91888 80.3789 3.43182C85.9686 1.92024 91.7439 1.15381 97.5444 1.15381H158.701C164.502 1.15381 170.277 1.92024 175.867 3.43182C181.366 4.91888 186.658 7.11881 191.595 9.97049C196.532 12.8222 201.082 16.3064 205.118 20.3265C209.221 24.4128 212.771 29.0323 215.67 34.0567L246.291 87.1336C249.187 92.1532 251.408 97.5334 252.892 103.125C254.352 108.626 255.092 114.303 255.092 120C255.092 125.696 254.352 131.374 252.892 136.875C251.408 142.466 249.187 147.847 246.291 152.866L215.67 205.943C212.771 210.968 209.221 215.587 205.118 219.673C201.082 223.693 196.532 227.178 191.595 230.029C186.658 232.881 181.366 235.081 175.867 236.568C170.277 238.08 164.502 238.846 158.701 238.846Z" fill="#F3F8FF"/>
<path d="M97.5444 2.30769C91.8455 2.30769 86.1716 3.06065 80.6801 4.54566C75.2775 6.00668 70.0786 8.16801 65.2277 10.9697C60.3769 13.7714 55.9068 17.1945 51.9415 21.1441C47.9109 25.1586 44.4234 29.697 41.5755 34.6333L10.9542 87.7102C8.10903 92.6419 5.92719 97.9277 4.46932 103.421C3.03497 108.825 2.30771 114.403 2.30771 120C2.30771 125.597 3.03497 131.175 4.46932 136.579C5.92719 142.072 8.10903 147.358 10.9542 152.29L41.5755 205.367C44.4233 210.303 47.9109 214.841 51.9414 218.856C55.9067 222.805 60.3769 226.229 65.2277 229.03C70.0786 231.832 75.2775 233.993 80.6801 235.454C86.1715 236.939 91.8455 237.692 97.5444 237.692H158.701C164.4 237.692 170.074 236.939 175.566 235.454C180.968 233.993 186.167 231.832 191.018 229.03C195.869 226.229 200.339 222.805 204.304 218.856C208.335 214.841 211.822 210.303 214.67 205.367L245.291 152.29C248.137 147.358 250.318 142.072 251.776 136.579C253.211 131.175 253.938 125.597 253.938 120C253.938 114.403 253.211 108.825 251.776 103.421C250.318 97.9277 248.137 92.6419 245.291 87.7102L214.67 34.6333C211.822 29.697 208.335 25.1586 204.304 21.1441C200.339 17.1945 195.869 13.7714 191.018 10.9697C186.167 8.16801 180.968 6.00668 175.566 4.54566C170.074 3.06065 164.4 2.30769 158.701 2.30769H97.5444ZM97.5444 0H158.701C182.618 0 204.717 12.7636 216.669 33.4801L247.29 86.557C259.231 107.254 259.231 132.746 247.29 153.443L216.669 206.52C204.717 227.236 182.618 240 158.701 240H97.5444C73.6274 240 51.5284 227.236 39.5766 206.52L8.95528 153.443C-2.98509 132.746 -2.98509 107.254 8.95528 86.557L39.5766 33.4801C51.5284 12.7636 73.6274 0 97.5444 0Z" fill="white"/>
<path fill-rule="evenodd" clip-rule="evenodd" d="M128.449 69.8766C113.704 52.6382 89.1156 48.0011 70.6409 63.7863C52.1661 79.5716 49.5651 105.964 64.0735 124.633C76.1361 140.155 112.642 172.893 124.607 183.489C125.945 184.674 126.615 185.267 127.395 185.5C128.077 185.703 128.822 185.703 129.504 185.5C130.284 185.267 130.954 184.674 132.292 183.489C144.257 172.893 180.763 140.155 192.826 124.633C207.334 105.964 205.05 79.4055 186.258 63.7863C167.466 48.1672 143.195 52.6382 128.449 69.8766Z" fill="#1F6AED" stroke="#1F6AED" stroke-width="8" stroke-linecap="round" stroke-linejoin="round"/>
</svg>
