<svg width="257" height="240" viewBox="0 0 257 240" fill="none" xmlns="http://www.w3.org/2000/svg">
	<path d="M158.701 238.846H97.5443C91.7437 238.846 85.9684 238.08 80.3788 236.568C74.8797 235.081 69.588 232.881 64.6506 230.029C59.7131 227.178 55.1632 223.693 51.1271 219.673C47.0245 215.587 43.4746 210.968 40.5759 205.943L9.95465 152.866C7.05874 147.847 4.83793 142.466 3.35398 136.875C1.89405 131.374 1.15381 125.696 1.15381 120C1.15381 114.303 1.89405 108.626 3.35398 103.125C4.83793 97.5334 7.05874 92.1532 9.95465 87.1336L40.576 34.0567C43.4746 29.0323 47.0246 24.4128 51.1271 20.3265C55.1632 16.3064 59.7132 12.8221 64.6506 9.97049C69.588 7.11881 74.8798 4.91888 80.3788 3.43182C85.9685 1.92024 91.7438 1.15381 97.5443 1.15381H158.701C164.502 1.15381 170.277 1.92024 175.867 3.43182C181.366 4.91888 186.657 7.11881 191.595 9.97049C196.532 12.8222 201.082 16.3064 205.118 20.3265C209.221 24.4128 212.771 29.0323 215.67 34.0567L246.291 87.1336C249.187 92.1532 251.408 97.5334 252.891 103.125C254.351 108.626 255.092 114.303 255.092 120C255.092 125.696 254.351 131.374 252.891 136.875C251.408 142.466 249.187 147.847 246.291 152.866L215.67 205.943C212.771 210.968 209.221 215.587 205.118 219.673C201.082 223.693 196.532 227.178 191.595 230.029C186.657 232.881 181.366 235.081 175.867 236.568C170.277 238.08 164.502 238.846 158.701 238.846Z" fill="#F3F8FF"/>
	<path d="M97.5444 2.30769C91.8455 2.30769 86.1716 3.06065 80.6801 4.54566C75.2775 6.00668 70.0786 8.16801 65.2277 10.9697C60.3769 13.7714 55.9068 17.1945 51.9415 21.1441C47.9109 25.1586 44.4234 29.697 41.5755 34.6333L10.9542 87.7102C8.10903 92.6419 5.92719 97.9277 4.46932 103.421C3.03497 108.825 2.30771 114.403 2.30771 120C2.30771 125.597 3.03497 131.175 4.46932 136.579C5.92719 142.072 8.10903 147.358 10.9542 152.29L41.5755 205.367C44.4233 210.303 47.9109 214.841 51.9414 218.856C55.9067 222.805 60.3769 226.229 65.2277 229.03C70.0786 231.832 75.2775 233.993 80.6801 235.454C86.1715 236.939 91.8455 237.692 97.5444 237.692H158.701C164.4 237.692 170.074 236.939 175.566 235.454C180.968 233.993 186.167 231.832 191.018 229.03C195.869 226.229 200.339 222.805 204.304 218.856C208.335 214.841 211.822 210.303 214.67 205.367L245.291 152.29C248.137 147.358 250.318 142.072 251.776 136.579C253.211 131.175 253.938 125.597 253.938 120C253.938 114.403 253.211 108.825 251.776 103.421C250.318 97.9277 248.137 92.6419 245.291 87.7102L214.67 34.6333C211.822 29.697 208.335 25.1586 204.304 21.1441C200.339 17.1945 195.869 13.7714 191.018 10.9697C186.167 8.16801 180.968 6.00668 175.566 4.54566C170.074 3.06065 164.4 2.30769 158.701 2.30769H97.5444ZM97.5444 0H158.701C182.618 0 204.717 12.7636 216.669 33.4801L247.29 86.557C259.231 107.254 259.231 132.746 247.29 153.443L216.669 206.52C204.717 227.236 182.618 240 158.701 240H97.5444C73.6274 240 51.5284 227.236 39.5766 206.52L8.95528 153.443C-2.98509 132.746 -2.98509 107.254 8.95528 86.557L39.5766 33.4801C51.5284 12.7636 73.6274 0 97.5444 0Z" fill="white"/>
	<g clip-path="url(#clip0_171_310)">
	<path d="M128.629 162.837L80.64 183.04C79.1253 183.675 77.5413 183.989 75.9733 183.989C72.8693 183.989 69.824 182.768 67.5253 180.475C64.0693 177.019 63.0613 171.872 64.96 167.365L85.1627 119.371L128.629 162.837ZM150.443 132.117L115.888 97.5627C112.491 94.16 107.637 92.688 102.928 93.6107C98.2133 94.5387 94.2827 97.728 92.416 102.165L89.6373 108.768L139.248 158.379L145.851 155.6C150.283 153.733 153.477 149.803 154.4 145.088C155.323 140.368 153.845 135.52 150.448 132.123L150.443 132.117ZM148.245 96.56C152.139 91.4294 154.293 85.9787 154.656 80.3414C155.573 65.9574 145.083 57.504 144.64 57.1467C142.347 55.344 139.035 55.7227 137.195 58.0107C135.36 60.2934 135.728 63.6427 137.995 65.4934C138.261 65.712 144.565 70.96 144.011 79.6587C143.787 83.1627 142.352 86.6774 139.755 90.1067C137.973 92.4534 138.432 95.7974 140.779 97.5787C141.744 98.3094 142.875 98.6614 144 98.6614C145.611 98.6614 147.205 97.9307 148.251 96.5494L148.245 96.56ZM189.739 129.696C192.149 128 192.725 124.672 191.024 122.261C189.035 119.44 183.632 114.667 176 114.667C171.861 114.667 167.973 115.947 164.757 118.373C162.405 120.144 161.941 123.493 163.712 125.84C165.488 128.187 168.827 128.661 171.184 126.88C172.549 125.851 174.171 125.328 176 125.328C179.888 125.328 182.187 128.251 182.347 128.459C183.387 129.899 185.013 130.661 186.672 130.661C187.733 130.661 188.805 130.341 189.739 129.685V129.696ZM176 64.0054C176 68.4214 179.584 72.0054 184 72.0054C188.416 72.0054 192 68.4214 192 64.0054C192 59.5894 188.416 56.0054 184 56.0054C179.584 56.0054 176 59.5894 176 64.0054ZM165.333 90.672C165.333 95.088 168.917 98.672 173.333 98.672C177.749 98.672 181.333 95.088 181.333 90.672C181.333 86.256 177.749 82.672 173.333 82.672C168.917 82.672 165.333 86.256 165.333 90.672ZM106.667 69.3334C106.667 73.7494 110.251 77.3334 114.667 77.3334C119.083 77.3334 122.667 73.7494 122.667 69.3334C122.667 64.9174 119.083 61.3334 114.667 61.3334C110.251 61.3334 106.667 64.9174 106.667 69.3334ZM170.667 154.667C170.667 159.083 174.251 162.667 178.667 162.667C183.083 162.667 186.667 159.083 186.667 154.667C186.667 150.251 183.083 146.667 178.667 146.667C174.251 146.667 170.667 150.251 170.667 154.667ZM69.3333 74.6667C69.3333 79.0827 72.9173 82.6667 77.3333 82.6667C81.7493 82.6667 85.3333 79.0827 85.3333 74.6667C85.3333 70.2507 81.7493 66.6667 77.3333 66.6667C72.9173 66.6667 69.3333 70.2507 69.3333 74.6667ZM144 176C144 180.416 147.584 184 152 184C156.416 184 160 180.416 160 176C160 171.584 156.416 168 152 168C147.584 168 144 171.584 144 176Z" fill="url(#paint0_linear_171_310)"/>
	</g>
	<defs>
	<linearGradient id="paint0_linear_171_310" x1="64" y1="56" x2="192" y2="184" gradientUnits="userSpaceOnUse">
	<stop stop-color="#1F6AED"/>
	<stop offset="1" stop-color="#1051C2"/>
	</linearGradient>
	<clipPath id="clip0_171_310">
	<rect width="128" height="128" fill="white" transform="translate(64 56)"/>
	</clipPath>
	</defs>
	</svg>
