<svg width="257" height="240" viewBox="0 0 257 240" fill="none" xmlns="http://www.w3.org/2000/svg">
	<path d="M158.701 238.846H97.5443C91.7437 238.846 85.9684 238.08 80.3788 236.568C74.8797 235.081 69.588 232.881 64.6506 230.029C59.7131 227.178 55.1632 223.693 51.1271 219.673C47.0245 215.587 43.4746 210.968 40.5759 205.943L9.95465 152.866C7.05874 147.847 4.83793 142.466 3.35398 136.875C1.89405 131.374 1.15381 125.696 1.15381 120C1.15381 114.303 1.89405 108.626 3.35398 103.125C4.83793 97.5334 7.05874 92.1532 9.95465 87.1336L40.576 34.0567C43.4746 29.0323 47.0246 24.4128 51.1271 20.3265C55.1632 16.3064 59.7132 12.8221 64.6506 9.97049C69.588 7.11881 74.8798 4.91888 80.3788 3.43182C85.9685 1.92024 91.7438 1.15381 97.5443 1.15381H158.701C164.502 1.15381 170.277 1.92024 175.867 3.43182C181.366 4.91888 186.657 7.11881 191.595 9.97049C196.532 12.8222 201.082 16.3064 205.118 20.3265C209.221 24.4128 212.771 29.0323 215.67 34.0567L246.291 87.1336C249.187 92.1532 251.408 97.5334 252.891 103.125C254.351 108.626 255.092 114.303 255.092 120C255.092 125.696 254.351 131.374 252.891 136.875C251.408 142.466 249.187 147.847 246.291 152.866L215.67 205.943C212.771 210.968 209.221 215.587 205.118 219.673C201.082 223.693 196.532 227.178 191.595 230.029C186.657 232.881 181.366 235.081 175.867 236.568C170.277 238.08 164.502 238.846 158.701 238.846Z" fill="#F3F8FF"/>
	<path d="M97.5444 2.30769C91.8455 2.30769 86.1716 3.06065 80.6801 4.54566C75.2775 6.00668 70.0786 8.16801 65.2277 10.9697C60.3769 13.7714 55.9068 17.1945 51.9415 21.1441C47.9109 25.1586 44.4234 29.697 41.5755 34.6333L10.9542 87.7102C8.10903 92.6419 5.92719 97.9277 4.46932 103.421C3.03497 108.825 2.30771 114.403 2.30771 120C2.30771 125.597 3.03497 131.175 4.46932 136.579C5.92719 142.072 8.10903 147.358 10.9542 152.29L41.5755 205.367C44.4233 210.303 47.9109 214.841 51.9414 218.856C55.9067 222.805 60.3769 226.229 65.2277 229.03C70.0786 231.832 75.2775 233.993 80.6801 235.454C86.1715 236.939 91.8455 237.692 97.5444 237.692H158.701C164.4 237.692 170.074 236.939 175.566 235.454C180.968 233.993 186.167 231.832 191.018 229.03C195.869 226.229 200.339 222.805 204.304 218.856C208.335 214.841 211.822 210.303 214.67 205.367L245.291 152.29C248.137 147.358 250.318 142.072 251.776 136.579C253.211 131.175 253.938 125.597 253.938 120C253.938 114.403 253.211 108.825 251.776 103.421C250.318 97.9277 248.137 92.6419 245.291 87.7102L214.67 34.6333C211.822 29.697 208.335 25.1586 204.304 21.1441C200.339 17.1945 195.869 13.7714 191.018 10.9697C186.167 8.16801 180.968 6.00668 175.566 4.54566C170.074 3.06065 164.4 2.30769 158.701 2.30769H97.5444ZM97.5444 0H158.701C182.618 0 204.717 12.7636 216.669 33.4801L247.29 86.557C259.231 107.254 259.231 132.746 247.29 153.443L216.669 206.52C204.717 227.236 182.618 240 158.701 240H97.5444C73.6274 240 51.5284 227.236 39.5766 206.52L8.95528 153.443C-2.98509 132.746 -2.98509 107.254 8.95528 86.557L39.5766 33.4801C51.5284 12.7636 73.6274 0 97.5444 0Z" fill="white"/>
	<g clip-path="url(#clip0_171_301)">
	<path d="M189.08 108.038C189.274 108.39 189.478 108.759 189.636 109.142C192.948 116.093 192.813 126.124 189.02 132.921L175.215 156.817C171.132 150.578 165.414 145.225 158.54 141.182C158.714 140.912 158.867 140.643 159.002 140.373C171.19 115.708 158.54 83.1296 128.003 83.6106C96.9262 83.091 84.6411 116.266 97.3688 141.259C90.5331 145.302 84.8535 150.635 80.7902 156.855C80.6952 156.653 79.3433 154.33 77.4893 151.142C72.9821 143.393 65.505 130.541 65.8877 130.649C63.3267 124.449 63.3652 115.977 66.0419 109.854C66.2026 109.423 66.4019 109.006 66.6116 108.605C66.7281 108.381 66.8485 108.162 66.966 107.948L86.6436 73.8292C86.6728 73.7906 86.6972 73.7462 86.7216 73.7026C86.7461 73.6596 86.7696 73.6174 86.7978 73.5795C90.8602 66.821 100.468 61.3333 108.305 61.3333H147.661C156.595 61.3333 164.856 66.1083 169.304 73.8292C169.349 73.8865 176.192 85.7326 181.803 95.4445C185.692 102.176 188.987 107.882 189.02 107.929L189.08 108.038Z" fill="#0048C5"/>
	<path d="M109.9 153.91C120.24 159.763 135.912 159.744 146.021 153.872C154.647 158.146 160.924 165.425 162.869 173.973C158.613 177.112 153.376 179.249 148.64 179.48C148.332 179.519 147.985 179.519 147.677 179.519C147.408 179.511 142.053 179.515 135.351 179.519H135C123.515 179.527 108.314 179.536 107.821 179.499C102.968 179.384 97.5192 177.227 93.1484 173.973C95.0551 165.444 101.313 158.185 109.9 153.91Z" fill="#0A5BE8"/>
	<path d="M147.446 120.445C148.12 147.305 107.878 147.285 108.552 120.445C108.186 93.4309 147.793 93.4309 147.446 120.445Z" fill="#0A5BE8"/>
	</g>
	<defs>
	<clipPath id="clip0_171_301">
	<rect width="128" height="128" fill="white" transform="translate(64 56)"/>
	</clipPath>
	</defs>
	</svg>
