<svg width="603" height="184" viewBox="0 0 603 184" fill="none" xmlns="http://www.w3.org/2000/svg">
	<g clip-path="url(#clip0_76_726)">
	<path d="M276.471 0H226.05C216.768 0 209.244 7.52462 209.244 16.8067V67.2269C209.244 76.509 216.768 84.0336 226.05 84.0336H276.471C285.753 84.0336 293.277 76.509 293.277 67.2269V16.8067C293.277 7.52462 285.753 0 276.471 0Z" fill="#ECF2FF"/>
	<path d="M276.471 0.262695H226.05C216.913 0.262695 209.506 7.66975 209.506 16.8068V67.227C209.506 76.364 216.913 83.7711 226.05 83.7711H276.471C285.608 83.7711 293.015 76.364 293.015 67.227V16.8068C293.015 7.66975 285.608 0.262695 276.471 0.262695Z" stroke="white" stroke-opacity="0.5"/>
	<path d="M231.167 61.119C230.882 61.1195 230.599 61.071 230.33 60.9757C228.096 60.1565 226.11 58.7783 224.561 56.9727C223.012 55.1671 221.951 52.9944 221.481 50.6622C221.011 48.33 221.146 45.9161 221.875 43.6512C222.603 41.3863 223.9 39.346 225.642 37.7251C225.965 37.4521 226.213 37.1019 226.365 36.7071C226.516 36.3124 226.566 35.8857 226.508 35.4667C226.048 33.0722 226.02 30.6148 226.425 28.2104C227.1 24.17 229.001 20.4351 231.872 17.5126C234.742 14.5901 238.442 12.6216 242.47 11.8743C246.843 11.0604 251.363 11.7115 255.329 13.7267C259.295 15.742 262.486 19.0089 264.407 23.0214C264.585 23.3891 264.846 23.71 265.171 23.9583C265.495 24.2066 265.873 24.3753 266.274 24.451C282.666 27.513 286.921 50.013 272.717 58.7939C272.439 58.9805 272.127 59.1097 271.799 59.174C271.47 59.2383 271.133 59.2364 270.805 59.1683C270.478 59.1003 270.167 58.9675 269.891 58.7777C269.616 58.588 269.381 58.3451 269.201 58.0634C269.02 57.7816 268.898 57.4667 268.841 57.1371C268.784 56.8074 268.794 56.4697 268.869 56.1438C268.944 55.8179 269.084 55.5103 269.28 55.239C269.476 54.9678 269.724 54.7385 270.009 54.5644C280.418 48.2472 277.253 31.5077 265.292 29.3743C264.122 29.151 263.02 28.6539 262.078 27.9236C261.136 27.1934 260.38 26.2508 259.872 25.1726C258.508 22.2721 256.254 19.8821 253.439 18.3498C250.624 16.8176 247.393 16.2229 244.216 16.6522C241.04 17.0816 238.083 18.5125 235.775 20.7372C233.468 22.9618 231.93 25.8643 231.384 29.0229C231.077 30.8372 231.098 32.6917 231.445 34.4988C231.667 35.7661 231.562 37.0692 231.138 38.2841C230.714 39.499 229.986 40.5851 229.023 41.4389C227.915 42.4703 227.089 43.7685 226.626 45.2098C226.162 46.6511 226.075 48.1871 226.374 49.6714C226.673 51.1556 227.347 52.5385 228.333 53.6879C229.319 54.8372 230.582 55.7148 232.004 56.2367C232.564 56.4327 233.037 56.821 233.339 57.3327C233.64 57.8444 233.75 58.4464 233.65 59.0317C233.55 59.6171 233.245 60.1479 232.791 60.5301C232.336 60.9122 231.761 61.1209 231.167 61.119Z" fill="url(#paint0_linear_76_726)"/>
	<path d="M256.424 51.8209C256.997 50.4715 256.367 48.9132 255.018 48.3404C253.668 47.7676 252.11 48.3972 251.537 49.7466L244.018 67.4615C243.445 68.811 244.075 70.3693 245.424 70.9421C246.774 71.5149 248.332 70.8853 248.905 69.5358L256.424 51.8209Z" fill="#2360C9"/>
	<path d="M266.385 51.8237C266.959 50.4735 266.329 48.9143 264.979 48.3411C263.628 47.7679 262.069 48.3978 261.496 49.7479L253.75 67.9948C253.176 69.3449 253.806 70.9042 255.156 71.4774C256.507 72.0506 258.066 71.4207 258.639 70.0705L266.385 51.8237Z" fill="#0A5BE8"/>
	<path opacity="0.75" d="M259.044 64.7212C260.51 64.7212 261.699 63.5328 261.699 62.0668C261.699 60.6008 260.51 59.4124 259.044 59.4124C257.578 59.4124 256.39 60.6008 256.39 62.0668C256.39 63.5328 257.578 64.7212 259.044 64.7212Z" fill="#0A5BE8"/>
	<path opacity="0.4" d="M256.148 71.478C257.614 71.478 258.803 70.2896 258.803 68.8236C258.803 67.3576 257.614 66.1692 256.148 66.1692C254.682 66.1692 253.494 67.3576 253.494 68.8236C253.494 70.2896 254.682 71.478 256.148 71.478Z" fill="#0A5BE8"/>
	<path d="M244.927 51.8237C245.5 50.4735 244.87 48.9143 243.52 48.3411C242.17 47.7679 240.611 48.3978 240.038 49.7479L235.183 61.183C234.61 62.5332 235.24 64.0924 236.59 64.6656C237.94 65.2388 239.499 64.609 240.072 63.2588L244.927 51.8237Z" fill="#0A5BE8"/>
	<path d="M251.747 59.6414C253.879 59.6414 255.608 57.9126 255.608 55.78C255.608 53.6475 253.879 51.9187 251.747 51.9187C249.614 51.9187 247.885 53.6475 247.885 55.78C247.885 57.9126 249.614 59.6414 251.747 59.6414Z" fill="#C7D4E9"/>
	<path d="M251.747 58.8536C253.444 58.8536 254.82 57.4775 254.82 55.7801C254.82 54.0826 253.444 52.7065 251.747 52.7065C250.049 52.7065 248.673 54.0826 248.673 55.7801C248.673 57.4775 250.049 58.8536 251.747 58.8536Z" stroke="#2360C9" stroke-width="3"/>
	<path opacity="0.5" d="M235.279 70.9106C236.745 70.9106 237.933 69.7222 237.933 68.2562C237.933 66.7902 236.745 65.6018 235.279 65.6018C233.813 65.6018 232.624 66.7902 232.624 68.2562C232.624 69.7222 233.813 70.9106 235.279 70.9106Z" fill="#2360C9"/>
	</g>
	<g clip-path="url(#clip1_76_726)">
	<path d="M69.7479 0H19.3277C10.0456 0 2.521 7.52462 2.521 16.8067V67.2269C2.521 76.509 10.0456 84.0336 19.3277 84.0336H69.7479C79.03 84.0336 86.5546 76.509 86.5546 67.2269V16.8067C86.5546 7.52462 79.03 0 69.7479 0Z" fill="#ECF2FF"/>
	<path d="M69.7479 0.262695H19.3277C10.1907 0.262695 2.7836 7.66975 2.7836 16.8068V67.227C2.7836 76.364 10.1907 83.7711 19.3277 83.7711H69.7479C78.8849 83.7711 86.292 76.364 86.292 67.227V16.8068C86.292 7.66975 78.8849 0.262695 69.7479 0.262695Z" stroke="white" stroke-opacity="0.5"/>
	<path opacity="0.1" d="M52.1964 35.8594C49.8104 33.4351 49.833 33.2418 46.9968 32.3694C44.1607 31.497 40.8409 32.3694 40.8409 32.3694L34.2873 46.122C34.0123 46.7308 33.988 47.4234 34.2197 48.05C34.4513 48.6766 34.9203 49.1868 35.5252 49.4703L50.104 57.3962C50.5357 57.6109 50.9012 57.9384 51.1617 58.3441C51.4221 58.7498 51.5679 59.2184 51.5835 59.7003V73.3657C51.5835 74.8752 50.1623 76.0968 48.4086 76.0968C46.6549 76.0968 45.2337 74.8731 45.2337 73.3657V61.2061L32.135 54.1C28.2206 51.9739 26.6476 47.7329 28.406 44.0475L33.9732 32.3689H26.9349C26.3718 32.3523 25.8141 32.4827 25.3167 32.7473C24.8194 33.0119 24.3996 33.4015 24.0987 33.8778L19.5026 41.7901C19.0521 42.4653 18.3768 42.9588 17.5968 43.1831C16.8167 43.4073 15.9824 43.3477 15.2421 43.0149C13.6728 42.34 13.0362 40.6982 13.8198 39.3468L18.417 31.4209C20.0257 28.642 23.3283 26.8904 26.9349 26.9041H47.9611C51.2999 26.9125 54.3928 28.4172 56.1234 30.8752C62.5546 40.0637 54.5825 38.2838 52.1964 35.8594ZM28.9632 56.4603C27.3351 55.8994 25.4874 56.5811 24.8361 57.9834C24.5579 58.52 24.1329 58.9665 23.6107 59.2708C23.0885 59.5752 22.4906 59.7248 21.8865 59.7024H13.4863C11.7327 59.7003 10.3114 60.9246 10.3114 62.4335C10.3114 63.9424 11.7327 65.1646 13.4863 65.1646H21.8865C25.7852 65.1751 29.292 63.1299 30.7316 60.0102C31.3829 58.6089 30.5914 57.0165 28.9632 56.4571V56.4603ZM51.5835 24.1698C55.9669 24.1698 59.5205 21.1105 59.5205 17.3369C59.5205 13.5632 55.9669 10.5044 51.5835 10.5044C47.2001 10.5044 43.6465 13.5637 43.6465 17.3374C43.6465 21.111 47.2001 24.1698 51.5835 24.1698Z" fill="url(#paint1_linear_76_726)"/>
	<path opacity="0.52" d="M75.0879 43.3015C75.0879 43.6601 75.0172 44.0153 74.88 44.3466C74.7427 44.678 74.5415 44.979 74.2879 45.2326C74.0343 45.4862 73.7333 45.6874 73.4019 45.8247C73.0706 45.9619 72.7154 46.0326 72.3568 46.0326H64.5107C63.0984 46.0277 61.711 45.6603 60.4816 44.9654C59.2521 44.2705 58.2217 43.2715 57.4891 42.0641C57.4891 42.0641 55.8042 38.2826 53.7501 35.8571C51.696 33.4317 51.7176 33.2395 49.2733 32.3671C46.8289 31.4947 43.9739 32.3671 43.9739 32.3671L38.3337 46.1218C38.0889 46.7161 38.0616 47.3777 38.2565 47.9901C38.4515 48.6025 38.8561 49.1266 39.3993 49.4701L51.9518 57.396C52.3411 57.6416 52.6619 57.9816 52.8846 58.3845C53.1073 58.7873 53.2245 59.2398 53.2255 59.7001V73.3655C53.2255 74.0904 52.9375 74.7856 52.4249 75.2982C51.9124 75.8108 51.2172 76.0987 50.4923 76.0987C49.7674 76.0987 49.0722 75.8108 48.5596 75.2982C48.047 74.7856 47.7591 74.0904 47.7591 73.3655V61.2059L36.4802 54.0998C34.8477 53.0699 33.6308 51.4971 33.0439 49.6583C32.457 47.8194 32.5376 45.8325 33.2717 44.0473L38.0658 32.3687H32.0033C31.4959 32.3667 30.9981 32.5069 30.5663 32.7733C30.1345 33.0397 29.7859 33.4217 29.56 33.876L25.6052 41.7883C25.2746 42.4253 24.7068 42.9067 24.0243 43.1287C23.3419 43.3508 22.5995 43.2956 21.9574 42.9751C21.3153 42.6546 20.8249 42.0946 20.5921 41.4157C20.3592 40.7369 20.4026 39.9938 20.7129 39.3466L24.6703 31.4207C25.3494 30.0585 26.3961 28.9136 27.692 28.1154C28.9879 27.3172 30.4813 26.8975 32.0033 26.9039H50.1047C51.5181 26.9081 52.9067 27.2755 54.1371 27.9709C55.3676 28.6663 56.3987 29.6663 57.1315 30.875L62.1735 39.2463C62.4176 39.6486 62.7609 39.9815 63.1704 40.2131C63.58 40.4447 64.0422 40.5674 64.5127 40.5693H72.3568C72.7155 40.5693 73.0707 40.64 73.4022 40.7773C73.7336 40.9146 74.0347 41.1159 74.2883 41.3696C74.5419 41.6233 74.7431 41.9245 74.8803 42.256C75.0175 42.5875 75.088 42.9427 75.0879 43.3015ZM33.7496 56.4601C33.4164 56.3265 33.06 56.2599 32.701 56.2641C32.3419 56.2684 31.9873 56.3434 31.6573 56.4849C31.3272 56.6263 31.0284 56.8315 30.7777 57.0886C30.5271 57.3457 30.3296 57.6497 30.1966 57.9832C29.9956 58.492 29.6458 58.9283 29.1928 59.235C28.7398 59.5418 28.2048 59.7046 27.6577 59.7022H20.424C19.6991 59.7022 19.0039 59.9902 18.4913 60.5027C17.9788 61.0153 17.6908 61.7105 17.6908 62.4354C17.6908 63.1603 17.9788 63.8555 18.4913 64.368C19.0039 64.8806 19.6991 65.1686 20.424 65.1686H27.6577C29.298 65.1739 30.9019 64.685 32.2603 63.7656C33.6187 62.8462 34.6686 61.5389 35.2733 60.0142C35.4069 59.6809 35.4735 59.3246 35.4692 58.9655C35.465 58.6065 35.3899 58.2518 35.2485 57.9218C35.107 57.5918 34.9019 57.2929 34.6448 57.0423C34.3877 56.7916 34.0837 56.5942 33.7501 56.4611L33.7496 56.4601ZM53.2234 24.1696C54.5748 24.1696 55.8959 23.7689 57.0196 23.018C58.1433 22.2672 59.0191 21.2 59.5363 19.9514C60.0534 18.7028 60.1887 17.3289 59.925 16.0034C59.6613 14.6779 59.0105 13.4604 58.0548 12.5048C57.0992 11.5492 55.8816 10.8985 54.5561 10.6349C53.2306 10.3713 51.8567 10.5067 50.6081 11.0239C49.3596 11.5412 48.2924 12.4171 47.5417 13.5408C46.7909 14.6646 46.3903 15.9857 46.3904 17.3372C46.3905 19.1493 47.1105 20.8872 48.3919 22.1685C49.6733 23.4498 51.4112 24.1696 53.2234 24.1696Z" fill="url(#paint2_linear_76_726)"/>
	<path d="M78.7643 43.3015C78.7643 43.6601 78.6937 44.0153 78.5564 44.3466C78.4192 44.678 78.218 44.979 77.9644 45.2326C77.7108 45.4862 77.4097 45.6874 77.0784 45.8247C76.747 45.9619 76.3919 46.0326 76.0332 46.0326H68.1871C66.7749 46.0277 65.3875 45.6603 64.158 44.9654C62.9286 44.2705 61.8982 43.2715 61.1656 42.0641L57.4271 35.8592L53.3631 45.761C53.2271 46.0932 53.0269 46.3953 52.7742 46.6501C52.5214 46.905 52.2209 47.1075 51.8899 47.2462C51.5588 47.3849 51.2037 47.4571 50.8447 47.4585C50.4858 47.46 50.1301 47.3907 49.7979 47.2547C49.4658 47.1187 49.1636 46.9186 48.9088 46.6658C48.654 46.4131 48.4514 46.1126 48.3127 45.7815C48.174 45.4505 48.1019 45.0953 48.1004 44.7364C48.099 44.3775 48.1682 44.0218 48.3042 43.6896L52.9503 32.3692H47.6509L42.0101 46.1218C41.7654 46.7161 41.7381 47.3777 41.933 47.9901C42.1279 48.6025 42.5326 49.1266 43.0758 49.4701L55.6283 57.396C56.0175 57.6416 56.3384 57.9816 56.5611 58.3845C56.7837 58.7873 56.901 59.2398 56.9019 59.7001V73.3655C56.9019 74.0904 56.614 74.7856 56.1014 75.2982C55.5888 75.8108 54.8936 76.0987 54.1687 76.0987C53.4438 76.0987 52.7487 75.8108 52.2361 75.2982C51.7235 74.7856 51.4355 74.0904 51.4355 73.3655V61.2059L40.1567 54.0998C38.5241 53.0699 37.3073 51.4971 36.7204 49.6583C36.1334 47.8194 36.2141 45.8325 36.9481 44.0473L41.7423 32.3687H35.6798C35.1724 32.3667 34.6746 32.5069 34.2428 32.7733C33.811 33.0397 33.4624 33.4217 33.2365 33.876L29.2817 41.7883C28.951 42.4253 28.3832 42.9067 27.7008 43.1287C27.0184 43.3508 26.276 43.2956 25.6339 42.9751C24.9918 42.6546 24.5014 42.0946 24.2685 41.4157C24.0357 40.7369 24.0791 39.9938 24.3893 39.3466L28.3468 31.4207C29.0258 30.0585 30.0725 28.9136 31.3684 28.1154C32.6643 27.3172 34.1578 26.8975 35.6798 26.9039H53.7811C55.1945 26.9081 56.5831 27.2755 57.8136 27.9709C59.0441 28.6663 60.0752 29.6663 60.8079 30.875L65.8499 39.2463C66.0941 39.6486 66.4373 39.9815 66.8469 40.2131C67.2565 40.4447 67.7187 40.5674 68.1892 40.5693H76.0332C76.392 40.5693 76.7472 40.64 77.0786 40.7773C77.41 40.9146 77.7112 41.1159 77.9648 41.3696C78.2184 41.6233 78.4195 41.9245 78.5567 42.256C78.6939 42.5875 78.7645 42.9427 78.7643 43.3015ZM37.4261 56.4601C37.0928 56.3265 36.7365 56.2599 36.3774 56.2641C36.0184 56.2684 35.6637 56.3434 35.3337 56.4849C35.0037 56.6263 34.7048 56.8315 34.4542 57.0886C34.2036 57.3457 34.0061 57.6497 33.873 57.9832C33.6721 58.492 33.3223 58.9283 32.8693 59.235C32.4163 59.5418 31.8812 59.7046 31.3342 59.7022H24.1005C23.3756 59.7022 22.6804 59.9902 22.1678 60.5027C21.6552 61.0153 21.3673 61.7105 21.3673 62.4354C21.3673 63.1603 21.6552 63.8555 22.1678 64.368C22.6804 64.8806 23.3756 65.1686 24.1005 65.1686H31.3342C32.9745 65.1739 34.5783 64.685 35.9367 63.7656C37.2951 62.8462 38.3451 61.5389 38.9497 60.0142C39.0833 59.6809 39.1499 59.3246 39.1457 58.9655C39.1414 58.6065 39.0664 58.2518 38.9249 57.9218C38.7835 57.5918 38.5783 57.2929 38.3212 57.0423C38.0641 56.7916 37.7601 56.5942 37.4266 56.4611L37.4261 56.4601ZM56.8998 24.1696C58.2513 24.1696 59.5724 23.7689 60.6961 23.018C61.8198 22.2672 62.6956 21.2 63.2127 19.9514C63.7299 18.7028 63.8652 17.3289 63.6015 16.0034C63.3378 14.6779 62.687 13.4604 61.7313 12.5048C60.7756 11.5492 59.5581 10.8985 58.2326 10.6349C56.9071 10.3713 55.5332 10.5067 54.2846 11.0239C53.036 11.5412 51.9689 12.4171 51.2182 13.5408C50.4674 14.6646 50.0667 15.9857 50.0668 17.3372C50.067 19.1493 50.7869 20.8872 52.0684 22.1685C53.3498 23.4498 55.0877 24.1696 56.8998 24.1696Z" fill="url(#paint3_linear_76_726)"/>
	</g>
	<g clip-path="url(#clip2_76_726)">
	<path d="M174.224 0H123.806C114.524 0 107 7.5243 107 16.806V67.224C107 76.5057 114.524 84.03 123.806 84.03H174.224C183.506 84.03 191.03 76.5057 191.03 67.224V16.806C191.03 7.5243 183.506 0 174.224 0Z" fill="#ECF2FF"/>
	<path d="M174.224 0.262695H123.806C114.669 0.262695 107.263 7.66943 107.263 16.8061V67.2241C107.263 76.3608 114.669 83.7675 123.806 83.7675H174.224C183.361 83.7675 190.767 76.3608 190.767 67.2241V16.8061C190.767 7.66943 183.361 0.262695 174.224 0.262695Z" stroke="white" stroke-opacity="0.5"/>
	<path d="M168.58 43.1419C168.827 39.7448 168.339 36.3345 167.151 33.1426C165.962 29.9507 164.101 27.0521 161.692 24.6436C159.284 22.2352 156.385 20.3735 153.193 19.1849C150.001 17.9963 146.591 17.5088 143.194 17.7554C137.174 18.4429 131.613 21.3075 127.559 25.8099C123.504 30.3122 121.236 36.1416 121.18 42.2003V55.4875C121.18 62.1658 125.154 65.1557 129.09 65.1557H144.12C150.181 65.1035 156.014 62.8364 160.519 58.7816C165.025 54.7268 167.892 49.1642 168.58 43.1419ZM157.962 28.3763C159.834 30.2524 161.281 32.5086 162.205 34.9924C163.129 37.4761 163.509 40.1294 163.319 42.7727C162.756 47.4755 160.494 51.8105 156.958 54.9616C153.422 58.1128 148.856 59.8628 144.12 59.8823H129.09C126.644 59.8823 126.453 56.5211 126.453 55.4896V42.2024C126.475 37.4675 128.226 32.9037 131.378 29.3701C134.53 25.8364 138.864 23.5765 143.566 23.0157C144.003 22.9842 144.441 22.9684 144.879 22.9684C147.308 22.9662 149.714 23.4429 151.959 24.371C154.204 25.2992 156.244 26.6608 157.962 28.3778V28.3763Z" fill="url(#paint4_linear_76_726)"/>
	<path d="M153.479 14.6724H171.073V41.4569H153.479C149.927 41.4569 146.521 40.046 144.009 37.5344C141.498 35.0229 140.087 31.6165 140.087 28.0646C140.087 24.5128 141.498 21.1064 144.009 18.5949C146.521 16.0833 149.927 14.6724 153.479 14.6724Z" fill="#ECF2FF"/>
	<path d="M171.861 37.7806H153.479C151.558 37.7805 149.679 37.2106 148.081 36.143C146.484 35.0754 145.239 33.558 144.503 31.7827C143.768 30.0074 143.575 28.0539 143.95 26.1693C144.325 24.2846 145.25 22.5535 146.609 21.1947C147.509 20.2896 148.58 19.5721 149.759 19.0835C150.938 18.595 152.203 18.3453 153.479 18.3487H171.861C173.782 18.3488 175.661 18.9187 177.258 19.9863C178.856 21.0539 180.101 22.5713 180.837 24.3466C181.572 26.1219 181.764 28.0753 181.389 29.96C181.015 31.8446 180.089 33.5758 178.731 34.9346C177.831 35.8396 176.76 36.5572 175.581 37.0457C174.401 37.5342 173.137 37.784 171.861 37.7806ZM152.759 23.6005C150.696 23.6005 149.015 25.6031 149.015 28.0646C149.015 30.5262 150.696 32.5287 152.759 32.5287H172.581C174.644 32.5287 176.325 30.5262 176.325 28.0646C176.325 25.6031 174.644 23.6005 172.581 23.6005H152.759Z" fill="url(#paint5_linear_76_726)"/>
	<path d="M157.45 69.3574H161.848C164.764 69.3538 167.558 68.1941 169.62 66.1328C171.681 64.0715 172.841 61.2767 172.844 58.3616V53.9631C172.835 53.3857 172.6 52.835 172.188 52.4299C171.777 52.0247 171.222 51.7976 170.645 51.7976C170.068 51.7976 169.513 52.0247 169.102 52.4299C168.69 52.835 168.455 53.3857 168.446 53.9631V58.3616C168.446 59.2279 168.275 60.0858 167.944 60.8863C167.612 61.6867 167.126 62.414 166.513 63.0266C165.901 63.6392 165.174 64.1252 164.373 64.4568C163.573 64.7883 162.715 64.959 161.848 64.959H157.45C156.873 64.9679 156.322 65.2035 155.917 65.615C155.512 66.0264 155.284 66.5807 155.284 67.1582C155.284 67.7356 155.512 68.2899 155.917 68.7014C156.322 69.1129 156.873 69.3485 157.45 69.3574Z" fill="#3871D4"/>
	</g>
	<g clip-path="url(#clip3_76_726)">
	<path d="M173.109 99.1597H122.689C113.407 99.1597 105.882 106.684 105.882 115.966V166.387C105.882 175.669 113.407 183.193 122.689 183.193H173.109C182.391 183.193 189.916 175.669 189.916 166.387V115.966C189.916 106.684 182.391 99.1597 173.109 99.1597Z" fill="#ECF2FF"/>
	<path d="M173.109 99.4224H122.689C113.552 99.4224 106.145 106.829 106.145 115.966V166.387C106.145 175.524 113.552 182.931 122.689 182.931H173.109C182.246 182.931 189.653 175.524 189.653 166.387V115.966C189.653 106.829 182.246 99.4224 173.109 99.4224Z" stroke="white" stroke-opacity="0.5"/>
	<path opacity="0.8" d="M136.498 144.724C147.698 139.747 154.542 156.546 154.542 156.546C154.542 144.724 154.542 131.659 167.608 131.659" stroke="#0A5BE8" stroke-width="9" stroke-linecap="round" stroke-linejoin="round"/>
	<path d="M165.772 136.765C169.468 136.765 172.464 133.672 172.464 129.857C172.464 126.041 169.468 122.948 165.772 122.948C162.075 122.948 159.079 126.041 159.079 129.857C159.079 133.672 162.075 136.765 165.772 136.765Z" fill="url(#paint6_linear_76_726)" stroke="#ECF2FF" stroke-width="5"/>
	<path opacity="0.5" d="M130.366 150.151C131.677 150.151 132.741 149.087 132.741 147.776C132.741 146.464 131.677 145.401 130.366 145.401C129.054 145.401 127.991 146.464 127.991 147.776C127.991 149.087 129.054 150.151 130.366 150.151Z" fill="#0A5BE8"/>
	<path opacity="0.3" d="M125.4 155.332C126.831 155.332 127.991 154.172 127.991 152.741C127.991 151.31 126.831 150.15 125.4 150.15C123.969 150.15 122.809 151.31 122.809 152.741C122.809 154.172 123.969 155.332 125.4 155.332Z" fill="#00348E"/>
	<path d="M170.221 167.584H125.578C123.853 167.585 122.145 167.246 120.551 166.587C118.958 165.928 117.51 164.961 116.29 163.741C115.07 162.522 114.103 161.074 113.444 159.48C112.785 157.886 112.446 156.178 112.448 154.453V127.142C112.446 125.418 112.785 123.71 113.444 122.116C114.104 120.522 115.071 119.074 116.29 117.855C117.51 116.635 118.958 115.668 120.551 115.009C122.145 114.35 123.853 114.011 125.578 114.012H170.221C171.945 114.011 173.653 114.35 175.247 115.009C176.841 115.668 178.289 116.635 179.508 117.855C180.728 119.074 181.695 120.522 182.354 122.116C183.014 123.71 183.352 125.418 183.351 127.142V154.453C183.352 156.178 183.014 157.886 182.354 159.48C181.695 161.074 180.728 162.522 179.508 163.741C178.289 164.961 176.841 165.928 175.247 166.587C173.653 167.246 171.945 167.585 170.221 167.584ZM125.578 117.689C123.071 117.691 120.668 118.688 118.896 120.461C117.124 122.233 116.127 124.636 116.124 127.142V154.453C116.127 156.96 117.124 159.363 118.896 161.135C120.668 162.907 123.071 163.904 125.578 163.907H170.221C172.727 163.904 175.13 162.907 176.902 161.135C178.675 159.363 179.672 156.96 179.674 154.453V127.142C179.672 124.636 178.675 122.233 176.902 120.461C175.13 118.688 172.727 117.691 170.221 117.689H125.578Z" fill="url(#paint7_linear_76_726)"/>
	<path d="M153.277 161.397H143.823V171.376H153.277V161.397Z" fill="#ECF2FF"/>
	<path d="M145.364 177.794C144.562 177.794 143.782 177.606 143.045 177.234L143.043 177.233L143.041 177.232C142.185 176.798 141.475 176.148 140.986 175.353C140.497 174.558 140.239 173.631 140.239 172.672V161.144C140.239 160.185 140.497 159.258 140.986 158.463C141.475 157.667 142.185 157.017 143.04 156.583C143.755 156.221 144.555 156.03 145.353 156.03C146.448 156.03 147.494 156.373 148.378 157.024L156.235 162.784C157.562 163.758 158.323 165.261 158.323 166.907C158.323 168.554 157.561 170.057 156.233 171.031L148.374 176.794C147.927 177.122 147.442 177.373 146.933 177.541L146.931 177.793L145.364 177.794ZM145.524 161.484L145.524 172.332L152.92 166.908L145.524 161.484Z" fill="url(#paint8_linear_76_726)"/>
	<path d="M145.364 176.219V176.217C146.093 176.217 146.815 175.984 147.443 175.523L155.302 169.76C156.22 169.087 156.747 168.047 156.747 166.907C156.747 165.768 156.22 164.728 155.303 164.055L147.444 158.293C146.368 157.501 144.946 157.384 143.753 157.989C142.539 158.604 141.815 159.784 141.815 161.144V172.672C141.815 174.032 142.539 175.21 143.754 175.827C144.272 176.088 144.821 176.219 145.364 176.219ZM145.36 159.733C145.648 159.733 145.933 159.829 146.182 160.012L154.041 165.777C154.411 166.048 154.615 166.45 154.615 166.908C154.615 167.367 154.411 167.769 154.041 168.04L146.181 173.805C145.74 174.127 145.207 174.172 144.717 173.924C144.229 173.676 143.948 173.22 143.948 172.672V161.144C143.948 160.596 144.229 160.139 144.717 159.892C144.925 159.786 145.142 159.733 145.36 159.733ZM145.364 179.37C144.328 179.37 143.281 179.118 142.335 178.641C140.068 177.49 138.663 175.204 138.663 172.672V161.144C138.663 158.61 140.068 156.324 142.328 155.178C143.263 154.704 144.309 154.454 145.353 154.454C146.787 154.454 148.156 154.904 149.312 155.755L157.166 161.514C158.903 162.788 159.899 164.754 159.899 166.907C159.899 169.062 158.902 171.028 157.165 172.301L149.306 178.064C148.145 178.917 146.781 179.369 145.364 179.369V179.37ZM147.099 164.593V169.223L150.256 166.908L147.099 164.593Z" fill="#ECF2FF"/>
	</g>
	<g clip-path="url(#clip4_76_726)">
	<path d="M379.832 0H329.412C320.13 0 312.605 7.52462 312.605 16.8067V67.2269C312.605 76.509 320.13 84.0336 329.412 84.0336H379.832C389.114 84.0336 396.639 76.509 396.639 67.2269V16.8067C396.639 7.52462 389.114 0 379.832 0Z" fill="#ECF2FF"/>
	<path d="M379.832 0.262695H329.412C320.275 0.262695 312.868 7.66975 312.868 16.8068V67.227C312.868 76.364 320.275 83.7711 329.412 83.7711H379.832C388.969 83.7711 396.376 76.364 396.376 67.227V16.8068C396.376 7.66975 388.969 0.262695 379.832 0.262695Z" stroke="white" stroke-opacity="0.5"/>
	<path d="M349.523 39.2888C349.018 39.2893 348.526 39.4393 348.107 39.7197C347.688 40.0002 347.362 40.3985 347.169 40.8644C346.977 41.3303 346.926 41.8428 347.025 42.3371C347.124 42.8315 347.367 43.2855 347.723 43.6418C348.08 43.998 348.534 44.2406 349.029 44.3387C349.523 44.4369 350.036 44.3863 350.501 44.1932C350.967 44.0002 351.365 43.6734 351.645 43.2542C351.925 42.8351 352.075 42.3423 352.075 41.8382C352.075 41.5032 352.009 41.1714 351.88 40.862C351.752 40.5525 351.564 40.2713 351.327 40.0346C351.09 39.7978 350.809 39.6101 350.499 39.4821C350.189 39.3541 349.858 39.2884 349.523 39.2888ZM359.721 44.3875C360.225 44.3871 360.717 44.2372 361.136 43.9569C361.555 43.6765 361.882 43.2782 362.074 42.8123C362.267 42.3464 362.317 41.8339 362.219 41.3395C362.12 40.8451 361.877 40.3911 361.52 40.0347C361.164 39.6784 360.71 39.4358 360.215 39.3376C359.721 39.2394 359.208 39.29 358.742 39.4831C358.277 39.6761 357.879 40.0028 357.599 40.422C357.319 40.8412 357.169 41.334 357.169 41.8382C357.169 42.1731 357.235 42.5048 357.363 42.8143C357.492 43.1237 357.68 43.4048 357.917 43.6416C358.153 43.8783 358.435 44.0661 358.744 44.1941C359.054 44.3221 359.386 44.3878 359.721 44.3875ZM385.215 31.6407V41.8382C385.211 45.2177 383.867 48.4577 381.477 50.8475C379.088 53.2372 375.848 54.5815 372.468 54.5855H336.776C333.396 54.5815 330.156 53.2372 327.766 50.8475C325.377 48.4577 324.032 45.2177 324.028 41.8382V31.6407C324.032 28.2611 325.377 25.0211 327.766 22.6314C330.156 20.2417 333.396 18.8973 336.776 18.8933H372.468C375.848 18.8973 379.088 20.2417 381.477 22.6314C383.867 25.0211 385.211 28.2611 385.215 31.6407ZM341.874 23.9921V49.4868H367.369V23.9921H341.874ZM336.776 49.4868V23.9921C335.771 23.992 334.777 24.1898 333.849 24.5741C332.921 24.9585 332.077 25.5219 331.367 26.2321C330.657 26.9424 330.094 27.7856 329.709 28.7136C329.325 29.6416 329.127 30.6362 329.127 31.6407V41.8382C329.127 42.8426 329.325 43.8372 329.709 44.7653C330.094 45.6933 330.657 46.5365 331.367 47.2467C332.077 47.957 332.921 48.5204 333.849 48.9047C334.777 49.2891 335.771 49.4869 336.776 49.4868ZM380.116 31.6407C380.116 30.6363 379.918 29.6417 379.534 28.7137C379.15 27.7857 378.586 26.9426 377.876 26.2323C377.166 25.5221 376.323 24.9587 375.395 24.5743C374.467 24.1899 373.472 23.9921 372.468 23.9921V49.4868C374.496 49.4868 376.442 48.681 377.876 47.2467C379.31 45.8124 380.116 43.8671 380.116 41.8387V31.6407Z" fill="url(#paint9_linear_76_726)"/>
	<path d="M365.414 48.1865H344.428V55.3814H365.414V48.1865Z" fill="#ECF2FF"/>
	<path d="M369.134 66.4526H367.821V66.4501H361.881C360.124 66.4501 358.647 65.2297 358.252 63.5921C357.858 65.2297 356.38 66.4501 354.623 66.4501C352.866 66.4501 351.389 65.2297 350.994 63.5921C350.6 65.2297 349.123 66.4501 347.366 66.4501H340.11C337.88 66.4501 335.886 65.2956 334.776 63.3618C333.666 61.4306 333.673 59.1266 334.795 57.1994L334.799 57.1923L334.803 57.1854L349.323 32.9378C349.864 32.0148 350.637 31.2491 351.558 30.7233C352.482 30.1964 353.541 29.918 354.621 29.918C356.827 29.918 358.812 31.0557 359.931 32.9617L374.424 57.1636L374.428 57.1694L374.431 57.1752C375.565 59.1144 375.579 61.4281 374.468 63.3642C373.358 65.298 371.364 66.4526 369.134 66.4526ZM355.498 59.0889C356.855 59.4159 357.925 60.4864 358.252 61.8436C358.647 60.2059 360.124 58.9855 361.881 58.9855H366.817L354.639 38.6474L342.422 59.002L347.361 58.9856L347.363 58.9855H347.366C349.123 58.9855 350.6 60.2059 350.994 61.8436C351.321 60.4864 352.392 59.4159 353.749 59.0889C352.111 58.6944 350.891 57.2171 350.891 55.46V48.2022C350.891 46.1442 352.565 44.4699 354.623 44.4699C356.681 44.4699 358.356 46.1442 358.356 48.2022V55.46C358.356 57.2171 357.135 58.6944 355.498 59.0889Z" fill="url(#paint10_linear_76_726)"/>
	<path d="M369.134 65.1396C370.886 65.1396 372.456 64.2323 373.329 62.7106C374.203 61.1889 374.198 59.3769 373.298 57.8382L358.801 33.6309C357.921 32.1286 356.36 31.231 354.621 31.231C352.881 31.231 351.319 32.1262 350.453 33.6068L335.93 57.86C335.047 59.3769 335.042 61.1889 335.915 62.7082C336.788 64.2299 338.356 65.1371 340.11 65.1371H347.366C348.703 65.1371 349.785 64.0533 349.785 62.7179C349.785 61.3824 348.703 60.2986 347.366 60.2986L340.098 60.3228L354.64 36.0938L369.134 60.2986H361.881C360.543 60.2986 359.462 61.3824 359.462 62.7179C359.462 64.0533 360.543 65.1371 361.881 65.1371H369.134V65.1396ZM354.623 65.1371C355.959 65.1371 357.043 64.0533 357.043 62.7179C357.043 61.3824 355.959 60.2986 354.623 60.2986C353.288 60.2986 352.204 61.3824 352.204 62.7179C352.204 64.0533 353.288 65.1371 354.623 65.1371ZM354.623 57.8793C355.961 57.8793 357.043 56.7955 357.043 55.4601V48.2022C357.043 46.8668 355.961 45.783 354.623 45.783C353.285 45.783 352.204 46.8668 352.204 48.2022V55.4601C352.204 56.7955 353.285 57.8793 354.623 57.8793ZM369.134 67.7656H366.508V67.7632H361.881C360.533 67.7632 359.265 67.2381 358.312 66.2846C358.291 66.2637 358.271 66.2427 358.25 66.2216C357.332 67.1715 356.046 67.7632 354.623 67.7632C353.201 67.7632 351.914 67.1715 350.996 66.2216C350.976 66.2427 350.955 66.2637 350.934 66.2846C349.982 67.2381 348.714 67.7632 347.366 67.7632H340.11C338.788 67.7632 337.494 67.4184 336.367 66.766C335.239 66.1134 334.296 65.1623 333.638 64.0154C332.98 62.8715 332.634 61.5777 332.638 60.2756C332.641 58.9735 332.995 57.6813 333.66 56.5388L333.677 56.5109L348.193 32.268C348.85 31.1496 349.789 30.2214 350.908 29.5829C352.029 28.9431 353.313 28.605 354.621 28.605C355.932 28.605 357.219 28.9458 358.341 29.5905C359.458 30.2317 360.398 31.1655 361.06 32.2915L375.564 56.5123C376.939 58.8627 376.955 61.6685 375.607 64.0178C374.949 65.1646 374.004 66.1158 372.876 66.7687C371.749 67.4209 370.455 67.7656 369.134 67.7656ZM358.127 59.0908C358.169 59.1311 358.21 59.1724 358.25 59.2142C358.271 59.193 358.291 59.1721 358.312 59.1512C359.265 58.1977 360.533 57.6726 361.881 57.6726H364.501L359.669 49.6029V55.4601C359.669 56.8073 359.144 58.074 358.192 59.0267C358.171 59.0483 358.149 59.0697 358.127 59.0908ZM347.361 57.6726H347.366C348.714 57.6726 349.982 58.1977 350.934 59.1512C350.955 59.1721 350.976 59.193 350.996 59.2142C351.037 59.1724 351.078 59.1311 351.12 59.0908C351.098 59.0697 351.076 59.0483 351.054 59.0267C350.102 58.074 349.578 56.8073 349.578 55.4601V49.6309L344.746 57.6813L347.361 57.6726ZM354.623 43.1569C355.062 43.1569 355.493 43.2126 355.907 43.3206L354.638 41.201L353.37 43.3128C353.775 43.2099 354.195 43.1569 354.623 43.1569Z" fill="#ECF2FF"/>
	</g>
	<g clip-path="url(#clip5_76_726)">
	<path d="M483.224 99H432.806C423.524 99 416 106.524 416 115.806V166.224C416 175.506 423.524 183.03 432.806 183.03H483.224C492.506 183.03 500.03 175.506 500.03 166.224V115.806C500.03 106.524 492.506 99 483.224 99Z" fill="#ECF2FF"/>
	<path d="M483.224 99.2627H432.806C423.669 99.2627 416.263 106.669 416.263 115.806V166.224C416.263 175.361 423.669 182.768 432.806 182.768H483.224C492.361 182.768 499.767 175.361 499.767 166.224V115.806C499.767 106.669 492.361 99.2627 483.224 99.2627Z" stroke="white" stroke-opacity="0.5"/>
	<g clip-path="url(#clip6_76_726)">
	<path d="M453.235 124.71H451.195C450.569 124.71 449.969 124.958 449.526 125.401L430.234 144.693C427.361 147.566 427.361 152.258 430.234 155.131L443.899 168.796C446.772 171.669 451.464 171.669 454.337 168.796L473.629 149.504C474.072 149.061 474.32 148.461 474.32 147.835V127.069C474.32 125.766 473.264 124.71 471.961 124.71H462.824C462.471 126.078 462.428 127.513 462.706 128.91C462.74 129.084 462.78 129.257 462.824 129.428H469.602V146.858L451.001 165.459C449.97 166.49 448.266 166.49 447.235 165.459L433.571 151.795C432.54 150.764 432.54 149.06 433.571 148.029L452.172 129.428H453.235C453.037 127.857 453.039 126.272 453.235 124.71Z" fill="url(#paint11_linear_76_726)"/>
	<path d="M478.281 111.811C474.751 110.349 470.823 110.156 467.167 111.265C463.511 112.374 460.352 114.717 458.23 117.894C456.107 121.071 455.152 124.885 455.526 128.688C455.901 132.49 457.582 136.045 460.284 138.747C461.205 139.668 462.699 139.668 463.62 138.747C464.541 137.825 464.541 136.331 463.62 135.41C461.69 133.48 460.489 130.941 460.222 128.225C459.954 125.509 460.637 122.784 462.153 120.515C463.669 118.246 465.925 116.573 468.537 115.781C471.149 114.988 473.954 115.126 476.475 116.171C478.997 117.215 481.078 119.101 482.365 121.508C483.651 123.915 484.063 126.694 483.531 129.37C482.998 132.047 481.554 134.456 479.445 136.187C478.599 136.881 477.668 137.449 476.68 137.88V142.895C478.769 142.272 480.729 141.238 482.438 139.835C485.391 137.411 487.413 134.038 488.158 130.291C488.904 126.543 488.327 122.654 486.526 119.284C484.725 115.914 481.811 113.273 478.281 111.811Z" fill="url(#paint12_linear_76_726)"/>
	</g>
	</g>
	<g clip-path="url(#clip7_76_726)">
	<path d="M483.193 0H432.773C423.491 0 415.966 7.52462 415.966 16.8067V67.2269C415.966 76.509 423.491 84.0336 432.773 84.0336H483.193C492.475 84.0336 500 76.509 500 67.2269V16.8067C500 7.52462 492.475 0 483.193 0Z" fill="#ECF2FF"/>
	<path d="M483.193 0.262695H432.773C423.636 0.262695 416.229 7.66975 416.229 16.8068V67.227C416.229 76.364 423.636 83.7711 432.773 83.7711H483.193C492.33 83.7711 499.737 76.364 499.737 67.227V16.8068C499.737 7.66975 492.33 0.262695 483.193 0.262695Z" stroke="white" stroke-opacity="0.5"/>
	<path d="M474.444 16.1313C471.99 16.1691 469.589 16.8539 467.484 18.1166C465.379 19.3793 463.645 21.175 462.456 23.3225C461.268 21.1757 459.535 19.3804 457.431 18.1178C455.327 16.8552 452.927 16.17 450.474 16.1313C446.562 16.3013 442.877 18.0125 440.223 20.8911C437.569 23.7697 436.162 27.5817 436.309 31.4943C436.309 41.4029 446.738 52.2243 455.486 59.5615C457.439 61.2027 459.908 62.1025 462.459 62.1025C465.01 62.1025 467.479 61.2027 469.432 59.5615C478.179 52.2243 488.609 41.4029 488.609 31.4943C488.756 27.5816 487.349 23.7696 484.695 20.891C482.041 18.0124 478.356 16.3012 474.444 16.1313ZM466.632 56.2275C465.464 57.2111 463.986 57.7505 462.459 57.7505C460.932 57.7505 459.454 57.2111 458.286 56.2275C447.089 46.8336 440.668 37.8204 440.668 31.4943C440.519 28.737 441.466 26.0327 443.303 23.9712C445.14 21.9097 447.718 20.6581 450.474 20.4895C453.23 20.6583 455.807 21.9099 457.644 23.9714C459.481 26.0329 460.428 28.7371 460.279 31.4943C460.279 32.0723 460.509 32.6267 460.918 33.0355C461.327 33.4443 461.881 33.6739 462.459 33.6739C463.037 33.6739 463.592 33.4443 464 33.0355C464.409 32.6267 464.639 32.0723 464.639 31.4943C464.49 28.7372 465.437 26.0331 467.274 23.9716C469.111 21.9101 471.688 20.6584 474.444 20.4895C477.2 20.6575 479.779 21.9087 481.616 23.9703C483.454 26.0319 484.402 28.7366 484.253 31.4943C484.253 37.8204 477.831 46.833 466.634 56.2191L466.632 56.2275Z" fill="url(#paint13_linear_76_726)"/>
	<path d="M438.592 65.6098C442.269 64.3435 444.224 60.3357 442.958 56.6582C441.691 52.9806 437.684 51.0258 434.006 52.2921C430.328 53.5584 428.374 57.5662 429.64 61.2438C430.906 64.9214 434.914 66.8761 438.592 65.6098Z" stroke="#5991F5" stroke-width="10" stroke-dasharray="9 12"/>
	</g>
	<g clip-path="url(#clip8_76_726)">
	<path d="M67.2269 99.1597H16.8067C7.52463 99.1597 0 106.684 0 115.966V166.387C0 175.669 7.52463 183.193 16.8067 183.193H67.2269C76.509 183.193 84.0336 175.669 84.0336 166.387V115.966C84.0336 106.684 76.509 99.1597 67.2269 99.1597Z" fill="#ECF2FF"/>
	<path d="M67.2269 99.4224H16.8067C7.66966 99.4224 0.262606 106.829 0.262606 115.966V166.387C0.262606 175.524 7.66966 182.931 16.8067 182.931H67.2269C76.364 182.931 83.771 175.524 83.771 166.387V115.966C83.771 106.829 76.364 99.4224 67.2269 99.4224Z" stroke="white" stroke-opacity="0.5"/>
	<path d="M52.1543 118.426H31.8812C29.1938 118.429 26.6173 119.498 24.717 121.398C22.8167 123.298 21.7477 125.875 21.7447 128.562V158.972C21.7452 161.122 22.5998 163.184 24.1204 164.704C25.641 166.224 27.7032 167.078 29.8534 167.078H52.1543C54.8418 167.075 57.4183 166.006 59.3186 164.106C61.2189 162.206 62.2878 159.629 62.2909 156.942V128.562C62.2878 125.875 61.2189 123.298 59.3186 121.398C57.4183 119.498 54.8418 118.429 52.1543 118.426ZM58.2342 128.562V150.861H33.908V122.48H52.1543C53.767 122.481 55.3136 123.122 56.4537 124.262C57.5939 125.403 58.2343 126.949 58.2342 128.562ZM29.8534 122.828V150.861C28.4295 150.86 27.0306 151.235 25.7988 151.95V128.562C25.7988 127.305 26.1887 126.078 26.9148 125.051C27.6408 124.025 28.6673 123.248 29.8529 122.829L29.8534 122.828ZM52.1543 163.024H29.8534C28.7861 163.012 27.7666 162.579 27.0162 161.82C26.2658 161.061 25.8449 160.037 25.8449 158.969C25.8449 157.902 26.2658 156.878 27.0162 156.119C27.7666 155.36 28.7861 154.927 29.8534 154.915H58.2342V156.942C58.2342 158.555 57.5937 160.102 56.4535 161.242C55.3134 162.382 53.767 163.023 52.1543 163.024Z" fill="url(#paint14_linear_76_726)"/>
	<path d="M42.5435 137.971C41.5548 137.971 40.6964 137.301 40.4561 136.342L40.0812 134.84L38.5742 134.436C37.6188 134.179 36.9636 133.309 36.981 132.32C36.9983 131.331 37.6835 130.484 38.6474 130.261L40.0888 129.926L40.4566 128.474C40.6965 127.517 41.5548 126.847 42.5434 126.847C43.5321 126.847 44.3904 127.517 44.6308 128.476L44.9993 129.952L46.4751 130.321C47.4342 130.562 48.104 131.42 48.104 132.409C48.104 133.397 47.4342 134.256 46.4753 134.496L44.9993 134.866L44.6309 136.341C44.3905 137.301 43.5322 137.971 42.5435 137.971Z" fill="url(#paint15_linear_76_726)"/>
	<path d="M42.5434 137.183C43.1691 137.183 43.7145 136.757 43.8666 136.15L44.3495 134.216L46.2837 133.732C46.8906 133.58 47.3162 133.034 47.3162 132.409C47.3162 131.783 46.8906 131.238 46.2837 131.086L44.3495 130.601L43.8666 128.667C43.7145 128.06 43.1687 127.635 42.5434 127.635C41.9178 127.635 41.3724 128.06 41.2203 128.667L40.7347 130.585L38.825 131.028C38.2151 131.17 37.7796 131.708 37.7687 132.333C37.7577 132.959 38.1741 133.512 38.7786 133.675L40.7333 134.2L41.2203 136.151C41.3724 136.757 41.9178 137.183 42.5434 137.183ZM42.5435 138.759C41.1928 138.759 40.0202 137.844 39.6919 136.533L39.4292 135.481L38.3698 135.196C37.0646 134.846 36.1696 133.657 36.1933 132.306C36.217 130.955 37.1531 129.798 38.4697 129.493L39.443 129.267L39.6926 128.281C40.022 126.973 41.1938 126.059 42.5434 126.059C43.894 126.059 45.0666 126.974 45.395 128.284L45.6492 129.303L46.6664 129.557C47.9768 129.886 48.8918 131.058 48.8918 132.409C48.8918 133.759 47.9768 134.932 46.6668 135.26L45.6492 135.515L45.3953 136.532C45.0668 137.844 43.8942 138.759 42.5435 138.759Z" fill="#ECF2FF"/>
	<path d="M60.3635 128.651H60.3628H60.361C59.735 128.651 59.1301 128.466 58.6116 128.115C58.0932 127.764 57.696 127.272 57.4631 126.691L56.6641 124.69L54.6564 123.845L54.6417 123.839L54.6271 123.832C53.47 123.321 52.7378 122.174 52.7616 120.909C52.7855 119.645 53.5604 118.526 54.7359 118.059L54.7496 118.053L54.7634 118.048L56.6884 117.319L57.4628 115.383L57.4689 115.368L57.4753 115.353C57.9656 114.188 59.0987 113.436 60.362 113.436C61.6254 113.436 62.7585 114.188 63.2487 115.353L63.255 115.368L63.261 115.383L64.0481 117.348L66.0133 118.135L66.0263 118.14L66.0392 118.146C67.2073 118.634 67.962 119.768 67.962 121.034C67.962 122.3 67.2073 123.434 66.0393 123.922L66.0263 123.928L66.0133 123.933L64.0481 124.72L63.2624 126.682C63.0312 127.264 62.6351 127.758 62.117 128.111C61.5978 128.464 60.9914 128.651 60.3635 128.651Z" fill="url(#paint16_linear_76_726)"/>
	<path d="M60.361 126.813C60.8882 126.814 61.3608 126.492 61.5546 126.002L62.6341 123.306L65.3299 122.227C65.8107 122.025 66.1237 121.555 66.1237 121.034C66.1237 120.513 65.8107 120.043 65.3299 119.842L62.6341 118.762L61.5546 116.066C61.3525 115.586 60.8826 115.274 60.362 115.274C59.8414 115.274 59.3715 115.586 59.1695 116.066L58.095 118.752L55.4147 119.767C54.9307 119.959 54.6093 120.423 54.5995 120.944C54.5897 121.465 54.8933 121.94 55.3697 122.151L58.086 123.295L59.1695 126.007C59.3646 126.494 59.8364 126.813 60.361 126.813ZM60.365 130.49H60.362C58.3228 130.49 56.5152 129.267 55.7568 127.375L55.2422 126.086L53.943 125.539C52.0481 124.703 50.8859 122.882 50.9237 120.875C50.9616 118.868 52.1915 117.092 54.0572 116.35L55.2816 115.886L55.7561 114.7C56.5591 112.792 58.3572 111.598 60.362 111.598C62.3668 111.598 64.1649 112.792 64.9429 114.639L65.4616 115.934L66.6967 116.429C68.6024 117.225 69.8002 119.025 69.8002 121.034C69.8002 123.043 68.6024 124.843 66.7486 125.618L65.4621 126.134L64.9675 127.369C64.22 129.258 62.4113 130.488 60.365 130.49Z" fill="#ECF2FF"/>
	<path d="M51.0167 148.954C50.2379 148.954 49.5617 148.426 49.3724 147.671L49.1607 146.822L48.3082 146.593C47.5557 146.391 47.0396 145.706 47.0533 144.927C47.0669 144.148 47.6067 143.481 48.3659 143.305L49.1678 143.119L49.3729 142.309C49.5618 141.555 50.2379 141.028 51.0167 141.028C51.7954 141.028 52.4716 141.555 52.6609 142.311L52.8677 143.139L53.6957 143.346C54.4513 143.536 54.9789 144.212 54.9789 144.991C54.9789 145.769 54.4513 146.446 53.6959 146.635L52.8677 146.842L52.6611 147.67C52.4717 148.426 51.7955 148.954 51.0167 148.954Z" fill="url(#paint17_linear_76_726)"/>
	<path d="M51.0167 148.166C51.4328 148.166 51.7956 147.883 51.8967 147.479L52.2179 146.193L53.5044 145.871C53.908 145.77 54.1911 145.407 54.1911 144.991C54.1911 144.575 53.908 144.212 53.5044 144.111L52.2179 143.789L51.8967 142.502C51.7956 142.098 51.4328 141.815 51.0167 141.815C50.6006 141.815 50.2378 142.098 50.1366 142.502L49.8136 143.778L48.5435 144.073C48.1379 144.166 47.8482 144.524 47.8409 144.941C47.8336 145.357 48.1106 145.725 48.5127 145.833L49.8127 146.182L50.1366 147.479C50.2378 147.883 50.6006 148.166 51.0167 148.166ZM51.0167 149.742C49.8759 149.742 48.8855 148.969 48.6082 147.862L48.5086 147.463L48.1038 147.354C47.0015 147.058 46.2455 146.054 46.2656 144.913C46.2855 143.772 47.0762 142.795 48.1882 142.537L48.5219 142.46L48.6092 142.115C48.8878 141.011 49.8772 140.24 51.0167 140.24C52.1574 140.24 53.1478 141.013 53.4251 142.119L53.5176 142.49L53.887 142.582C54.9939 142.86 55.7667 143.85 55.7667 144.991C55.7667 146.131 54.9939 147.122 53.8874 147.399L53.5176 147.492L53.4254 147.861C53.1479 148.969 52.1575 149.742 51.0167 149.742Z" fill="#ECF2FF"/>
	</g>
	<g clip-path="url(#clip9_76_726)">
	<path d="M276.471 99.1597H226.05C216.768 99.1597 209.244 106.684 209.244 115.966V166.387C209.244 175.669 216.768 183.193 226.05 183.193H276.471C285.753 183.193 293.277 175.669 293.277 166.387V115.966C293.277 106.684 285.753 99.1597 276.471 99.1597Z" fill="#ECF2FF"/>
	<path d="M276.471 99.4224H226.05C216.913 99.4224 209.506 106.829 209.506 115.966V166.387C209.506 175.524 216.913 182.931 226.05 182.931H276.471C285.608 182.931 293.015 175.524 293.015 166.387V115.966C293.015 106.829 285.608 99.4224 276.471 99.4224Z" stroke="white" stroke-opacity="0.5"/>
	<path d="M282.911 137.544C282.941 138.244 282.692 138.926 282.218 139.443C281.745 139.959 281.087 140.266 280.387 140.297C279.687 140.328 279.004 140.081 278.487 139.609C277.97 139.137 277.661 138.479 277.628 137.779C277.17 132.78 275.298 128.014 272.23 124.041C269.161 120.067 265.024 117.05 260.303 115.343C255.582 113.636 250.472 113.309 245.572 114.401C240.672 115.494 236.184 117.959 232.635 121.51C229.086 125.061 226.622 129.549 225.532 134.45C224.442 139.351 224.771 144.46 226.48 149.181C228.189 153.901 231.208 158.037 235.183 161.103C239.158 164.17 243.924 166.04 248.924 166.496C249.622 166.559 250.266 166.896 250.715 167.434C251.164 167.972 251.381 168.667 251.318 169.365C251.255 170.063 250.917 170.707 250.379 171.156C249.841 171.605 249.147 171.821 248.449 171.758C242.449 171.211 236.73 168.965 231.961 165.284C227.191 161.603 223.57 156.639 221.52 150.974C219.47 145.308 219.077 139.176 220.386 133.296C221.696 127.415 224.654 122.03 228.914 117.77C233.174 113.51 238.56 110.552 244.44 109.242C250.321 107.933 256.453 108.326 262.118 110.376C267.783 112.425 272.747 116.047 276.428 120.816C280.109 125.586 282.355 131.305 282.903 137.305C282.909 137.385 282.911 137.467 282.911 137.544Z" fill="url(#paint18_linear_76_726)"/>
	<path d="M251.449 124.571C251.104 124.571 250.763 124.639 250.445 124.771C250.127 124.903 249.838 125.096 249.595 125.339C249.351 125.583 249.158 125.872 249.026 126.19C248.895 126.508 248.827 126.849 248.827 127.193V138.534L239.987 144.072C239.396 144.441 238.976 145.03 238.819 145.709C238.662 146.388 238.781 147.101 239.15 147.692C239.52 148.283 240.108 148.704 240.787 148.861C241.466 149.018 242.18 148.898 242.771 148.529L252.841 142.236C253.221 141.998 253.534 141.666 253.749 141.272C253.965 140.878 254.075 140.435 254.07 139.986V127.193C254.07 126.849 254.003 126.508 253.871 126.19C253.739 125.872 253.546 125.583 253.302 125.339C253.059 125.096 252.77 124.903 252.452 124.771C252.134 124.639 251.793 124.571 251.449 124.571Z" fill="url(#paint19_linear_76_726)"/>
	<path d="M269.472 147.501L259.175 157.795C258.502 158.464 257.969 159.259 257.606 160.135C257.243 161.012 257.058 161.951 257.06 162.899V165.761C257.06 166.24 257.25 166.699 257.589 167.037C257.927 167.376 258.386 167.566 258.865 167.566H261.726C262.674 167.568 263.613 167.383 264.489 167.02C265.365 166.657 266.16 166.124 266.829 165.451L277.127 155.154C278.142 154.138 278.712 152.761 278.712 151.326C278.712 149.89 278.142 148.513 277.127 147.498C276.096 146.513 274.725 145.963 273.299 145.963C271.873 145.963 270.502 146.513 269.471 147.498L269.472 147.501ZM274.575 152.604L264.275 162.9C263.941 163.236 263.544 163.503 263.106 163.685C262.668 163.866 262.198 163.959 261.724 163.957H260.667V162.9C260.666 162.426 260.759 161.956 260.941 161.518C261.122 161.08 261.389 160.682 261.726 160.348L272.025 150.051C272.369 149.722 272.826 149.539 273.301 149.539C273.776 149.539 274.233 149.722 274.577 150.051C274.744 150.218 274.877 150.417 274.968 150.636C275.059 150.855 275.106 151.089 275.106 151.326C275.106 151.563 275.059 151.798 274.968 152.017C274.877 152.236 274.744 152.435 274.577 152.602L274.575 152.604Z" fill="url(#paint20_linear_76_726)"/>
	</g>
	<g clip-path="url(#clip10_76_726)">
	<path d="M379.832 99.1597H329.412C320.13 99.1597 312.605 106.684 312.605 115.966V166.387C312.605 175.669 320.13 183.193 329.412 183.193H379.832C389.114 183.193 396.639 175.669 396.639 166.387V115.966C396.639 106.684 389.114 99.1597 379.832 99.1597Z" fill="#ECF2FF"/>
	<path d="M379.832 99.4224H329.412C320.275 99.4224 312.868 106.829 312.868 115.966V166.387C312.868 175.524 320.275 182.931 329.412 182.931H379.832C388.969 182.931 396.376 175.524 396.376 166.387V115.966C396.376 106.829 388.969 99.4224 379.832 99.4224Z" stroke="white" stroke-opacity="0.5"/>
	<path d="M388.522 141.177C388.523 141.481 388.464 141.781 388.348 142.062C388.233 142.343 388.063 142.599 387.849 142.814C387.634 143.029 387.38 143.2 387.099 143.317C386.819 143.433 386.518 143.494 386.214 143.494H379.59C378.396 143.489 377.224 143.177 376.185 142.588C375.147 141.999 374.278 141.152 373.661 140.13L370.504 134.867L367.072 143.262C366.965 143.553 366.799 143.82 366.586 144.045C366.373 144.271 366.117 144.452 365.833 144.576C365.549 144.701 365.242 144.767 364.932 144.77C364.622 144.774 364.314 144.715 364.027 144.597C363.74 144.479 363.48 144.304 363.261 144.083C363.043 143.863 362.872 143.6 362.758 143.312C362.643 143.023 362.588 142.715 362.595 142.405C362.603 142.094 362.672 141.789 362.8 141.506L366.724 131.909H362.249L357.485 143.569C357.28 144.072 357.257 144.632 357.422 145.15C357.586 145.668 357.927 146.112 358.386 146.405L368.983 153.127C369.312 153.336 369.583 153.625 369.771 153.966C369.959 154.308 370.058 154.691 370.059 155.081V166.667C370.059 167.28 369.816 167.867 369.383 168.299C368.95 168.732 368.363 168.975 367.751 168.975C367.139 168.975 366.552 168.732 366.119 168.299C365.686 167.867 365.443 167.28 365.443 166.667V156.358L355.92 150.332C354.54 149.455 353.513 148.121 353.017 146.563C352.522 145.005 352.59 143.322 353.211 141.809L357.259 131.909H352.14C351.711 131.908 351.29 132.027 350.926 132.253C350.561 132.479 350.267 132.803 350.077 133.188L346.737 139.895C346.603 140.17 346.416 140.416 346.187 140.618C345.957 140.82 345.69 140.975 345.4 141.073C345.111 141.171 344.804 141.211 344.499 141.19C344.194 141.168 343.897 141.087 343.623 140.95C343.35 140.813 343.106 140.623 342.907 140.391C342.708 140.159 342.556 139.89 342.462 139.599C342.367 139.309 342.331 139.002 342.356 138.697C342.38 138.392 342.465 138.096 342.606 137.824L345.947 131.101C346.518 129.948 347.401 128.977 348.496 128.3C349.59 127.623 350.853 127.267 352.14 127.271H367.423C368.618 127.275 369.792 127.587 370.832 128.177C371.871 128.767 372.741 129.614 373.358 130.638L377.612 137.736C377.818 138.076 378.108 138.358 378.454 138.555C378.8 138.751 379.19 138.855 379.588 138.857H386.214C386.518 138.857 386.819 138.918 387.1 139.035C387.38 139.152 387.635 139.323 387.849 139.538C388.064 139.754 388.234 140.009 388.349 140.29C388.464 140.572 388.523 140.873 388.522 141.177ZM353.615 152.332C353.333 152.219 353.031 152.163 352.728 152.166C352.424 152.17 352.124 152.234 351.845 152.353C351.566 152.473 351.314 152.647 351.102 152.865C350.891 153.083 350.724 153.34 350.612 153.623C350.444 154.054 350.149 154.423 349.766 154.683C349.383 154.943 348.931 155.082 348.469 155.08H342.363C341.749 155.08 341.159 155.324 340.725 155.759C340.29 156.193 340.046 156.783 340.046 157.397C340.046 158.012 340.29 158.601 340.725 159.036C341.159 159.471 341.749 159.715 342.363 159.715H348.471C349.858 159.718 351.213 159.302 352.361 158.522C353.508 157.743 354.393 156.635 354.901 155.344C355.129 154.774 355.121 154.137 354.88 153.572C354.639 153.008 354.184 152.562 353.615 152.332L353.615 152.332ZM370.059 124.956C371.206 124.96 372.328 124.624 373.284 123.991C374.239 123.357 374.985 122.454 375.427 121.396C375.869 120.338 375.987 119.172 375.767 118.047C375.546 116.922 374.996 115.887 374.187 115.075C373.377 114.262 372.345 113.708 371.221 113.483C370.097 113.257 368.931 113.371 367.871 113.808C366.811 114.246 365.905 114.988 365.267 115.941C364.629 116.895 364.289 118.015 364.289 119.162C364.287 119.921 364.435 120.674 364.724 121.376C365.014 122.078 365.438 122.716 365.974 123.254C366.51 123.792 367.146 124.219 367.847 124.511C368.548 124.803 369.3 124.954 370.059 124.956Z" fill="url(#paint21_linear_76_726)"/>
	<path d="M331.19 115.097H338.103V113.369H331.19V115.097ZM338.103 123.738H331.19V125.466H338.103V123.738ZM331.191 123.738C330.623 123.738 330.061 123.626 329.537 123.409C329.013 123.192 328.537 122.874 328.135 122.473C327.734 122.071 327.416 121.595 327.199 121.071C326.982 120.547 326.87 119.985 326.87 119.417H325.142C325.142 121.022 325.779 122.56 326.913 123.694C328.048 124.829 329.586 125.466 331.19 125.466L331.191 123.738ZM342.421 119.417C342.421 120.563 341.966 121.662 341.156 122.472C340.346 123.283 339.247 123.738 338.101 123.738V125.466C338.895 125.466 339.682 125.31 340.416 125.006C341.15 124.702 341.817 124.257 342.379 123.695C342.941 123.133 343.387 122.466 343.691 121.733C343.995 120.999 344.151 120.212 344.151 119.417H342.421ZM338.103 115.097C339.248 115.098 340.347 115.553 341.157 116.363C341.966 117.173 342.421 118.272 342.421 119.417H344.149C344.149 117.814 343.512 116.276 342.378 115.141C341.245 114.007 339.707 113.37 338.103 113.369V115.097ZM331.19 113.369C329.586 113.369 328.048 114.006 326.913 115.141C325.779 116.275 325.142 117.813 325.142 119.417H326.87C326.87 118.272 327.325 117.173 328.135 116.362C328.945 115.552 330.044 115.097 331.19 115.097V113.369ZM339.399 119.417C339.399 119.761 339.262 120.091 339.019 120.334C338.776 120.577 338.446 120.714 338.102 120.714V122.442C338.905 122.442 339.674 122.123 340.241 121.556C340.808 120.989 341.127 120.22 341.127 119.417H339.399ZM338.102 120.714C337.759 120.714 337.429 120.577 337.186 120.334C336.943 120.091 336.806 119.761 336.806 119.417H335.079C335.079 120.22 335.397 120.989 335.965 121.556C336.532 122.123 337.3 122.442 338.102 122.442V120.714ZM336.806 119.417C336.806 119.074 336.943 118.744 337.186 118.501C337.43 118.258 337.759 118.121 338.103 118.121V116.393C337.301 116.393 336.532 116.712 335.965 117.279C335.397 117.846 335.079 118.615 335.079 119.417H336.806ZM338.103 118.121C338.447 118.121 338.776 118.258 339.02 118.501C339.263 118.744 339.399 119.074 339.399 119.417H341.127C341.127 118.615 340.809 117.846 340.241 117.279C339.674 116.712 338.905 116.393 338.103 116.393V118.121Z" fill="url(#paint22_linear_76_726)"/>
	<path d="M343.759 148.149H320.483M337.957 140.024H320.483" stroke="#2A68D2" stroke-width="6" stroke-linecap="round" stroke-linejoin="round"/>
	<path d="M334.646 131.2H320.721" stroke="#2A68D2" stroke-width="6" stroke-linecap="round" stroke-linejoin="round"/>
	</g>
	<rect x="416" width="101" height="183" fill="url(#paint23_linear_76_726)"/>
	<defs>
	<linearGradient id="paint0_linear_76_726" x1="221.206" y1="12.5247" x2="266.173" y2="67.4459" gradientUnits="userSpaceOnUse">
	<stop stop-color="#0A5BE8"/>
	<stop offset="1" stop-color="#052E74"/>
	</linearGradient>
	<linearGradient id="paint1_linear_76_726" x1="29.5522" y1="10.5044" x2="88.0361" y2="59.1475" gradientUnits="userSpaceOnUse">
	<stop stop-color="#0A5BE8"/>
	<stop offset="1" stop-color="#00348E"/>
	</linearGradient>
	<linearGradient id="paint2_linear_76_726" x1="28.9406" y1="10.5037" x2="81.9736" y2="70.2008" gradientUnits="userSpaceOnUse">
	<stop stop-color="#0A5BE8"/>
	<stop offset="1" stop-color="#00348E"/>
	</linearGradient>
	<linearGradient id="paint3_linear_76_726" x1="41.5136" y1="12.2747" x2="60.8072" y2="73.1278" gradientUnits="userSpaceOnUse">
	<stop stop-color="#0A5BE8"/>
	<stop offset="1" stop-color="#00348E"/>
	</linearGradient>
	<linearGradient id="paint4_linear_76_726" x1="130.293" y1="17.6931" x2="159.625" y2="59.1279" gradientUnits="userSpaceOnUse">
	<stop stop-color="#0A5BE8"/>
	<stop offset="1" stop-color="#00348E"/>
	</linearGradient>
	<linearGradient id="paint5_linear_76_726" x1="149.549" y1="23.9451" x2="165.18" y2="41.6949" gradientUnits="userSpaceOnUse">
	<stop stop-color="#0A5BE8"/>
	<stop offset="1" stop-color="#0040B0"/>
	</linearGradient>
	<linearGradient id="paint6_linear_76_726" x1="160.98" y1="124.081" x2="171.005" y2="135.123" gradientUnits="userSpaceOnUse">
	<stop stop-color="#0A5BE8"/>
	<stop offset="1" stop-color="#00348E"/>
	</linearGradient>
	<linearGradient id="paint7_linear_76_726" x1="116.489" y1="116.209" x2="163.114" y2="180.014" gradientUnits="userSpaceOnUse">
	<stop stop-color="#0A5BE8"/>
	<stop offset="1" stop-color="#00348E"/>
	</linearGradient>
	<linearGradient id="paint8_linear_76_726" x1="140.239" y1="160.535" x2="156.951" y2="172.516" gradientUnits="userSpaceOnUse">
	<stop stop-color="#0A5BE8"/>
	<stop offset="1" stop-color="#00348E"/>
	</linearGradient>
	<linearGradient id="paint9_linear_76_726" x1="325.13" y1="21.1776" x2="356.092" y2="71.3525" gradientUnits="userSpaceOnUse">
	<stop stop-color="#0A5BE8"/>
	<stop offset="1" stop-color="#00348E"/>
	</linearGradient>
	<linearGradient id="paint10_linear_76_726" x1="355.86" y1="66.4526" x2="354.892" y2="29.9108" gradientUnits="userSpaceOnUse">
	<stop stop-color="#0A5BE8"/>
	<stop offset="1" stop-color="#00348E"/>
	</linearGradient>
	<linearGradient id="paint11_linear_76_726" x1="438.058" y1="131.562" x2="464.842" y2="165.436" gradientUnits="userSpaceOnUse">
	<stop stop-color="#0A5BE8"/>
	<stop offset="1" stop-color="#0040B0"/>
	</linearGradient>
	<linearGradient id="paint12_linear_76_726" x1="481.648" y1="114.231" x2="464.58" y2="140.227" gradientUnits="userSpaceOnUse">
	<stop stop-color="#0040B0"/>
	<stop offset="1" stop-color="#4080ED"/>
	</linearGradient>
	<linearGradient id="paint13_linear_76_726" x1="441.479" y1="19.2114" x2="472.586" y2="57.8481" gradientUnits="userSpaceOnUse">
	<stop stop-color="#0A5BE8"/>
	<stop offset="1" stop-color="#00348E"/>
	</linearGradient>
	<linearGradient id="paint14_linear_76_726" x1="25.4344" y1="119.545" x2="64.3226" y2="158.765" gradientUnits="userSpaceOnUse">
	<stop stop-color="#0A5BE8"/>
	<stop offset="1" stop-color="#00348E"/>
	</linearGradient>
	<linearGradient id="paint15_linear_76_726" x1="47.8593" y1="132.198" x2="36.9806" y2="132.097" gradientUnits="userSpaceOnUse">
	<stop stop-color="#00348E"/>
	<stop offset="1" stop-color="#0A5BE8"/>
	</linearGradient>
	<linearGradient id="paint16_linear_76_726" x1="60.3615" y1="113.436" x2="60.3615" y2="128.651" gradientUnits="userSpaceOnUse">
	<stop stop-color="#0A5BE8"/>
	<stop offset="1" stop-color="#00348E"/>
	</linearGradient>
	<linearGradient id="paint17_linear_76_726" x1="54.8045" y1="144.84" x2="47.053" y2="144.769" gradientUnits="userSpaceOnUse">
	<stop stop-color="#00348E"/>
	<stop offset="1" stop-color="#0A5BE8"/>
	</linearGradient>
	<linearGradient id="paint18_linear_76_726" x1="238.93" y1="107.155" x2="266.333" y2="158.416" gradientUnits="userSpaceOnUse">
	<stop stop-color="#0A5BE8"/>
	<stop offset="1" stop-color="#00348E"/>
	</linearGradient>
	<linearGradient id="paint19_linear_76_726" x1="251.39" y1="124.571" x2="232.734" y2="140.342" gradientUnits="userSpaceOnUse">
	<stop stop-color="#0A5BE8"/>
	<stop offset="1" stop-color="#00348E"/>
	</linearGradient>
	<linearGradient id="paint20_linear_76_726" x1="262.971" y1="148.253" x2="275.642" y2="166.21" gradientUnits="userSpaceOnUse">
	<stop stop-color="#0A5BE8"/>
	<stop offset="1" stop-color="#00348E"/>
	</linearGradient>
	<linearGradient id="paint21_linear_76_726" x1="352.892" y1="128.606" x2="379.371" y2="147.39" gradientUnits="userSpaceOnUse">
	<stop stop-color="#0A5BE8"/>
	<stop offset="1" stop-color="#00348E"/>
	</linearGradient>
	<linearGradient id="paint22_linear_76_726" x1="344.151" y1="119.792" x2="325.142" y2="119.673" gradientUnits="userSpaceOnUse">
	<stop stop-color="#0A5BE8"/>
	<stop offset="1" stop-color="#00348E"/>
	</linearGradient>
	<linearGradient id="paint23_linear_76_726" x1="416" y1="91" x2="517" y2="91" gradientUnits="userSpaceOnUse">
	<stop stop-color="#F7F7F7" stop-opacity="0"/>
	<stop offset="0.492115" stop-color="#F0F2F4"/>
	</linearGradient>
	<clipPath id="clip0_76_726">
	<rect width="84.0336" height="84.0336" fill="white" transform="translate(209.244)"/>
	</clipPath>
	<clipPath id="clip1_76_726">
	<rect width="84.0336" height="84.0336" fill="white" transform="translate(2.521)"/>
	</clipPath>
	<clipPath id="clip2_76_726">
	<rect width="84.03" height="84.03" fill="white" transform="translate(107)"/>
	</clipPath>
	<clipPath id="clip3_76_726">
	<rect width="84.0336" height="84.0336" fill="white" transform="translate(105.882 99.1597)"/>
	</clipPath>
	<clipPath id="clip4_76_726">
	<rect width="84.0336" height="84.0336" fill="white" transform="translate(312.605)"/>
	</clipPath>
	<clipPath id="clip5_76_726">
	<rect width="84.03" height="84.03" fill="white" transform="translate(416 99)"/>
	</clipPath>
	<clipPath id="clip6_76_726">
	<rect width="60.3966" height="60.3966" fill="white" transform="translate(428.079 110.554)"/>
	</clipPath>
	<clipPath id="clip7_76_726">
	<rect width="84.0336" height="84.0336" fill="white" transform="translate(415.966)"/>
	</clipPath>
	<clipPath id="clip8_76_726">
	<rect width="84.0336" height="84.0336" fill="white" transform="translate(0 99.1597)"/>
	</clipPath>
	<clipPath id="clip9_76_726">
	<rect width="84.0336" height="84.0336" fill="white" transform="translate(209.244 99.1597)"/>
	</clipPath>
	<clipPath id="clip10_76_726">
	<rect width="84.0336" height="84.0336" fill="white" transform="translate(312.605 99.1597)"/>
	</clipPath>
	</defs>
	</svg>
