<?xml version="1.0" encoding="UTF-8" standalone="no"?>
<svg
   width="502"
   height="183.1933"
   viewBox="0 0 502 183.1933"
   fill="none"
   version="1.1"
   id="svg310"
   sodipodi:docname="page_media_1.svg"
   inkscape:version="1.2.1 (9c6d41e410, 2022-07-14)"
   xmlns:inkscape="http://www.inkscape.org/namespaces/inkscape"
   xmlns:sodipodi="http://sodipodi.sourceforge.net/DTD/sodipodi-0.dtd"
   xmlns="http://www.w3.org/2000/svg"
   xmlns:svg="http://www.w3.org/2000/svg">
  <sodipodi:namedview
     id="namedview312"
     pagecolor="#ffffff"
     bordercolor="#000000"
     borderopacity="0.25"
     inkscape:showpageshadow="2"
     inkscape:pageopacity="0.0"
     inkscape:pagecheckerboard="0"
     inkscape:deskcolor="#d1d1d1"
     showgrid="false"
     inkscape:zoom="2.1575456"
     inkscape:cx="298.25557"
     inkscape:cy="114.71368"
     inkscape:window-width="2560"
     inkscape:window-height="1361"
     inkscape:window-x="4791"
     inkscape:window-y="-9"
     inkscape:window-maximized="1"
     inkscape:current-layer="svg310" />
  <g
     clip-path="url(#clip0_76_1644)"
     id="g24">
    <path
       d="m 173.109,0 h -50.42 c -9.282,0 -16.807,7.52462 -16.807,16.8067 v 50.4202 c 0,9.2821 7.525,16.8067 16.807,16.8067 h 50.42 c 9.282,0 16.807,-7.5246 16.807,-16.8067 V 16.8067 C 189.916,7.52462 182.391,0 173.109,0 Z"
       fill="#ecf2ff"
       id="path2" />
    <path
       d="m 173.109,0.262695 h -50.42 c -9.137,0 -16.544,7.407055 -16.544,16.544105 V 67.227 c 0,9.137 7.407,16.5441 16.544,16.5441 h 50.42 c 9.137,0 16.544,-7.4071 16.544,-16.5441 V 16.8068 c 0,-9.13705 -7.407,-16.544105 -16.544,-16.544105 z"
       stroke="#ffffff"
       stroke-opacity="0.5"
       id="path4" />
    <path
       d="m 127.806,61.119 c -0.285,5e-4 -0.568,-0.048 -0.837,-0.1433 -2.234,-0.8192 -4.22,-2.1974 -5.769,-4.003 -1.55,-1.8056 -2.61,-3.9783 -3.08,-6.3105 -0.471,-2.3322 -0.335,-4.7461 0.393,-7.011 0.729,-2.2649 2.026,-4.3052 3.767,-5.9261 0.323,-0.273 0.572,-0.6232 0.723,-1.018 0.152,-0.3947 0.201,-0.8214 0.144,-1.2404 -0.46,-2.3945 -0.488,-4.8519 -0.083,-7.2563 0.675,-4.0404 2.576,-7.7753 5.447,-10.6978 2.87,-2.9225 6.57,-4.891 10.598,-5.6383 4.373,-0.8139 8.893,-0.1628 12.859,1.8524 3.966,2.0153 7.157,5.2822 9.078,9.2947 0.178,0.3677 0.439,0.6886 0.763,0.9369 0.325,0.2483 0.702,0.417 1.104,0.4927 16.392,3.062 20.646,25.562 6.442,34.3429 -0.277,0.1866 -0.589,0.3158 -0.918,0.3801 -0.328,0.0643 -0.666,0.0624 -0.993,-0.0057 -0.328,-0.068 -0.638,-0.2008 -0.914,-0.3906 -0.275,-0.1897 -0.51,-0.4326 -0.691,-0.7143 -0.18,-0.2818 -0.302,-0.5967 -0.359,-0.9263 -0.057,-0.3297 -0.048,-0.6674 0.028,-0.9933 0.075,-0.3259 0.215,-0.6335 0.41,-0.9048 0.196,-0.2712 0.444,-0.5005 0.73,-0.6746 10.409,-6.3172 7.244,-23.0567 -4.717,-25.1901 -1.171,-0.2233 -2.272,-0.7204 -3.214,-1.4507 -0.942,-0.7302 -1.698,-1.6728 -2.206,-2.751 -1.364,-2.9005 -3.618,-5.2905 -6.433,-6.8228 -2.816,-1.5322 -6.046,-2.1269 -9.223,-1.6976 -3.176,0.4294 -6.133,1.8603 -8.441,4.085 -2.307,2.2246 -3.846,5.1271 -4.391,8.2857 -0.307,1.8143 -0.286,3.6688 0.06,5.4759 0.223,1.2673 0.117,2.5704 -0.307,3.7853 -0.423,1.2149 -1.151,2.301 -2.114,3.1548 -1.108,1.0314 -1.934,2.3296 -2.398,3.7709 -0.463,1.4413 -0.55,2.9773 -0.251,4.4616 0.299,1.4842 0.973,2.8671 1.959,4.0165 0.985,1.1493 2.249,2.0269 3.67,2.5488 0.561,0.196 1.034,0.5843 1.335,1.096 0.302,0.5117 0.412,1.1137 0.312,1.699 -0.101,0.5854 -0.405,1.1162 -0.86,1.4984 -0.454,0.3821 -1.03,0.5908 -1.623,0.5889 z"
       fill="url(#paint0_linear_76_1644)"
       id="path6"
       style="fill:url(#paint0_linear_76_1644)" />
    <path
       d="m 153.063,51.8209 c 0.573,-1.3494 -0.057,-2.9077 -1.406,-3.4805 -1.35,-0.5728 -2.908,0.0568 -3.481,1.4062 l -7.519,17.7149 c -0.573,1.3495 0.056,2.9078 1.406,3.4806 1.349,0.5728 2.908,-0.0568 3.48,-1.4063 z"
       fill="#2360c9"
       id="path8" />
    <path
       d="m 163.024,51.8237 c 0.573,-1.3502 -0.056,-2.9094 -1.407,-3.4826 -1.35,-0.5732 -2.909,0.0567 -3.482,1.4068 l -7.747,18.2469 c -0.573,1.3501 0.057,2.9094 1.407,3.4826 1.35,0.5732 2.91,-0.0567 3.483,-1.4069 z"
       fill="#0a5be8"
       id="path10" />
    <path
       opacity="0.75"
       d="m 155.683,64.7212 c 1.466,0 2.655,-1.1884 2.655,-2.6544 0,-1.466 -1.189,-2.6544 -2.655,-2.6544 -1.466,0 -2.654,1.1884 -2.654,2.6544 0,1.466 1.188,2.6544 2.654,2.6544 z"
       fill="#0a5be8"
       id="path12" />
    <path
       opacity="0.4"
       d="m 152.787,71.478 c 1.466,0 2.655,-1.1884 2.655,-2.6544 0,-1.466 -1.189,-2.6544 -2.655,-2.6544 -1.466,0 -2.654,1.1884 -2.654,2.6544 0,1.466 1.188,2.6544 2.654,2.6544 z"
       fill="#0a5be8"
       id="path14" />
    <path
       d="m 141.566,51.8237 c 0.573,-1.3502 -0.057,-2.9094 -1.407,-3.4826 -1.35,-0.5732 -2.909,0.0567 -3.483,1.4068 l -4.854,11.4351 c -0.573,1.3502 0.056,2.9094 1.407,3.4826 1.35,0.5732 2.909,-0.0566 3.482,-1.4068 z"
       fill="#0a5be8"
       id="path16" />
    <path
       d="m 148.385,59.6414 c 2.133,0 3.862,-1.7288 3.862,-3.8614 0,-2.1325 -1.729,-3.8613 -3.862,-3.8613 -2.132,0 -3.861,1.7288 -3.861,3.8613 0,2.1326 1.729,3.8614 3.861,3.8614 z"
       fill="#c7d4e9"
       id="path18" />
    <path
       d="m 148.385,58.8536 c 1.698,0 3.074,-1.3761 3.074,-3.0735 0,-1.6975 -1.376,-3.0736 -3.074,-3.0736 -1.697,0 -3.073,1.3761 -3.073,3.0736 0,1.6974 1.376,3.0735 3.073,3.0735 z"
       stroke="#2360c9"
       stroke-width="3"
       id="path20" />
    <path
       opacity="0.5"
       d="m 131.918,70.9106 c 1.466,0 2.654,-1.1884 2.654,-2.6544 0,-1.466 -1.188,-2.6544 -2.654,-2.6544 -1.466,0 -2.655,1.1884 -2.655,2.6544 0,1.466 1.189,2.6544 2.655,2.6544 z"
       fill="#2360c9"
       id="path22" />
  </g>
  <g
     clip-path="url(#clip1_76_1644)"
     id="g48">
    <path
       d="M 276.471,0 H 226.05 c -9.282,0 -16.806,7.52462 -16.806,16.8067 v 50.4202 c 0,9.2821 7.524,16.8067 16.806,16.8067 h 50.421 c 9.282,0 16.806,-7.5246 16.806,-16.8067 V 16.8067 C 293.277,7.52462 285.753,0 276.471,0 Z"
       fill="#ecf2ff"
       id="path26" />
    <path
       d="M 276.471,0.262695 H 226.05 c -9.137,0 -16.544,7.407055 -16.544,16.544105 V 67.227 c 0,9.137 7.407,16.5441 16.544,16.5441 h 50.421 c 9.137,0 16.544,-7.4071 16.544,-16.5441 V 16.8068 c 0,-9.13705 -7.407,-16.544105 -16.544,-16.544105 z"
       stroke="#ffffff"
       stroke-opacity="0.5"
       id="path28" />
    <path
       d="m 231.167,61.119 c -0.285,5e-4 -0.568,-0.048 -0.837,-0.1433 -2.234,-0.8192 -4.22,-2.1974 -5.769,-4.003 -1.549,-1.8056 -2.61,-3.9783 -3.08,-6.3105 -0.47,-2.3322 -0.335,-4.7461 0.394,-7.011 0.728,-2.2649 2.025,-4.3052 3.767,-5.9261 0.323,-0.273 0.571,-0.6232 0.723,-1.018 0.151,-0.3947 0.201,-0.8214 0.143,-1.2404 -0.46,-2.3945 -0.488,-4.8519 -0.083,-7.2563 0.675,-4.0404 2.576,-7.7753 5.447,-10.6978 2.87,-2.9225 6.57,-4.891 10.598,-5.6383 4.373,-0.8139 8.893,-0.1628 12.859,1.8524 3.966,2.0153 7.157,5.2822 9.078,9.2947 0.178,0.3677 0.439,0.6886 0.764,0.9369 0.324,0.2483 0.702,0.417 1.103,0.4927 16.392,3.062 20.647,25.562 6.443,34.3429 -0.278,0.1866 -0.59,0.3158 -0.918,0.3801 -0.329,0.0643 -0.666,0.0624 -0.994,-0.0057 -0.327,-0.068 -0.638,-0.2008 -0.914,-0.3906 -0.275,-0.1897 -0.51,-0.4326 -0.69,-0.7143 -0.181,-0.2818 -0.303,-0.5967 -0.36,-0.9263 -0.057,-0.3297 -0.047,-0.6674 0.028,-0.9933 0.075,-0.3259 0.215,-0.6335 0.411,-0.9048 0.196,-0.2712 0.444,-0.5005 0.729,-0.6746 10.409,-6.3172 7.244,-23.0567 -4.717,-25.1901 -1.17,-0.2233 -2.272,-0.7204 -3.214,-1.4507 -0.942,-0.7302 -1.698,-1.6728 -2.206,-2.751 -1.364,-2.9005 -3.618,-5.2905 -6.433,-6.8228 -2.815,-1.5322 -6.046,-2.1269 -9.223,-1.6976 -3.176,0.4294 -6.133,1.8603 -8.441,4.085 -2.307,2.2246 -3.845,5.1271 -4.391,8.2857 -0.307,1.8143 -0.286,3.6688 0.061,5.4759 0.222,1.2673 0.117,2.5704 -0.307,3.7853 -0.424,1.2149 -1.152,2.301 -2.115,3.1548 -1.108,1.0314 -1.934,2.3296 -2.397,3.7709 -0.464,1.4413 -0.551,2.9773 -0.252,4.4616 0.299,1.4842 0.973,2.8671 1.959,4.0165 0.986,1.1493 2.249,2.0269 3.671,2.5488 0.56,0.196 1.033,0.5843 1.335,1.096 0.301,0.5117 0.411,1.1137 0.311,1.699 -0.1,0.5854 -0.405,1.1162 -0.859,1.4984 -0.455,0.3821 -1.03,0.5908 -1.624,0.5889 z"
       fill="url(#paint1_linear_76_1644)"
       id="path30"
       style="fill:url(#paint1_linear_76_1644)" />
    <path
       d="m 256.424,51.8209 c 0.573,-1.3494 -0.057,-2.9077 -1.406,-3.4805 -1.35,-0.5728 -2.908,0.0568 -3.481,1.4062 l -7.519,17.7149 c -0.573,1.3495 0.057,2.9078 1.406,3.4806 1.35,0.5728 2.908,-0.0568 3.481,-1.4063 z"
       fill="#2360c9"
       id="path32" />
    <path
       d="m 266.385,51.8237 c 0.574,-1.3502 -0.056,-2.9094 -1.406,-3.4826 -1.351,-0.5732 -2.91,0.0567 -3.483,1.4068 l -7.746,18.2469 c -0.574,1.3501 0.056,2.9094 1.406,3.4826 1.351,0.5732 2.91,-0.0567 3.483,-1.4069 z"
       fill="#0a5be8"
       id="path34" />
    <path
       opacity="0.75"
       d="m 259.044,64.7212 c 1.466,0 2.655,-1.1884 2.655,-2.6544 0,-1.466 -1.189,-2.6544 -2.655,-2.6544 -1.466,0 -2.654,1.1884 -2.654,2.6544 0,1.466 1.188,2.6544 2.654,2.6544 z"
       fill="#0a5be8"
       id="path36" />
    <path
       opacity="0.4"
       d="m 256.148,71.478 c 1.466,0 2.655,-1.1884 2.655,-2.6544 0,-1.466 -1.189,-2.6544 -2.655,-2.6544 -1.466,0 -2.654,1.1884 -2.654,2.6544 0,1.466 1.188,2.6544 2.654,2.6544 z"
       fill="#0a5be8"
       id="path38" />
    <path
       d="m 244.927,51.8237 c 0.573,-1.3502 -0.057,-2.9094 -1.407,-3.4826 -1.35,-0.5732 -2.909,0.0567 -3.482,1.4068 l -4.855,11.4351 c -0.573,1.3502 0.057,2.9094 1.407,3.4826 1.35,0.5732 2.909,-0.0566 3.482,-1.4068 z"
       fill="#0a5be8"
       id="path40" />
    <path
       d="m 251.747,59.6414 c 2.132,0 3.861,-1.7288 3.861,-3.8614 0,-2.1325 -1.729,-3.8613 -3.861,-3.8613 -2.133,0 -3.862,1.7288 -3.862,3.8613 0,2.1326 1.729,3.8614 3.862,3.8614 z"
       fill="#c7d4e9"
       id="path42" />
    <path
       d="m 251.747,58.8536 c 1.697,0 3.073,-1.3761 3.073,-3.0735 0,-1.6975 -1.376,-3.0736 -3.073,-3.0736 -1.698,0 -3.074,1.3761 -3.074,3.0736 0,1.6974 1.376,3.0735 3.074,3.0735 z"
       stroke="#2360c9"
       stroke-width="3"
       id="path44" />
    <path
       opacity="0.5"
       d="m 235.279,70.9106 c 1.466,0 2.654,-1.1884 2.654,-2.6544 0,-1.466 -1.188,-2.6544 -2.654,-2.6544 -1.466,0 -2.655,1.1884 -2.655,2.6544 0,1.466 1.189,2.6544 2.655,2.6544 z"
       fill="#2360c9"
       id="path46" />
  </g>
  <g
     clip-path="url(#clip2_76_1644)"
     id="g60">
    <path
       d="M 69.7479,0 H 19.3277 C 10.0456,0 2.521,7.52462 2.521,16.8067 v 50.4202 c 0,9.2821 7.5246,16.8067 16.8067,16.8067 h 50.4202 c 9.2821,0 16.8067,-7.5246 16.8067,-16.8067 V 16.8067 C 86.5546,7.52462 79.03,0 69.7479,0 Z"
       fill="#ecf2ff"
       id="path50" />
    <path
       d="M 69.7479,0.262695 H 19.3277 c -9.137,0 -16.5441,7.407055 -16.5441,16.544105 V 67.227 c 0,9.137 7.4071,16.5441 16.5441,16.5441 h 50.4202 c 9.137,0 16.5441,-7.4071 16.5441,-16.5441 V 16.8068 C 86.292,7.66975 78.8849,0.262695 69.7479,0.262695 Z"
       stroke="#ffffff"
       stroke-opacity="0.5"
       id="path52" />
    <path
       opacity="0.1"
       d="m 52.1964,35.8594 c -2.386,-2.4243 -2.3634,-2.6176 -5.1996,-3.49 -2.8361,-0.8724 -6.1559,0 -6.1559,0 L 34.2873,46.122 c -0.275,0.6088 -0.2993,1.3014 -0.0676,1.928 0.2316,0.6266 0.7006,1.1368 1.3055,1.4203 l 14.5788,7.9259 c 0.4317,0.2147 0.7972,0.5422 1.0577,0.9479 0.2604,0.4057 0.4062,0.8743 0.4218,1.3562 v 13.6654 c 0,1.5095 -1.4212,2.7311 -3.1749,2.7311 -1.7537,0 -3.1749,-1.2237 -3.1749,-2.7311 V 61.2061 L 32.135,54.1 C 28.2206,51.9739 26.6476,47.7329 28.406,44.0475 l 5.5672,-11.6786 h -7.0383 c -0.5631,-0.0166 -1.1208,0.1138 -1.6182,0.3784 -0.4973,0.2646 -0.9171,0.6542 -1.218,1.1305 l -4.5961,7.9123 c -0.4505,0.6752 -1.1258,1.1687 -1.9058,1.393 -0.7801,0.2242 -1.6144,0.1646 -2.3547,-0.1682 -1.5693,-0.6749 -2.2059,-2.3167 -1.4223,-3.6681 l 4.5972,-7.9259 c 1.6087,-2.7789 4.9113,-4.5305 8.5179,-4.5168 h 21.0262 c 3.3388,0.0084 6.4317,1.5131 8.1623,3.9711 6.4312,9.1885 -1.5409,7.4086 -3.927,4.9842 z M 28.9632,56.4603 c -1.6281,-0.5609 -3.4758,0.1208 -4.1271,1.5231 -0.2782,0.5366 -0.7032,0.9831 -1.2254,1.2874 -0.5222,0.3044 -1.1201,0.454 -1.7242,0.4316 h -8.4002 c -1.7536,-0.0021 -3.1749,1.2222 -3.1749,2.7311 0,1.5089 1.4213,2.7311 3.1749,2.7311 h 8.4002 c 3.8987,0.0105 7.4055,-2.0347 8.8451,-5.1544 0.6513,-1.4013 -0.1402,-2.9937 -1.7684,-3.5531 z M 51.5835,24.1698 c 4.3834,0 7.937,-3.0593 7.937,-6.8329 0,-3.7737 -3.5536,-6.8325 -7.937,-6.8325 -4.3834,0 -7.937,3.0593 -7.937,6.833 0,3.7736 3.5536,6.8324 7.937,6.8324 z"
       fill="url(#paint2_linear_76_1644)"
       id="path54"
       style="fill:url(#paint2_linear_76_1644)" />
    <path
       opacity="0.52"
       d="m 75.0879,43.3015 c 0,0.3586 -0.0707,0.7138 -0.2079,1.0451 -0.1373,0.3314 -0.3385,0.6324 -0.5921,0.886 -0.2536,0.2536 -0.5546,0.4548 -0.886,0.5921 -0.3313,0.1372 -0.6865,0.2079 -1.0451,0.2079 h -7.8461 c -1.4123,-0.0049 -2.7997,-0.3723 -4.0291,-1.0672 -1.2295,-0.6949 -2.2599,-1.6939 -2.9925,-2.9013 0,0 -1.6849,-3.7815 -3.739,-6.207 -2.0541,-2.4254 -2.0325,-2.6176 -4.4768,-3.49 -2.4444,-0.8724 -5.2994,0 -5.2994,0 l -5.6402,13.7547 c -0.2448,0.5943 -0.2721,1.2559 -0.0772,1.8683 0.195,0.6124 0.5996,1.1365 1.1428,1.48 l 12.5525,7.9259 c 0.3893,0.2456 0.7101,0.5856 0.9328,0.9885 0.2227,0.4028 0.3399,0.8553 0.3409,1.3156 v 13.6654 c 0,0.7249 -0.288,1.4201 -0.8006,1.9327 -0.5125,0.5126 -1.2077,0.8005 -1.9326,0.8005 -0.7249,0 -1.4201,-0.2879 -1.9327,-0.8005 -0.5126,-0.5126 -0.8005,-1.2078 -0.8005,-1.9327 V 61.2059 L 36.4802,54.0998 c -1.6325,-1.0299 -2.8494,-2.6027 -3.4363,-4.4415 -0.5869,-1.8389 -0.5063,-3.8258 0.2278,-5.611 l 4.7941,-11.6786 h -6.0625 c -0.5074,-0.002 -1.0052,0.1382 -1.437,0.4046 -0.4318,0.2664 -0.7804,0.6484 -1.0063,1.1027 l -3.9548,7.9123 c -0.3306,0.637 -0.8984,1.1184 -1.5809,1.3404 -0.6824,0.2221 -1.4248,0.1669 -2.0669,-0.1536 -0.6421,-0.3205 -1.1325,-0.8805 -1.3653,-1.5594 -0.2329,-0.6788 -0.1895,-1.4219 0.1208,-2.0691 l 3.9574,-7.9259 c 0.6791,-1.3622 1.7258,-2.5071 3.0217,-3.3053 1.2959,-0.7982 2.7893,-1.2179 4.3113,-1.2115 h 18.1014 c 1.4134,0.0042 2.802,0.3716 4.0324,1.067 1.2305,0.6954 2.2616,1.6954 2.9944,2.9041 l 5.042,8.3713 c 0.2441,0.4023 0.5874,0.7352 0.9969,0.9668 0.4096,0.2316 0.8718,0.3543 1.3423,0.3562 h 7.8441 c 0.3587,0 0.7139,0.0707 1.0454,0.208 0.3314,0.1373 0.6325,0.3386 0.8861,0.5923 0.2536,0.2537 0.4548,0.5549 0.592,0.8864 0.1372,0.3315 0.2077,0.6867 0.2076,1.0455 z M 33.7496,56.4601 c -0.3332,-0.1336 -0.6896,-0.2002 -1.0486,-0.196 -0.3591,0.0043 -0.7137,0.0793 -1.0437,0.2208 -0.3301,0.1414 -0.6289,0.3466 -0.8796,0.6037 -0.2506,0.2571 -0.4481,0.5611 -0.5811,0.8946 -0.201,0.5088 -0.5508,0.9451 -1.0038,1.2518 -0.453,0.3068 -0.988,0.4696 -1.5351,0.4672 H 20.424 c -0.7249,0 -1.4201,0.288 -1.9327,0.8005 -0.5125,0.5126 -0.8005,1.2078 -0.8005,1.9327 0,0.7249 0.288,1.4201 0.8005,1.9326 0.5126,0.5126 1.2078,0.8006 1.9327,0.8006 h 7.2337 c 1.6403,0.0053 3.2442,-0.4836 4.6026,-1.403 1.3584,-0.9194 2.4083,-2.2267 3.013,-3.7514 0.1336,-0.3333 0.2002,-0.6896 0.1959,-1.0487 -0.0042,-0.359 -0.0793,-0.7137 -0.2207,-1.0437 -0.1415,-0.33 -0.3466,-0.6289 -0.6037,-0.8795 -0.2571,-0.2507 -0.5611,-0.4481 -0.8947,-0.5812 z M 53.2234,24.1696 c 1.3514,0 2.6725,-0.4007 3.7962,-1.1516 1.1237,-0.7508 1.9995,-1.818 2.5167,-3.0666 0.5171,-1.2486 0.6524,-2.6225 0.3887,-3.948 -0.2637,-1.3255 -0.9145,-2.543 -1.8702,-3.4986 -0.9556,-0.9556 -2.1732,-1.6063 -3.4987,-1.8699 -1.3255,-0.2636 -2.6994,-0.1282 -3.948,0.389 -1.2485,0.5173 -2.3157,1.3932 -3.0664,2.5169 -0.7508,1.1238 -1.1514,2.4449 -1.1513,3.7964 1e-4,1.8121 0.7201,3.55 2.0015,4.8313 1.2814,1.2813 3.0193,2.0011 4.8315,2.0011 z"
       fill="url(#paint3_linear_76_1644)"
       id="path56"
       style="fill:url(#paint3_linear_76_1644)" />
    <path
       d="m 78.7643,43.3015 c 0,0.3586 -0.0706,0.7138 -0.2079,1.0451 -0.1372,0.3314 -0.3384,0.6324 -0.592,0.886 -0.2536,0.2536 -0.5547,0.4548 -0.886,0.5921 -0.3314,0.1372 -0.6865,0.2079 -1.0452,0.2079 H 68.1871 C 66.7749,46.0277 65.3875,45.6603 64.158,44.9654 62.9286,44.2705 61.8982,43.2715 61.1656,42.0641 l -3.7385,-6.2049 -4.064,9.9018 c -0.136,0.3322 -0.3362,0.6343 -0.5889,0.8891 -0.2528,0.2549 -0.5533,0.4574 -0.8843,0.5961 -0.3311,0.1387 -0.6862,0.2109 -1.0452,0.2123 -0.3589,0.0015 -0.7146,-0.0678 -1.0468,-0.2038 -0.3321,-0.136 -0.6343,-0.3361 -0.8891,-0.5889 -0.2548,-0.2527 -0.4574,-0.5532 -0.5961,-0.8843 -0.1387,-0.331 -0.2108,-0.6862 -0.2123,-1.0451 -0.0014,-0.3589 0.0678,-0.7146 0.2038,-1.0468 l 4.6461,-11.3204 h -5.2994 l -5.6408,13.7526 c -0.2447,0.5943 -0.272,1.2559 -0.0771,1.8683 0.1949,0.6124 0.5996,1.1365 1.1428,1.48 l 12.5525,7.9259 c 0.3892,0.2456 0.7101,0.5856 0.9328,0.9885 0.2226,0.4028 0.3399,0.8553 0.3408,1.3156 v 13.6654 c 0,0.7249 -0.2879,1.4201 -0.8005,1.9327 -0.5126,0.5126 -1.2078,0.8005 -1.9327,0.8005 -0.7249,0 -1.42,-0.2879 -1.9326,-0.8005 -0.5126,-0.5126 -0.8006,-1.2078 -0.8006,-1.9327 V 61.2059 L 40.1567,54.0998 c -1.6326,-1.0299 -2.8494,-2.6027 -3.4363,-4.4415 -0.587,-1.8389 -0.5063,-3.8258 0.2277,-5.611 l 4.7942,-11.6786 h -6.0625 c -0.5074,-0.002 -1.0052,0.1382 -1.437,0.4046 -0.4318,0.2664 -0.7804,0.6484 -1.0063,1.1027 l -3.9548,7.9123 c -0.3307,0.637 -0.8985,1.1184 -1.5809,1.3404 -0.6824,0.2221 -1.4248,0.1669 -2.0669,-0.1536 -0.6421,-0.3205 -1.1325,-0.8805 -1.3654,-1.5594 -0.2328,-0.6788 -0.1894,-1.4219 0.1208,-2.0691 l 3.9575,-7.9259 c 0.679,-1.3622 1.7257,-2.5071 3.0216,-3.3053 1.2959,-0.7982 2.7894,-1.2179 4.3114,-1.2115 h 18.1013 c 1.4134,0.0042 2.802,0.3716 4.0325,1.067 1.2305,0.6954 2.2616,1.6954 2.9943,2.9041 l 5.042,8.3713 c 0.2442,0.4023 0.5874,0.7352 0.997,0.9668 0.4096,0.2316 0.8718,0.3543 1.3423,0.3562 h 7.844 c 0.3588,0 0.714,0.0707 1.0454,0.208 0.3314,0.1373 0.6326,0.3386 0.8862,0.5923 0.2536,0.2537 0.4547,0.5549 0.5919,0.8864 0.1372,0.3315 0.2078,0.6867 0.2076,1.0455 z M 37.4261,56.4601 c -0.3333,-0.1336 -0.6896,-0.2002 -1.0487,-0.196 -0.359,0.0043 -0.7137,0.0793 -1.0437,0.2208 -0.33,0.1414 -0.6289,0.3466 -0.8795,0.6037 -0.2506,0.2571 -0.4481,0.5611 -0.5812,0.8946 -0.2009,0.5088 -0.5507,0.9451 -1.0037,1.2518 -0.453,0.3068 -0.9881,0.4696 -1.5351,0.4672 h -7.2337 c -0.7249,0 -1.4201,0.288 -1.9327,0.8005 -0.5126,0.5126 -0.8005,1.2078 -0.8005,1.9327 0,0.7249 0.2879,1.4201 0.8005,1.9326 0.5126,0.5126 1.2078,0.8006 1.9327,0.8006 h 7.2337 c 1.6403,0.0053 3.2441,-0.4836 4.6025,-1.403 1.3584,-0.9194 2.4084,-2.2267 3.013,-3.7514 0.1336,-0.3333 0.2002,-0.6896 0.196,-1.0487 -0.0043,-0.359 -0.0793,-0.7137 -0.2208,-1.0437 -0.1414,-0.33 -0.3466,-0.6289 -0.6037,-0.8795 -0.2571,-0.2507 -0.5611,-0.4481 -0.8946,-0.5812 z M 56.8998,24.1696 c 1.3515,0 2.6726,-0.4007 3.7963,-1.1516 1.1237,-0.7508 1.9995,-1.818 2.5166,-3.0666 0.5172,-1.2486 0.6525,-2.6225 0.3888,-3.948 -0.2637,-1.3255 -0.9145,-2.543 -1.8702,-3.4986 -0.9557,-0.9556 -2.1732,-1.6063 -3.4987,-1.8699 -1.3255,-0.2636 -2.6994,-0.1282 -3.948,0.389 -1.2486,0.5173 -2.3157,1.3932 -3.0664,2.5169 -0.7508,1.1238 -1.1515,2.4449 -1.1514,3.7964 2e-4,1.8121 0.7201,3.55 2.0016,4.8313 1.2814,1.2813 3.0193,2.0011 4.8314,2.0011 z"
       fill="url(#paint4_linear_76_1644)"
       id="path58"
       style="fill:url(#paint4_linear_76_1644)" />
  </g>
  <g
     clip-path="url(#clip3_76_1644)"
     id="g82">
    <path
       d="m 173.109,99.1597 h -50.42 c -9.282,0 -16.807,7.5243 -16.807,16.8063 v 50.421 c 0,9.282 7.525,16.806 16.807,16.806 h 50.42 c 9.282,0 16.807,-7.524 16.807,-16.806 v -50.421 c 0,-9.282 -7.525,-16.8063 -16.807,-16.8063 z"
       fill="#ecf2ff"
       id="path62" />
    <path
       d="m 173.109,99.4224 h -50.42 c -9.137,0 -16.544,7.4066 -16.544,16.5436 v 50.421 c 0,9.137 7.407,16.544 16.544,16.544 h 50.42 c 9.137,0 16.544,-7.407 16.544,-16.544 v -50.421 c 0,-9.137 -7.407,-16.5436 -16.544,-16.5436 z"
       stroke="#ffffff"
       stroke-opacity="0.5"
       id="path64" />
    <path
       opacity="0.8"
       d="m 136.498,144.724 c 11.2,-4.977 18.044,11.822 18.044,11.822 0,-11.822 0,-24.887 13.066,-24.887"
       stroke="#0a5be8"
       stroke-width="9"
       stroke-linecap="round"
       stroke-linejoin="round"
       id="path66" />
    <path
       d="m 165.772,136.765 c 3.696,0 6.692,-3.093 6.692,-6.908 0,-3.816 -2.996,-6.909 -6.692,-6.909 -3.697,0 -6.693,3.093 -6.693,6.909 0,3.815 2.996,6.908 6.693,6.908 z"
       fill="url(#paint5_linear_76_1644)"
       stroke="#ecf2ff"
       stroke-width="5"
       id="path68"
       style="fill:url(#paint5_linear_76_1644)" />
    <path
       opacity="0.5"
       d="m 130.366,150.151 c 1.311,0 2.375,-1.064 2.375,-2.375 0,-1.312 -1.064,-2.375 -2.375,-2.375 -1.312,0 -2.375,1.063 -2.375,2.375 0,1.311 1.063,2.375 2.375,2.375 z"
       fill="#0a5be8"
       id="path70" />
    <path
       opacity="0.3"
       d="m 125.4,155.332 c 1.431,0 2.591,-1.16 2.591,-2.591 0,-1.431 -1.16,-2.591 -2.591,-2.591 -1.431,0 -2.591,1.16 -2.591,2.591 0,1.431 1.16,2.591 2.591,2.591 z"
       fill="#00348e"
       id="path72" />
    <path
       d="m 170.221,167.584 h -44.643 c -1.725,0.001 -3.433,-0.338 -5.027,-0.997 -1.593,-0.659 -3.041,-1.626 -4.261,-2.846 -1.22,-1.219 -2.187,-2.667 -2.846,-4.261 -0.659,-1.594 -0.998,-3.302 -0.996,-5.027 v -27.311 c -0.002,-1.724 0.337,-3.432 0.996,-5.026 0.66,-1.594 1.627,-3.042 2.846,-4.261 1.22,-1.22 2.668,-2.187 4.261,-2.846 1.594,-0.659 3.302,-0.998 5.027,-0.997 h 44.643 c 1.724,-0.001 3.432,0.338 5.026,0.997 1.594,0.659 3.042,1.626 4.261,2.846 1.22,1.219 2.187,2.667 2.846,4.261 0.66,1.594 0.998,3.302 0.997,5.026 v 27.311 c 0.001,1.725 -0.337,3.433 -0.997,5.027 -0.659,1.594 -1.626,3.042 -2.846,4.261 -1.219,1.22 -2.667,2.187 -4.261,2.846 -1.594,0.659 -3.302,0.998 -5.026,0.997 z m -44.643,-49.895 c -2.507,0.002 -4.91,0.999 -6.682,2.772 -1.772,1.772 -2.769,4.175 -2.772,6.681 v 27.311 c 0.003,2.507 1,4.91 2.772,6.682 1.772,1.772 4.175,2.769 6.682,2.772 h 44.643 c 2.506,-0.003 4.909,-1 6.681,-2.772 1.773,-1.772 2.77,-4.175 2.772,-6.682 v -27.311 c -0.002,-2.506 -0.999,-4.909 -2.772,-6.681 -1.772,-1.773 -4.175,-2.77 -6.681,-2.772 z"
       fill="url(#paint6_linear_76_1644)"
       id="path74"
       style="fill:url(#paint6_linear_76_1644)" />
    <path
       d="m 153.277,161.397 h -9.454 v 9.979 h 9.454 z"
       fill="#ecf2ff"
       id="path76" />
    <path
       d="m 145.364,177.794 c -0.802,0 -1.582,-0.188 -2.319,-0.56 l -0.002,-0.001 -0.002,-0.001 c -0.856,-0.434 -1.566,-1.084 -2.055,-1.879 -0.489,-0.795 -0.747,-1.722 -0.747,-2.681 v -11.528 c 0,-0.959 0.258,-1.886 0.747,-2.681 0.489,-0.796 1.199,-1.446 2.054,-1.88 0.715,-0.362 1.515,-0.553 2.313,-0.553 1.095,0 2.141,0.343 3.025,0.994 l 7.857,5.76 c 1.327,0.974 2.088,2.477 2.088,4.123 0,1.647 -0.762,3.15 -2.09,4.124 l -7.859,5.763 c -0.447,0.328 -0.932,0.579 -1.441,0.747 l -0.002,0.252 z m 0.16,-16.31 v 10.848 l 7.396,-5.424 z"
       fill="url(#paint7_linear_76_1644)"
       id="path78"
       style="fill:url(#paint7_linear_76_1644)" />
    <path
       d="m 145.364,176.219 v -0.002 c 0.729,0 1.451,-0.233 2.079,-0.694 l 7.859,-5.763 c 0.918,-0.673 1.445,-1.713 1.445,-2.853 0,-1.139 -0.527,-2.179 -1.444,-2.852 l -7.859,-5.762 c -1.076,-0.792 -2.498,-0.909 -3.691,-0.304 -1.214,0.615 -1.938,1.795 -1.938,3.155 v 11.528 c 0,1.36 0.724,2.538 1.939,3.155 0.518,0.261 1.067,0.392 1.61,0.392 z m -0.004,-16.486 c 0.288,0 0.573,0.096 0.822,0.279 l 7.859,5.765 c 0.37,0.271 0.574,0.673 0.574,1.131 0,0.459 -0.204,0.861 -0.574,1.132 l -7.86,5.765 c -0.441,0.322 -0.974,0.367 -1.464,0.119 -0.488,-0.248 -0.769,-0.704 -0.769,-1.252 v -11.528 c 0,-0.548 0.281,-1.005 0.769,-1.252 0.208,-0.106 0.425,-0.159 0.643,-0.159 z m 0.004,19.637 c -1.036,0 -2.083,-0.252 -3.029,-0.729 -2.267,-1.151 -3.672,-3.437 -3.672,-5.969 v -11.528 c 0,-2.534 1.405,-4.82 3.665,-5.966 0.935,-0.474 1.981,-0.724 3.025,-0.724 1.434,0 2.803,0.45 3.959,1.301 l 7.854,5.759 c 1.737,1.274 2.733,3.24 2.733,5.393 0,2.155 -0.997,4.121 -2.734,5.394 l -7.859,5.763 c -1.161,0.853 -2.525,1.305 -3.942,1.305 z m 1.735,-14.777 v 4.63 l 3.157,-2.315 z"
       fill="#ecf2ff"
       id="path80" />
  </g>
  <g
     clip-path="url(#clip4_76_1644)"
     id="g96">
    <path
       d="m 379.832,0 h -50.42 c -9.282,0 -16.807,7.52462 -16.807,16.8067 v 50.4202 c 0,9.2821 7.525,16.8067 16.807,16.8067 h 50.42 c 9.282,0 16.807,-7.5246 16.807,-16.8067 V 16.8067 C 396.639,7.52462 389.114,0 379.832,0 Z"
       fill="#ecf2ff"
       id="path84" />
    <path
       d="m 379.832,0.262695 h -50.42 c -9.137,0 -16.544,7.407055 -16.544,16.544105 V 67.227 c 0,9.137 7.407,16.5441 16.544,16.5441 h 50.42 c 9.137,0 16.544,-7.4071 16.544,-16.5441 V 16.8068 c 0,-9.13705 -7.407,-16.544105 -16.544,-16.544105 z"
       stroke="#ffffff"
       stroke-opacity="0.5"
       id="path86" />
    <path
       d="m 349.523,39.2888 c -0.505,5e-4 -0.997,0.1505 -1.416,0.4309 -0.419,0.2805 -0.745,0.6788 -0.938,1.1447 -0.192,0.4659 -0.243,0.9784 -0.144,1.4727 0.099,0.4944 0.342,0.9484 0.698,1.3047 0.357,0.3562 0.811,0.5988 1.306,0.6969 0.494,0.0982 1.007,0.0476 1.472,-0.1455 0.466,-0.193 0.864,-0.5198 1.144,-0.939 0.28,-0.4191 0.43,-0.9119 0.43,-1.416 0,-0.335 -0.066,-0.6668 -0.195,-0.9762 -0.128,-0.3095 -0.316,-0.5907 -0.553,-0.8274 -0.237,-0.2368 -0.518,-0.4245 -0.828,-0.5525 -0.31,-0.128 -0.641,-0.1937 -0.976,-0.1933 z m 10.198,5.0987 c 0.504,-4e-4 0.996,-0.1503 1.415,-0.4306 0.419,-0.2804 0.746,-0.6787 0.938,-1.1446 0.193,-0.4659 0.243,-0.9784 0.145,-1.4728 -0.099,-0.4944 -0.342,-0.9484 -0.699,-1.3048 -0.356,-0.3563 -0.81,-0.5989 -1.305,-0.6971 -0.494,-0.0982 -1.007,-0.0476 -1.473,0.1455 -0.465,0.193 -0.863,0.5197 -1.143,0.9389 -0.28,0.4192 -0.43,0.912 -0.43,1.4162 0,0.3349 0.066,0.6666 0.194,0.9761 0.129,0.3094 0.317,0.5905 0.554,0.8273 0.236,0.2367 0.518,0.4245 0.827,0.5525 0.31,0.128 0.642,0.1937 0.977,0.1934 z m 25.494,-12.7468 v 10.1975 c -0.004,3.3795 -1.348,6.6195 -3.738,9.0093 -2.389,2.3897 -5.629,3.734 -9.009,3.738 h -35.692 c -3.38,-0.004 -6.62,-1.3483 -9.01,-3.738 -2.389,-2.3898 -3.734,-5.6298 -3.738,-9.0093 V 31.6407 c 0.004,-3.3796 1.349,-6.6196 3.738,-9.0093 2.39,-2.3897 5.63,-3.7341 9.01,-3.7381 h 35.692 c 3.38,0.004 6.62,1.3484 9.009,3.7381 2.39,2.3897 3.734,5.6297 3.738,9.0093 z m -43.341,-7.6486 v 25.4947 h 25.495 V 23.9921 Z m -5.098,25.4947 V 23.9921 c -1.005,-10e-5 -1.999,0.1977 -2.927,0.582 -0.928,0.3844 -1.772,0.9478 -2.482,1.658 -0.71,0.7103 -1.273,1.5535 -1.658,2.4815 -0.384,0.928 -0.582,1.9226 -0.582,2.9271 v 10.1975 c 0,1.0044 0.198,1.999 0.582,2.9271 0.385,0.928 0.948,1.7712 1.658,2.4814 0.71,0.7103 1.554,1.2737 2.482,1.658 0.928,0.3844 1.922,0.5822 2.927,0.5821 z m 43.34,-17.8461 c 0,-1.0044 -0.198,-1.999 -0.582,-2.927 -0.384,-0.928 -0.948,-1.7711 -1.658,-2.4814 -0.71,-0.7102 -1.553,-1.2736 -2.481,-1.658 -0.928,-0.3844 -1.923,-0.5822 -2.927,-0.5822 v 25.4947 c 2.028,0 3.974,-0.8058 5.408,-2.2401 1.434,-1.4343 2.24,-3.3796 2.24,-5.408 z"
       fill="url(#paint8_linear_76_1644)"
       id="path88"
       style="fill:url(#paint8_linear_76_1644)" />
    <path
       d="m 365.414,48.1865 h -20.986 v 7.1949 h 20.986 z"
       fill="#ecf2ff"
       id="path90" />
    <path
       d="m 369.134,66.4526 h -1.313 v -0.0025 h -5.94 c -1.757,0 -3.234,-1.2204 -3.629,-2.858 -0.394,1.6376 -1.872,2.858 -3.629,2.858 -1.757,0 -3.234,-1.2204 -3.629,-2.858 -0.394,1.6376 -1.871,2.858 -3.628,2.858 h -7.256 c -2.23,0 -4.224,-1.1545 -5.334,-3.0883 -1.11,-1.9312 -1.103,-4.2352 0.019,-6.1624 l 0.004,-0.0071 0.004,-0.0069 14.52,-24.2476 c 0.541,-0.923 1.314,-1.6887 2.235,-2.2145 0.924,-0.5269 1.983,-0.8053 3.063,-0.8053 2.206,0 4.191,1.1377 5.31,3.0437 l 14.493,24.2019 0.004,0.0058 0.003,0.0058 c 1.134,1.9392 1.148,4.2529 0.037,6.189 -1.11,1.9338 -3.104,3.0884 -5.334,3.0884 z m -13.636,-7.3637 c 1.357,0.327 2.427,1.3975 2.754,2.7547 0.395,-1.6377 1.872,-2.8581 3.629,-2.8581 h 4.936 l -12.178,-20.3381 -12.217,20.3546 4.939,-0.0164 0.002,-10e-5 h 0.003 c 1.757,0 3.234,1.2204 3.628,2.8581 0.327,-1.3572 1.398,-2.4277 2.755,-2.7547 -1.638,-0.3945 -2.858,-1.8718 -2.858,-3.6289 v -7.2578 c 0,-2.058 1.674,-3.7323 3.732,-3.7323 2.058,0 3.733,1.6743 3.733,3.7323 V 55.46 c 0,1.7571 -1.221,3.2344 -2.858,3.6289 z"
       fill="url(#paint9_linear_76_1644)"
       id="path92"
       style="fill:url(#paint9_linear_76_1644)" />
    <path
       d="m 369.134,65.1396 c 1.752,0 3.322,-0.9073 4.195,-2.429 0.874,-1.5217 0.869,-3.3337 -0.031,-4.8724 L 358.801,33.6309 c -0.88,-1.5023 -2.441,-2.3999 -4.18,-2.3999 -1.74,0 -3.302,0.8952 -4.168,2.3758 L 335.93,57.86 c -0.883,1.5169 -0.888,3.3289 -0.015,4.8482 0.873,1.5217 2.441,2.4289 4.195,2.4289 h 7.256 c 1.337,0 2.419,-1.0838 2.419,-2.4192 0,-1.3355 -1.082,-2.4193 -2.419,-2.4193 l -7.268,0.0242 14.542,-24.229 14.494,24.2048 h -7.253 c -1.338,0 -2.419,1.0838 -2.419,2.4193 0,1.3354 1.081,2.4192 2.419,2.4192 h 7.253 z m -14.511,-0.0025 c 1.336,0 2.42,-1.0838 2.42,-2.4192 0,-1.3355 -1.084,-2.4193 -2.42,-2.4193 -1.335,0 -2.419,1.0838 -2.419,2.4193 0,1.3354 1.084,2.4192 2.419,2.4192 z m 0,-7.2578 c 1.338,0 2.42,-1.0838 2.42,-2.4192 v -7.2579 c 0,-1.3354 -1.082,-2.4192 -2.42,-2.4192 -1.338,0 -2.419,1.0838 -2.419,2.4192 v 7.2579 c 0,1.3354 1.081,2.4192 2.419,2.4192 z m 14.511,9.8863 h -2.626 v -0.0024 h -4.627 c -1.348,0 -2.616,-0.5251 -3.569,-1.4786 -0.021,-0.0209 -0.041,-0.0419 -0.062,-0.063 -0.918,0.9499 -2.204,1.5416 -3.627,1.5416 -1.422,0 -2.709,-0.5917 -3.627,-1.5416 -0.02,0.0211 -0.041,0.0421 -0.062,0.063 -0.952,0.9535 -2.22,1.4786 -3.568,1.4786 h -7.256 c -1.322,0 -2.616,-0.3448 -3.743,-0.9972 -1.128,-0.6526 -2.071,-1.6037 -2.729,-2.7506 -0.658,-1.1439 -1.004,-2.4377 -1,-3.7398 0.003,-1.3021 0.357,-2.5943 1.022,-3.7368 l 0.017,-0.0279 14.516,-24.2429 c 0.657,-1.1184 1.596,-2.0466 2.715,-2.6851 1.121,-0.6398 2.405,-0.9779 3.713,-0.9779 1.311,0 2.598,0.3408 3.72,0.9855 1.117,0.6412 2.057,1.575 2.719,2.701 l 14.504,24.2208 c 1.375,2.3504 1.391,5.1562 0.043,7.5055 -0.658,1.1468 -1.603,2.098 -2.731,2.7509 -1.127,0.6522 -2.421,0.9969 -3.742,0.9969 z m -11.007,-8.6748 c 0.042,0.0403 0.083,0.0816 0.123,0.1234 0.021,-0.0212 0.041,-0.0421 0.062,-0.063 0.953,-0.9535 2.221,-1.4786 3.569,-1.4786 h 2.62 l -4.832,-8.0697 v 5.8572 c 0,1.3472 -0.525,2.6139 -1.477,3.5666 -0.021,0.0216 -0.043,0.043 -0.065,0.0641 z m -10.766,-1.4182 h 0.005 c 1.348,0 2.616,0.5251 3.568,1.4786 0.021,0.0209 0.042,0.0418 0.062,0.063 0.041,-0.0418 0.082,-0.0831 0.124,-0.1234 -0.022,-0.0211 -0.044,-0.0425 -0.066,-0.0641 -0.952,-0.9527 -1.476,-2.2194 -1.476,-3.5666 v -5.8292 l -4.832,8.0504 z m 7.262,-14.5157 c 0.439,0 0.87,0.0557 1.284,0.1637 l -1.269,-2.1196 -1.268,2.1118 c 0.405,-0.1029 0.825,-0.1559 1.253,-0.1559 z"
       fill="#ecf2ff"
       id="path94" />
  </g>
  <g
     clip-path="url(#clip5_76_1644)"
     id="g106">
    <path
       d="m 483.193,0 h -50.42 c -9.282,0 -16.807,7.52462 -16.807,16.8067 v 50.4202 c 0,9.2821 7.525,16.8067 16.807,16.8067 h 50.42 C 492.475,84.0336 500,76.509 500,67.2269 V 16.8067 C 500,7.52462 492.475,0 483.193,0 Z"
       fill="#ecf2ff"
       id="path98" />
    <path
       d="m 483.193,0.262695 h -50.42 c -9.137,0 -16.544,7.407055 -16.544,16.544105 V 67.227 c 0,9.137 7.407,16.5441 16.544,16.5441 h 50.42 c 9.137,0 16.544,-7.4071 16.544,-16.5441 V 16.8068 c 0,-9.13705 -7.407,-16.544105 -16.544,-16.544105 z"
       stroke="#ffffff"
       stroke-opacity="0.5"
       id="path100" />
    <path
       d="m 474.444,16.1313 c -2.454,0.0378 -4.855,0.7226 -6.96,1.9853 -2.105,1.2627 -3.839,3.0584 -5.028,5.2059 -1.188,-2.1468 -2.921,-3.9421 -5.025,-5.2047 -2.104,-1.2626 -4.504,-1.9478 -6.957,-1.9865 -3.912,0.17 -7.597,1.8812 -10.251,4.7598 -2.654,2.8786 -4.061,6.6906 -3.914,10.6032 0,9.9086 10.429,20.73 19.177,28.0672 1.953,1.6412 4.422,2.541 6.973,2.541 2.551,0 5.02,-0.8998 6.973,-2.541 8.747,-7.3372 19.177,-18.1586 19.177,-28.0672 0.147,-3.9127 -1.26,-7.7247 -3.914,-10.6033 -2.654,-2.8786 -6.339,-4.5898 -10.251,-4.7597 z m -7.812,40.0962 c -1.168,0.9836 -2.646,1.523 -4.173,1.523 -1.527,0 -3.005,-0.5394 -4.173,-1.523 -11.197,-9.3939 -17.618,-18.4071 -17.618,-24.7332 -0.149,-2.7573 0.798,-5.4616 2.635,-7.5231 1.837,-2.0615 4.415,-3.3131 7.171,-3.4817 2.756,0.1688 5.333,1.4204 7.17,3.4819 1.837,2.0615 2.784,4.7657 2.635,7.5229 0,0.578 0.23,1.1324 0.639,1.5412 0.409,0.4088 0.963,0.6384 1.541,0.6384 0.578,0 1.133,-0.2296 1.541,-0.6384 0.409,-0.4088 0.639,-0.9632 0.639,-1.5412 -0.149,-2.7571 0.798,-5.4612 2.635,-7.5227 1.837,-2.0615 4.414,-3.3132 7.17,-3.4821 2.756,0.168 5.335,1.4192 7.172,3.4808 1.838,2.0616 2.786,4.7663 2.637,7.524 0,6.3261 -6.422,15.3387 -17.619,24.7248 z"
       fill="url(#paint10_linear_76_1644)"
       id="path102"
       style="fill:url(#paint10_linear_76_1644)" />
    <path
       d="m 438.592,65.6098 c 3.677,-1.2663 5.632,-5.2741 4.366,-8.9516 -1.267,-3.6776 -5.274,-5.6324 -8.952,-4.3661 -3.678,1.2663 -5.632,5.2741 -4.366,8.9517 1.266,3.6776 5.274,5.6323 8.952,4.366 z"
       stroke="#5991f5"
       stroke-width="10"
       stroke-dasharray="9, 12"
       id="path104" />
  </g>
  <g
     clip-path="url(#clip6_76_1644)"
     id="g126">
    <path
       d="M 67.2269,99.1597 H 16.8067 C 7.52463,99.1597 0,106.684 0,115.966 v 50.421 c 0,9.282 7.52463,16.806 16.8067,16.806 h 50.4202 c 9.2821,0 16.8067,-7.524 16.8067,-16.806 v -50.421 c 0,-9.282 -7.5246,-16.8063 -16.8067,-16.8063 z"
       fill="#ecf2ff"
       id="path108" />
    <path
       d="M 67.2269,99.4224 H 16.8067 c -9.13704,0 -16.544094,7.4066 -16.544094,16.5436 v 50.421 c 0,9.137 7.407054,16.544 16.544094,16.544 h 50.4202 c 9.1371,0 16.5441,-7.407 16.5441,-16.544 v -50.421 c 0,-9.137 -7.407,-16.5436 -16.5441,-16.5436 z"
       stroke="#ffffff"
       stroke-opacity="0.5"
       id="path110" />
    <path
       d="M 52.1543,118.426 H 31.8812 c -2.6874,0.003 -5.2639,1.072 -7.1642,2.972 -1.9003,1.9 -2.9693,4.477 -2.9723,7.164 v 30.41 c 5e-4,2.15 0.8551,4.212 2.3757,5.732 1.5206,1.52 3.5828,2.374 5.733,2.374 h 22.3009 c 2.6875,-0.003 5.264,-1.072 7.1643,-2.972 1.9003,-1.9 2.9692,-4.477 2.9723,-7.164 v -28.38 c -0.0031,-2.687 -1.072,-5.264 -2.9723,-7.164 -1.9003,-1.9 -4.4768,-2.969 -7.1643,-2.972 z m 6.0799,10.136 v 22.299 H 33.908 V 122.48 h 18.2463 c 1.6127,10e-4 3.1593,0.642 4.2994,1.782 1.1402,1.141 1.7806,2.687 1.7805,4.3 z m -28.3808,-5.734 v 28.033 c -1.4239,-10e-4 -2.8228,0.374 -4.0546,1.089 v -23.388 c 0,-1.257 0.3899,-2.484 1.116,-3.511 0.726,-1.026 1.7525,-1.803 2.9381,-2.222 z m 22.3009,40.196 H 29.8534 c -1.0673,-0.012 -2.0868,-0.445 -2.8372,-1.204 -0.7504,-0.759 -1.1713,-1.783 -1.1713,-2.851 0,-1.067 0.4209,-2.091 1.1713,-2.85 0.7504,-0.759 1.7699,-1.192 2.8372,-1.204 h 28.3808 v 2.027 c 0,1.613 -0.6405,3.16 -1.7807,4.3 -1.1401,1.14 -2.6865,1.781 -4.2992,1.782 z"
       fill="url(#paint11_linear_76_1644)"
       id="path112"
       style="fill:url(#paint11_linear_76_1644)" />
    <path
       d="m 42.5435,137.971 c -0.9887,0 -1.8471,-0.67 -2.0874,-1.629 l -0.3749,-1.502 -1.507,-0.404 c -0.9554,-0.257 -1.6106,-1.127 -1.5932,-2.116 0.0173,-0.989 0.7025,-1.836 1.6664,-2.059 l 1.4414,-0.335 0.3678,-1.452 c 0.2399,-0.957 1.0982,-1.627 2.0868,-1.627 0.9887,0 1.847,0.67 2.0874,1.629 l 0.3685,1.476 1.4758,0.369 c 0.9591,0.241 1.6289,1.099 1.6289,2.088 0,0.988 -0.6698,1.847 -1.6287,2.087 l -1.476,0.37 -0.3684,1.475 c -0.2404,0.96 -1.0987,1.63 -2.0874,1.63 z"
       fill="url(#paint12_linear_76_1644)"
       id="path114"
       style="fill:url(#paint12_linear_76_1644)" />
    <path
       d="m 42.5434,137.183 c 0.6257,0 1.1711,-0.426 1.3232,-1.033 l 0.4829,-1.934 1.9342,-0.484 c 0.6069,-0.152 1.0325,-0.698 1.0325,-1.323 0,-0.626 -0.4256,-1.171 -1.0325,-1.323 l -1.9342,-0.485 -0.4829,-1.934 c -0.1521,-0.607 -0.6979,-1.032 -1.3232,-1.032 -0.6256,0 -1.171,0.425 -1.3231,1.032 l -0.4856,1.918 -1.9097,0.443 c -0.6099,0.142 -1.0454,0.68 -1.0563,1.305 -0.011,0.626 0.4054,1.179 1.0099,1.342 l 1.9547,0.525 0.487,1.951 c 0.1521,0.606 0.6975,1.032 1.3231,1.032 z m 1e-4,1.576 c -1.3507,0 -2.5233,-0.915 -2.8516,-2.226 l -0.2627,-1.052 -1.0594,-0.285 c -1.3052,-0.35 -2.2002,-1.539 -2.1765,-2.89 0.0237,-1.351 0.9598,-2.508 2.2764,-2.813 l 0.9733,-0.226 0.2496,-0.986 c 0.3294,-1.308 1.5012,-2.222 2.8508,-2.222 1.3506,0 2.5232,0.915 2.8516,2.225 l 0.2542,1.019 1.0172,0.254 c 1.3104,0.329 2.2254,1.501 2.2254,2.852 0,1.35 -0.915,2.523 -2.225,2.851 l -1.0176,0.255 -0.2539,1.017 c -0.3285,1.312 -1.5011,2.227 -2.8518,2.227 z"
       fill="#ecf2ff"
       id="path116" />
    <path
       d="m 60.3635,128.651 h -7e-4 -0.0018 c -0.626,0 -1.2309,-0.185 -1.7494,-0.536 -0.5184,-0.351 -0.9156,-0.843 -1.1485,-1.424 l -0.799,-2.001 -2.0077,-0.845 -0.0147,-0.006 -0.0146,-0.007 c -1.1571,-0.511 -1.8893,-1.658 -1.8655,-2.923 0.0239,-1.264 0.7988,-2.383 1.9743,-2.85 l 0.0137,-0.006 0.0138,-0.005 1.925,-0.729 0.7744,-1.936 0.0061,-0.015 0.0064,-0.015 c 0.4903,-1.165 1.6234,-1.917 2.8867,-1.917 1.2634,0 2.3965,0.752 2.8867,1.917 l 0.0063,0.015 0.006,0.015 0.7871,1.965 1.9652,0.787 0.013,0.005 0.0129,0.006 c 1.1681,0.488 1.9228,1.622 1.9228,2.888 0,1.266 -0.7547,2.4 -1.9227,2.888 l -0.013,0.006 -0.013,0.005 -1.9652,0.787 -0.7857,1.962 c -0.2312,0.582 -0.6273,1.076 -1.1454,1.429 -0.5192,0.353 -1.1256,0.54 -1.7535,0.54 z"
       fill="url(#paint13_linear_76_1644)"
       id="path118"
       style="fill:url(#paint13_linear_76_1644)" />
    <path
       d="m 60.361,126.813 c 0.5272,10e-4 0.9998,-0.321 1.1936,-0.811 l 1.0795,-2.696 2.6958,-1.079 c 0.4808,-0.202 0.7938,-0.672 0.7938,-1.193 0,-0.521 -0.313,-0.991 -0.7938,-1.192 l -2.6958,-1.08 -1.0795,-2.696 c -0.2021,-0.48 -0.672,-0.792 -1.1926,-0.792 -0.5206,0 -0.9905,0.312 -1.1925,0.792 l -1.0745,2.686 -2.6803,1.015 c -0.484,0.192 -0.8054,0.656 -0.8152,1.177 -0.0098,0.521 0.2938,0.996 0.7702,1.207 l 2.7163,1.144 1.0835,2.712 c 0.1951,0.487 0.6669,0.806 1.1915,0.806 z m 0.004,3.677 h -0.003 c -2.0392,0 -3.8468,-1.223 -4.6052,-3.115 l -0.5146,-1.289 -1.2992,-0.547 c -1.8949,-0.836 -3.0571,-2.657 -3.0193,-4.664 0.0379,-2.007 1.2678,-3.783 3.1335,-4.525 l 1.2244,-0.464 0.4745,-1.186 c 0.803,-1.908 2.6011,-3.102 4.6059,-3.102 2.0048,0 3.8029,1.194 4.5809,3.041 l 0.5187,1.295 1.2351,0.495 c 1.9057,0.796 3.1035,2.596 3.1035,4.605 0,2.009 -1.1978,3.809 -3.0516,4.584 l -1.2865,0.516 -0.4946,1.235 c -0.7475,1.889 -2.5562,3.119 -4.6025,3.121 z"
       fill="#ecf2ff"
       id="path120" />
    <path
       d="m 51.0167,148.954 c -0.7788,0 -1.455,-0.528 -1.6443,-1.283 l -0.2117,-0.849 -0.8525,-0.229 c -0.7525,-0.202 -1.2686,-0.887 -1.2549,-1.666 0.0136,-0.779 0.5534,-1.446 1.3126,-1.622 l 0.8019,-0.186 0.2051,-0.81 c 0.1889,-0.754 0.865,-1.281 1.6438,-1.281 0.7787,0 1.4549,0.527 1.6442,1.283 l 0.2068,0.828 0.828,0.207 c 0.7556,0.19 1.2832,0.866 1.2832,1.645 0,0.778 -0.5276,1.455 -1.283,1.644 l -0.8282,0.207 -0.2066,0.828 c -0.1894,0.756 -0.8656,1.284 -1.6444,1.284 z"
       fill="url(#paint14_linear_76_1644)"
       id="path122"
       style="fill:url(#paint14_linear_76_1644)" />
    <path
       d="m 51.0167,148.166 c 0.4161,0 0.7789,-0.283 0.88,-0.687 l 0.3212,-1.286 1.2865,-0.322 c 0.4036,-0.101 0.6867,-0.464 0.6867,-0.88 0,-0.416 -0.2831,-0.779 -0.6867,-0.88 l -1.2865,-0.322 -0.3212,-1.287 c -0.1011,-0.404 -0.4639,-0.687 -0.88,-0.687 -0.4161,0 -0.7789,0.283 -0.8801,0.687 l -0.323,1.276 -1.2701,0.295 c -0.4056,0.093 -0.6953,0.451 -0.7026,0.868 -0.0073,0.416 0.2697,0.784 0.6718,0.892 l 1.3,0.349 0.3239,1.297 c 0.1012,0.404 0.464,0.687 0.8801,0.687 z m 0,1.576 c -1.1408,0 -2.1312,-0.773 -2.4085,-1.88 l -0.0996,-0.399 -0.4048,-0.109 c -1.1023,-0.296 -1.8583,-1.3 -1.8382,-2.441 0.0199,-1.141 0.8106,-2.118 1.9226,-2.376 l 0.3337,-0.077 0.0873,-0.345 c 0.2786,-1.104 1.268,-1.875 2.4075,-1.875 1.1407,0 2.1311,0.773 2.4084,1.879 l 0.0925,0.371 0.3694,0.092 c 1.1069,0.278 1.8797,1.268 1.8797,2.409 0,1.14 -0.7728,2.131 -1.8793,2.408 l -0.3698,0.093 -0.0922,0.369 c -0.2775,1.108 -1.2679,1.881 -2.4087,1.881 z"
       fill="#ecf2ff"
       id="path124" />
  </g>
  <g
     clip-path="url(#clip7_76_1644)"
     id="g138">
    <path
       d="M 276.471,99.1597 H 226.05 c -9.282,0 -16.806,7.5243 -16.806,16.8063 v 50.421 c 0,9.282 7.524,16.806 16.806,16.806 h 50.421 c 9.282,0 16.806,-7.524 16.806,-16.806 v -50.421 c 0,-9.282 -7.524,-16.8063 -16.806,-16.8063 z"
       fill="#ecf2ff"
       id="path128" />
    <path
       d="M 276.471,99.4224 H 226.05 c -9.137,0 -16.544,7.4066 -16.544,16.5436 v 50.421 c 0,9.137 7.407,16.544 16.544,16.544 h 50.421 c 9.137,0 16.544,-7.407 16.544,-16.544 v -50.421 c 0,-9.137 -7.407,-16.5436 -16.544,-16.5436 z"
       stroke="#ffffff"
       stroke-opacity="0.5"
       id="path130" />
    <path
       d="m 282.911,137.544 c 0.03,0.7 -0.219,1.382 -0.693,1.899 -0.473,0.516 -1.131,0.823 -1.831,0.854 -0.7,0.031 -1.383,-0.216 -1.9,-0.688 -0.517,-0.472 -0.826,-1.13 -0.859,-1.83 -0.458,-4.999 -2.33,-9.765 -5.398,-13.738 -3.069,-3.974 -7.206,-6.991 -11.927,-8.698 -4.721,-1.707 -9.831,-2.034 -14.731,-0.942 -4.9,1.093 -9.388,3.558 -12.937,7.109 -3.549,3.551 -6.013,8.039 -7.103,12.94 -1.09,4.901 -0.761,10.01 0.948,14.731 1.709,4.72 4.728,8.856 8.703,11.922 3.975,3.067 8.741,4.937 13.741,5.393 0.698,0.063 1.342,0.4 1.791,0.938 0.449,0.538 0.666,1.233 0.603,1.931 -0.063,0.698 -0.401,1.342 -0.939,1.791 -0.538,0.449 -1.232,0.665 -1.93,0.602 -6,-0.547 -11.719,-2.793 -16.488,-6.474 -4.77,-3.681 -8.391,-8.645 -10.441,-14.31 -2.05,-5.666 -2.443,-11.798 -1.134,-17.678 1.31,-5.881 4.268,-11.266 8.528,-15.526 4.26,-4.26 9.646,-7.218 15.526,-8.528 5.881,-1.309 12.013,-0.916 17.678,1.134 5.665,2.049 10.629,5.671 14.31,10.44 3.681,4.77 5.927,10.489 6.475,16.489 0.006,0.08 0.008,0.162 0.008,0.239 z"
       fill="url(#paint15_linear_76_1644)"
       id="path132"
       style="fill:url(#paint15_linear_76_1644)" />
    <path
       d="m 251.449,124.571 c -0.345,0 -0.686,0.068 -1.004,0.2 -0.318,0.132 -0.607,0.325 -0.85,0.568 -0.244,0.244 -0.437,0.533 -0.569,0.851 -0.131,0.318 -0.199,0.659 -0.199,1.003 v 11.341 l -8.84,5.538 c -0.591,0.369 -1.011,0.958 -1.168,1.637 -0.157,0.679 -0.038,1.392 0.331,1.983 0.37,0.591 0.958,1.012 1.637,1.169 0.679,0.157 1.393,0.037 1.984,-0.332 l 10.07,-6.293 c 0.38,-0.238 0.693,-0.57 0.908,-0.964 0.216,-0.394 0.326,-0.837 0.321,-1.286 v -12.793 c 0,-0.344 -0.067,-0.685 -0.199,-1.003 -0.132,-0.318 -0.325,-0.607 -0.569,-0.851 -0.243,-0.243 -0.532,-0.436 -0.85,-0.568 -0.318,-0.132 -0.659,-0.2 -1.003,-0.2 z"
       fill="url(#paint16_linear_76_1644)"
       id="path134"
       style="fill:url(#paint16_linear_76_1644)" />
    <path
       d="m 269.472,147.501 -10.297,10.294 c -0.673,0.669 -1.206,1.464 -1.569,2.34 -0.363,0.877 -0.548,1.816 -0.546,2.764 v 2.862 c 0,0.479 0.19,0.938 0.529,1.276 0.338,0.339 0.797,0.529 1.276,0.529 h 2.861 c 0.948,0.002 1.887,-0.183 2.763,-0.546 0.876,-0.363 1.671,-0.896 2.34,-1.569 l 10.298,-10.297 c 1.015,-1.016 1.585,-2.393 1.585,-3.828 0,-1.436 -0.57,-2.813 -1.585,-3.828 -1.031,-0.985 -2.402,-1.535 -3.828,-1.535 -1.426,0 -2.797,0.55 -3.828,1.535 z m 5.103,5.103 -10.3,10.296 c -0.334,0.336 -0.731,0.603 -1.169,0.785 -0.438,0.181 -0.908,0.274 -1.382,0.272 h -1.057 V 162.9 c -10e-4,-0.474 0.092,-0.944 0.274,-1.382 0.181,-0.438 0.448,-0.836 0.785,-1.17 l 10.299,-10.297 c 0.344,-0.329 0.801,-0.512 1.276,-0.512 0.475,0 0.932,0.183 1.276,0.512 0.167,0.167 0.3,0.366 0.391,0.585 0.091,0.219 0.138,0.453 0.138,0.69 0,0.237 -0.047,0.472 -0.138,0.691 -0.091,0.219 -0.224,0.418 -0.391,0.585 z"
       fill="url(#paint17_linear_76_1644)"
       id="path136"
       style="fill:url(#paint17_linear_76_1644)" />
  </g>
  <g
     clip-path="url(#clip8_76_1644)"
     id="g152">
    <path
       d="m 379.832,99.1597 h -50.42 c -9.282,0 -16.807,7.5243 -16.807,16.8063 v 50.421 c 0,9.282 7.525,16.806 16.807,16.806 h 50.42 c 9.282,0 16.807,-7.524 16.807,-16.806 v -50.421 c 0,-9.282 -7.525,-16.8063 -16.807,-16.8063 z"
       fill="#ecf2ff"
       id="path140" />
    <path
       d="m 379.832,99.4224 h -50.42 c -9.137,0 -16.544,7.4066 -16.544,16.5436 v 50.421 c 0,9.137 7.407,16.544 16.544,16.544 h 50.42 c 9.137,0 16.544,-7.407 16.544,-16.544 v -50.421 c 0,-9.137 -7.407,-16.5436 -16.544,-16.5436 z"
       stroke="#ffffff"
       stroke-opacity="0.5"
       id="path142" />
    <path
       d="m 388.522,141.177 c 0.001,0.304 -0.058,0.604 -0.174,0.885 -0.115,0.281 -0.285,0.537 -0.499,0.752 -0.215,0.215 -0.469,0.386 -0.75,0.503 -0.28,0.116 -0.581,0.177 -0.885,0.177 h -6.624 c -1.194,-0.005 -2.366,-0.317 -3.405,-0.906 -1.038,-0.589 -1.907,-1.436 -2.524,-2.458 l -3.157,-5.263 -3.432,8.395 c -0.107,0.291 -0.273,0.558 -0.486,0.783 -0.213,0.226 -0.469,0.407 -0.753,0.531 -0.284,0.125 -0.591,0.191 -0.901,0.194 -0.31,0.004 -0.618,-0.055 -0.905,-0.173 -0.287,-0.118 -0.547,-0.293 -0.766,-0.514 -0.218,-0.22 -0.389,-0.483 -0.503,-0.771 -0.115,-0.289 -0.17,-0.597 -0.163,-0.907 0.008,-0.311 0.077,-0.616 0.205,-0.899 l 3.924,-9.597 h -4.475 l -4.764,11.66 c -0.205,0.503 -0.228,1.063 -0.063,1.581 0.164,0.518 0.505,0.962 0.964,1.255 l 10.597,6.722 c 0.329,0.209 0.6,0.498 0.788,0.839 0.188,0.342 0.287,0.725 0.288,1.115 v 11.586 c 0,0.613 -0.243,1.2 -0.676,1.632 -0.433,0.433 -1.02,0.676 -1.632,0.676 -0.612,0 -1.199,-0.243 -1.632,-0.676 -0.433,-0.432 -0.676,-1.019 -0.676,-1.632 v -10.309 l -9.523,-6.026 c -1.38,-0.877 -2.407,-2.211 -2.903,-3.769 -0.495,-1.558 -0.427,-3.241 0.194,-4.754 l 4.048,-9.9 h -5.119 c -0.429,-0.001 -0.85,0.118 -1.214,0.344 -0.365,0.226 -0.659,0.55 -0.849,0.935 l -3.34,6.707 c -0.134,0.275 -0.321,0.521 -0.55,0.723 -0.23,0.202 -0.497,0.357 -0.787,0.455 -0.289,0.098 -0.596,0.138 -0.901,0.117 -0.305,-0.022 -0.602,-0.103 -0.876,-0.24 -0.273,-0.137 -0.517,-0.327 -0.716,-0.559 -0.199,-0.232 -0.351,-0.501 -0.445,-0.792 -0.095,-0.29 -0.131,-0.597 -0.106,-0.902 0.024,-0.305 0.109,-0.601 0.25,-0.873 l 3.341,-6.723 c 0.571,-1.153 1.454,-2.124 2.549,-2.801 1.094,-0.677 2.357,-1.033 3.644,-1.029 h 15.283 c 1.195,0.004 2.369,0.316 3.409,0.906 1.039,0.59 1.909,1.437 2.526,2.461 l 4.254,7.098 c 0.206,0.34 0.496,0.622 0.842,0.819 0.346,0.196 0.736,0.3 1.134,0.302 h 6.626 c 0.304,0 0.605,0.061 0.886,0.178 0.28,0.117 0.535,0.288 0.749,0.503 0.215,0.216 0.385,0.471 0.5,0.752 0.115,0.282 0.174,0.583 0.173,0.887 z m -34.907,11.155 c -0.282,-0.113 -0.584,-0.169 -0.887,-0.166 -0.304,0.004 -0.604,0.068 -0.883,0.187 -0.279,0.12 -0.531,0.294 -0.743,0.512 -0.211,0.218 -0.378,0.475 -0.49,0.758 -0.168,0.431 -0.463,0.8 -0.846,1.06 -0.383,0.26 -0.835,0.399 -1.297,0.397 h -6.106 c -0.614,0 -1.204,0.244 -1.638,0.679 -0.435,0.434 -0.679,1.024 -0.679,1.638 0,0.615 0.244,1.204 0.679,1.639 0.434,0.435 1.024,0.679 1.638,0.679 h 6.108 c 1.387,0.003 2.742,-0.413 3.89,-1.193 1.147,-0.779 2.032,-1.887 2.54,-3.178 0.228,-0.57 0.22,-1.207 -0.021,-1.772 -0.241,-0.564 -0.696,-1.01 -1.265,-1.24 z m 16.444,-27.376 c 1.147,0.004 2.269,-0.332 3.225,-0.965 0.955,-0.634 1.701,-1.537 2.143,-2.595 0.442,-1.058 0.56,-2.224 0.34,-3.349 -0.221,-1.125 -0.771,-2.16 -1.58,-2.972 -0.81,-0.813 -1.842,-1.367 -2.966,-1.592 -1.124,-0.226 -2.29,-0.112 -3.35,0.325 -1.06,0.438 -1.966,1.18 -2.604,2.133 -0.638,0.954 -0.978,2.074 -0.978,3.221 -0.002,0.759 0.146,1.512 0.435,2.214 0.29,0.702 0.714,1.34 1.25,1.878 0.536,0.538 1.172,0.965 1.873,1.257 0.701,0.292 1.453,0.443 2.212,0.445 z"
       fill="url(#paint18_linear_76_1644)"
       id="path144"
       style="fill:url(#paint18_linear_76_1644)" />
    <path
       d="m 331.19,115.097 h 6.913 v -1.728 h -6.913 z m 6.913,8.641 h -6.913 v 1.728 h 6.913 z m -6.912,0 c -0.568,0 -1.13,-0.112 -1.654,-0.329 -0.524,-0.217 -1,-0.535 -1.402,-0.936 -0.401,-0.402 -0.719,-0.878 -0.936,-1.402 -0.217,-0.524 -0.329,-1.086 -0.329,-1.654 h -1.728 c 0,1.605 0.637,3.143 1.771,4.277 1.135,1.135 2.673,1.772 4.277,1.772 z m 11.23,-4.321 c 0,1.146 -0.455,2.245 -1.265,3.055 -0.81,0.811 -1.909,1.266 -3.055,1.266 v 1.728 c 0.794,0 1.581,-0.156 2.315,-0.46 0.734,-0.304 1.401,-0.749 1.963,-1.311 0.562,-0.562 1.008,-1.229 1.312,-1.962 0.304,-0.734 0.46,-1.521 0.46,-2.316 z m -4.318,-4.32 c 1.145,0.001 2.244,0.456 3.054,1.266 0.809,0.81 1.264,1.909 1.264,3.054 h 1.728 c 0,-1.603 -0.637,-3.141 -1.771,-4.276 -1.133,-1.134 -2.671,-1.771 -4.275,-1.772 z m -6.913,-1.728 c -1.604,0 -3.142,0.637 -4.277,1.772 -1.134,1.134 -1.771,2.672 -1.771,4.276 h 1.728 c 0,-1.145 0.455,-2.244 1.265,-3.055 0.81,-0.81 1.909,-1.265 3.055,-1.265 z m 8.209,6.048 c 0,0.344 -0.137,0.674 -0.38,0.917 -0.243,0.243 -0.573,0.38 -0.917,0.38 v 1.728 c 0.803,0 1.572,-0.319 2.139,-0.886 0.567,-0.567 0.886,-1.336 0.886,-2.139 z m -1.297,1.297 c -0.343,0 -0.673,-0.137 -0.916,-0.38 -0.243,-0.243 -0.38,-0.573 -0.38,-0.917 h -1.727 c 0,0.803 0.318,1.572 0.886,2.139 0.567,0.567 1.335,0.886 2.137,0.886 z m -1.296,-1.297 c 0,-0.343 0.137,-0.673 0.38,-0.916 0.244,-0.243 0.573,-0.38 0.917,-0.38 v -1.728 c -0.802,0 -1.571,0.319 -2.138,0.886 -0.568,0.567 -0.886,1.336 -0.886,2.138 z m 1.297,-1.296 c 0.344,0 0.673,0.137 0.917,0.38 0.243,0.243 0.379,0.573 0.379,0.916 h 1.728 c 0,-0.802 -0.318,-1.571 -0.886,-2.138 -0.567,-0.567 -1.336,-0.886 -2.138,-0.886 z"
       fill="url(#paint19_linear_76_1644)"
       id="path146"
       style="fill:url(#paint19_linear_76_1644)" />
    <path
       d="m 343.759,148.149 h -23.276 m 17.474,-8.125 h -17.474"
       stroke="#2a68d2"
       stroke-width="6"
       stroke-linecap="round"
       stroke-linejoin="round"
       id="path148" />
    <path
       d="M 334.646,131.2 H 320.721"
       stroke="#2a68d2"
       stroke-width="6"
       stroke-linecap="round"
       stroke-linejoin="round"
       id="path150" />
  </g>
  <g
     clip-path="url(#clip9_76_1644)"
     id="g166">
    <path
       d="m 483.193,99.1597 h -50.42 c -9.282,0 -16.807,7.5243 -16.807,16.8063 v 50.421 c 0,9.282 7.525,16.806 16.807,16.806 h 50.42 c 9.282,0 16.807,-7.524 16.807,-16.806 v -50.421 c 0,-9.282 -7.525,-16.8063 -16.807,-16.8063 z"
       fill="#ecf2ff"
       id="path154" />
    <path
       d="m 483.193,99.4224 h -50.42 c -9.137,0 -16.544,7.4066 -16.544,16.5436 v 50.421 c 0,9.137 7.407,16.544 16.544,16.544 h 50.42 c 9.137,0 16.544,-7.407 16.544,-16.544 v -50.421 c 0,-9.137 -7.407,-16.5436 -16.544,-16.5436 z"
       stroke="#ffffff"
       stroke-opacity="0.5"
       id="path156" />
    <path
       d="m 491.883,141.177 c 0.001,0.304 -0.058,0.604 -0.173,0.885 -0.116,0.281 -0.286,0.537 -0.5,0.752 -0.214,0.215 -0.469,0.386 -0.749,0.503 -0.281,0.116 -0.582,0.177 -0.885,0.177 h -6.624 c -1.194,-0.005 -2.367,-0.317 -3.405,-0.906 -1.039,-0.589 -1.908,-1.436 -2.524,-2.458 l -3.157,-5.263 -3.432,8.395 c -0.108,0.291 -0.273,0.558 -0.486,0.783 -0.213,0.226 -0.469,0.407 -0.754,0.531 -0.284,0.125 -0.59,0.191 -0.901,0.194 -0.31,0.004 -0.618,-0.055 -0.905,-0.173 -0.287,-0.118 -0.547,-0.293 -0.765,-0.514 -0.218,-0.22 -0.39,-0.483 -0.504,-0.771 -0.114,-0.289 -0.17,-0.597 -0.162,-0.907 0.007,-0.311 0.077,-0.616 0.205,-0.899 l 3.923,-9.597 h -4.475 l -4.763,11.66 c -0.206,0.503 -0.229,1.063 -0.064,1.581 0.164,0.518 0.506,0.962 0.964,1.255 l 10.598,6.722 c 0.329,0.209 0.6,0.498 0.788,0.839 0.188,0.342 0.286,0.725 0.287,1.115 v 11.586 c 0,0.613 -0.243,1.2 -0.676,1.632 -0.433,0.433 -1.02,0.676 -1.632,0.676 -0.612,0 -1.199,-0.243 -1.632,-0.676 -0.433,-0.432 -0.676,-1.019 -0.676,-1.632 v -10.309 l -9.522,-6.026 c -1.38,-0.877 -2.408,-2.211 -2.903,-3.769 -0.496,-1.558 -0.427,-3.241 0.193,-4.754 l 4.048,-9.9 h -5.118 c -0.43,-0.001 -0.85,0.118 -1.215,0.344 -0.365,0.226 -0.659,0.55 -0.848,0.935 l -3.341,6.707 c -0.134,0.275 -0.321,0.521 -0.55,0.723 -0.229,0.202 -0.497,0.357 -0.786,0.455 -0.29,0.098 -0.596,0.138 -0.901,0.117 -0.305,-0.022 -0.603,-0.103 -0.876,-0.24 -0.274,-0.137 -0.517,-0.327 -0.717,-0.559 -0.199,-0.232 -0.35,-0.501 -0.445,-0.792 -0.095,-0.29 -0.131,-0.597 -0.106,-0.902 0.025,-0.305 0.11,-0.601 0.25,-0.873 l 3.342,-6.723 c 0.571,-1.153 1.454,-2.124 2.548,-2.801 1.095,-0.677 2.357,-1.033 3.644,-1.029 h 15.284 c 1.195,0.004 2.369,0.316 3.408,0.906 1.04,0.59 1.91,1.437 2.527,2.461 l 4.254,7.098 c 0.205,0.34 0.495,0.622 0.841,0.819 0.346,0.196 0.737,0.3 1.135,0.302 h 6.626 c 0.304,0 0.605,0.061 0.885,0.178 0.281,0.117 0.536,0.288 0.75,0.503 0.214,0.216 0.384,0.471 0.499,0.752 0.116,0.282 0.175,0.583 0.173,0.887 z m -34.907,11.155 c -0.282,-0.113 -0.583,-0.169 -0.887,-0.166 -0.303,0.004 -0.603,0.068 -0.882,0.187 -0.279,0.12 -0.532,0.294 -0.743,0.512 -0.212,0.218 -0.378,0.475 -0.49,0.758 -0.169,0.431 -0.464,0.8 -0.847,1.06 -0.382,0.26 -0.834,0.399 -1.297,0.397 h -6.105 c -0.615,0 -1.204,0.244 -1.639,0.679 -0.434,0.434 -0.678,1.024 -0.678,1.638 0,0.615 0.244,1.204 0.678,1.639 0.435,0.435 1.024,0.679 1.639,0.679 h 6.107 c 1.387,0.003 2.743,-0.413 3.89,-1.193 1.147,-0.779 2.032,-1.887 2.54,-3.178 0.228,-0.57 0.221,-1.207 -0.02,-1.772 -0.241,-0.564 -0.696,-1.01 -1.266,-1.24 z m 16.444,-27.376 c 1.147,0.004 2.269,-0.332 3.225,-0.965 0.956,-0.634 1.702,-1.537 2.144,-2.595 0.442,-1.058 0.56,-2.224 0.339,-3.349 -0.221,-1.125 -0.771,-2.16 -1.58,-2.972 -0.809,-0.813 -1.841,-1.367 -2.966,-1.592 -1.124,-0.226 -2.29,-0.112 -3.35,0.325 -1.06,0.438 -1.966,1.18 -2.604,2.133 -0.637,0.954 -0.978,2.074 -0.978,3.221 -10e-4,0.759 0.147,1.512 0.436,2.214 0.289,0.702 0.713,1.34 1.249,1.878 0.536,0.538 1.173,0.965 1.873,1.257 0.701,0.292 1.453,0.443 2.212,0.445 z"
       fill="url(#paint20_linear_76_1644)"
       id="path158"
       style="fill:url(#paint20_linear_76_1644)" />
    <path
       d="m 434.552,115.097 h 6.912 v -1.728 h -6.912 z m 6.912,8.641 h -6.912 v 1.728 h 6.912 z m -6.912,0 c -0.567,0 -1.129,-0.112 -1.653,-0.329 -0.525,-0.217 -1.001,-0.535 -1.402,-0.936 -0.401,-0.402 -0.72,-0.878 -0.937,-1.402 -0.217,-0.524 -0.329,-1.086 -0.329,-1.654 h -1.728 c 0,1.605 0.637,3.143 1.772,4.277 1.134,1.135 2.672,1.772 4.277,1.772 z m 11.231,-4.321 c 0,1.146 -0.456,2.245 -1.266,3.055 -0.81,0.811 -1.909,1.266 -3.055,1.266 v 1.728 c 0.795,0 1.581,-0.156 2.316,-0.46 0.734,-0.304 1.401,-0.749 1.962,-1.311 0.562,-0.562 1.008,-1.229 1.312,-1.962 0.304,-0.734 0.461,-1.521 0.461,-2.316 z m -4.319,-4.32 c 1.146,0.001 2.244,0.456 3.054,1.266 0.81,0.81 1.265,1.909 1.265,3.054 h 1.728 c 0,-1.603 -0.637,-3.141 -1.771,-4.276 -1.134,-1.134 -2.672,-1.771 -4.276,-1.772 z m -6.912,-1.728 c -1.605,0 -3.143,0.637 -4.277,1.772 -1.135,1.134 -1.772,2.672 -1.772,4.276 h 1.728 c 0,-1.145 0.455,-2.244 1.266,-3.055 0.81,-0.81 1.909,-1.265 3.055,-1.265 z m 8.208,6.048 c 0,0.344 -0.137,0.674 -0.38,0.917 -0.243,0.243 -0.572,0.38 -0.916,0.38 v 1.728 c 0.802,0 1.571,-0.319 2.138,-0.886 0.567,-0.567 0.886,-1.336 0.886,-2.139 z m -1.296,1.297 c -0.344,0 -0.674,-0.137 -0.917,-0.38 -0.243,-0.243 -0.379,-0.573 -0.379,-0.917 h -1.728 c 0,0.803 0.319,1.572 0.886,2.139 0.567,0.567 1.336,0.886 2.138,0.886 z m -1.296,-1.297 c 0,-0.343 0.137,-0.673 0.38,-0.916 0.243,-0.243 0.573,-0.38 0.916,-0.38 v -1.728 c -0.802,0 -1.571,0.319 -2.138,0.886 -0.567,0.567 -0.886,1.336 -0.886,2.138 z m 1.296,-1.296 c 0.344,0 0.674,0.137 0.917,0.38 0.243,0.243 0.379,0.573 0.379,0.916 h 1.729 c 0,-0.802 -0.319,-1.571 -0.886,-2.138 -0.567,-0.567 -1.337,-0.886 -2.139,-0.886 z"
       fill="url(#paint21_linear_76_1644)"
       id="path160"
       style="fill:url(#paint21_linear_76_1644)" />
    <path
       d="m 447.121,148.149 h -23.276 m 17.473,-8.125 h -17.473"
       stroke="#2a68d2"
       stroke-width="6"
       stroke-linecap="round"
       stroke-linejoin="round"
       id="path162" />
    <path
       d="M 438.008,131.2 H 424.082"
       stroke="#2a68d2"
       stroke-width="6"
       stroke-linecap="round"
       stroke-linejoin="round"
       id="path164" />
  </g>
  <defs
     id="defs308">
    <linearGradient
       id="paint0_linear_76_1644"
       x1="117.845"
       y1="12.5247"
       x2="162.811"
       y2="67.4459"
       gradientUnits="userSpaceOnUse">
      <stop
         stop-color="#0A5BE8"
         id="stop168" />
      <stop
         offset="1"
         stop-color="#052E74"
         id="stop170" />
    </linearGradient>
    <linearGradient
       id="paint1_linear_76_1644"
       x1="221.20599"
       y1="12.5247"
       x2="266.173"
       y2="67.4459"
       gradientUnits="userSpaceOnUse">
      <stop
         stop-color="#0A5BE8"
         id="stop173" />
      <stop
         offset="1"
         stop-color="#052E74"
         id="stop175" />
    </linearGradient>
    <linearGradient
       id="paint2_linear_76_1644"
       x1="29.5522"
       y1="10.5044"
       x2="88.036102"
       y2="59.147499"
       gradientUnits="userSpaceOnUse">
      <stop
         stop-color="#0A5BE8"
         id="stop178" />
      <stop
         offset="1"
         stop-color="#00348E"
         id="stop180" />
    </linearGradient>
    <linearGradient
       id="paint3_linear_76_1644"
       x1="28.940599"
       y1="10.5037"
       x2="81.973602"
       y2="70.200798"
       gradientUnits="userSpaceOnUse">
      <stop
         stop-color="#0A5BE8"
         id="stop183" />
      <stop
         offset="1"
         stop-color="#00348E"
         id="stop185" />
    </linearGradient>
    <linearGradient
       id="paint4_linear_76_1644"
       x1="41.513599"
       y1="12.2747"
       x2="60.807201"
       y2="73.1278"
       gradientUnits="userSpaceOnUse">
      <stop
         stop-color="#0A5BE8"
         id="stop188" />
      <stop
         offset="1"
         stop-color="#00348E"
         id="stop190" />
    </linearGradient>
    <linearGradient
       id="paint5_linear_76_1644"
       x1="160.98"
       y1="124.081"
       x2="171.005"
       y2="135.123"
       gradientUnits="userSpaceOnUse">
      <stop
         stop-color="#0A5BE8"
         id="stop193" />
      <stop
         offset="1"
         stop-color="#00348E"
         id="stop195" />
    </linearGradient>
    <linearGradient
       id="paint6_linear_76_1644"
       x1="116.489"
       y1="116.209"
       x2="163.114"
       y2="180.01401"
       gradientUnits="userSpaceOnUse">
      <stop
         stop-color="#0A5BE8"
         id="stop198" />
      <stop
         offset="1"
         stop-color="#00348E"
         id="stop200" />
    </linearGradient>
    <linearGradient
       id="paint7_linear_76_1644"
       x1="140.239"
       y1="160.535"
       x2="156.951"
       y2="172.51601"
       gradientUnits="userSpaceOnUse">
      <stop
         stop-color="#0A5BE8"
         id="stop203" />
      <stop
         offset="1"
         stop-color="#00348E"
         id="stop205" />
    </linearGradient>
    <linearGradient
       id="paint8_linear_76_1644"
       x1="325.13"
       y1="21.177601"
       x2="356.09201"
       y2="71.352501"
       gradientUnits="userSpaceOnUse">
      <stop
         stop-color="#0A5BE8"
         id="stop208" />
      <stop
         offset="1"
         stop-color="#00348E"
         id="stop210" />
    </linearGradient>
    <linearGradient
       id="paint9_linear_76_1644"
       x1="355.85999"
       y1="66.452599"
       x2="354.892"
       y2="29.910801"
       gradientUnits="userSpaceOnUse">
      <stop
         stop-color="#0A5BE8"
         id="stop213" />
      <stop
         offset="1"
         stop-color="#00348E"
         id="stop215" />
    </linearGradient>
    <linearGradient
       id="paint10_linear_76_1644"
       x1="441.479"
       y1="19.211399"
       x2="472.586"
       y2="57.848099"
       gradientUnits="userSpaceOnUse">
      <stop
         stop-color="#0A5BE8"
         id="stop218" />
      <stop
         offset="1"
         stop-color="#00348E"
         id="stop220" />
    </linearGradient>
    <linearGradient
       id="paint11_linear_76_1644"
       x1="25.434401"
       y1="119.545"
       x2="64.322601"
       y2="158.765"
       gradientUnits="userSpaceOnUse">
      <stop
         stop-color="#0A5BE8"
         id="stop223" />
      <stop
         offset="1"
         stop-color="#00348E"
         id="stop225" />
    </linearGradient>
    <linearGradient
       id="paint12_linear_76_1644"
       x1="47.859299"
       y1="132.198"
       x2="36.980598"
       y2="132.097"
       gradientUnits="userSpaceOnUse">
      <stop
         stop-color="#00348E"
         id="stop228" />
      <stop
         offset="1"
         stop-color="#0A5BE8"
         id="stop230" />
    </linearGradient>
    <linearGradient
       id="paint13_linear_76_1644"
       x1="60.3615"
       y1="113.436"
       x2="60.3615"
       y2="128.651"
       gradientUnits="userSpaceOnUse">
      <stop
         stop-color="#0A5BE8"
         id="stop233" />
      <stop
         offset="1"
         stop-color="#00348E"
         id="stop235" />
    </linearGradient>
    <linearGradient
       id="paint14_linear_76_1644"
       x1="54.804501"
       y1="144.84"
       x2="47.053001"
       y2="144.769"
       gradientUnits="userSpaceOnUse">
      <stop
         stop-color="#00348E"
         id="stop238" />
      <stop
         offset="1"
         stop-color="#0A5BE8"
         id="stop240" />
    </linearGradient>
    <linearGradient
       id="paint15_linear_76_1644"
       x1="238.92999"
       y1="107.155"
       x2="266.33301"
       y2="158.416"
       gradientUnits="userSpaceOnUse">
      <stop
         stop-color="#0A5BE8"
         id="stop243" />
      <stop
         offset="1"
         stop-color="#00348E"
         id="stop245" />
    </linearGradient>
    <linearGradient
       id="paint16_linear_76_1644"
       x1="251.39"
       y1="124.571"
       x2="232.73399"
       y2="140.342"
       gradientUnits="userSpaceOnUse">
      <stop
         stop-color="#0A5BE8"
         id="stop248" />
      <stop
         offset="1"
         stop-color="#00348E"
         id="stop250" />
    </linearGradient>
    <linearGradient
       id="paint17_linear_76_1644"
       x1="262.97101"
       y1="148.25301"
       x2="275.642"
       y2="166.21001"
       gradientUnits="userSpaceOnUse">
      <stop
         stop-color="#0A5BE8"
         id="stop253" />
      <stop
         offset="1"
         stop-color="#00348E"
         id="stop255" />
    </linearGradient>
    <linearGradient
       id="paint18_linear_76_1644"
       x1="352.892"
       y1="128.606"
       x2="379.371"
       y2="147.39"
       gradientUnits="userSpaceOnUse">
      <stop
         stop-color="#0A5BE8"
         id="stop258" />
      <stop
         offset="1"
         stop-color="#00348E"
         id="stop260" />
    </linearGradient>
    <linearGradient
       id="paint19_linear_76_1644"
       x1="344.151"
       y1="119.792"
       x2="325.142"
       y2="119.673"
       gradientUnits="userSpaceOnUse">
      <stop
         stop-color="#0A5BE8"
         id="stop263" />
      <stop
         offset="1"
         stop-color="#00348E"
         id="stop265" />
    </linearGradient>
    <linearGradient
       id="paint20_linear_76_1644"
       x1="456.254"
       y1="128.606"
       x2="482.733"
       y2="147.39"
       gradientUnits="userSpaceOnUse">
      <stop
         stop-color="#0A5BE8"
         id="stop268" />
      <stop
         offset="1"
         stop-color="#00348E"
         id="stop270" />
    </linearGradient>
    <linearGradient
       id="paint21_linear_76_1644"
       x1="447.513"
       y1="119.792"
       x2="428.504"
       y2="119.673"
       gradientUnits="userSpaceOnUse">
      <stop
         stop-color="#0A5BE8"
         id="stop273" />
      <stop
         offset="1"
         stop-color="#00348E"
         id="stop275" />
    </linearGradient>
    <clipPath
       id="clip0_76_1644">
      <rect
         width="84.0336"
         height="84.0336"
         fill="#ffffff"
         transform="translate(105.882)"
         id="rect278"
         x="0"
         y="0" />
    </clipPath>
    <clipPath
       id="clip1_76_1644">
      <rect
         width="84.0336"
         height="84.0336"
         fill="#ffffff"
         transform="translate(209.244)"
         id="rect281"
         x="0"
         y="0" />
    </clipPath>
    <clipPath
       id="clip2_76_1644">
      <rect
         width="84.0336"
         height="84.0336"
         fill="#ffffff"
         transform="translate(2.521)"
         id="rect284"
         x="0"
         y="0" />
    </clipPath>
    <clipPath
       id="clip3_76_1644">
      <rect
         width="84.0336"
         height="84.0336"
         fill="#ffffff"
         transform="translate(105.882,99.1597)"
         id="rect287"
         x="0"
         y="0" />
    </clipPath>
    <clipPath
       id="clip4_76_1644">
      <rect
         width="84.0336"
         height="84.0336"
         fill="#ffffff"
         transform="translate(312.605)"
         id="rect290"
         x="0"
         y="0" />
    </clipPath>
    <clipPath
       id="clip5_76_1644">
      <rect
         width="84.0336"
         height="84.0336"
         fill="#ffffff"
         transform="translate(415.966)"
         id="rect293"
         x="0"
         y="0" />
    </clipPath>
    <clipPath
       id="clip6_76_1644">
      <rect
         width="84.0336"
         height="84.0336"
         fill="#ffffff"
         transform="translate(0,99.1597)"
         id="rect296"
         x="0"
         y="0" />
    </clipPath>
    <clipPath
       id="clip7_76_1644">
      <rect
         width="84.0336"
         height="84.0336"
         fill="#ffffff"
         transform="translate(209.244,99.1597)"
         id="rect299"
         x="0"
         y="0" />
    </clipPath>
    <clipPath
       id="clip8_76_1644">
      <rect
         width="84.0336"
         height="84.0336"
         fill="#ffffff"
         transform="translate(312.605,99.1597)"
         id="rect302"
         x="0"
         y="0" />
    </clipPath>
    <clipPath
       id="clip9_76_1644">
      <rect
         width="84.0336"
         height="84.0336"
         fill="#ffffff"
         transform="translate(415.966,99.1597)"
         id="rect305"
         x="0"
         y="0" />
    </clipPath>
  </defs>
</svg>
