<svg width="76" height="76" viewBox="0 0 76 76" fill="none" xmlns="http://www.w3.org/2000/svg">
	<path d="M55.2747 65.5307H46.6735C45.9125 65.5307 45.1827 65.2285 44.6446 64.6904C44.1065 64.1523 43.8042 63.4225 43.8042 62.6615C43.8042 61.9005 44.1065 61.1707 44.6446 60.6326C45.1827 60.0945 45.9125 59.7922 46.6735 59.7922H55.2754L38.0841 31.0866L20.8399 59.8215L29.4586 59.7941C30.2195 59.7941 30.9494 60.0964 31.4874 60.6345C32.0255 61.1726 32.3278 61.9024 32.3278 62.6634C32.3278 63.4243 32.0255 64.1541 31.4874 64.6922C30.9494 65.2303 30.2195 65.5326 29.4586 65.5326H20.8517C19.8423 65.5323 18.8507 65.2658 17.9771 64.76C17.1035 64.2542 16.3788 63.527 15.8759 62.6517C15.3731 61.7764 15.11 60.784 15.1131 59.7745C15.1162 58.7651 15.3854 57.7743 15.8937 56.9021L33.1223 28.1373C33.6318 27.2759 34.3575 26.5627 35.2275 26.0682C36.0975 25.5736 37.0816 25.315 38.0823 25.3179C39.0831 25.3208 40.0657 25.5851 40.9328 26.0847C41.7999 26.5842 42.5215 27.3016 43.026 28.1659L60.2172 56.8747C60.7323 57.7459 61.0077 58.7379 61.0156 59.7499C61.0235 60.7619 60.7636 61.7581 60.2622 62.6372C59.7609 63.5164 59.0359 64.2473 58.1608 64.7558C57.2858 65.2643 56.2918 65.5323 55.2797 65.5326L55.2747 65.5307Z" fill="#DFE3EC"/>
	<path d="M14.8074 52.8715C11.1968 52.3633 7.89111 50.5688 5.49793 47.8181C3.10474 45.0673 1.78497 41.545 1.78125 37.8989L1.78125 25.8046C1.78619 21.7968 3.38047 17.9546 6.21441 15.1207C9.04834 12.2867 12.8906 10.6924 16.8984 10.6875L59.2275 10.6875C63.2355 10.6921 67.078 12.2862 69.9122 15.1202C72.7464 17.9542 74.3409 21.7966 74.3458 25.8046V37.8989C74.3419 41.545 73.022 45.0672 70.6287 47.8178C68.2354 50.5685 64.9296 52.3628 61.3191 52.8709L53.1806 39.2044V16.7343H22.9458V39.2051L14.8074 52.8715ZM59.2275 16.7343V46.9698C61.6324 46.9672 63.9381 46.0106 65.6387 44.3101C67.3392 42.6095 68.2957 40.3038 68.2984 37.8989V25.8046C68.2956 23.3998 67.339 21.0942 65.6384 19.3938C63.9379 17.6934 61.6323 16.737 59.2275 16.7343ZM16.8984 16.7343C14.4936 16.737 12.1881 17.6934 10.4876 19.3939C8.78719 21.0943 7.83073 23.3998 7.82809 25.8046V37.8989C7.83073 40.3037 8.78717 42.6093 10.4876 44.3099C12.188 46.0104 14.4935 46.967 16.8984 46.9698V16.7343Z" fill="#DFE3EC"/>
	<path opacity="0.7" d="M40.9324 54.0574V45.4499C40.9324 44.689 40.6301 43.9592 40.092 43.4211C39.5539 42.883 38.8241 42.5807 38.0631 42.5807C37.3021 42.5807 36.5723 42.883 36.0342 43.4211C35.4961 43.9592 35.1938 44.689 35.1938 45.4499V54.0574C35.1938 54.8184 35.4961 55.5482 36.0342 56.0863C36.5723 56.6244 37.3021 56.9267 38.0631 56.9267C38.8241 56.9267 39.5539 56.6244 40.092 56.0863C40.6301 55.5482 40.9324 54.8184 40.9324 54.0574ZM38.0634 59.7972C37.4958 59.7972 36.941 59.9655 36.4691 60.2809C35.9973 60.5964 35.6295 61.0446 35.4125 61.5691C35.1955 62.0935 35.1389 62.6706 35.2499 63.2272C35.3609 63.7838 35.6345 64.295 36.0361 64.6961C36.4377 65.0972 36.9492 65.3701 37.506 65.4804C38.0628 65.5907 38.6397 65.5333 39.1639 65.3156C39.6881 65.0979 40.1359 64.7296 40.4507 64.2573C40.7655 63.785 40.9331 63.23 40.9324 62.6624C40.931 61.9022 40.6282 61.1737 40.0904 60.6365C39.5525 60.0994 38.8236 59.7975 38.0634 59.7972Z" fill="#DFE3EC"/>
	</svg>
