<svg width="75" height="76" viewBox="0 0 75 76" fill="none" xmlns="http://www.w3.org/2000/svg">
	<path d="M56.0746 8.3125C53.3052 8.35571 50.5962 9.13877 48.2211 10.5826C45.846 12.0264 43.889 14.0798 42.5478 16.5354C41.207 14.0806 39.2508 12.0277 36.8767 10.5839C34.5027 9.14016 31.7947 8.35666 29.0263 8.3125C24.6123 8.50688 20.4536 10.4636 17.4587 13.7551C14.4639 17.0467 12.8763 21.4056 13.0429 25.8795C13.0429 37.2096 24.8113 49.5835 34.682 57.9734C36.8858 59.85 39.6721 60.8789 42.5507 60.8789C45.4293 60.8789 48.2157 59.85 50.4194 57.9734C60.2895 49.5835 72.0585 37.2096 72.0585 25.8795C72.2251 21.4055 70.6374 17.0465 67.6425 13.7549C64.6475 10.4634 60.4887 8.50672 56.0746 8.3125ZM47.2594 54.161C45.9413 55.2858 44.2736 55.9026 42.5504 55.9026C40.8273 55.9026 39.1595 55.2858 37.8415 54.161C25.2072 43.4194 17.9608 33.1132 17.9608 25.8795C17.7927 22.7267 18.8617 19.6344 20.9347 17.2771C23.0076 14.9198 25.9162 13.4887 29.0263 13.2959C32.1362 13.4889 35.0447 14.92 37.1175 17.2773C39.1903 19.6346 40.2592 22.7268 40.0912 25.8795C40.0912 26.5405 40.3503 27.1744 40.8116 27.6418C41.2728 28.1092 41.8984 28.3718 42.5507 28.3718C43.203 28.3718 43.8286 28.1092 44.2899 27.6418C44.7511 27.1744 45.0103 26.5405 45.0103 25.8795C44.8422 22.7269 45.911 19.6348 47.9837 17.2775C50.0564 14.9203 52.9647 13.489 56.0746 13.2959C59.1851 13.488 62.0946 14.9187 64.1681 17.2761C66.2417 19.6335 67.3111 22.7262 67.143 25.8795C67.143 33.1132 59.8966 43.4188 47.2623 54.1514L47.2594 54.161Z" fill="#DFE3EC"/>
	<path d="M15.6182 64.8895C19.7681 63.4416 21.9738 58.8588 20.5449 54.6536C19.116 50.4484 14.5935 48.2132 10.4437 49.6612C6.29381 51.1092 4.08805 55.6919 5.51696 59.8971C6.94587 64.1023 11.4684 66.3375 15.6182 64.8895Z" stroke="#A3A6AD" stroke-width="10" stroke-dasharray="9 12"/>
	</svg>
