<svg width="76" height="76" viewBox="0 0 76 76" fill="none" xmlns="http://www.w3.org/2000/svg">
	<g clip-path="url(#clip0_376_348)">
	<path fill-rule="evenodd" clip-rule="evenodd" d="M36.1443 2.69418L36.156 2.67675L36.6011 2.00975L37.4274 0.771355C37.6724 0.404249 38.2119 0.404249 38.4569 0.771355L39.2833 2.00975L39.7284 2.67675L39.74 2.69418L41.4668 5.28188C41.7623 5.72482 41.3967 6.31587 40.8664 6.26786C39.907 6.18089 38.9354 6.13646 37.9534 6.13646C36.9634 6.13646 35.984 6.1816 35.017 6.26994C34.4865 6.3184 34.1204 5.72709 34.4161 5.28402L36.1443 2.69418ZM29.2714 7.33342C29.4148 7.29289 29.5399 7.20312 29.6225 7.07925L33.4635 1.32329C33.7534 0.88885 33.4067 0.317492 32.889 0.386523C14.3223 2.86226 0 18.761 0 38.0049C0 47.0032 3.13144 55.2701 8.36403 61.7753C8.6208 62.0945 9.11097 62.0701 9.34202 61.7318L12.2227 57.5149C12.3724 57.2958 12.3653 57.0061 12.2087 56.792C8.35799 51.524 6.08491 45.0299 6.08491 38.0049C6.08491 23.4141 15.8905 11.1135 29.2714 7.33342ZM46.2566 7.07145C46.3393 7.19552 46.4647 7.28535 46.6082 7.32576C60.003 11.097 69.8219 23.4043 69.8219 38.0049C69.8219 44.9982 67.5692 51.4653 63.7501 56.7204C63.5945 56.9345 63.5878 57.2234 63.7371 57.4419L66.6202 61.6625C66.8514 62.0013 67.3425 62.0251 67.5991 61.7049C72.7976 55.2104 75.9065 46.9707 75.9065 38.0049C75.9065 18.7524 61.5716 2.84806 42.9929 0.383216C42.4753 0.31455 42.1289 0.885771 42.4187 1.32006L46.2566 7.07145ZM12.3598 62.6165L14.0217 60.1837C14.2466 59.8546 14.7193 59.8209 14.9957 60.108C16.5297 61.701 18.228 63.1347 20.0634 64.3818C20.5867 64.7377 20.3428 65.6075 19.71 65.6075H13.9388H13.7827H12.3946H12.15C11.9921 65.6075 11.8399 65.5471 11.7258 65.438C11.4757 65.1989 11.229 64.9566 10.9855 64.7104C10.9665 64.6916 10.9626 64.6617 10.9778 64.6396L11.4888 63.8913L12.2717 62.7454L12.3598 62.6165ZM37.9534 69.8732C34.8757 69.8732 31.8999 69.4374 29.0846 68.6228C29.0282 68.6066 28.9698 68.5981 28.9111 68.5981H17.3736C16.776 68.5981 16.5357 69.3477 17.034 69.6777C23.0317 73.6466 30.2226 75.9584 37.9534 75.9584C45.6841 75.9584 52.875 73.6466 58.8727 69.6777C59.3711 69.3477 59.1307 68.5981 58.5331 68.5981H46.9957C46.937 68.5981 46.8786 68.6066 46.8221 68.6228C44.0067 69.4374 41.031 69.8732 37.9534 69.8732ZM63.6151 65.6075H63.7567C63.9146 65.6075 64.0668 65.5471 64.1809 65.438C64.3406 65.2853 64.4991 65.1314 64.6561 64.9755C64.8662 64.7676 64.895 64.4389 64.7282 64.1953L64.5209 63.8913L63.738 62.7454L63.6499 62.6165L61.9451 60.121C61.7199 59.7914 61.2462 59.7582 60.97 60.0466C59.4205 61.6641 57.7022 63.1187 55.8433 64.3818C55.3199 64.7377 55.5639 65.6075 56.1967 65.6075H62.0709H62.227H63.6151Z" fill="white"/>
	<path d="M37.4939 25.8237C37.7396 25.464 38.2701 25.464 38.5158 25.8237L65.032 64.6396C65.3126 65.0502 65.0183 65.6075 64.5209 65.6075H11.4887C10.9914 65.6075 10.6972 65.0502 10.9778 64.6396L37.4939 25.8237Z" fill="white"/>
	<path d="M37.4213 10.2145C37.6648 9.83523 38.2192 9.83523 38.4627 10.2145L59.9693 43.7131C60.2337 44.1249 59.9379 44.6662 59.4485 44.6662H16.4355C15.9461 44.6662 15.6504 44.1249 15.9148 43.7131L37.4213 10.2145Z" fill="white"/>
	<path d="M37.4273 0.771296C37.6723 0.404197 38.2118 0.404197 38.4568 0.771296L54.6186 24.9911C54.893 25.4023 54.5983 25.9534 54.1039 25.9534H21.7802C21.2858 25.9534 20.9911 25.4023 21.2655 24.9911L37.4273 0.771296Z" fill="white"/>
	</g>
	<defs>
	<clipPath id="clip0_376_348">
	<rect width="76" height="76" fill="white"/>
	</clipPath>
	</defs>
	</svg>
