<svg width="75" height="76" viewBox="0 0 75 76" fill="none" xmlns="http://www.w3.org/2000/svg">
	<path d="M48.5475 73.0306H18.5319C17.0987 73.0307 15.6795 72.7447 14.3553 72.189C13.0311 71.6333 11.8279 70.8187 10.8143 69.7918C9.80081 68.7649 8.99681 67.5458 8.44824 66.204C7.89967 64.8622 7.61728 63.4241 7.61719 61.9717V20.4956C7.62112 16.8302 9.05981 13.3159 11.6176 10.724C14.1754 8.13214 17.6434 6.67427 21.2606 6.67029H47.977C47.4356 7.4695 47.0899 8.38794 46.9685 9.34953C46.8472 10.3111 46.9537 11.2882 47.2793 12.1997H23.9886V50.9114H56.7308V22.2578C57.5619 22.7231 58.4898 22.9825 59.4387 23.015C60.3877 23.0475 61.3308 22.8521 62.191 22.4448V59.2059C62.187 62.8714 60.7484 66.3856 58.1906 68.9775C55.6328 71.5694 52.1648 73.0266 48.5475 73.0306ZM18.5319 56.4409C17.8101 56.4325 17.0938 56.5694 16.4245 56.8436C15.7552 57.1177 15.1463 57.5237 14.6329 58.0381C14.1195 58.5524 13.712 59.1648 13.4338 59.8398C13.1557 60.5149 13.0125 61.2391 13.0125 61.9706C13.0125 62.7022 13.1557 63.4264 13.4338 64.1015C13.712 64.7765 14.1195 65.3889 14.6329 65.9032C15.1463 66.4176 15.7552 66.8235 16.4245 67.0977C17.0938 67.3719 17.8101 67.5088 18.5319 67.5004H48.5475C50.7172 67.4972 52.7972 66.6222 54.3312 65.0673C55.8652 63.5125 56.7281 61.4046 56.7308 59.2059V56.4409H18.5319ZM18.5319 12.6775C16.937 13.251 15.5563 14.3104 14.5791 15.7106C13.6019 17.1107 13.0761 18.7829 13.0739 20.4978V52.3964C14.7301 51.4242 16.6101 50.912 18.5242 50.9114H18.5312V12.6782L18.5319 12.6775Z" fill="#E0E9FB"/>
	<path opacity="0.8" d="M35.6111 32.2564C35.2019 32.256 34.8046 32.1172 34.482 31.8621C34.1594 31.607 33.9301 31.2502 33.8303 30.848L33.175 28.1876L30.5439 27.4712C30.1496 27.3622 29.8025 27.1232 29.5573 26.7919C29.3121 26.4606 29.1828 26.0559 29.19 25.6419C29.1971 25.2278 29.3402 24.828 29.5967 24.5056C29.8531 24.1832 30.2083 23.9566 30.6061 23.8616L33.1786 23.2577L33.8325 20.6416C33.9333 20.2405 34.1632 19.8849 34.4857 19.6309C34.8082 19.3769 35.2051 19.239 35.6135 19.239C36.022 19.239 36.4188 19.3769 36.7414 19.6309C37.0639 19.8849 37.2937 20.2405 37.3946 20.6416L38.0443 23.2799L40.6478 23.9404C41.0436 24.0426 41.3946 24.2755 41.6453 24.6023C41.8959 24.9291 42.032 25.3313 42.032 25.7452C42.032 26.1591 41.8959 26.5612 41.6453 26.8881C41.3946 27.2149 41.0436 27.4478 40.6478 27.55L38.0443 28.2105L37.3946 30.8488C37.2946 31.2512 37.0648 31.6083 36.7416 31.8633C36.4185 32.1183 36.0206 32.2566 35.6111 32.2564Z" fill="#E0E9FB"/>
	<path d="M59.5948 18.1129C59.2494 18.1132 58.9118 18.0086 58.6256 17.8126C58.3395 17.6166 58.1178 17.3382 57.9894 17.0133L56.531 13.3141L52.8755 11.7539C52.5616 11.6137 52.2956 11.3826 52.1109 11.0897C51.9263 10.7967 51.8312 10.4549 51.8377 10.1073C51.8442 9.75976 51.952 9.4219 52.1475 9.13621C52.3429 8.85053 52.6174 8.6298 52.9363 8.50175L56.5416 7.11707L57.9879 3.45442C58.1211 3.13447 58.3443 2.86141 58.6298 2.66941C58.9153 2.47741 59.2504 2.375 59.593 2.375C59.9356 2.375 60.2707 2.47741 60.5562 2.66941C60.8417 2.86141 61.0649 3.13447 61.198 3.45442L62.6515 7.13139L66.2801 8.60419C66.5966 8.73831 66.8669 8.96428 67.0571 9.25367C67.2472 9.54307 67.3486 9.88297 67.3486 10.2306C67.3486 10.5783 67.2472 10.9182 67.0571 11.2076C66.8669 11.497 66.5966 11.723 66.2801 11.8571L62.6529 13.3299L61.2002 17.0061C61.0728 17.3324 60.8517 17.6123 60.5654 17.8097C60.2792 18.007 59.941 18.1126 59.5948 18.1129Z" fill="#E0E9FB"/>
	<path opacity="0.8" d="M47.0187 47.2369C46.7464 47.237 46.4818 47.1448 46.2671 46.975C46.0525 46.8053 45.9 46.5676 45.8339 46.2999L45.3928 44.5306L43.6432 44.0542C43.3807 43.9819 43.1496 43.8229 42.9865 43.6025C42.8233 43.382 42.7375 43.1126 42.7426 42.8371C42.7478 42.5616 42.8435 42.2957 43.0147 42.0815C43.1859 41.8674 43.4228 41.7174 43.6877 41.6552L45.397 41.2533L45.8318 39.5133C45.8978 39.2456 46.0502 39.0079 46.2648 38.8381C46.4794 38.6683 46.7439 38.576 47.0162 38.576C47.2885 38.576 47.553 38.6683 47.7676 38.8381C47.9822 39.0079 48.1346 39.2456 48.2006 39.5133L48.6333 41.2676L50.3645 41.7067C50.6287 41.7736 50.8632 41.9281 51.0308 42.1456C51.1984 42.363 51.2894 42.631 51.2894 42.907C51.2894 43.1829 51.1984 43.4509 51.0308 43.6684C50.8632 43.8859 50.6287 44.0403 50.3645 44.1072L48.6333 44.5463L48.2006 46.3006C48.1345 46.5677 47.9824 46.8048 47.7683 46.9744C47.5542 47.144 47.2904 47.2364 47.0187 47.2369Z" fill="#E0E9FB"/>
	</svg>
