<svg width="75" height="75" viewBox="0 0 75 75" fill="none" xmlns="http://www.w3.org/2000/svg">
	<path d="M43.119 30.6116H32.2137C30.8442 30.61 29.5312 30.0653 28.5628 29.0969C27.5943 28.1285 27.0496 26.8155 27.0481 25.4459V14.5406C27.0496 13.1711 27.5943 11.8581 28.5628 10.8897C29.5312 9.92124 30.8442 9.37652 32.2137 9.375H43.119C44.4886 9.37652 45.8016 9.92124 46.77 10.8897C47.7384 11.8581 48.2831 13.1711 48.2847 14.5406V25.4459C48.2831 26.8155 47.7384 28.1285 46.77 29.0969C45.8016 30.0653 44.4886 30.61 43.119 30.6116ZM32.2137 12.8188C31.7571 12.8188 31.3191 13.0002 30.9962 13.3231C30.6733 13.646 30.4919 14.084 30.4919 14.5406V25.4459C30.4919 25.9026 30.6733 26.3405 30.9962 26.6635C31.3191 26.9864 31.7571 27.1678 32.2137 27.1678H43.119C43.5757 27.1678 44.0136 26.9864 44.3366 26.6635C44.6595 26.3405 44.8409 25.9026 44.8409 25.4459V14.5406C44.8409 14.084 44.6595 13.646 44.3366 13.3231C44.0136 13.0002 43.5757 12.8188 43.119 12.8188H32.2137Z" fill="#E0E9FB"/>
	<path d="M43.119 54.1439H32.2137C30.8442 54.1424 29.5312 53.5977 28.5628 52.6292C27.5943 51.6608 27.0496 50.3478 27.0481 48.9783V38.073C27.0496 36.7034 27.5943 35.3904 28.5628 34.422C29.5312 33.4536 30.8442 32.9089 32.2137 32.9073H43.119C44.4886 32.9089 45.8016 33.4536 46.77 34.422C47.7384 35.3904 48.2831 36.7034 48.2847 38.073V48.9783C48.2831 50.3478 47.7384 51.6608 46.77 52.6292C45.8016 53.5977 44.4886 54.1424 43.119 54.1439ZM32.2137 36.3511C31.7571 36.3511 31.3191 36.5325 30.9962 36.8554C30.6733 37.1784 30.4919 37.6163 30.4919 38.073V48.9783C30.4919 49.4349 30.6733 49.8729 30.9962 50.1958C31.3191 50.5187 31.7571 50.7001 32.2137 50.7001H43.119C43.5757 50.7001 44.0136 50.5187 44.3366 50.1958C44.6595 49.8729 44.8409 49.4349 44.8409 48.9783V38.073C44.8409 37.6163 44.6595 37.1784 44.3366 36.8554C44.0136 36.5325 43.5757 36.3511 43.119 36.3511H32.2137Z" fill="#E0E9FB"/>
	<path d="M19.5865 54.1439H8.68127C7.31172 54.1424 5.9987 53.5977 5.03029 52.6292C4.06187 51.6608 3.51714 50.3478 3.51562 48.9783L3.51563 38.073C3.51714 36.7034 4.06187 35.3904 5.03029 34.422C5.9987 33.4536 7.31172 32.9089 8.68127 32.9073H19.5865C20.9561 32.9089 22.2691 33.4536 23.2375 34.422C24.2059 35.3904 24.7507 36.7034 24.7522 38.073V48.9783C24.7507 50.3478 24.2059 51.6608 23.2375 52.6292C22.2691 53.5977 20.9561 54.1424 19.5865 54.1439ZM8.68127 36.3511C8.2246 36.3511 7.78663 36.5325 7.46372 36.8554C7.1408 37.1784 6.95939 37.6163 6.95939 38.073V48.9783C6.95939 49.4349 7.1408 49.8729 7.46372 50.1958C7.78663 50.5187 8.2246 50.7001 8.68127 50.7001H19.5865C20.0432 50.7001 20.4812 50.5187 20.8041 50.1958C21.127 49.8729 21.3084 49.4349 21.3084 48.9783V38.073C21.3084 37.6163 21.127 37.1784 20.8041 36.8554C20.4812 36.5325 20.0432 36.3511 19.5865 36.3511H8.68127Z" fill="#E0E9FB"/>
	<path d="M66.6512 54.1439H55.746C54.3764 54.1424 53.0634 53.5977 52.095 52.6292C51.1266 51.6608 50.5818 50.3478 50.5803 48.9783V38.073C50.5818 36.7034 51.1266 35.3904 52.095 34.422C53.0634 33.4536 54.3764 32.9089 55.746 32.9073H66.6512C68.0208 32.9089 69.3338 33.4536 70.3022 34.422C71.2706 35.3904 71.8154 36.7034 71.8169 38.073V48.9783C71.8154 50.3478 71.2706 51.6608 70.3022 52.6292C69.3338 53.5977 68.0208 54.1424 66.6512 54.1439ZM55.746 36.3511C55.2893 36.3511 54.8513 36.5325 54.5284 36.8554C54.2055 37.1784 54.0241 37.6163 54.0241 38.073V48.9783C54.0241 49.4349 54.2055 49.8729 54.5284 50.1958C54.8513 50.5187 55.2893 50.7001 55.746 50.7001H66.6512C67.1079 50.7001 67.5459 50.5187 67.8688 50.1958C68.1917 49.8729 68.3731 49.4349 68.3731 48.9783V38.073C68.3731 37.6163 68.1917 37.1784 67.8688 36.8554C67.5459 36.5325 67.1079 36.3511 66.6512 36.3511H55.746Z" fill="#E0E9FB"/>
	<path d="M66.9383 66.1972H8.39429C7.10039 66.1972 5.85948 65.6832 4.94455 64.7682C4.02963 63.8533 3.51563 62.6124 3.51562 61.3185C3.51563 60.0246 4.02963 58.7837 4.94455 57.8687C5.85948 56.9538 7.10039 56.4398 8.39429 56.4398H66.9383C68.2322 56.4398 69.4731 56.9538 70.3881 57.8687C71.303 58.7837 71.817 60.0246 71.817 61.3185C71.817 62.6124 71.303 63.8533 70.3881 64.7682C69.4731 65.6832 68.2322 66.1972 66.9383 66.1972ZM8.39429 59.8836C8.01373 59.8836 7.64876 60.0348 7.37966 60.3039C7.11057 60.573 6.95939 60.9379 6.95939 61.3185C6.95939 61.699 7.11057 62.064 7.37966 62.3331C7.64876 62.6022 8.01373 62.7534 8.39429 62.7534H66.9383C67.3189 62.7534 67.6839 62.6022 67.9529 62.3331C68.222 62.064 68.3732 61.699 68.3732 61.3185C68.3732 60.9379 68.222 60.573 67.9529 60.3039C67.6839 60.0348 67.3189 59.8836 66.9383 59.8836H8.39429Z" fill="#E0E9FB"/>
	</svg>
