<svg width="76" height="76" viewBox="0 0 76 76" fill="none" xmlns="http://www.w3.org/2000/svg">
	<path opacity="0.8" d="M26.5383 37.8177C37.5143 32.9397 44.2216 49.4036 44.2216 49.4036C44.2216 41.7224 44.2216 33.5048 48.0424 28.7292" stroke="#E0E9FB" stroke-opacity="0.9" stroke-width="7" stroke-linecap="round" stroke-linejoin="round"/>
	<path d="M54.4559 27.444C57.3677 27.444 59.7282 25.104 59.7282 22.2175C59.7282 19.331 57.3677 16.991 54.4559 16.991C51.5441 16.991 49.1836 19.331 49.1836 22.2175C49.1836 25.104 51.5441 27.444 54.4559 27.444Z" fill="#E0E9FB"/>
	<path opacity="0.5" d="M20.529 43.1359C21.8145 43.1359 22.8566 42.0938 22.8566 40.8083C22.8566 39.5228 21.8145 38.4807 20.529 38.4807C19.2435 38.4807 18.2014 39.5228 18.2014 40.8083C18.2014 42.0938 19.2435 43.1359 20.529 43.1359Z" fill="#E0E9FB"/>
	<path opacity="0.3" d="M15.6629 48.2135C17.0652 48.2135 18.202 47.0767 18.202 45.6744C18.202 44.2721 17.0652 43.1353 15.6629 43.1353C14.2606 43.1353 13.1238 44.2721 13.1238 45.6744C13.1238 47.0767 14.2606 48.2135 15.6629 48.2135Z" fill="#E0E9FB"/>
	<path d="M26.646 60.2205H15.8368C14.1466 60.2219 12.4726 59.8901 10.9108 59.2439C9.34888 58.5977 7.92975 57.6499 6.73456 56.4547C5.53936 55.2595 4.59156 53.8404 3.94538 52.2785C3.29921 50.7167 2.96733 49.0427 2.96875 47.3524V20.5868C2.9674 18.8966 3.29932 17.2227 3.94552 15.6608C4.59172 14.099 5.53953 12.6799 6.73471 11.4847C7.92989 10.2895 9.34899 9.34172 10.9108 8.69552C12.4727 8.04932 14.1466 7.7174 15.8368 7.71875H59.5883C61.2785 7.7174 62.9525 8.04932 64.5143 8.69552C66.0761 9.34172 67.4952 10.2895 68.6904 11.4847C69.8856 12.6799 70.8334 14.099 71.4796 15.6608C72.1258 17.2227 72.4577 18.8966 72.4564 20.5868V47.3524C72.4577 49.0427 72.1258 50.7166 71.4796 52.2784C70.8334 53.8403 69.8856 55.2594 68.6904 56.4546C67.4952 57.6497 66.0761 58.5975 64.5143 59.2438C62.9525 59.89 61.2785 60.2219 59.5883 60.2205H48.7791V56.6175H59.5883C62.0447 56.6147 64.3997 55.6377 66.1366 53.9008C67.8736 52.1638 68.8506 49.8088 68.8533 47.3524V20.5868C68.8506 18.1304 67.8736 15.7754 66.1366 14.0385C64.3997 12.3015 62.0447 11.3245 59.5883 11.3218H15.8368C13.3804 11.3245 11.0254 12.3015 9.28849 14.0385C7.55155 15.7754 6.57454 18.1304 6.57182 20.5868V47.3524C6.57454 49.8088 7.55155 52.1638 9.28849 53.9008C11.0254 55.6377 13.3804 56.6147 15.8368 56.6175H26.646V60.2205Z" fill="#E0E9FB"/>
	<path d="M33.8732 67.9112C33.3245 67.9088 32.7841 67.7774 32.2956 67.5277C31.7196 67.2437 31.2356 66.8027 30.8994 66.2556C30.5631 65.7084 30.3884 65.0774 30.3952 64.4353V53.1376C30.3883 52.4956 30.5629 51.8646 30.8989 51.3175C31.235 50.7704 31.7188 50.3293 32.2945 50.0452C32.8657 49.7544 33.5066 49.6283 34.1453 49.681C34.7841 49.7336 35.3956 49.9629 35.9115 50.3432L43.6143 55.9907C44.0533 56.3128 44.4102 56.7337 44.6563 57.2193C44.9023 57.705 45.0305 58.2418 45.0305 58.7862C45.0305 59.3306 44.9023 59.8674 44.6563 60.353C44.4102 60.8387 44.0533 61.2596 43.6143 61.5816L35.911 67.2271C35.3223 67.6663 34.6082 67.9049 33.8737 67.9076L33.8732 67.9112ZM33.8701 51.7546C33.6507 51.7553 33.4345 51.8082 33.2396 51.909C33.0098 52.0201 32.8167 52.1947 32.6832 52.4122C32.5496 52.6297 32.4812 52.8809 32.486 53.1361V64.4353C32.4816 64.6904 32.5502 64.9414 32.6837 65.1588C32.8172 65.3762 33.0101 65.5509 33.2396 65.6624C33.465 65.7816 33.7197 65.8339 33.9739 65.8132C34.228 65.7925 34.471 65.6996 34.6741 65.5455L42.3775 59.8959C42.5518 59.7683 42.6936 59.6013 42.7913 59.4086C42.8891 59.2158 42.94 59.0028 42.94 58.7867C42.94 58.5706 42.8891 58.3576 42.7913 58.1648C42.6936 57.9721 42.5518 57.8051 42.3775 57.6775L34.6751 52.0284C34.4432 51.853 34.1609 51.757 33.8701 51.7546Z" fill="#E0E9FB"/>
	</svg>
