<svg width="76" height="75" viewBox="0 0 76 75" fill="none" xmlns="http://www.w3.org/2000/svg">
	<path d="M73.8578 34.7371C73.8911 35.517 73.6096 36.2781 73.075 36.8534C72.5404 37.4287 71.7965 37.7713 71.0063 37.806C70.2161 37.8407 69.4442 37.5647 68.8599 37.0386C68.2757 36.5125 67.9267 35.7791 67.8896 34.9994C67.3729 29.4264 65.2577 24.1141 61.7919 19.6847C58.326 15.2553 53.6529 11.8921 48.32 9.98911C42.9871 8.08612 37.2151 7.72211 31.6801 8.93969C26.145 10.1573 21.0762 12.906 17.0671 16.8641C13.0581 20.8221 10.2749 25.8255 9.04352 31.2882C7.81214 36.7509 8.18354 42.4468 10.1142 47.7087C12.045 52.9707 15.455 57.5807 19.945 60.9991C24.435 64.4174 29.8191 66.5024 35.4666 67.0098C36.2549 67.0801 36.9826 67.4565 37.4897 68.0563C37.9967 68.656 38.2416 69.43 38.1704 70.2079C38.0992 70.9858 37.7178 71.704 37.11 72.2043C36.5023 72.7047 35.718 72.9464 34.9297 72.8761C28.1527 72.2655 21.6922 69.762 16.3051 65.6587C10.9179 61.5553 6.82701 56.0222 4.51157 49.7072C2.19614 43.3922 1.752 36.5568 3.23119 30.0017C4.71038 23.4466 8.05165 17.4432 12.8637 12.6945C17.6757 7.94577 23.7592 4.64846 30.4017 3.18874C37.0442 1.72901 43.9707 2.1673 50.3699 4.45226C56.7691 6.73724 62.376 10.7743 66.5341 16.0906C70.6921 21.4069 73.229 27.7823 73.8477 34.4702C73.8549 34.5603 73.8578 34.6517 73.8578 34.7371Z" fill="#E0E9FB"/>
	<path opacity="0.88" d="M38.3184 20.2756C37.9295 20.2756 37.5444 20.3512 37.1851 20.4981C36.8258 20.645 36.4993 20.8603 36.2243 21.1316C35.9493 21.403 35.7311 21.7252 35.5823 22.0798C35.4335 22.4344 35.3569 22.8144 35.3569 23.1982V35.84L25.3723 42.0131C24.7046 42.4245 24.2299 43.0809 24.0526 43.8378C23.8753 44.5946 24.0099 45.39 24.4269 46.0489C24.8439 46.7078 25.509 47.1763 26.2759 47.3512C27.0429 47.5262 27.8489 47.3933 28.5166 46.9818L39.8912 39.9669C40.3209 39.7011 40.6743 39.331 40.9175 38.8918C41.1607 38.4526 41.2855 37.9592 41.28 37.4588V23.1982C41.28 22.8144 41.2034 22.4344 41.0546 22.0798C40.9057 21.7252 40.6876 21.403 40.4126 21.1316C40.1376 20.8603 39.8111 20.645 39.4518 20.4981C39.0925 20.3512 38.7074 20.2756 38.3184 20.2756Z" fill="#E0E9FB"/>
	<path d="M58.6768 45.8358L47.0452 57.3108C46.2858 58.0563 45.6836 58.9431 45.2736 59.9198C44.8637 60.8964 44.654 61.9437 44.6568 63.0008V66.191C44.6569 66.7244 44.8717 67.236 45.254 67.6132C45.6362 67.9904 46.1546 68.2024 46.6952 68.2026H49.9273C50.9983 68.2054 52.0592 67.9984 53.0486 67.5939C54.038 67.1893 54.9363 66.595 55.6915 65.8455L67.3236 54.3665C68.47 53.2346 69.114 51.6998 69.114 50.0994C69.114 48.499 68.47 46.9642 67.3236 45.8323C66.1589 44.7343 64.6102 44.1216 62.9996 44.1216C61.3889 44.1216 59.8402 44.7343 58.6756 45.8323L58.6768 45.8358ZM64.4409 51.5241L52.807 63.0014C52.4297 63.3765 51.9806 63.6738 51.4858 63.8761C50.9911 64.0784 50.4605 64.1817 49.9249 64.1799H48.7307V63.0014C48.7296 62.4728 48.8347 61.9492 49.0402 61.461C49.2456 60.9728 49.5471 60.5296 49.9273 60.1572L61.5612 48.6782C61.9493 48.3122 62.4654 48.108 63.0022 48.108C63.539 48.108 64.0552 48.3122 64.4433 48.6782C64.6326 48.8649 64.7828 49.0866 64.8852 49.3306C64.9877 49.5746 65.0404 49.8361 65.0404 50.1003C65.0404 50.3644 64.9877 50.6259 64.8852 50.8699C64.7828 51.114 64.6326 51.3356 64.4433 51.5224L64.4409 51.5241Z" fill="url(#paint0_linear_376_288)"/>
	<defs>
	<linearGradient id="paint0_linear_376_288" x1="45.9774" y1="45.0126" x2="68.7726" y2="67.0626" gradientUnits="userSpaceOnUse">
	<stop stop-color="#E0E9FB"/>
	<stop offset="1" stop-color="#E0E9FB" stop-opacity="0.769"/>
	</linearGradient>
	</defs>
	</svg>
