<svg width="75" height="75" viewBox="0 0 75 75" fill="none" xmlns="http://www.w3.org/2000/svg">
	<g clip-path="url(#clip0_376_267)">
	<path d="M73.2421 37.6579C73.243 37.9797 73.1805 38.2984 73.0581 38.596C72.9356 38.8935 72.7558 39.164 72.5287 39.392C72.3017 39.6199 72.0319 39.8009 71.7349 39.9245C71.4379 40.0482 71.1194 40.112 70.7976 40.1125H63.7812C62.5165 40.1075 61.2744 39.777 60.1744 39.1528C59.0744 38.5286 58.1537 37.6318 57.5008 36.5486L54.1567 30.9742L50.5216 39.8671C50.4074 40.1753 50.2323 40.4574 50.0067 40.6965C49.7811 40.9356 49.5097 41.1267 49.2086 41.2586C48.9076 41.3906 48.583 41.4605 48.2543 41.4642C47.9257 41.468 47.5996 41.4055 47.2956 41.2805C46.9916 41.1555 46.7158 40.9706 46.4848 40.7368C46.2539 40.5029 46.0723 40.2249 45.9511 39.9194C45.8298 39.6139 45.7714 39.2871 45.7792 38.9585C45.787 38.6299 45.8609 38.3062 45.9965 38.0068L50.1522 27.841H45.4123L40.3664 40.1915C40.1485 40.7246 40.1246 41.3173 40.2989 41.8663C40.4731 42.4153 40.8345 42.8857 41.32 43.1957L52.5456 50.3167C52.894 50.538 53.1811 50.8436 53.3802 51.2053C53.5794 51.5669 53.6842 51.9728 53.6849 52.3857V64.6588C53.6849 65.3072 53.4274 65.9291 52.9689 66.3876C52.5104 66.8461 51.8885 67.1036 51.2401 67.1036C50.5917 67.1036 49.9699 66.8461 49.5114 66.3876C49.0529 65.9291 48.7954 65.3072 48.7954 64.6588V53.7381L38.7085 47.3559C37.2468 46.427 36.1583 45.0136 35.6336 43.3631C35.1089 41.7127 35.1814 39.9302 35.8384 38.3278L40.1266 27.841H34.7046C34.2501 27.8397 33.8043 27.9661 33.418 28.2057C33.0317 28.4453 32.7203 28.7884 32.5194 29.1962L28.9811 36.3005C28.8394 36.5917 28.6413 36.852 28.3982 37.0661C28.1552 37.2802 27.8721 37.444 27.5653 37.5479C27.2585 37.6518 26.9342 37.6938 26.611 37.6714C26.2879 37.649 25.9724 37.5628 25.6829 37.4176C25.3934 37.2724 25.1355 37.0712 24.9243 36.8257C24.7131 36.5801 24.5527 36.2951 24.4524 35.9871C24.3522 35.6791 24.314 35.3542 24.3402 35.0314C24.3664 34.7086 24.4564 34.3941 24.605 34.1063L28.145 26.9853C28.7497 25.7635 29.6848 24.7357 30.8442 24.0185C32.0036 23.3013 33.3408 22.9235 34.7041 22.928H50.8933C52.1592 22.9325 53.4027 23.263 54.5038 23.8877C55.6049 24.5124 56.5265 25.4102 57.1798 26.4946L61.6861 34.0129C61.9038 34.3737 62.2107 34.6725 62.5772 34.8805C62.9437 35.0885 63.3576 35.1987 63.779 35.2006H70.7976C71.1196 35.2011 71.4383 35.265 71.7355 35.3888C72.0328 35.5126 72.3026 35.6939 72.5297 35.9221C72.7568 36.1504 72.9366 36.4212 73.0589 36.7191C73.1811 37.0169 73.2434 37.336 73.2421 37.6579ZM36.2663 49.4744C35.9678 49.3545 35.6486 49.2947 35.327 49.2986C35.0053 49.3024 34.6876 49.3698 34.3921 49.4968C34.0966 49.6238 33.8291 49.808 33.605 50.0387C33.3809 50.2695 33.2046 50.5422 33.0863 50.8413C32.9076 51.2976 32.5951 51.6892 32.1898 51.9647C31.7845 52.2402 31.3054 52.3868 30.8153 52.3851H24.3486C23.6976 52.3851 23.0733 52.6437 22.613 53.104C22.1526 53.5643 21.894 54.1886 21.894 54.8396C21.894 55.4906 22.1526 56.1149 22.613 56.5752C23.0733 57.0356 23.6976 57.2942 24.3486 57.2942H30.8176C32.2868 57.2973 33.7228 56.8572 34.938 56.0313C36.1531 55.2054 37.0909 54.0322 37.6287 52.6649C37.87 52.0611 37.8622 51.3862 37.607 50.7881C37.3517 50.1899 36.8698 49.7174 36.2668 49.4738L36.2663 49.4744ZM53.6849 20.4757C54.8996 20.4806 56.0884 20.1248 57.1007 19.4535C58.113 18.7822 58.9033 17.8256 59.3715 16.7048C59.8397 15.584 59.9648 14.3495 59.7308 13.1575C59.4969 11.9656 58.9144 10.8699 58.0573 10.0093C57.2002 9.14864 56.1069 8.56173 54.9159 8.32291C53.725 8.08408 52.4899 8.20408 51.3672 8.66771C50.2445 9.13134 49.2847 9.91774 48.6093 10.9273C47.9338 11.9369 47.5732 13.1242 47.5731 14.3388C47.5714 15.1431 47.7282 15.9398 48.0344 16.6835C48.3407 17.4272 48.7904 18.1033 49.3579 18.6732C49.9255 19.243 50.5997 19.6955 51.3422 20.0048C52.0846 20.3141 52.8807 20.4741 53.6849 20.4757Z" fill="#E0E9FB"/>
	<path opacity="0.7" d="M19.681 36.4369H1.17188" stroke="#E0E9FB" stroke-width="6" stroke-linecap="round" stroke-linejoin="round"/>
	<path opacity="0.5" d="M16.1739 27.0901H1.42334" stroke="#E0E9FB" stroke-width="6" stroke-linecap="round" stroke-linejoin="round"/>
	<path opacity="0.9" d="M26.0788 45.0437H1.42334" stroke="#E0E9FB" stroke-width="6" stroke-linecap="round" stroke-linejoin="round"/>
	</g>
	<defs>
	<clipPath id="clip0_376_267">
	<rect width="75" height="75" fill="white"/>
	</clipPath>
	</defs>
	</svg>
