<svg width="76" height="76" viewBox="0 0 76 76" fill="none" xmlns="http://www.w3.org/2000/svg">
	<path opacity="0.1" d="M45.9251 30.0512C43.3766 27.4618 43.4007 27.2553 40.3714 26.3235C37.3421 25.3917 33.7962 26.3235 33.7962 26.3235L26.7962 41.0128C26.5025 41.6631 26.4766 42.4028 26.724 43.0721C26.9714 43.7413 27.4724 44.2863 28.1185 44.589L43.6902 53.0548C44.1512 53.2841 44.5416 53.634 44.8199 54.0673C45.0981 54.5006 45.2538 55.0011 45.2704 55.5158V70.112C45.2704 71.7242 43.7524 73.0291 41.8793 73.0291C40.0062 73.0291 38.4882 71.722 38.4882 70.112V57.1241L24.4973 49.5341C20.3164 47.2632 18.6362 42.7333 20.5144 38.7969L26.4608 26.323H18.9431C18.3416 26.3052 17.7459 26.4445 17.2147 26.7272C16.6835 27.0098 16.2351 27.426 15.9138 27.9347L11.0047 36.3858C10.5235 37.107 9.80218 37.6341 8.96899 37.8737C8.1358 38.1132 7.24467 38.0495 6.45398 37.694C4.77777 36.9732 4.09787 35.2196 4.93485 33.7761L9.84511 25.3104C11.5634 22.3423 15.0908 20.4714 18.9431 20.486H41.4014C44.9675 20.4949 48.2711 22.1021 50.1196 24.7275C56.9888 34.5419 48.4736 32.6407 45.9251 30.0512ZM21.1096 52.0551C19.3706 51.456 17.397 52.1842 16.7014 53.682C16.4043 54.2551 15.9503 54.732 15.3926 55.0571C14.8348 55.3822 14.1961 55.542 13.5509 55.5181H4.57862C2.70551 55.5158 1.1875 56.8235 1.1875 58.4352C1.1875 60.0469 2.70551 61.3523 4.57862 61.3523H13.5509C17.7151 61.3635 21.4608 59.179 22.9984 55.8468C23.694 54.3501 22.8486 52.6492 21.1096 52.0518V52.0551ZM45.2704 17.5655C49.9524 17.5655 53.748 14.2978 53.748 10.2672C53.748 6.23651 49.9524 2.96936 45.2704 2.96936C40.5885 2.96936 36.7929 6.23707 36.7929 10.2677C36.7929 14.2984 40.5885 17.5655 45.2704 17.5655Z" fill="#E0E9FB"/>
	<path opacity="0.52" d="M70.3755 38.0003C70.3755 38.3834 70.3 38.7627 70.1534 39.1166C70.0068 39.4705 69.792 39.7921 69.5211 40.063C69.2502 40.3339 68.9286 40.5487 68.5747 40.6953C68.2208 40.8419 67.8415 40.9174 67.4584 40.9174H59.0779C57.5695 40.9122 56.0876 40.5197 54.7744 39.7775C53.4612 39.0353 52.3606 37.9683 51.5782 36.6786C51.5782 36.6786 49.7785 32.6396 47.5846 30.049C45.3906 27.4583 45.4136 27.253 42.8028 26.3212C40.192 25.3894 37.1425 26.3212 37.1425 26.3212L31.1181 41.0127C30.8567 41.6475 30.8276 42.3541 31.0357 43.0082C31.2439 43.6623 31.6761 44.2221 32.2563 44.589L45.6638 53.0547C46.0795 53.3171 46.4222 53.6803 46.6601 54.1105C46.8979 54.5408 47.0231 55.0242 47.0241 55.5158V70.1119C47.0241 70.8862 46.7166 71.6287 46.1691 72.1762C45.6216 72.7237 44.8791 73.0312 44.1048 73.0312C43.3305 73.0312 42.588 72.7237 42.0405 72.1762C41.493 71.6287 41.1855 70.8862 41.1855 70.1119V57.1241L29.1384 49.534C27.3947 48.434 26.0949 46.7541 25.4681 44.79C24.8412 42.826 24.9273 40.7037 25.7114 38.7969L30.832 26.3229H24.3566C23.8147 26.3208 23.283 26.4705 22.8218 26.7551C22.3605 27.0396 21.9882 27.4477 21.7469 27.9329L17.5227 36.3841C17.1696 37.0644 16.5631 37.5787 15.8342 37.8158C15.1053 38.0529 14.3124 37.994 13.6265 37.6517C12.9407 37.3094 12.4169 36.7112 12.1682 35.9861C11.9195 35.2611 11.9658 34.4673 12.2972 33.7761L16.5242 25.3104C17.2495 23.8554 18.3675 22.6325 19.7516 21.7799C21.1358 20.9273 22.7309 20.4791 24.3566 20.4859H43.6908C45.2005 20.4904 46.6836 20.8829 47.9979 21.6256C49.3122 22.3684 50.4135 23.4365 51.1961 24.7275L56.5816 33.669C56.8423 34.0986 57.209 34.4542 57.6464 34.7016C58.0839 34.949 58.5776 35.08 59.0802 35.0821H67.4584C67.8416 35.0821 68.221 35.1576 68.575 35.3042C68.929 35.4509 69.2506 35.6659 69.5215 35.9369C69.7924 36.2079 70.0072 36.5296 70.1538 36.8836C70.3003 37.2377 70.3756 37.6171 70.3755 38.0003ZM26.2219 52.0551C25.8659 51.9124 25.4853 51.8412 25.1018 51.8458C24.7183 51.8503 24.3395 51.9304 23.987 52.0816C23.6345 52.2327 23.3153 52.4518 23.0476 52.7264C22.7799 53.001 22.5689 53.3257 22.4268 53.6819C22.2122 54.2254 21.8385 54.6914 21.3547 55.019C20.8708 55.3466 20.2994 55.5206 19.7151 55.518H11.9887C11.2144 55.518 10.4719 55.8256 9.92439 56.3731C9.37691 56.9206 9.06934 57.6631 9.06934 58.4374C9.06934 59.2116 9.37691 59.9542 9.92439 60.5016C10.4719 61.0491 11.2144 61.3567 11.9887 61.3567H19.7151C21.4671 61.3624 23.1801 60.8402 24.6311 59.8582C26.082 58.8762 27.2034 57.4799 27.8493 55.8512C27.992 55.4953 28.0631 55.1147 28.0586 54.7312C28.054 54.3477 27.9739 53.9689 27.8228 53.6164C27.6717 53.2639 27.4526 52.9446 27.178 52.6769C26.9034 52.4092 26.5786 52.1983 26.2224 52.0562L26.2219 52.0551ZM47.0219 17.5655C48.4654 17.5655 49.8765 17.1374 51.0767 16.3354C52.2769 15.5334 53.2124 14.3936 53.7647 13.0599C54.3171 11.7263 54.4616 10.2588 54.18 8.84306C53.8983 7.4273 53.2032 6.12686 52.1824 5.10619C51.1617 4.08552 49.8612 3.39047 48.4454 3.10892C47.0296 2.82738 45.5621 2.97199 44.2285 3.52447C42.895 4.07695 41.7551 5.01248 40.9533 6.21277C40.1514 7.41305 39.7234 8.82417 39.7235 10.2677C39.7237 12.2032 40.4927 14.0594 41.8614 15.428C43.2301 16.7966 45.0863 17.5655 47.0219 17.5655Z" fill="#E0E9FB"/>
	<path d="M74.3025 38.0003C74.3025 38.3834 74.227 38.7627 74.0804 39.1166C73.9338 39.4705 73.719 39.7921 73.4481 40.063C73.1772 40.3339 72.8556 40.5487 72.5017 40.6953C72.1478 40.8419 71.7685 40.9174 71.3854 40.9174H63.0049C61.4965 40.9122 60.0146 40.5197 58.7014 39.7775C57.3882 39.0353 56.2876 37.9683 55.5052 36.6786L51.5121 30.0512L47.1713 40.6274C47.026 40.9821 46.8122 41.3048 46.5423 41.577C46.2723 41.8492 45.9513 42.0656 45.5977 42.2137C45.2441 42.3619 44.8648 42.4389 44.4814 42.4405C44.098 42.442 43.7181 42.3681 43.3633 42.2228C43.0085 42.0775 42.6858 41.8638 42.4136 41.5938C42.1414 41.3238 41.9251 41.0028 41.777 40.6492C41.6288 40.2956 41.5518 39.9163 41.5502 39.5329C41.5486 39.1496 41.6226 38.7696 41.7679 38.4148L46.7303 26.3235H41.07L35.0451 41.0127C34.7837 41.6475 34.7546 42.3541 34.9627 43.0082C35.1709 43.6623 35.6031 44.2221 36.1833 44.589L49.5908 53.0547C50.0065 53.3171 50.3492 53.6803 50.5871 54.1105C50.8249 54.5408 50.9501 55.0242 50.9511 55.5158V70.1119C50.9511 70.8862 50.6436 71.6287 50.0961 72.1762C49.5486 72.7237 48.8061 73.0312 48.0318 73.0312C47.2575 73.0312 46.515 72.7237 45.9675 72.1762C45.42 71.6287 45.1125 70.8862 45.1125 70.1119V57.1241L33.0654 49.534C31.3217 48.434 30.022 46.7541 29.3951 44.79C28.7682 42.826 28.8543 40.7037 29.6384 38.7969L34.759 26.3229H28.2836C27.7417 26.3208 27.21 26.4705 26.7488 26.7551C26.2875 27.0396 25.9152 27.4477 25.6739 27.9329L21.4497 36.3841C21.0966 37.0644 20.4901 37.5787 19.7612 37.8158C19.0323 38.0529 18.2394 37.994 17.5535 37.6517C16.8677 37.3094 16.3439 36.7112 16.0952 35.9861C15.8465 35.2611 15.8928 34.4673 16.2242 33.7761L20.4512 25.3104C21.1765 23.8554 22.2945 22.6325 23.6786 21.7799C25.0628 20.9273 26.6579 20.4791 28.2836 20.4859H47.6178C49.1275 20.4904 50.6106 20.8829 51.9249 21.6256C53.2392 22.3684 54.3405 23.4365 55.1231 24.7275L60.5086 33.669C60.7693 34.0986 61.136 34.4542 61.5734 34.7016C62.0109 34.949 62.5046 35.08 63.0072 35.0821H71.3854C71.7686 35.0821 72.148 35.1576 72.502 35.3042C72.856 35.4509 73.1776 35.6659 73.4485 35.9369C73.7194 36.2079 73.9342 36.5296 74.0808 36.8836C74.2273 37.2377 74.3026 37.6171 74.3025 38.0003ZM30.1489 52.0551C29.7929 51.9124 29.4123 51.8412 29.0288 51.8458C28.6453 51.8503 28.2665 51.9304 27.914 52.0816C27.5615 52.2327 27.2423 52.4518 26.9746 52.7264C26.7069 53.001 26.4959 53.3257 26.3538 53.6819C26.1392 54.2254 25.7655 54.6914 25.2817 55.019C24.7979 55.3466 24.2264 55.5206 23.6421 55.518H15.9157C15.1414 55.518 14.3989 55.8256 13.8514 56.3731C13.3039 56.9206 12.9963 57.6631 12.9963 58.4374C12.9963 59.2116 13.3039 59.9542 13.8514 60.5016C14.3989 61.0491 15.1414 61.3567 15.9157 61.3567H23.6421C25.3941 61.3624 27.1071 60.8402 28.5581 59.8582C30.009 58.8762 31.1304 57.4799 31.7763 55.8512C31.919 55.4953 31.9901 55.1147 31.9856 54.7312C31.981 54.3477 31.9009 53.9689 31.7498 53.6164C31.5987 53.2639 31.3796 52.9446 31.105 52.6769C30.8304 52.4092 30.5056 52.1983 30.1494 52.0562L30.1489 52.0551ZM50.9489 17.5655C52.3924 17.5655 53.8035 17.1374 55.0037 16.3354C56.2039 15.5334 57.1394 14.3936 57.6917 13.0599C58.2441 11.7263 58.3886 10.2588 58.107 8.84306C57.8253 7.4273 57.1302 6.12686 56.1094 5.10619C55.0887 4.08552 53.7882 3.39047 52.3724 3.10892C50.9566 2.82738 49.4891 2.97199 48.1555 3.52447C46.822 4.07695 45.6821 5.01248 44.8803 6.21277C44.0784 7.41305 43.6504 8.82417 43.6505 10.2677C43.6507 12.2032 44.4197 14.0594 45.7884 15.428C47.1571 16.7966 49.0133 17.5655 50.9489 17.5655Z" fill="#E0E9FB"/>
	</svg>
