<svg width="75" height="76" viewBox="0 0 75 76" fill="none" xmlns="http://www.w3.org/2000/svg">
	<path d="M32.8905 34.866C32.2268 34.876 31.5936 35.1503 31.1277 35.6295C30.6618 36.1087 30.4007 36.7543 30.4007 37.427C30.4007 38.0997 30.6618 38.7454 31.1277 39.2246C31.5936 39.7037 32.2268 39.978 32.8905 39.988V34.866ZM55.6368 39.9897C56.3006 39.9797 56.9338 39.7055 57.3996 39.2263C57.8655 38.7471 58.1267 38.1014 58.1267 37.4287C58.1267 36.756 57.8655 36.1104 57.3996 35.6312C56.9338 35.152 56.3006 34.8777 55.6368 34.8677V39.9897ZM35.4198 14.3777C35.4099 13.7051 35.1393 13.0635 34.6664 12.5914C34.1935 12.1193 33.5563 11.8547 32.8925 11.8547C32.2287 11.8547 31.5915 12.1193 31.1186 12.5914C30.6457 13.0635 30.3751 13.7051 30.3652 14.3777H35.4198ZM30.3635 60.4763C30.3585 60.8158 30.4201 61.153 30.5449 61.4681C30.6697 61.7833 30.855 62.0702 31.0902 62.3121C31.3254 62.554 31.6057 62.7461 31.9148 62.8772C32.2239 63.0083 32.5557 63.0759 32.8908 63.0759C33.2259 63.0759 33.5577 63.0083 33.8668 62.8772C34.1759 62.7461 34.4562 62.554 34.6914 62.3121C34.9266 62.0702 35.1119 61.7833 35.2367 61.4681C35.3615 61.153 35.4231 60.8158 35.4181 60.4763H30.3635ZM32.8905 39.9897H55.6368V34.866H32.8905V39.9897ZM30.3635 14.3777V60.4763H35.4198V14.3777H30.3635ZM22.2759 16.9385H43.5052V11.8164H22.2759V16.9385ZM53.1092 26.6706V48.1829H58.1639V26.6706H53.1092ZM43.5052 57.915H22.2759V63.037H43.5052V57.915ZM12.6719 48.1829V26.6706H7.61719V48.1829H12.6719ZM22.2759 57.915C20.1109 57.915 18.6396 57.915 17.5021 57.8184C16.789 57.8031 16.0858 57.6462 15.4324 57.3566L13.1371 61.9204C14.3761 62.5175 15.72 62.8586 17.0904 62.9239C18.4816 63.0382 20.1921 63.0382 22.2787 63.0382L22.2759 57.915ZM7.61719 48.1829C7.61719 50.2922 7.61719 52.0283 7.72998 53.4404C7.79448 54.8291 8.13112 56.1909 8.72027 57.4464L13.2228 55.1182C12.9369 54.4561 12.7819 53.7435 12.7666 53.0209C12.6735 51.8683 12.6719 50.3767 12.6719 48.1829H7.61719ZM15.4324 57.3566C14.4813 56.8656 13.7074 56.082 13.2228 55.1182L8.71914 57.4435C9.68839 59.3711 11.2349 60.9382 13.1371 61.9204L15.4324 57.3566ZM53.1092 48.1829C53.1092 50.3767 53.1092 51.8677 53.0139 53.0209C52.9988 53.7435 52.844 54.456 52.5582 55.1182L57.0619 57.4435C57.6511 56.188 57.9877 54.8262 58.0522 53.4375C58.165 52.0277 58.165 50.2944 58.165 48.18L53.1092 48.1829ZM43.5052 63.037C45.5867 63.037 47.3 63.037 48.6935 62.9227C50.0639 62.8574 51.4078 62.5163 52.6468 61.9192L50.3492 57.3566C49.6958 57.6462 48.9926 57.8031 48.2795 57.8184C47.1421 57.9127 45.6702 57.915 43.5052 57.915V63.037ZM52.5582 55.1182C52.0737 56.082 51.3004 56.8656 50.3492 57.3566L52.6439 61.9204C54.5461 60.9382 56.0927 59.3711 57.0619 57.4435L52.5582 55.1182ZM43.5052 16.9385C45.6702 16.9385 47.1415 16.9385 48.2795 17.0345C48.9926 17.05 49.6958 17.2071 50.3492 17.4968L52.6439 12.9331C51.405 12.3365 50.0614 11.9958 48.6912 11.9307C47.3 11.8164 45.5895 11.8164 43.5029 11.8164L43.5052 16.9385ZM58.1639 26.6706C58.1639 24.5613 58.1639 22.8252 58.0511 21.4131C57.9866 20.0244 57.65 18.6626 57.0608 17.4071L52.5582 19.7352C52.844 20.3974 52.9988 21.11 53.0139 21.8325C53.1069 22.9852 53.1092 24.4773 53.1092 26.6706H58.1639ZM50.3492 17.4968C51.3004 17.9878 52.0736 18.7714 52.5582 19.7352L57.0619 17.4099C56.0927 15.4824 54.5461 13.9152 52.6439 12.9331L50.3492 17.4968ZM22.2759 11.8164C20.1932 11.8164 18.4811 11.8164 17.0915 11.9307C15.7211 11.996 14.3772 12.3371 13.1382 12.9342L15.4318 17.4968C16.0853 17.2071 16.7884 17.05 17.5015 17.0345C18.639 16.9402 20.1115 16.9385 22.2759 16.9385V11.8164ZM12.6719 26.6706C12.6719 24.4767 12.6719 22.9857 12.7666 21.8331C12.7819 21.1105 12.9369 20.3974 13.2228 19.7352L8.71914 17.4099C8.13019 18.6659 7.79394 20.0281 7.72998 21.4171C7.61719 22.8269 7.61719 24.5601 7.61719 26.6746L12.6719 26.6706ZM13.1371 12.9331C11.2349 13.9152 9.68836 15.4824 8.71914 17.4099L13.2228 19.7352C13.7074 18.7714 14.4807 17.9878 15.4318 17.4968L13.1371 12.9331Z" fill="#DFE3EC"/>
	<path opacity="0.8" d="M46.7101 71.8437H52.4668C56.2816 71.839 59.9387 70.3013 62.636 67.5678C65.3333 64.8343 66.8505 61.1283 66.8549 57.2627V34.8801C66.8549 34.1071 66.5518 33.3658 66.0125 32.8192C65.4731 32.2726 64.7415 31.9656 63.9787 31.9656C63.2159 31.9656 62.4844 32.2726 61.945 32.8192C61.4056 33.3658 61.1026 34.1071 61.1026 34.8801V57.2627C61.1027 58.4119 60.8794 59.5498 60.4455 60.6115C60.0115 61.6731 59.3754 62.6378 58.5735 63.4503C57.7715 64.2627 56.8194 64.9072 55.7716 65.3467C54.7239 65.7862 53.6009 66.0123 52.4668 66.0119H46.7101C45.9469 66.0119 45.215 66.3191 44.6753 66.8659C44.1357 67.4128 43.8325 68.1545 43.8325 68.9278C43.8325 69.7011 44.1357 70.4428 44.6753 70.9897C45.215 71.5365 45.9469 71.8437 46.7101 71.8437Z" fill="#DFE3EC"/>
	<path opacity="0.7" d="M48.5055 4.15625H17.582C16.2536 4.15625 15.1768 5.24747 15.1768 6.59356C15.1768 7.93965 16.2536 9.03087 17.582 9.03087H48.5055C49.8339 9.03087 50.9108 7.93965 50.9108 6.59356C50.9108 5.24747 49.8339 4.15625 48.5055 4.15625Z" fill="#DFE3EC"/>
	</svg>
