<svg class="w-full h-full" width="270" height="195" viewBox="0 0 270 195" fill="none" xmlns="http://www.w3.org/2000/svg">
	<rect x="42" width="208" height="48" rx="3" fill="black" fill-opacity="0.55"/>
	<path d="M62.4492 31V29H64.4492V31H62.4492ZM64.4492 29V27V25H66.4492V27V29H64.4492ZM66.4492 25V23H68.4492V25H66.4492ZM68.4492 23V21V19H70.4492V21V23H68.4492ZM70.4492 19V17H72.4492V19H70.4492ZM83.457 29H85.457V31H83.457H81.457H79.457H77.457V29H79.457H81.457H83.457ZM77.457 29H75.457V27V25V23H77.457V25H79.457H81.457H83.457V23H85.457V25V27H83.457H81.457H79.457H77.457V29ZM83.457 23H81.457H79.457H77.457V21H79.457H81.457H83.457V23ZM92.4648 31V29H94.4648V31H92.4648ZM94.4648 29V27H96.4648V29H94.4648ZM92.4648 29H90.4648V27H92.4648V29ZM96.4648 27V25V23V21H98.4648V23V25V27H96.4648ZM90.4648 27H88.4648V25V23V21H90.4648V23V25V27ZM109.473 29H111.473V31H109.473H107.473H105.473H103.473V29H105.473H107.473H109.473ZM103.473 29H101.473V27V25V23H103.473V25H105.473H107.473H109.473V23H111.473V25V27H109.473H107.473H105.473H103.473V29ZM109.473 23H107.473H105.473H103.473V21H105.473H107.473H109.473V23ZM114.48 31V29V27V25V23V21H116.48V23H118.48V25H116.48V27V29V31H114.48ZM122.48 25V23H124.48V25H122.48ZM122.48 23H120.48H118.48V21H120.48H122.48V23ZM133.488 31H135.488V33H133.488H131.488H129.488H127.488V31H129.488H131.488H133.488ZM135.488 31V29H133.488H131.488H129.488V27H127.488V25V23H129.488V21H131.488H133.488H135.488H137.488V23V25V27V29V31H135.488ZM133.488 27H135.488V25V23H133.488H131.488H129.488V25V27H131.488H133.488ZM140.496 31V29V27V25V23V21H142.496V23H144.496V25H142.496V27V29V31H140.496ZM148.496 25V23H150.496V25H148.496ZM148.496 23H146.496H144.496V21H146.496H148.496V23ZM161.504 29H163.504V31H161.504H159.504H157.504H155.504V29H157.504H159.504H161.504ZM155.504 29H153.504V27V25V23H155.504V25H157.504H159.504H161.504V23H163.504V25V27H161.504H159.504H157.504H155.504V29ZM161.504 23H159.504H157.504H155.504V21H157.504H159.504H161.504V23ZM174.512 29H176.512V31H174.512H172.512H170.512H168.512V29H170.512H172.512H174.512ZM168.512 29H166.512V27V25V23H168.512V25H170.512H172.512H174.512V23H176.512V25V27H174.512H172.512H170.512H168.512V29ZM174.512 23H172.512H170.512H168.512V21H170.512H172.512H174.512V23ZM187.52 31V29V27V25V23H189.52V25V27V29V31H187.52ZM179.52 31V29V27V25V23V21H181.52H183.52H185.52H187.52V23H185.52H183.52H181.52V25V27V29V31H179.52ZM200.527 31V29V27V25V23H202.527V25V27V29V31H200.527ZM192.527 31V29V27V25V23V21V19V17H194.527V19V21V23H196.527V25H194.527V27V29V31H192.527ZM200.527 23H198.527H196.527V21H198.527H200.527V23ZM213.535 31H211.535H209.535H207.535V29H209.535H211.535H213.535V27V25V23V21H215.535V23V25V27V29V31H213.535ZM207.535 29H205.535V27V25V23V21H207.535V23V25V27V29ZM226.543 31H224.543H222.543H220.543V29H222.543H224.543H226.543V27V25H224.543V23H226.543V21V19V17H228.543V19V21V23V25V27V29V31H226.543ZM220.543 29H218.543V27V25V23H220.543V25V27V29ZM224.543 23H222.543H220.543V21H222.543H224.543V23Z" fill="white"/>
	<rect x="217" y="74" width="53" height="48" rx="3" fill="black" fill-opacity="0.55"/>
	<path d="M232.996 103H234.996V105H232.996H230.996H228.996V103V101V99V97V95V93V91H230.996H232.996H234.996V93H232.996H230.996V95V97V99V101V103H232.996ZM245.996 105V103V101V99H247.996V101V103V105H245.996ZM237.996 105V103V101V99V97V95V93V91H239.996V93V95H241.996H243.996V97H245.996V99H243.996V97H241.996H239.996V99V101V103V105H237.996ZM243.996 95V93H245.996V95H243.996ZM245.996 93V91H247.996V93H245.996ZM255.004 105H253.004H251.004V103H253.004H255.004V101V99V97V95V93H253.004H251.004V91H253.004H255.004H257.004V93V95V97V99V101V103V105H255.004Z" fill="white"/>
	<rect x="145" y="148" width="73" height="47" rx="3" fill="black" fill-opacity="0.55"/>
	<path d="M164.484 179V177V175V173V171V169H162.484V171H160.484V169H162.484V167H164.484V165H166.484V167V169V171V173V175V177V179H164.484ZM156.484 179V177V175V173V171V169V167V165H158.484V167H160.484V169H158.484V171V173V175V177V179H156.484ZM175.492 177H177.492V179H175.492H173.492H171.492V177H173.492H175.492ZM177.492 177V175V173V171H179.492V173V175V177H177.492ZM171.492 177H169.492V175V173V171H171.492V173V175V177ZM177.492 171H175.492H173.492H171.492V169H173.492H175.492H177.492V171ZM190.5 179H188.5H186.5H184.5V177H186.5H188.5H190.5V175V173H188.5V171H190.5V169V167V165H192.5V167V169V171V173V175V177V179H190.5ZM184.5 177H182.5V175V173V171H184.5V173V175V177ZM188.5 171H186.5H184.5V169H186.5H188.5V171ZM201.508 177H203.508V179H201.508H199.508H197.508H195.508V177H197.508H199.508H201.508ZM203.508 177V175H205.508V177H203.508ZM203.508 175H201.508H199.508H197.508V173H199.508H201.508H203.508V175ZM197.508 173H195.508V171H197.508V173ZM203.508 169H205.508V171H203.508H201.508H199.508H197.508V169H199.508H201.508H203.508Z" fill="white"/>
	<rect y="81" width="141" height="48" rx="3" fill="black" fill-opacity="0.55"/>
	<path d="M20.9805 112V110H22.9805V112H20.9805ZM22.9805 110V108V106H24.9805V108V110H22.9805ZM24.9805 106V104H26.9805V106H24.9805ZM26.9805 104V102V100H28.9805V102V104H26.9805ZM28.9805 100V98H30.9805V100H28.9805ZM41.9883 106V104H43.9883V106H41.9883ZM39.9883 110H41.9883V112H39.9883H37.9883H35.9883V110H37.9883H39.9883ZM41.9883 110V108H43.9883V110H41.9883ZM35.9883 110H33.9883V108V106V104H35.9883V106V108V110ZM41.9883 104H39.9883H37.9883H35.9883V102H37.9883H39.9883H41.9883V104ZM54.9961 112V110V108V106V104H56.9961V106V108V110V112H54.9961ZM46.9961 112V110V108V106V104V102V100V98H48.9961V100V102V104H50.9961V106H48.9961V108V110V112H46.9961ZM54.9961 104H52.9961H50.9961V102H52.9961H54.9961V104ZM68.0039 112H66.0039H64.0039H62.0039V110H60.0039V108H62.0039V106H64.0039H66.0039H68.0039V104H70.0039V106V108V110V112H68.0039ZM66.0039 110H68.0039V108H66.0039H64.0039H62.0039V110H64.0039H66.0039ZM68.0039 104H66.0039H64.0039H62.0039V102H64.0039H66.0039H68.0039V104ZM77.0117 112V110H79.0117V112H77.0117ZM77.0117 110H75.0117V108V106V104H73.0117V102H75.0117V100V98H77.0117V100V102H79.0117V104H77.0117V106V108V110ZM86.0117 112V110H88.0117V112H86.0117ZM86.0117 110H84.0117V108V106V104H82.0117V102H84.0117V100V98H86.0117V100V102H88.0117V104H86.0117V106V108V110ZM91.0117 112V110V108V106V104V102H93.0117V104V106V108V110V112H91.0117ZM91.0117 100V98H93.0117V100H91.0117ZM104.004 112V110V108V106V104H106.004V106V108V110V112H104.004ZM96.0039 112V110V108V106V104V102H98.0039H100.004H102.004H104.004V104H102.004H100.004H98.0039V106V108V110V112H96.0039ZM115.012 112H117.012V114H115.012H113.012H111.012H109.012V112H111.012H113.012H115.012ZM117.012 112V110H115.012H113.012H111.012V108H109.012V106V104H111.012V102H113.012H115.012H117.012H119.012V104V106V108V110V112H117.012ZM115.012 108H117.012V106V104H115.012H113.012H111.012V106V108H113.012H115.012Z" fill="white"/>
</svg>
