<svg width="393" height="45" viewBox="0 0 393 45" fill="none" xmlns="http://www.w3.org/2000/svg">
	<path d="M46.4837 17.8498C46.5742 17.9853 46.6415 18.1441 46.709 18.3023C47.9535 20.8856 47.885 24.6239 46.4837 27.162L42.1401 34.6845C40.8516 32.7129 39.2005 30.9684 37.2105 29.5184C38.0928 27.5243 38.5679 25.2131 38.4993 22.5169C38.7709 2.07934 8.82581 2.07934 9.09748 22.5169C9.03011 25.1683 9.48179 27.4788 10.342 29.4504C8.35095 30.8776 6.69995 32.6449 5.43328 34.639C3.87285 31.9877 0.706735 26.5047 0.706735 26.3012C-0.242993 23.99 -0.242993 20.8402 0.752013 18.5517C0.864654 18.3028 0.978402 18.0533 1.11423 17.8498L8.41942 5.1384C8.43486 5.12236 8.45144 5.09526 8.46691 5.07257L8.48676 5.04767C9.97982 2.5324 13.5534 0.493408 16.4711 0.493408H31.1036C34.4287 0.493408 37.5044 2.26081 39.1552 5.1384C39.1675 5.16218 41.1983 8.68369 43.1186 12.0132L46.4837 17.8498Z" fill="#5187F1"/>
	<path d="M92.3733 1.39941V43.6109H85.3849L65.7532 18.3475V43.6109H56.3223V1.39941H62.9493L82.8749 26.9803V1.39941H92.3733Z" fill="#5187F1"/>
	<path d="M135.209 35.4772V43.6109H104.834V1.39941H134.847V9.53327H114.265V18.0754H133.06V26.029H114.265V35.4772H135.209Z" fill="#5187F1"/>
	<path d="M391.728 21.0679V19.6634H369.586V27.6159L381.618 27.7972C381.391 28.6579 381.098 29.4512 380.713 30.1764C380.232 31.0843 379.659 31.8864 378.981 32.5784C378.649 32.9175 378.293 33.2299 377.911 33.5148C377.537 33.7958 377.137 34.0503 376.71 34.2777C375.797 34.7656 374.787 35.1285 373.686 35.3629C373.079 35.4924 372.44 35.5832 371.776 35.634C371.352 35.6661 370.915 35.6821 370.468 35.6821C368.048 35.6821 365.9 35.1157 364.024 33.9828C362.166 32.85 360.675 31.2868 359.613 29.2932C358.548 27.2988 358.006 25.0104 358.006 22.4049C358.006 19.7763 358.548 17.4651 359.636 15.4941C360.722 13.5226 362.258 11.982 364.202 10.8945C366.148 9.80698 368.364 9.26321 370.829 9.26321C373.092 9.26321 375.151 9.71627 377.003 10.6224C378.858 11.5063 380.441 12.8434 381.754 14.5875L388.201 8.13031C386.254 5.81917 383.79 3.98374 380.805 2.64672C377.817 1.31025 374.515 0.653076 370.899 0.653076C367.755 0.653076 364.837 1.21952 362.101 2.32976C359.385 3.43997 356.965 4.98054 354.909 6.95207C352.826 8.9457 351.222 11.2342 350.066 13.8402C348.915 16.4683 348.35 19.3232 348.35 22.4271C348.35 25.5087 348.915 28.3639 350.045 30.9924C351.175 33.6205 352.737 35.9317 354.725 37.9253C356.716 39.9194 359.048 41.4827 361.737 42.6158C364.429 43.7486 367.325 44.315 370.423 44.315C374.607 44.315 378.293 43.431 381.506 41.6642C384.692 39.8969 387.204 37.2681 389.014 33.8015C390.822 30.3352 391.728 26.0979 391.728 21.0679Z" fill="#1878F1"/>
	<path fill-rule="evenodd" clip-rule="evenodd" d="M225.043 6.92943C227.079 8.90093 228.639 11.2115 229.724 13.8629C230.81 16.5137 231.353 19.3913 231.399 22.5179C231.399 25.5995 230.833 28.4544 229.724 31.1052C228.617 33.7566 227.056 36.0673 225.065 38.0386C223.075 40.0103 220.746 41.5507 218.077 42.6611C215.408 43.7712 212.514 44.3379 209.37 44.3379C206.181 44.3379 203.24 43.7712 200.527 42.6611C197.813 41.5507 195.46 39.987 193.425 37.9934C191.39 35.9998 189.806 33.6886 188.699 31.0372C187.568 28.3864 187.024 25.5088 187.024 22.4504C187.024 19.346 187.59 16.4683 188.699 13.8402C189.829 11.2116 191.367 8.90093 193.357 6.92943C195.348 4.95791 197.677 3.41734 200.391 2.32981C203.105 1.24226 206.045 0.698486 209.234 0.698486C212.355 0.698486 215.273 1.24226 217.965 2.32981C220.656 3.41734 223.008 4.95791 225.043 6.92943ZM215.793 34.0509C217.67 32.9181 219.118 31.3773 220.181 29.3832C221.221 27.3896 221.763 25.0785 221.787 22.4725C221.787 20.5242 221.47 18.7341 220.882 17.1255C220.272 15.4942 219.411 14.1118 218.304 12.9336C217.173 11.7553 215.839 10.8719 214.3 10.2374C212.762 9.62559 211.066 9.30863 209.234 9.30863C206.723 9.30863 204.53 9.85239 202.63 10.9399C200.73 12.0275 199.282 13.5681 198.242 15.5396C197.202 17.5332 196.682 19.8217 196.682 22.4504C196.682 24.444 196.999 26.2568 197.586 27.888C198.197 29.5192 199.056 30.9245 200.165 32.102C201.272 33.2804 202.584 34.187 204.123 34.7989C205.661 35.4106 207.357 35.7277 209.234 35.7277C211.745 35.7277 213.916 35.1613 215.793 34.0509Z" fill="#1878F1"/>
	<path d="M174.359 42.6839C176.982 41.6191 179.29 40.1464 181.28 38.2203L174.879 31.8533C173.77 33.0769 172.414 34.0282 170.83 34.6854C169.247 35.3426 167.37 35.6822 165.221 35.6822C163.389 35.6822 161.716 35.3654 160.2 34.7535C158.685 34.1418 157.373 33.2357 156.265 32.0574C156.111 31.8926 155.961 31.7233 155.815 31.5496C155.469 31.137 155.152 30.6993 154.864 30.238C154.406 29.5062 154.02 28.714 153.71 27.8653C153.099 26.2568 152.804 24.4441 152.804 22.4504C152.804 20.547 153.099 18.7569 153.71 17.1256C154.297 15.4716 155.157 14.0892 156.265 12.9336C156.825 12.35 157.437 11.8356 158.101 11.3903C158.75 10.9544 159.45 10.5854 160.2 10.2828C161.716 9.67103 163.389 9.35407 165.221 9.35407C167.28 9.35407 169.112 9.69371 170.672 10.3736C172.255 11.0534 173.59 11.9822 174.653 13.1831L180.963 6.79341C179.018 4.93588 176.733 3.4401 174.132 2.37522C171.532 1.31037 168.545 0.766602 165.221 0.766602C162.032 0.766602 159.114 1.31037 156.446 2.3979C153.777 3.48544 151.448 5.02603 149.435 6.97485C147.422 8.92369 145.861 11.2349 144.754 13.8856C143.623 16.5591 143.08 19.3914 143.08 22.4731C143.08 25.5544 143.645 28.4092 144.754 31.0601C145.861 33.6886 147.422 36.0226 149.435 38.0162C151.425 40.0103 153.777 41.5508 156.468 42.6384C159.16 43.726 162.077 44.2699 165.221 44.2699C168.681 44.2699 171.735 43.7487 174.359 42.6839Z" fill="#1878F1"/>
	<path d="M277.085 1.40088V43.6125H270.097L250.464 18.349V43.6125H241.033V1.40088H247.66L267.585 26.9818V1.40088H277.085Z" fill="#1878F1"/>
	<path d="M298.975 18.9154V9.53474H318.856V1.40088H289.546V43.6125H298.975V27.1179H317.907V18.9154H298.975Z" fill="#1878F1"/>
	<path d="M338.669 1.40088H329.238V43.6125H338.669V1.40088Z" fill="#1878F1"/>
	<path d="M30.7885 24.8438C30.6459 25.3959 30.446 25.9048 30.1988 26.3699C27.6432 31.2412 19.8854 31.2187 17.3752 26.3019C17.2217 26.006 17.0859 25.6918 16.971 25.3587C16.7921 24.84 16.6662 24.2768 16.6022 23.6694C16.5635 23.2949 16.5492 22.9039 16.5613 22.4956C16.4255 12.4351 31.1485 12.4351 31.0358 22.4956C31.0611 23.3497 30.9719 24.1324 30.7885 24.8438Z" fill="#1878F1"/>
	<path d="M31.7141 35.6602C26.9423 38.4698 20.6089 38.4698 15.8603 35.6602C13.2817 37.2686 11.4496 39.6706 10.8389 42.4347C12.4678 43.6584 14.4799 44.4511 16.2899 44.4964C16.5505 44.5165 27.7837 44.5014 30.5138 44.4977L31.1035 44.4964H31.4656C33.2292 44.4059 35.1739 43.6131 36.7575 42.4347C36.1249 39.6934 34.2927 37.2686 31.7141 35.6602Z" fill="#1878F1"/>
	</svg>
