<?xml version="1.0" standalone="no"?>
<!DOCTYPE svg PUBLIC "-//W3C//DTD SVG 20010904//EN"
 "http://www.w3.org/TR/2001/REC-SVG-20010904/DTD/svg10.dtd">
<svg version="1.0" xmlns="http://www.w3.org/2000/svg"
 width="700.000000pt" height="700.000000pt" viewBox="0 0 700.000000 700.000000"
 preserveAspectRatio="xMidYMid meet">
<metadata>
Created by potrace 1.14, written by Peter Selinger 2001-2017
</metadata>
<g transform="translate(0.000000,700.000000) scale(0.100000,-0.100000)"
fill="#000000" stroke="none">
<path d="M0 3500 l0 -3500 3500 0 3500 0 0 3500 0 3500 -3500 0 -3500 0 0
-3500z m2748 1773 c14 -11 38 -35 53 -54 32 -41 1002 -1720 1002 -1734 0 -5
-170 -304 -378 -662 l-377 -653 -537 0 c-504 0 -543 1 -617 20 -252 64 -455
253 -540 505 -39 115 -45 286 -15 404 11 46 31 107 44 135 42 89 1137 1980
1165 2010 15 16 41 35 57 42 39 18 110 12 143 -13z m1892 -655 c24 -13 56 -39
71 -58 28 -36 865 -1482 913 -1577 77 -153 76 -345 -3 -501 -65 -128 -176
-229 -310 -281 -66 -25 -68 -26 -401 -28 l-335 -3 -360 626 c-198 344 -368
640 -378 658 l-19 32 303 525 c166 288 313 538 326 556 26 34 95 73 128 73 12
0 41 -10 65 -22z"/>
</g>
</svg>
