<?xml version="1.0" standalone="no"?>
<!DOCTYPE svg PUBLIC "-//W3C//DTD SVG 20010904//EN"
 "http://www.w3.org/TR/2001/REC-SVG-20010904/DTD/svg10.dtd">
<svg version="1.0" xmlns="http://www.w3.org/2000/svg"
 width="700.000000pt" height="700.000000pt" viewBox="0 0 700.000000 700.000000"
 preserveAspectRatio="xMidYMid meet">
<metadata>
Created by potrace 1.14, written by Peter Selinger 2001-2017
</metadata>
<g transform="translate(0.000000,700.000000) scale(0.100000,-0.100000)"
fill="#000000" stroke="none">
<path d="M0 3500 l0 -3500 3500 0 3500 0 0 3500 0 3500 -3500 0 -3500 0 0
-3500z m2751 1776 c19 -13 47 -41 61 -62 15 -22 243 -415 508 -874 265 -459
485 -838 488 -842 4 -4 140 223 302 504 162 282 309 530 325 552 43 56 90 86
137 86 50 0 108 -30 140 -72 34 -45 884 -1517 920 -1594 100 -212 60 -454
-103 -628 -69 -75 -144 -124 -239 -157 -63 -23 -76 -23 -390 -24 l-325 0 -380
658 c-338 586 -381 656 -393 640 -7 -10 -180 -307 -384 -660 l-370 -643 -508
0 c-410 0 -524 3 -595 15 -337 59 -587 330 -628 680 -12 110 8 250 51 354 25
57 1083 1902 1151 2004 57 87 157 114 232 63z"/>
</g>
</svg>
