<svg width="72" height="72" viewBox="0 0 72 72" fill="none" xmlns="http://www.w3.org/2000/svg">
<path d="M70.3573 29.2713C70.4668 29.4694 70.5816 29.6767 70.6705 29.8925C72.5332 33.8023 72.4576 39.4449 70.3235 43.2681L62.5582 56.7093C60.2619 53.2001 57.0453 50.1892 53.179 47.9147C53.2764 47.7633 53.3629 47.6115 53.4386 47.4597C60.2945 33.5858 53.179 15.2605 36.0014 15.531C18.521 15.2387 11.6106 33.8998 18.7699 47.9581C14.9248 50.2327 11.7301 53.2323 9.44449 56.7311C9.39106 56.6172 8.6306 55.3104 7.58772 53.5173C5.05245 49.1586 0.846575 41.9292 1.06183 41.9903C-0.378748 38.5028 -0.357048 33.7371 1.14855 30.2931C1.23897 30.0503 1.35108 29.816 1.46904 29.5906C1.53458 29.4646 1.60229 29.3414 1.6684 29.221L12.737 10.029C12.7534 10.0072 12.7672 9.98229 12.7809 9.95773C12.7947 9.93358 12.8079 9.90983 12.8238 9.88849C15.1089 6.08684 20.5135 3 24.9217 3H47.0594C52.0848 3 56.7313 5.68599 59.2333 10.029C59.2587 10.0612 63.1081 16.7246 66.2643 22.1876C68.4515 25.9738 70.3054 29.1836 70.3235 29.2101L70.3573 29.2713Z" fill="#0048C5"/>
<path d="M25.8187 55.0747C31.6347 58.367 40.4507 58.3561 46.1367 55.053C50.989 57.4572 54.52 61.5514 55.6138 66.3601C53.2201 68.1254 50.274 69.3275 47.6098 69.4576C47.4367 69.4793 47.2418 69.4793 47.0683 69.4793C46.9169 69.4753 43.9049 69.4773 40.1347 69.4797H39.9375C33.4769 69.4837 24.9266 69.489 24.6492 69.4684C21.9197 69.4036 18.8545 68.1903 16.396 66.3601C17.4685 61.5622 20.9886 57.4789 25.8187 55.0747Z" fill="#0A5BE8"/>
<path d="M46.9384 36.2502C47.3172 51.3589 24.6811 51.348 25.0604 36.2502C24.8547 21.0549 47.1333 21.0549 46.9384 36.2502Z" fill="#0A5BE8"/>
</svg>
