<svg width="262" height="45" viewBox="0 0 262 45" fill="none" xmlns="http://www.w3.org/2000/svg">
	<path fill-rule="evenodd" clip-rule="evenodd" d="M34.29 24.9424L20.8264 1.62244C19.5774 -0.540977 17.5335 -0.540977 16.2846 1.62244L1.42064 27.3695C-2.61571 34.3611 2.42947 43.0997 10.5022 43.0997H23.8078L34.2901 24.9433L44.7724 43.0995H52.1236C58.1786 43.0995 61.9623 36.5453 58.9347 31.3019L47.0469 10.7122C45.798 8.54986 43.7551 8.54986 42.5062 10.7122L34.29 24.9424Z" fill="#405DFF"/>
	<path d="M176.685 16.5452H181.425V21.975H176.88V36.5249H169.89V21.975H166.98V16.5452H169.89V16.005C169.89 13.5001 170.61 11.505 172.035 10.02C173.475 8.52002 175.53 7.77002 178.2 7.77002C179.054 7.77002 179.895 7.86011 180.735 8.03992C181.56 8.22009 182.265 8.48999 182.834 8.84998L181.095 13.9799C180.81 13.8 180.48 13.6499 180.105 13.5302C179.744 13.425 179.369 13.365 179.01 13.365C178.274 13.365 177.705 13.5898 177.3 14.0399C176.895 14.475 176.685 15.1649 176.685 16.0801V16.5452Z" fill="#405DFF"/>
	<path d="M197.61 15.4352V21.9753L197.439 21.9515C197.185 21.9156 196.969 21.8853 196.785 21.8853C196.545 21.8702 196.29 21.8552 196.02 21.8552C194.61 21.8552 193.455 22.2603 192.57 23.0703C191.685 23.8654 191.25 25.1852 191.25 26.9851V36.5253H184.26V15.7802H190.92V18.27C191.415 17.5801 192.045 17.0253 192.795 16.5902C194.115 15.8252 195.72 15.4352 197.61 15.4352Z" fill="#405DFF"/>
	<path fill-rule="evenodd" clip-rule="evenodd" d="M210.285 36.8552C208.11 36.8552 206.16 36.3901 204.48 35.4753C202.785 34.5602 201.465 33.285 200.49 31.6653C199.515 30.0452 199.035 28.1852 199.035 26.1003C199.035 24.0151 199.515 22.1552 200.49 20.55C201.465 18.9453 202.785 17.6852 204.48 16.785C206.175 15.8853 208.11 15.4202 210.285 15.4202C212.46 15.4202 214.41 15.8702 216.105 16.785C217.8 17.6852 219.135 18.9453 220.095 20.55C221.055 22.1552 221.535 24.0151 221.535 26.1003C221.535 28.1852 221.055 30.0452 220.095 31.6653C219.135 33.285 217.815 34.5602 216.105 35.4753C214.41 36.4052 212.475 36.8552 210.285 36.8552ZM210.285 31.0801C211.095 31.0801 211.815 30.8853 212.43 30.5103C213.06 30.1202 213.555 29.5651 213.915 28.8C214.275 28.035 214.47 27.1503 214.47 26.1003C214.47 25.05 214.29 24.1653 213.915 23.4453C213.54 22.7103 213.045 22.1552 212.43 21.7802C212.104 21.5864 211.759 21.4407 211.389 21.3451C211.043 21.2557 210.676 21.2103 210.285 21.2103C209.93 21.2103 209.59 21.2506 209.265 21.3301C208.878 21.4253 208.512 21.5762 208.17 21.7802C207.54 22.1552 207.045 22.7103 206.67 23.4453C206.295 24.1653 206.1 25.0651 206.1 26.1003C206.1 27.1353 206.295 28.05 206.67 28.8C207.045 29.55 207.555 30.1202 208.17 30.5103C208.8 30.8853 209.505 31.0801 210.285 31.0801Z" fill="#405DFF"/>
	<path d="M232.02 36.8552C230.325 36.8552 228.675 36.645 227.07 36.24C225.464 35.8353 224.175 35.3252 223.2 34.7103L225.3 29.7302C226.23 30.3151 227.325 30.7802 228.57 31.1251C229.815 31.4701 231.045 31.6353 232.244 31.6353C233.415 31.6353 234.24 31.5151 234.69 31.2452C235.14 30.99 235.365 30.645 235.365 30.2103C235.365 29.8053 235.155 29.505 234.72 29.3102C234.516 29.2186 234.286 29.1373 234.026 29.0674C233.732 28.9879 233.399 28.9231 233.024 28.8751L232.381 28.781L232.367 28.7788L232.34 28.7748C231.832 28.7009 231.294 28.6226 230.73 28.5302C230.293 28.4587 229.852 28.3789 229.408 28.2885C229.011 28.2079 228.612 28.1189 228.209 28.02C227.369 27.8102 226.589 27.4652 225.899 27.0302C225.209 26.5951 224.64 25.9802 224.22 25.2152C223.8 24.4502 223.589 23.4753 223.589 22.3053C223.589 20.9851 223.964 19.8 224.714 18.7651C225.464 17.7302 226.56 16.9202 228 16.3203C229.44 15.7201 231.209 15.4202 233.295 15.4202C233.969 15.4202 234.65 15.4553 235.334 15.5234C236.067 15.5967 236.803 15.708 237.54 15.8552C238.406 16.0284 239.195 16.2628 239.9 16.551C240.354 16.7371 240.773 16.9458 241.155 17.175L239.054 22.1101C238.559 21.8124 238.058 21.5612 237.558 21.3586C237.075 21.1635 236.594 21.0133 236.115 20.91C235.14 20.7002 234.209 20.5801 233.325 20.5801C232.155 20.5801 231.33 20.7152 230.85 21.0001C230.369 21.285 230.13 21.63 230.13 22.035C230.13 22.4401 230.339 22.755 230.76 22.9652C230.84 23.0055 230.925 23.0439 231.015 23.0809C231.397 23.2366 231.866 23.3633 232.425 23.4603C232.98 23.5544 233.572 23.6398 234.201 23.7302L234.72 23.8053C235.2 23.8749 235.69 23.9598 236.181 24.0631C236.534 24.1375 236.888 24.2209 237.24 24.3151C237.602 24.4121 237.953 24.5315 238.291 24.6721C238.735 24.8574 239.157 25.0793 239.55 25.3353C240.255 25.785 240.81 26.3853 241.23 27.1353C241.649 27.8853 241.86 28.8451 241.86 30.0302C241.86 31.3053 241.485 32.4603 240.735 33.4802C239.985 34.5001 238.89 35.3102 237.42 35.925C235.98 36.5553 234.165 36.8552 232.02 36.8552Z" fill="#405DFF"/>
	<path d="M259.365 35.6852C259.124 35.8522 258.859 36.0012 258.571 36.1316C258.16 36.3173 257.701 36.4645 257.19 36.5699C256.89 36.6384 256.586 36.6956 256.278 36.7413C255.707 36.8256 255.119 36.8699 254.505 36.8699C251.97 36.8699 249.975 36.21 248.565 34.8901C247.14 33.585 246.42 31.5898 246.42 28.9352V21.975H243.525V16.5452H246.42V11.145H253.41V16.5452H257.97V21.975H253.41V28.8601C253.41 29.6101 253.605 30.1799 253.995 30.6C254.385 31.02 254.895 31.2449 255.51 31.2449C256.335 31.2449 257.055 31.02 257.64 30.585L259.365 35.6852Z" fill="#405DFF"/>
	<path d="M131.835 8.11499V36.5099H138.825V8.11499H131.835Z" fill="#405DFF"/>
	<path fill-rule="evenodd" clip-rule="evenodd" d="M102.795 14.3402C101.865 12.8402 100.545 11.7002 98.8499 10.9202C97.1396 10.1251 95.1152 9.72009 92.7598 9.72009H81V36.5253H88.2751V29.52H92.7598C95.1152 29.52 97.1396 29.115 98.8499 28.3049C100.545 27.5103 101.865 26.3702 102.795 24.8853C103.725 23.4003 104.19 21.66 104.19 19.6353C104.19 17.5951 103.725 15.8252 102.795 14.3402ZM95.7151 22.5151C94.9797 23.2051 93.8401 23.55 92.3247 23.55H88.2751V15.6901H92.3247C93.8401 15.6901 94.9797 16.05 95.7151 16.725C96.4651 17.4149 96.8401 18.3901 96.8401 19.6353C96.8401 20.865 96.4651 21.8252 95.7151 22.5151Z" fill="#405DFF"/>
	<path fill-rule="evenodd" clip-rule="evenodd" d="M111.554 35.4753C113.235 36.3901 115.184 36.8552 117.36 36.8552C119.535 36.8552 121.485 36.4052 123.179 35.4753C124.89 34.5602 126.209 33.285 127.17 31.6653C128.13 30.0452 128.61 28.1852 128.61 26.1003C128.61 24.0151 128.13 22.1552 127.17 20.55C126.209 18.9453 124.874 17.6852 123.179 16.785C121.485 15.8702 119.535 15.4202 117.36 15.4202C115.184 15.4202 113.249 15.8853 111.554 16.785C109.86 17.6852 108.54 18.9453 107.565 20.55C106.589 22.1552 106.11 24.0151 106.11 26.1003C106.11 28.1852 106.589 30.0452 107.565 31.6653C108.54 33.285 109.86 34.5602 111.554 35.4753ZM119.505 30.5103C118.89 30.8853 118.17 31.0801 117.36 31.0801C116.565 31.0801 115.86 30.8853 115.244 30.5103C114.63 30.1202 114.119 29.55 113.744 28.8C113.52 28.3503 113.359 27.8413 113.267 27.2825C113.205 26.9097 113.175 26.5145 113.175 26.1003C113.175 25.0651 113.369 24.1653 113.744 23.4453C113.955 23.0333 114.202 22.6781 114.49 22.3793C114.587 22.2782 114.69 22.1833 114.797 22.0951C114.938 21.979 115.087 21.8739 115.244 21.7802C115.874 21.4052 116.58 21.2103 117.36 21.2103C117.709 21.2103 118.039 21.2466 118.351 21.318C118.764 21.4121 119.146 21.567 119.505 21.7802C119.613 21.8461 119.717 21.9175 119.818 21.9944C120.087 22.2009 120.33 22.4474 120.546 22.7334C120.622 22.8326 120.694 22.9366 120.762 23.0458C120.842 23.1725 120.918 23.3054 120.99 23.4453C121.192 23.8342 121.338 24.2711 121.429 24.7563C121.507 25.1694 121.545 25.6173 121.545 26.1003C121.545 27.1503 121.35 28.035 120.99 28.8C120.855 29.0846 120.703 29.3402 120.532 29.5687C120.367 29.7888 120.185 29.9844 119.986 30.1572C119.835 30.2876 119.675 30.4048 119.505 30.5103Z" fill="#405DFF"/>
	<path d="M165.075 15.7802L156.465 37.365C156.135 38.2369 155.777 39.0155 155.392 39.7014C154.989 40.4196 154.556 41.0359 154.095 41.55C153.21 42.5553 152.205 43.2753 151.125 43.6803C150.03 44.0853 148.815 44.2952 147.495 44.2952C146.445 44.2952 145.38 44.115 144.315 43.77C143.25 43.425 142.395 42.975 141.735 42.4202L144.15 37.3203C144.57 37.7103 145.05 38.0103 145.605 38.2201C145.915 38.3461 146.221 38.4343 146.525 38.4874C146.764 38.5295 147.002 38.55 147.24 38.55C148.005 38.55 148.605 38.3702 149.04 38.0103C149.198 37.8846 149.348 37.7334 149.487 37.5569C149.665 37.3324 149.827 37.0676 149.97 36.7651L141.435 15.7802H148.605L153.495 28.4551L158.415 15.7802H165.075Z" fill="#405DFF"/>
</svg>
